<?xml version="1.0" standalone="no"?>
<!DOCTYPE svg PUBLIC "-//W3C//DTD SVG 1.1//EN" "http://www.w3.org/Graphics/SVG/1.1/DTD/svg11.dtd">
<svg xmlns="http://www.w3.org/2000/svg">
<defs >
<font id="Texturina" horiz-adv-x="537" ><font-face
    font-family="Texturina Medium 12pt ExtraLight"
    units-per-em="1000"
    panose-1="0 0 0 0 0 0 0 0 0 0"
    ascent="1260"
    descent="-300"
    alphabetic="0" />
<glyph unicode=" " horiz-adv-x="200" />
<glyph unicode="!" horiz-adv-x="221" d="M78 212Q86 271 97 339T120 479T145 618T170 743Q184 752 209 759T261 766L124 230Q117 224 106 219T78 212ZM61 0Q54 0 45 8T27 27T13 50T9 70Q11 78 21 87T44 106T70 120T91 126Q98 126 106 118T122 98T135 73T138 52Q137
46 128 38T107 21T82 6T61 0Z" />
<glyph unicode="&quot;" horiz-adv-x="313" d="M127 436Q118 436 110 437T99 440L131 693Q139 697 152 700T170 704Q179 704 186 695T197 673T202 653Q202 646 194 620T175 559T151 491T127 436ZM275 436Q266 436 258 437T247 440L279 693Q287 697 300 700T318
704Q327 704 334 695T345 673T350 653Q350 646 342 620T323 559T299 491T275 436Z" />
<glyph unicode="#" horiz-adv-x="633" d="M128 -14Q108 -14 95 -9T76 0L137 157H20Q20 177 23 188T31 201H152L223 389H82Q82 410 85 420T93 433H239Q249 459 260 489T281 548T298 594Q316 594 328 585T348 566L295 433L458 436Q469 467 483 506T508 589Q531 589
545 581T565 564L515 438Q569 440 596 442T633 445Q633 423 630 411T622 389H498L428 206Q494 208 523 210T561 213Q561 191 558 178T549 157H411L346 -14Q328 -14 315 -9T294 0L354 157H193L128 -14ZM209 201L371 204L441 389H280L209 201Z" />
<glyph unicode="$" horiz-adv-x="528" d="M187 -9Q166 -7 134 1T71 20T26 44Q31 66 39 91T57 140T74 179Q80 181 90 184T112 187L106 76Q124 68 149 61T199 50L242 261Q213 271 179 283T120 308T94 334Q96 360 102 391T120 452T148 503Q162 515 188 527T246 550T305
568L323 657Q332 665 350 672T391 680Q389 671 384 657T373 623T359 571Q386 569 413 561T463 542T500 520Q496 501 487 477T468 430T451 394Q438 394 429 397T417 405V496Q400 503 381 507T346 513L304 313Q340 301 375 289T432 263T457 238Q456 211 449 178T430
112T406 57Q394 47 369 33T310 8T239 -7L220 -105Q213 -108 199 -111T166 -115L187 -9ZM251 48Q273 50 297 54T341 64Q361 90 370 131T379 211Q376 214 359 221T323 236T291 245L251 48ZM294 515Q277 514 256 511T213 502Q201 486 191 462T176 411T171 364Q176
358 200 349T256 328L294 515Z" />
<glyph unicode="%" horiz-adv-x="964" d="M215 286Q180 286 154 298T110 324T88 344Q86 351 85 360T84 380Q84 407 89 444T103 522T122 596T144 648Q157 658 185 672T250 697T320 709Q340 709 365 701T412 680T440 659Q442 655 442 648T443 630Q443 603 437 565T421
487T400 410T378 350Q367 339 341 324T282 297T215 286ZM240 333Q247 333 263 336T297 345T323 356Q332 378 341 411T358 482T370 555T375 615Q375 621 375 624T374 629Q367 639 350 646T314 657T286 661Q279 661 262 658T227 652T200 645Q192 631 183 598T167
523T154 446T149 388Q149 383 149 380T151 374Q159 362 177 353T213 338T240 333ZM363 -93Q350 -93 335 -88T310 -76L533 513Q557 575 573 622T599 701T615 752Q636 750 650 741T672 723L363 -93ZM698 -4Q663 -4 637 8T593 34T571 54Q569 61 568 70T567 90Q567
117 572 154T586 232T605 306T627 358Q640 368 668 382T733 407T803 419Q823 419 848 411T895 390T923 369Q925 365 925 358T926 340Q926 313 920 275T904 197T883 120T861 60Q850 49 824 34T765 7T698 -4ZM723 43Q730 43 746 46T780 55T806 66Q815 88 824 121T841
192T853 265T858 325Q858 331 858 334T857 339Q850 349 833 356T797 367T769 371Q762 371 745 368T710 362T683 355Q675 341 666 308T650 233T637 156T632 98Q632 93 632 90T634 84Q642 72 660 63T696 48T723 43Z" />
<glyph unicode="&amp;" horiz-adv-x="755" d="M238 0Q210 0 181 17T124 61T75 118T41 174T28 217Q28 232 44 252T86 293T141 336T198 374T243 401Q221 461 206 517T186 627Q197 638 224 653T286 684T356 710T420 720Q446 720 476 711T535 688T582 658Q572 608
561 562T540 490Q533 490 526 491T512 494T503 499L500 629Q465 646 432 651T359 654T264 637Q265 589 281 531T324 410T387 290T464 185Q475 222 480 258T488 329T492 395L501 408H527Q571 408 617 412T698 421L706 413Q701 392 696 380T685 359H561Q556 327 547
288T525 211T500 145Q536 104 568 80T636 56Q644 56 654 56T685 60Q688 58 689 52T688 39Q684 36 665 27T622 9T580 0Q553 0 518 24T445 92Q404 66 361 45T284 12T238 0ZM263 61Q272 61 297 70T352 95T411 128Q370 176 330 237T260 366Q237 347 212 327T165 289T128
256T114 236Q114 227 123 207T149 162T184 114T224 76T263 61Z" />
<glyph unicode="&apos;" horiz-adv-x="165" d="M127 436Q118 436 110 437T99 440L131 693Q139 697 152 700T170 704Q179 704 186 695T197 673T202 653Q202 646 194 620T175 559T151 491T127 436Z" />
<glyph unicode="(" horiz-adv-x="307" d="M153 -200Q103 -127 78 -37T52 159Q52 250 71 339T128 510T218 666T336 800Q345 800 354 792T368 774Q311 717 265 646T186 493T135 323T117 144Q117 52 135 -30T186 -178Q179 -186 169 -192T153 -200Z" />
<glyph unicode=")" horiz-adv-x="307" d="M-10 -200Q-19 -200 -28 -192T-42 -174Q16 -117 62 -46T141 107T192 277T210 456Q210 548 192 631T140 778Q147 786 157 792T174 800Q223 727 248 637T274 441Q274 350 255 261T198 90T109 -66T-10 -200Z" />
<glyph unicode="*" horiz-adv-x="502" d="M191 307Q180 309 169 315T150 329T143 342Q143 347 158 369T201 422T267 485V487L78 504Q81 520 86 534T99 557T115 567Q124 567 148 563T204 550T271 523L272 525L268 701Q277 706 289 708T310 710Q324 710 329 707T335
691Q335 681 333 660T326 614T317 569T309 537H311L492 633Q501 625 504 612T508 589Q508 586 508 583T506 578Q502 574 477 560T414 532T328 509V507L448 387Q443 377 433 368T411 352T395 346Q385 346 371 363T343 403T319 447T305 477L302 476L191 307Z" />
<glyph unicode="+" horiz-adv-x="488" d="M179 57L261 477Q265 482 279 486T319 490L236 67Q231 64 216 61T179 57ZM51 253Q55 275 61 284T71 296Q126 296 189 297T318 302T440 308L447 299Q442 283 437 271T427 253H51Z" />
<glyph unicode="," horiz-adv-x="193" d="M5 -119Q-4 -119 -14 -115T-30 -103T-37 -91Q-25 -85 -8 -69T24 -32T47 3Q37 7 28 18T12 41T5 63Q5 71 12 79T31 96T54 109T72 115Q80 115 90 104T109 79T117 55Q117 45 109 25T86 -20T57 -67T28 -104T5 -119Z" />
<glyph unicode="-" horiz-adv-x="336" d="M38 270Q38 286 44 300T55 318Q101 318 149 319T237 324T300 331L315 315Q315 303 310 291T299 270H38Z" />
<glyph unicode="." horiz-adv-x="215" d="M58 0Q51 0 42 8T24 27T10 50T7 70Q9 78 18 87T41 106T67 120T88 126Q95 126 103 118T120 98T132 73T135 52Q134 46 125 38T104 21T79 6T58 0Z" />
<glyph unicode="/" horiz-adv-x="384" d="M40 -88Q24 -88 11 -84T-9 -76L266 513Q295 574 314 617T347 692T370 747Q391 745 404 737T422 723L40 -88Z" />
<glyph unicode="0" horiz-adv-x="561" d="M223 0Q196 0 172 9T127 33T94 60T76 79Q72 92 70 108T67 145Q67 181 74 224T92 313T118 398T148 465Q163 478 187 494T242 525T306 549T372 559Q391 559 411 551T450 531T485 505T507 481Q509 473 510 463T512 439Q512
403 505 358T485 265T458 177T428 106Q410 87 377 62T303 19T223 0ZM267 66Q294 66 318 75T364 100Q376 118 387 149T407 218T424 296T436 370T440 427Q440 434 440 438T439 443Q420 467 387 480T313 494Q283 494 256 486T208 466Q195 446 182 407T160 321T144
230T138 158Q138 145 139 137T142 124Q161 96 194 81T267 66Z" />
<glyph unicode="1" horiz-adv-x="386" d="M201 0Q193 0 176 1T137 6T93 12T52 19T23 26Q25 32 28 37T36 47L65 50Q101 54 117 69T142 125L200 394Q207 422 214 444T225 473L222 475L101 457Q104 469 109 479T118 494Q164 508 207 526T290 565Q298 563 303 559T311
551Q304 530 290 489T266 403L202 108Q198 90 192 75T179 52L278 46Q280 44 282 39T284 26Q273 19 257 13T226 4T201 0Z" />
<glyph unicode="2" horiz-adv-x="545" d="M32 0Q26 0 19 7T5 25T0 43Q28 58 74 92T172 173T274 270T358 374T403 472Q391 481 364 489T296 502T206 501L169 395Q167 392 161 389T145 386Q140 396 135 412T126 448T122 490Q150 512 189 528T269 554T345 564Q361
564 383 554T427 528T462 498T474 471Q469 432 444 388T380 300T298 215T214 141T144 88L377 61L448 162Q460 162 466 160T475 153Q471 133 460 102T439 49Q426 40 404 29T358 9T320 0Q310 0 281 6T216 19T146 33T89 42Q80 35 69 26T49 10T32 0Z" />
<glyph unicode="3" horiz-adv-x="471" d="M76 -105Q62 -105 40 -96T-3 -73T-31 -50Q-26 -41 -21 -35T-10 -26Q20 -32 53 -35T116 -39Q154 -39 185 -34T237 -19Q246 -12 257 6T279 47T296 92T303 126Q303 157 280 177T220 211T143 232Q145 237 147 242T152 254T161
265Q168 265 178 265T199 267T218 272Q261 292 293 326T346 399T374 473Q365 481 335 490T260 503T164 501L130 395Q127 392 121 389T105 386Q98 402 91 430T82 490Q111 514 150 530T232 556T311 565Q325 565 347 556T391 533T429 504T445 476Q445 455 429 423T386
356T325 293T258 250L257 246Q288 236 315 222T359 188T377 139Q377 120 366 92T338 35T305 -17T275 -50Q257 -62 224 -75T151 -96T76 -105Z" />
<glyph unicode="4" horiz-adv-x="535" d="M254 -104Q251 -104 245 -101T235 -94Q242 -81 254 -52T273 9L283 55H36Q25 62 13 79T1 119L364 546Q372 548 386 552T415 559T443 564L456 551Q452 539 447 520T434 474T419 411L357 110L462 115L468 98Q464 86 456 75T441
56H345L316 -86Q309 -89 299 -93T277 -101T254 -104ZM58 110H291L352 402Q357 427 366 452T383 490L376 492L58 110Z" />
<glyph unicode="5" horiz-adv-x="446" d="M57 -105Q43 -105 21 -96T-22 -73T-49 -50Q-44 -40 -39 -34T-28 -26Q4 -33 37 -36T97 -39Q135 -39 166 -34T217 -19Q229 -11 242 11T267 61T287 115T295 156Q295 170 279 183T239 210T187 234T137 257Q122 264 104 272T72
287T56 299Q67 339 83 382T120 464T159 532Q179 536 214 539T290 547T370 556T437 569L455 560Q452 545 445 532T429 506T411 484Q373 488 335 489T262 491T198 491Q184 470 171 440T145 380T126 324L179 306Q274 274 319 246T365 173Q365 147 353 114T323 48T286
-11T250 -50Q233 -62 201 -74T131 -96T57 -105Z" />
<glyph unicode="6" horiz-adv-x="511" d="M199 0Q172 0 149 12T106 41T75 73T60 95Q56 106 55 120T53 150Q53 189 61 240T86 347T126 455T179 550T242 616Q258 628 288 640T351 661T408 670Q423 670 446 662T489 642T517 621Q513 611 508 605T501 597Q477 602
449 603T393 605Q377 605 355 603T312 597T277 588Q268 581 247 552T202 476T155 363Q174 372 204 381T266 398T322 406Q342 406 363 396T402 370T432 342T447 321Q449 315 449 307T450 288Q450 263 444 229T428 161T402 104Q384 84 352 60T280 18T199 0ZM244 60Q261
60 289 72T338 99Q346 110 354 131T368 178T379 229T383 273Q383 278 383 283T380 294Q370 309 351 320T311 338T277 345Q262 345 237 341T187 331T149 321Q142 301 134 269T122 204T118 151Q118 141 119 136T121 129Q142 96 176 78T244 60Z" />
<glyph unicode="7" horiz-adv-x="507" d="M129 -104Q116 -100 102 -91T78 -72T64 -51Q69 -28 90 9T143 94T213 192T289 292T361 382T419 452T450 490H181L145 395Q143 392 136 390T121 388Q116 402 111 420T102 455T99 484Q109 496 127 512T166 542T200 562Q205
562 227 560T280 555T343 549T401 543T438 541Q442 541 460 545T495 555T516 559Q520 557 524 544T528 516L405 355Q361 298 326 250T263 162T214 87T180 25T160 -28Q156 -40 154 -54T152 -82Q148 -87 143 -93T129 -104Z" />
<glyph unicode="8" horiz-adv-x="520" d="M194 0Q172 0 147 10T98 34T59 63T39 88Q39 131 48 176T77 254Q89 271 113 288T163 321T208 344Q179 357 159 368T128 391Q127 398 126 406T125 422Q125 448 130 480T145 542T167 592Q196 611 231 629T304 658T378 670Q398
670 423 660T470 637T497 614Q499 609 499 602T499 586Q499 567 495 539T484 485T467 442Q448 417 416 395T352 356Q394 339 420 324T452 297Q454 288 455 278T457 259Q457 231 451 201T435 144T416 98Q388 70 349 48T269 13T194 0ZM228 57Q248 57 272 63T319 79T352
97Q362 110 370 137T383 193T389 244Q389 252 389 257T387 267Q370 275 338 291T254 327Q235 319 203 300T144 257Q135 243 127 218T114 167T108 124Q120 103 144 88T192 65T228 57ZM307 371Q323 378 348 391T398 428Q416 458 424 497T432 579Q423 589 406 597T369
610T334 614Q322 614 303 611T263 601T228 587Q218 569 211 543T199 489T195 439Q195 431 196 425T198 415Q218 406 242 396T307 371Z" />
<glyph unicode="9" horiz-adv-x="513" d="M126 -105Q111 -105 88 -97T45 -76T17 -56Q20 -48 24 -42T33 -32Q59 -36 87 -38T142 -40Q160 -40 182 -38T224 -31T257 -23Q269 -13 289 18T332 98T374 211Q357 202 326 190T262 168T205 159Q185 159 164 169T125 195T95
223T80 244Q78 251 77 260T76 279Q76 311 82 345T99 411T124 468Q143 487 175 509T247 548T327 565Q355 565 379 554T421 527T452 496T468 475Q472 464 474 451T476 417Q476 375 467 323T440 214T400 106T350 15T294 -47Q277 -60 245 -73T181 -95T126 -105ZM250
220Q264 220 290 226T343 240T381 253Q387 268 392 289T401 334T408 379T410 415Q410 423 409 428T406 438Q384 471 349 488T282 505Q266 505 237 497T187 473Q176 454 166 422T150 356T144 295Q144 285 144 280T146 271Q157 256 176 245T216 227T250 220Z" />
<glyph unicode=":" horiz-adv-x="215" d="M58 0Q51 0 42 8T24 27T10 50T7 70Q9 78 18 87T41 106T67 120T88 126Q95 126 103 118T120 98T132 73T135 52Q134 46 125 38T104 21T79 6T58 0ZM136 398Q129 398 120 406T102 425T88 448T85 468Q87 476 96 485T119 504T145
518T166 524Q173 524 181 516T198 496T210 471T213 450Q212 444 203 436T182 419T157 404T136 398Z" />
<glyph unicode=";" horiz-adv-x="217" d="M5 -119Q-4 -119 -14 -115T-30 -103T-37 -91Q-25 -85 -8 -69T24 -32T47 3Q37 7 28 18T12 41T5 63Q5 71 12 79T31 96T54 109T72 115Q80 115 90 104T109 79T117 55Q117 45 109 25T86 -20T57 -67T28 -104T5 -119ZM137 398Q130
398 121 406T103 425T89 448T86 468Q88 476 97 485T120 504T146 518T167 524Q174 524 182 516T199 496T211 471T214 450Q213 444 204 436T183 419T158 404T137 398Z" />
<glyph unicode="&lt;" horiz-adv-x="380" d="M278 53Q238 82 195 116T114 183T54 241T31 276Q31 283 48 297T98 333T174 381T267 438T374 502Q382 498 387 491T392 473L116 271L115 264L308 79Q300 69 292 62T278 53Z" />
<glyph unicode="=" horiz-adv-x="492" d="M67 333Q71 355 77 364T87 376Q142 376 205 377T334 382T456 388L463 379Q458 363 453 351T443 333H67ZM295 429Q299 451 305 460T315 472Q370 472 433 473T562 478T684 484L691 475Q686 459 681 447T671 429H295Z" />
<glyph unicode="&gt;" horiz-adv-x="380" d="M17 53Q10 57 5 64T-1 82L275 284L276 291L83 476Q92 486 100 493T113 502Q153 473 196 439T277 372T337 315T360 279Q360 272 343 258T293 222T217 174T124 117T17 53Z" />
<glyph unicode="?" horiz-adv-x="500" d="M226 210Q219 232 217 263T216 329T223 393Q240 406 265 420T316 447T364 471T396 487Q405 513 414 549T431 622T438 690Q427 696 410 700T375 708T343 712Q317 712 285 707T230 692L189 565Q183 561 170 558T145 554Q145
570 146 599T150 661T158 718Q182 732 216 745T287 767T355 776Q378 776 408 767T467 743T516 713Q516 688 511 655T498 585T479 518T458 468Q446 450 421 434T367 402T317 377T289 361Q283 345 278 320T270 269T265 228Q258 223 249 218T226 210ZM220 0Q213 0
204 8T186 27T172 51T169 70Q171 78 180 87T203 106T230 120T250 126Q257 126 265 118T282 98T294 73T297 52Q296 46 287 38T266 21T241 6T220 0Z" />
<glyph unicode="@" horiz-adv-x="948" d="M380 -200Q334 -200 287 -184T199 -143T128 -95T90 -57Q81 -43 75 -21T65 28T62 86Q62 136 70 194T93 312T130 424T176 516Q208 542 250 568T341 619T439 663T537 693T627 704Q665 704 708 691T792 657T860 614T897 573Q907
552 911 525T916 467Q916 419 904 363T869 249T819 141T758 56Q748 47 726 34T679 10T634 0Q618 0 602 10T573 35T557 60Q539 47 514 33T463 10T413 0Q394 0 374 8T335 29T303 53T285 75Q282 80 280 93T278 123Q278 146 282 184T295 266T315 351T339 420Q353 429
378 442T434 469T494 491T547 500Q559 500 580 494T625 479T671 460T706 443L709 430Q699 421 692 409T678 375T665 321L619 68Q629 64 643 57T676 49Q710 69 741 113T797 214T837 334T852 455Q852 484 848 506T838 543Q828 556 804 574T746 609T676 637T601 649Q571
649 523 637T421 603T315 554T225 497Q204 459 186 409T155 304T133 195T125 91Q125 58 130 30T142 -19Q154 -35 184 -57T252 -100T331 -135T403 -149Q421 -149 447 -145T498 -134T540 -122Q544 -126 546 -131T548 -145Q523 -162 491 -174T429 -193T380 -200ZM435
59Q448 59 472 66T520 84T558 101L614 406Q599 413 579 421T539 435T507 441Q497 441 478 436T438 425T406 411Q397 392 388 356T369 276T355 194T349 130Q349 121 349 116T351 108Q357 98 372 86T405 67T435 59Z" />
<glyph unicode="A" horiz-adv-x="713" d="M125 0Q118 0 100 2T58 9T11 18T-29 28Q-27 34 -23 40T-14 50H0Q11 50 23 56T50 79T81 123T117 190L342 661Q352 670 367 680T400 699T431 714T454 720Q465 720 482 712T517 692T544 670L576 77Q578 63 581 59T597 52L651
47Q653 45 654 39T655 28Q645 22 632 16T606 5T584 0Q576 0 560 2T525 7T486 14T450 22T425 28Q426 35 429 41T437 50H455Q474 50 485 52T502 65T506 103L496 287H221L148 130Q132 96 115 79T90 56L199 47Q202 45 203 40T202 28Q192 21 178 15T149 4T125 0ZM241
332Q299 333 345 334T429 336T495 341L481 632Q464 644 443 654T398 666L241 332Z" />
<glyph unicode="B" horiz-adv-x="618" d="M357 0Q330 0 293 1T214 6T130 13T53 21T-8 30Q-5 38 -2 43T5 52L33 56Q53 60 64 68T82 94T96 145L181 580Q189 615 198 634T213 657H124Q121 661 120 665T118 675Q124 681 137 687T163 699T182 704H493Q512 699 532 688T569
663T597 635Q598 619 599 608T598 575Q597 548 592 521T577 467T555 421T528 387Q511 379 489 374T440 364L438 360Q481 353 513 340T560 315Q562 309 563 298T565 275Q565 242 557 206T535 137T505 76Q496 66 479 54T440 31T397 11T357 0ZM140 62H406Q423 75 438
102T465 164T477 239Q479 258 479 265T479 284Q467 296 445 308T388 330T305 340H210L167 125Q162 101 154 85T140 62ZM219 387Q276 388 318 390T394 395T463 403Q482 423 495 453T515 516T523 578Q523 600 519 615T507 641Q476 650 430 654T344 659Q307 659 287
640T258 582L219 387Z" />
<glyph unicode="C" horiz-adv-x="621" d="M279 0Q255 0 225 9T164 33T111 65T78 98Q68 115 63 141T58 202Q58 237 64 282T81 376T106 471T136 555T168 617Q193 636 227 654T299 687T376 711T450 720Q485 720 524 711T597 688T649 657Q638 609 622 564T595 495Q580
496 568 498T552 505L557 625Q545 632 520 639T468 652T420 657Q396 657 364 651T301 634T246 612Q227 583 209 534T175 428T152 316T143 216Q143 190 145 171T152 138Q160 127 178 114T220 89T268 69T312 61Q335 61 360 64T408 72T445 80L518 226Q531 226 544
222T563 213Q557 190 549 162T532 107T518 64Q496 51 460 37T377 11T279 0Z" />
<glyph unicode="D" horiz-adv-x="680" d="M371 0Q346 0 308 1T225 6T136 13T54 21T-8 30Q-5 38 -2 43T5 52L33 56Q52 59 63 67T82 94T96 145L178 580Q186 617 196 635T213 657H124Q121 661 120 665T118 675Q124 681 137 687T163 699T182 704H526Q542 700 559 693T593
675T623 654T647 631Q656 609 660 581T664 522Q664 471 654 409T626 285T585 170T536 88Q520 73 500 59T457 34T412 14T371 0ZM141 62H422Q446 76 469 112T512 200T547 308T570 420T579 517Q579 558 571 590T542 640Q523 645 489 649T413 656T329 659Q304 659 290
649T269 621T257 582L168 125Q163 100 155 85T141 62Z" />
<glyph unicode="E" horiz-adv-x="580" d="M395 0Q369 0 328 1T239 6T143 13T56 21T-8 29Q-6 37 -3 42T6 52L32 56Q49 58 60 63T80 87T96 144L180 580Q187 611 196 631T212 658H125Q123 660 120 664T117 676Q124 682 136 688T162 699T181 704H531Q554 696 574 684T604
658Q595 625 585 593T564 536T543 500Q533 495 522 499T507 506L513 645Q494 648 463 651T396 657T327 660Q303 660 289 651T266 625T253 583L214 388Q257 390 289 391T354 396T434 403L442 392Q437 374 432 361T422 339H206L163 124Q159 102 151 86T136 61H405L484
218Q497 218 507 214T518 205Q516 184 509 154T494 94T478 41Q468 34 452 25T420 8T395 0Z" />
<glyph unicode="F" horiz-adv-x="552" d="M154 0Q148 0 133 2T97 7T55 15T17 23T-8 30Q-6 35 -3 42T5 52L33 56Q51 60 62 67T82 93T96 146L181 580Q188 616 198 634T213 657H124Q121 661 120 665T118 675Q124 681 137 687T163 699T182 704H534Q555 697 575 685T607
657Q599 625 589 593T569 536T548 498Q536 495 525 498T509 504L516 645Q487 650 435 654T333 659Q307 659 293 650T271 623T258 582L219 389Q267 390 307 392T383 397T448 404L456 391Q452 375 447 362T436 339H210L167 123Q162 99 154 83T140 61L232 50Q234 48
236 42T238 30Q219 17 196 9T154 0Z" />
<glyph unicode="G" horiz-adv-x="666" d="M279 0Q252 0 222 9T162 33T111 65T78 98Q68 114 63 141T58 201Q58 237 64 283T82 378T107 474T136 558T166 617Q190 634 224 652T299 685T379 710T454 720Q489 720 526 711T594 688T643 657Q637 629 628 598T608 539T588
497Q572 495 561 498T546 505L552 625Q540 632 517 639T468 652T424 658Q401 658 368 651T302 634T245 612Q226 581 208 532T175 426T152 313T143 211Q143 188 145 169T152 138Q161 127 178 114T218 89T265 70T308 62Q335 62 365 66T423 76T468 87L490 195Q498
230 507 258T522 298H353Q357 317 362 332T372 352Q395 352 424 353T485 356T547 361T601 366L612 353Q606 334 597 304T577 234T556 142L541 65Q520 53 477 38T381 11T279 0Z" />
<glyph unicode="H" horiz-adv-x="704" d="M151 0Q145 0 130 2T94 7T53 15T16 23T-8 30Q-6 37 -2 43T6 52L33 56Q51 59 62 66T81 91T96 146L180 579Q187 612 196 632T212 657H125Q122 660 120 664T117 675Q124 681 136 687T161 699T180 704H349Q353 700 356 693T360
674L315 661Q296 656 284 647T265 621T252 575L216 392Q258 392 304 392T395 394T477 397T539 400L574 579Q582 615 591 633T605 657H517Q516 659 514 664T511 675Q518 682 531 688T556 699T573 704H743Q745 701 749 695T752 674L708 661Q692 657 680 649T660 625T646
575L557 123Q553 100 545 83T530 60L620 50Q622 49 624 43T627 30Q611 18 587 9T545 0Q538 0 523 2T487 7T447 15T410 23T386 30Q388 38 392 43T399 52L427 55Q446 57 457 65T476 92T490 146L527 339H206L164 124Q159 99 151 83T137 60L228 50Q230 47 232 42T233
30Q216 17 193 9T151 0Z" />
<glyph unicode="I" horiz-adv-x="311" d="M151 0Q144 0 129 2T93 7T53 15T16 23T-8 30Q-6 38 -2 43T6 52L33 56Q51 59 62 65T81 89T96 146L181 582Q190 621 199 637T212 657H125Q122 660 120 664T117 675Q124 681 136 687T161 699T180 704H349Q353 700 357 693T360
674L314 661Q284 653 272 634T252 575L164 124Q160 101 152 85T136 60L228 50Q229 49 231 43T233 30Q217 18 194 9T151 0Z" />
<glyph unicode="J" horiz-adv-x="319" d="M-25 -200Q-37 -200 -55 -197T-91 -187T-119 -174Q-117 -168 -114 -162T-107 -152Q-48 -135 -4 -110T62 -62L187 580Q194 617 204 635T219 657H130Q129 660 127 664T125 675Q131 682 144 688T169 699T187 704H357Q360
700 364 693T366 674L322 661Q293 653 280 635T258 575L134 -43Q128 -62 108 -88T63 -140T13 -183T-25 -200Z" />
<glyph unicode="K" horiz-adv-x="631" d="M155 0Q149 0 134 2T97 7T55 15T17 23T-8 30Q-6 35 -3 42T5 52L33 56Q51 60 62 67T82 93T96 146L181 580Q188 615 198 634T213 657H124Q121 661 120 665T118 675Q124 681 137 687T163 699T182 704H354Q358 700 362 693T365
674L320 661Q292 653 279 637T257 575L220 390Q248 390 271 390T312 392T337 393Q351 413 369 444T410 511T458 584T512 652T571 704H708Q710 701 714 695T717 674L669 661Q634 652 600 625T534 561T475 486T426 414T394 360L478 149Q492 112 502 93T528 67T571
59H589Q591 58 593 52T596 36Q576 20 551 10T504 0Q481 0 465 11T438 42T416 88L343 292Q335 317 323 328T276 340H211L168 123Q163 98 155 83T140 61L232 50Q234 49 236 43T239 30Q222 18 198 9T155 0Z" />
<glyph unicode="L" horiz-adv-x="526" d="M371 0Q343 0 305 1T222 6T135 13T54 21T-8 30Q-5 38 -2 43T5 52L33 56Q51 59 62 66T82 92T96 145L181 580Q188 615 198 634T213 657H124Q121 661 120 665T118 675Q124 681 137 687T163 699T182 704H354Q357 700 361 693T365
674L319 661Q302 656 291 648T271 624T257 575L168 125Q164 101 156 86T141 62H378L457 221Q469 221 480 217T496 207Q492 182 486 153T472 94T455 36Q446 29 430 21T397 7T371 0Z" />
<glyph unicode="M" horiz-adv-x="927" d="M153 0Q145 0 124 3T77 11T29 21T-3 30Q-1 35 3 42T11 52L35 56Q56 59 68 68T88 97T105 149L212 581Q221 614 231 632T247 657H157Q156 659 154 663T151 675Q158 682 171 688T196 699T214 704H342L445 186Q459 210 484
251T542 347T611 461T683 584T752 704H944Q947 700 951 693T954 674L909 661Q891 656 879 648T859 625T847 580L782 136Q777 102 768 84T752 60L847 50Q849 48 851 42T854 30Q838 19 813 10T770 0Q761 0 744 2T705 7T663 15T626 23T601 30Q603 36 606 42T615 52L648
56Q666 58 677 64T696 93T712 167L766 538Q771 574 778 600T790 635L780 638L464 110Q454 101 435 93T392 84L301 540Q297 563 295 580T292 610Q292 618 292 623T294 631H287Q284 625 278 608T264 563L159 129Q149 90 140 77T128 62L236 50Q238 48 240 43T242 30Q223
16 197 8T153 0Z" />
<glyph unicode="N" horiz-adv-x="715" d="M149 0Q141 0 120 3T74 11T26 21T-8 30Q-6 35 -3 42T5 52L33 56Q48 59 59 65T80 90T97 149L181 580Q188 613 197 632T213 657H124Q123 660 121 665T118 676Q125 682 137 688T163 699T182 704H284L532 121Q534 141 536
160T541 201T550 251L616 577Q623 609 631 629T647 654H557Q555 656 553 661T551 673Q557 678 570 685T596 698T614 704H769Q772 700 776 692T779 674L733 660Q714 654 703 646T684 620T670 568L590 165Q580 114 577 79T573 22Q563 16 552 11T529 4T508 0L284 526Q268
563 263 585T257 620H250Q248 615 246 609T241 592T233 559L148 124Q142 101 135 85T121 62L231 50Q233 48 235 42T236 30Q217 16 191 8T149 0Z" />
<glyph unicode="O" horiz-adv-x="662" d="M271 0Q247 0 218 9T159 34T108 66T75 97Q65 116 61 142T57 198Q57 234 63 279T81 374T107 470T137 555T168 619Q190 634 221 651T290 684T367 710T448 720Q471 720 500 711T557 688T608 656T641 622Q647 606 649 585T651
545Q651 508 645 460T627 361T600 260T568 169T534 103Q507 81 466 57T375 17T271 0ZM304 60Q332 60 363 69T421 89T460 110Q478 134 494 173T524 260T548 358T564 454T570 538Q570 551 570 563T568 586Q564 594 547 606T507 631T458 651T411 659Q386 659 355 652T293
634T241 612Q222 581 204 530T170 420T146 303T137 199Q137 180 138 165T143 137Q151 126 169 113T211 88T259 68T304 60Z" />
<glyph unicode="P" horiz-adv-x="575" d="M154 0Q148 0 133 2T97 7T55 15T17 23T-8 30Q-6 36 -2 43T5 52L33 56Q48 59 59 64T80 88T96 146L182 580Q189 615 198 634T213 657H124Q121 661 120 665T118 675Q124 681 137 687T163 699T182 704H483Q502 698 521 688T559
665T588 636Q591 628 593 618T595 598Q595 567 588 531T568 460T540 396T509 355Q494 344 471 332T422 312T368 302H202L167 123Q162 98 154 83T140 61L234 50Q236 48 237 42T237 30Q218 17 195 9T154 0ZM211 354Q262 355 301 355T372 357T434 362Q455 383 472
421T501 503T512 582Q512 599 509 615T498 642Q478 648 451 651T395 657T338 659Q301 659 283 639T257 582L211 354Z" />
<glyph unicode="Q" horiz-adv-x="662" d="M406 -200Q392 -200 366 -191T309 -167T249 -134T199 -99T171 -67Q180 -48 194 -27T228 14L272 12L240 -45Q251 -57 275 -72T332 -102T398 -125T464 -135H513Q516 -137 518 -144T521 -162Q508 -172 486 -181T443 -195T406
-200ZM271 0Q247 0 218 9T159 34T108 66T75 97Q65 116 61 142T57 198Q57 234 63 279T81 374T107 470T137 555T168 619Q190 634 221 651T290 684T367 710T448 720Q471 720 500 711T557 688T608 656T641 622Q647 606 649 585T651 545Q651 508 645 460T627 361T600
260T568 169T534 103Q507 81 466 57T375 17T271 0ZM304 60Q332 60 363 69T421 89T460 110Q478 134 494 173T524 260T548 358T564 454T570 538Q570 551 570 563T568 586Q564 594 547 606T507 631T458 651T411 659Q386 659 355 652T293 634T241 612Q222 581 204 530T170
420T146 303T137 199Q137 180 138 165T143 137Q151 126 169 113T211 88T259 68T304 60Z" />
<glyph unicode="R" horiz-adv-x="615" d="M150 0Q145 0 130 2T94 7T54 15T17 23T-8 30Q-6 36 -2 43T5 52L33 56Q51 59 62 66T81 92T96 145L182 580Q188 611 197 632T213 657H124Q121 661 120 665T118 675Q124 681 137 687T163 699T182 704H492Q513 698 532 687T567
663T593 636Q597 629 598 618T600 596Q600 568 594 535T577 471T552 415T522 376Q508 368 485 359T436 342T389 330L388 327Q397 317 402 309T413 282L471 128Q485 91 502 74T554 57H572Q577 52 579 46T582 35Q562 18 537 9T494 0Q460 0 439 23T398 104L337 278Q331
297 322 308T289 320H202L163 123Q158 100 150 84T136 61L228 50Q230 49 232 42T234 30Q217 18 193 9T150 0ZM213 373Q281 374 342 377T452 387Q472 407 487 440T512 511T521 581Q521 601 517 616T506 642Q486 648 459 651T401 657T339 659Q315 659 298 650T270
624T254 582L213 373Z" />
<glyph unicode="S" horiz-adv-x="593" d="M230 0Q208 0 179 6T121 24T68 47T31 72Q38 101 48 135T69 200T88 249Q100 249 111 246T130 238L123 101Q140 93 164 85T212 71T257 65Q276 65 304 72T359 88T401 104Q412 119 421 143T437 194T447 244T448 282Q437 288
409 297T345 319T270 345T198 373T142 402T114 427Q114 452 119 481T132 541T151 597T173 640Q191 653 219 667T278 693T341 712T396 720Q430 720 465 712T531 689T582 659Q576 639 569 616T554 571T538 530T524 497Q509 497 499 500T482 506L489 632Q461 643 431
651T363 659Q352 659 331 655T288 645T248 631Q236 610 225 581T207 519T197 456Q214 447 252 434T336 405T426 373T500 340T533 309Q533 271 526 232T506 156T475 87Q460 75 433 61T371 33T300 10T230 0Z" />
<glyph unicode="T" horiz-adv-x="599" d="M296 0Q289 0 274 2T239 7T199 15T162 23T137 30Q140 36 143 42T150 52L179 56Q195 58 206 63T226 88T242 145L331 599Q336 622 342 636T355 657H183L132 498Q128 495 116 492T88 489Q87 511 87 553T93 657Q111 671 138
685T186 704H591Q617 696 637 683T666 657Q652 607 635 560T606 489Q592 489 581 492T565 498L576 652Q564 654 544 655T503 658T466 659Q430 659 419 642T402 595L309 123Q304 98 296 82T281 61L376 50Q378 48 379 43T380 30Q361 17 338 9T296 0Z" />
<glyph unicode="U" horiz-adv-x="681" d="M316 0Q287 0 256 7T194 27T140 54T101 81T85 104L177 579Q184 613 193 632T209 657H121Q120 659 117 663T114 675Q120 681 132 687T158 699T177 704H345Q348 701 352 694T356 674L312 661Q282 653 269 635T248 575L161
125Q168 116 188 104T235 81T287 63T331 55Q356 55 388 67T449 96T490 124L579 579Q587 615 596 633T611 657H523Q522 659 520 663T517 675Q524 682 537 688T562 699T579 704H731Q733 700 737 694T741 674L695 660Q677 655 665 646T646 619T632 568L543 104Q530
90 503 72T443 38T376 11T316 0Z" />
<glyph unicode="V" horiz-adv-x="719" d="M326 0Q319 0 305 4T275 17T245 34T223 51L177 625Q176 637 169 645T145 654H97Q94 658 92 662T91 673Q97 679 110 685T135 697T154 702L349 704Q353 700 356 692T359 674L308 663Q293 660 280 655T259 635T253 592L289
88Q299 80 312 74T341 65T365 60L573 528Q602 590 626 620T659 657H539Q537 659 535 663T533 675Q541 683 554 689T580 699T597 704H788Q791 701 794 693T798 674L769 666Q747 660 729 650T691 618T649 553T592 438L420 56Q408 44 392 31T358 10T326 0Z" />
<glyph unicode="W" horiz-adv-x="1081" d="M328 0Q318 0 303 5T273 19T244 36T225 56L177 628Q176 642 168 649T145 657H99Q96 660 93 665T91 675Q98 682 110 688T135 699T154 704H347Q350 700 354 693T357 674L309 663Q295 660 282 655T261 635T254 592L290 87Q301
81 314 76T341 67T366 62L559 470L550 626Q548 644 540 650T516 657H469Q467 660 465 664T464 675Q471 682 483 688T508 699T526 704H725Q728 700 731 692T735 674L677 662Q665 660 652 655T630 636T622 592L652 88Q660 81 673 76T702 67T729 62L934 528Q954 574
971 601T1001 641T1019 657H864Q862 660 860 665T858 675Q866 682 878 688T904 699T923 704H1149Q1151 700 1155 693T1159 674L1131 666Q1107 659 1087 648T1047 612T1005 547T953 438L788 56Q774 43 757 31T723 11T695 0Q685 0 670 5T637 19T606 36T586 55Q585
70 583 89T580 132T577 179T574 228T571 278Q571 308 571 327T570 365H565Q560 352 553 337T537 301T516 256T490 201T457 133T418 52Q402 38 386 27T355 9T328 0Z" />
<glyph unicode="X" horiz-adv-x="706" d="M564 0Q557 0 542 2T506 7T466 15T430 23T405 30Q407 36 410 42T418 53H442Q454 53 461 57T469 72Q469 77 467 83T461 94L208 628Q202 642 194 649T164 657H132Q130 659 128 664T125 675Q131 681 144 687T171 699T190
704H385Q388 701 391 694T395 674L344 663Q326 660 312 653T295 631Q294 627 295 618T301 597L518 139Q527 120 537 102T563 70T604 53L635 50Q637 47 639 42T641 30Q633 23 618 16T588 5T564 0ZM154 0Q143 0 120 3T68 10T14 20T-27 30Q-25 38 -21 45T-12 53Q12
54 37 68T89 108T144 167L334 388L363 334L165 103Q152 89 140 78T122 61L236 50Q238 46 241 42T243 29Q230 20 212 14T178 4T154 0ZM394 357L365 407Q413 463 452 510T522 596T578 661T626 704H743Q746 699 749 692T752 674L708 662Q670 651 637 625T568 560T490
469T394 357Z" />
<glyph unicode="Y" horiz-adv-x="635" d="M318 0Q311 0 296 2T259 7T218 15T181 23T156 30Q158 38 161 43T168 52L198 56Q212 59 223 64T244 87T261 146L294 307L176 628Q170 643 161 650T130 657H99Q97 659 95 663T92 675Q98 681 111 687T137 699T157 704H343Q346
700 350 693T353 674L302 662Q281 657 267 650T253 626Q253 622 254 615T259 598L342 357H345Q380 421 414 479T480 583T538 661T581 704H699Q702 700 706 693T709 674L664 661Q646 656 627 644T584 608T530 542T459 440T366 290L331 123Q326 100 318 83T304 61L397
50Q399 47 400 43T402 30Q385 17 361 9T318 0Z" />
<glyph unicode="Z" horiz-adv-x="602" d="M36 0Q31 0 22 10T4 34T-4 61Q33 91 86 144T203 266T335 414Q382 468 430 527T523 640L229 652L173 503Q168 500 156 498T131 495Q128 518 128 548T129 608T135 662Q144 672 159 681T190 698T218 710T236 714Q244 714
272 713T340 709T417 703T482 699T513 697Q522 697 535 699T561 706T585 714Q597 706 611 686T625 642L142 90L430 68L507 222Q522 221 530 217T544 209Q539 184 532 155T518 96T502 42Q487 31 470 22T437 6T412 0Q401 0 369 3T295 12T212 22T140 30T100 35Q77
21 60 11T36 0Z" />
<glyph unicode="[" horiz-adv-x="365" d="M112 -164Q101 -164 88 -155T62 -131T40 -101L200 722Q214 738 233 755T269 784T298 796Q317 796 340 792T386 784T423 776Q424 773 425 768T425 751L275 734Q241 607 211 473T156 195T105 -101L256 -119Q256 -130 253
-137T247 -148Q229 -152 204 -155T154 -161T112 -164Z" />
<glyph unicode="\" horiz-adv-x="456" d="M305 -88L131 723Q137 729 151 737T186 747Q190 720 201 658T230 513L354 -76Q346 -80 334 -84T305 -88Z" />
<glyph unicode="]" horiz-adv-x="364" d="M92 -166Q74 -166 50 -162T4 -154T-32 -146Q-33 -143 -34 -138T-34 -121L115 -104Q150 24 179 158T235 435T285 731L134 749Q135 760 137 767T143 778Q162 782 186 785T236 791T278 794Q290 794 303 785T329 761T350 731L190
-92Q176 -108 158 -124T122 -153T92 -166Z" />
<glyph unicode="^" horiz-adv-x="577" d="M71 385Q62 387 55 396T46 411Q85 448 128 487T212 564T289 631T349 678T381 695Q389 695 405 678T444 631T493 564T545 488T594 411Q589 404 581 397T562 385L363 604H357L71 385Z" />
<glyph unicode="_" horiz-adv-x="591" d="M-11 -54Q-11 -39 -8 -28T1 -11Q114 -11 211 -9T379 -4T483 3L494 -5Q494 -23 490 -35T482 -54H-11Z" />
<glyph unicode="`" horiz-adv-x="197" d="M233 564L86 692Q93 703 104 715T127 735T146 743Q154 743 172 724T214 669T262 585Q258 580 250 574T233 564Z" />
<glyph unicode="a" horiz-adv-x="509" d="M151 0Q135 0 116 9T78 31T47 56T32 75Q31 112 38 157T57 248T81 332T102 397T116 427Q122 433 134 445T162 470T190 491T211 500Q228 500 256 492T317 469T380 436L386 500Q420 500 436 490T452 456Q452 439 440 385T408
248T362 63L373 56Q382 65 397 85T428 130T455 175Q463 175 469 172T477 164Q471 143 458 115T427 61T393 18T360 0Q349 0 332 7T300 23T282 39L334 214Q340 235 346 253T357 284T364 301L359 304Q341 270 320 229T275 148T229 74T186 20T151 0ZM159 66Q163 66
178 84T213 134T258 202T304 276T344 344T370 395Q329 411 283 421T193 435Q181 423 169 390T145 315T124 229T109 153T103 106Q112 91 131 79T159 66Z" />
<glyph unicode="b" horiz-adv-x="490" d="M264 0Q244 0 216 5T158 17T102 34T57 52T36 68Q41 83 50 116T71 193T95 285Q109 339 122 395T146 505T166 603T180 679T185 722Q185 731 179 734T163 738H101Q101 744 103 753T108 768Q125 776 145 783T184 795T217 800Q237
800 253 790T269 757Q269 751 267 736T258 691L201 444Q191 400 179 356T155 275T133 213L140 208Q162 252 189 302T244 397T298 471T344 500Q359 500 378 491T414 469T444 444T457 425Q458 389 451 346T432 258T408 176T385 115T372 86Q367 78 353 65T322 36T289
11T264 0ZM292 61Q302 72 315 105T340 180T362 266T378 343T384 389Q380 398 369 407T345 423T327 429Q323 429 307 407T267 350T218 274T171 194T134 126T116 84Q164 70 212 66T292 61Z" />
<glyph unicode="c" horiz-adv-x="377" d="M146 0Q132 0 116 7T82 25T52 50T32 77Q32 118 40 167T62 266T90 354T121 414Q134 424 153 438T198 467T249 490T302 500Q317 500 335 490T368 465T383 442Q379 411 367 379T344 328Q333 328 325 330T310 336Q310 348
310 368T309 407T305 435Q294 440 284 442T266 444Q250 444 230 438T194 424Q174 398 159 355T131 263T113 169T105 97Q115 85 130 75T161 59T187 53Q200 53 216 65T249 96T282 135T309 172Q317 172 322 169T330 160Q318 126 295 89T236 26T146 0Z" />
<glyph unicode="d" horiz-adv-x="507" d="M150 0Q135 0 116 9T78 31T47 56T32 75Q31 111 38 156T57 247T81 332T102 397T116 427Q122 433 134 445T162 470T190 491T211 500Q228 500 256 492T317 469T379 436Q382 448 388 477T403 543T418 617T430 682T435 719Q435
728 430 733T413 738H350Q350 746 352 755T356 768Q373 776 393 783T433 795T466 800Q486 800 502 789T518 757Q518 754 515 736T506 691L358 61L369 54Q380 65 396 86T430 133T458 176Q467 176 473 172T480 164Q472 143 458 115T426 61T390 18T356 0Q347 0 335
4T312 15T294 29T284 42L340 233Q347 256 353 276T364 301L359 304Q341 270 319 229T274 148T229 74T186 20T150 0ZM159 68Q163 68 178 86T214 136T258 203T304 277T344 345T369 395Q328 411 282 421T193 435Q181 423 169 391T146 316T125 231T110 155T104 109Q109
100 120 91T142 75T159 68Z" />
<glyph unicode="e" horiz-adv-x="390" d="M141 0Q131 0 116 7T86 26T56 53T33 84Q33 129 42 178T65 272T93 352T119 405Q128 415 148 431T194 463T249 489T307 500Q321 500 341 489T376 464T392 441Q389 420 382 396T364 351T345 317Q327 299 291 279T210 239T117
203Q111 172 107 145T102 97Q108 87 121 77T151 59T182 52Q191 52 202 60T227 85T260 124T303 176Q311 176 316 173T323 164Q313 139 297 111T259 57T207 16T141 0ZM128 250Q160 261 194 276T260 306T309 336Q311 345 312 356T314 374Q316 392 316 409T312 439Q301
441 291 442T272 443Q249 443 231 438T197 426Q178 398 160 351T128 250Z" />
<glyph unicode="f" horiz-adv-x="277" d="M-75 -200Q-82 -200 -93 -197T-116 -189T-138 -179T-153 -168Q-151 -161 -150 -156T-146 -148Q-110 -143 -74 -134T-7 -111Q-1 -101 6 -78T22 -24T40 42T57 109T70 169Q85 235 101 305T134 451L50 461Q50 472 52 480T56
493L134 501Q145 503 149 507T156 524L147 718Q162 735 188 750T245 776T300 793T338 800Q354 800 369 785T395 753T407 726Q401 691 387 664T358 615Q346 615 339 618T328 625Q329 637 329 655T326 693T321 726Q313 728 305 728T288 729Q269 729 253 725T217 716L214
500H334L343 487Q337 477 327 465T306 445L202 448L79 -87Q73 -98 55 -117T13 -155T-35 -187T-75 -200Z" />
<glyph unicode="g" horiz-adv-x="479" d="M174 -200Q163 -200 140 -198T89 -190T35 -179T-9 -166Q-33 -148 -44 -127T-57 -94Q-54 -88 -38 -77T4 -53T59 -24T116 9Q96 18 78 30T47 55T32 75Q31 112 38 157T57 247T81 332T102 396T116 425Q123 433 135 445T163
470T191 491T212 500Q229 500 257 492T317 469T379 437L391 500Q399 500 409 499T430 494T447 483T454 463Q454 462 453 456T450 439L361 62Q353 28 339 -8T305 -79T265 -140T220 -184T174 -200ZM206 -148Q229 -120 249 -72T288 41L340 233Q347 257 354 276T364
301L359 304Q333 255 306 205T250 108T191 24Q180 10 158 -7T111 -43T64 -76T30 -100Q44 -108 75 -119T142 -138T206 -148ZM159 66Q163 66 178 84T214 134T258 202T304 276T344 345T370 395Q329 411 283 421T193 435Q181 423 169 390T145 313T124 227T110 151T104
106Q112 92 131 79T159 66Z" />
<glyph unicode="h" horiz-adv-x="528" d="M104 0Q97 0 86 5T62 17T40 33T28 46Q34 63 41 91T59 152T78 220T95 285Q108 335 120 390T144 498T165 598T179 676T185 721Q185 731 179 734T163 738H100Q100 744 102 754T107 768Q128 778 148 785T186 796T217 800Q237
800 253 790T269 757Q269 750 266 734T257 691L201 445Q190 394 176 346T150 261T129 206L134 202Q151 236 172 276T216 355T263 428T309 480T349 500Q364 500 382 492T419 471T449 447T463 429Q463 392 455 346T435 252T410 164T388 96T376 63L387 56Q397 65 413
86T446 131T474 175Q482 175 488 172T496 164Q491 143 477 115T445 61T409 18T376 0Q365 0 348 7T318 23T301 40Q305 51 317 88T345 177T372 285T390 392Q382 402 371 409T348 422T332 427Q324 427 305 405T262 347T212 270T163 190T125 123Q120 106 118 91T115
61Q115 51 116 39T121 14Q119 11 116 8T104 0Z" />
<glyph unicode="i" horiz-adv-x="279" d="M124 0Q112 0 95 7T63 23T45 39Q50 54 58 84T77 154T98 236T117 316T131 381T137 419Q137 430 131 434T112 438H59Q59 446 61 455T66 468Q82 475 101 482T139 495T171 500Q193 500 204 489T215 456Q215 446 211 421T197
359T177 276T152 176T125 63L136 56Q146 66 161 86T192 131T218 175Q226 175 232 172T241 164Q235 143 222 115T191 61T156 17T124 0ZM181 608Q174 608 164 619T147 644T140 669Q140 676 149 685T172 703T198 716T218 722Q226 722 234 711T249 685T256 660Q256
653 248 644T226 627T201 614T181 608Z" />
<glyph unicode="j" horiz-adv-x="266" d="M-56 -200Q-62 -200 -73 -196T-96 -186T-119 -174T-134 -162Q-133 -154 -132 -150T-127 -141Q-100 -138 -76 -135T-29 -125T12 -111Q16 -103 23 -81T39 -27T58 42T77 119T96 195Q103 222 111 256T126 325T139 384T144
419Q144 430 138 434T119 438H64Q64 444 66 453T71 468Q88 476 107 483T145 495T176 500Q198 500 209 489T221 456Q221 451 220 441T216 417T209 388L98 -87Q93 -97 75 -116T33 -154T-15 -186T-56 -200ZM179 608Q172 608 162 619T145 644T138 669Q138 676 147 685T170
703T196 716T216 722Q224 722 232 711T247 685T254 660Q254 653 246 644T224 627T199 614T179 608Z" />
<glyph unicode="k" horiz-adv-x="520" d="M104 0Q97 0 86 5T62 17T40 33T28 46Q34 63 41 91T59 152T78 220T95 285Q108 335 120 390T144 498T165 598T179 676T185 721Q185 731 179 734T163 738H100Q100 744 102 754T107 768Q128 778 148 785T186 796T217 800Q237
800 253 790T269 757Q269 753 268 744T264 722T257 691L201 445Q191 396 177 348T149 261T129 206L134 202Q151 236 171 276T215 355T262 428T307 480T347 500Q361 500 380 492T417 472T448 448T463 429Q466 404 446 370T389 296T298 217Q307 210 317 196T334 165L382
58L391 55Q401 65 417 86T449 131T477 175Q484 175 490 172T499 164Q493 143 479 115T447 61T410 18T376 0Q356 0 336 17T304 65L245 214Q264 232 287 256T333 305T371 353T390 392Q382 402 370 409T347 422T331 427Q323 427 305 405T262 348T212 272T163 193T125
126Q120 109 118 94T115 61Q115 51 116 39T121 14Q120 11 116 8T104 0Z" />
<glyph unicode="l" horiz-adv-x="255" d="M107 0Q95 0 77 7T43 23T24 39Q29 55 36 79T52 137T71 208T91 286Q104 338 117 393T141 502T162 601T176 677T181 721Q181 731 175 734T159 738H100Q100 744 102 754T107 768Q125 776 144 783T181 795T213 800Q233 800
249 790T265 757Q265 754 262 735T253 691L109 63L119 56Q129 65 145 86T178 131T205 175Q213 175 219 172T228 164Q222 143 208 115T176 61T140 18T107 0Z" />
<glyph unicode="m" horiz-adv-x="819" d="M118 0Q111 0 99 5T75 17T53 33T41 46Q45 60 54 92T76 168T102 261Q111 293 118 327T129 387T134 419Q134 430 128 434T109 438H56Q56 446 58 454T62 468Q80 476 99 483T136 495T168 500Q189 500 201 489T213 456Q213
447 208 425T194 372T176 309T156 247T139 199L143 195Q160 230 181 270T227 351T275 425T322 479T363 500Q377 500 395 492T432 471T462 447T476 429Q476 396 467 352T444 267T419 196L423 193Q439 227 460 267T505 349T553 424T599 479T641 500Q654 500 672 492T709
471T740 447T754 429Q754 392 746 346T726 252T701 164T679 96T667 63L679 56Q689 64 705 85T737 131T765 175Q773 175 779 172T788 164Q782 143 768 115T736 61T700 17T667 0Q655 0 638 7T607 23T590 40Q595 53 608 91T636 180T663 287T679 393Q672 402 661 410T639
424T622 430Q616 430 601 413T566 367T523 303T479 233T440 167T412 115Q409 103 407 90T405 64Q405 52 406 40T412 14Q411 11 407 7T396 0Q388 0 376 5T352 17T331 33T320 46Q322 56 329 80T348 142T371 227Q381 263 390 309T401 393Q395 402 384 410T362 424T344
430Q337 430 318 409T275 352T225 276T176 197T138 130Q134 117 131 100T128 65Q128 53 129 41T134 14Q133 11 130 8T118 0Z" />
<glyph unicode="n" horiz-adv-x="542" d="M118 0Q111 0 99 5T75 17T53 33T41 46Q45 60 54 92T76 168T102 261Q111 293 118 327T129 387T134 419Q134 430 128 434T109 438H56Q56 446 58 454T62 468Q80 476 99 483T136 495T168 500Q189 500 201 489T213 456Q213
447 208 425T194 372T176 309T156 247T139 199L143 195Q160 230 181 270T227 351T275 425T322 479T363 500Q377 500 395 492T432 471T462 447T476 429Q476 392 468 346T448 252T423 164T401 96T390 63L401 56Q411 64 427 85T461 132T487 175Q497 175 503 171T510
164Q504 143 491 116T459 62T422 18T389 0Q378 0 361 7T330 23T313 40Q318 52 330 88T358 177T385 285T401 393Q394 403 383 411T361 424T344 430Q337 430 318 409T275 352T225 276T176 197T138 130Q133 115 131 99T128 66Q128 53 129 41T134 14Q133 11 130 8T118
0Z" />
<glyph unicode="o" horiz-adv-x="457" d="M145 0Q130 0 114 7T81 25T52 50T33 77Q33 116 40 165T60 264T89 355T121 418Q133 429 154 443T200 470T253 491T304 500Q318 500 337 493T375 473T408 448T425 426Q425 392 417 345T397 249T368 157T335 88Q311 63 279
43T212 12T145 0ZM187 53Q195 53 208 55T236 62T258 72Q272 89 286 120T311 191T332 269T346 343T351 400Q344 411 328 421T295 438T263 445Q250 445 233 441T197 427Q178 402 162 359T134 265T115 170T107 97Q117 84 130 74T159 59T187 53Z" />
<glyph unicode="p" horiz-adv-x="505" d="M46 -200Q27 -200 10 -190T-8 -157Q-8 -148 3 -108T32 -6T71 131Q80 163 91 207T112 295T128 374T135 419Q135 430 129 434T110 438H56Q56 446 58 455T62 468Q79 475 98 482T136 495T168 500Q190 500 201 489T212 456Q212
441 205 407T186 334T165 262T147 213L155 208Q175 251 201 301T256 396T310 471T356 500Q372 500 391 491T429 469T459 444T472 425Q473 389 465 346T446 258T422 177T400 115T387 86Q381 78 367 64T336 35T303 10T278 0Q246 0 203 10T115 34L78 -111Q75 -124
80 -130T98 -136H158Q158 -143 157 -151T153 -167Q137 -175 117 -182T79 -195T46 -200ZM306 61Q317 72 329 105T354 181T376 267T392 343T399 389Q394 399 383 408T359 423T341 429Q337 429 321 407T282 350T234 274T187 194T150 126T133 84Q180 70 228 66T306
61Z" />
<glyph unicode="q" horiz-adv-x="478" d="M292 -200Q272 -200 256 -190T240 -157Q240 -154 243 -135T253 -91L339 229Q347 257 353 276T364 301L359 304Q341 270 320 229T275 148T230 74T187 20T152 0Q136 0 116 9T78 31T47 56T32 75Q31 111 38 156T57 247T81
332T102 397T116 427Q122 433 134 445T162 470T190 491T211 500Q228 500 256 492T317 469T379 437L391 500Q399 500 409 499T429 494T446 483T453 463Q453 460 452 453T449 439Q444 416 433 373T409 274T381 159T355 45T335 -52T325 -117Q324 -126 330 -131T346
-136H404Q404 -142 403 -151T399 -167Q383 -174 364 -182T325 -195T292 -200ZM159 68Q163 68 177 86T213 136T257 203T303 277T343 345T368 395Q327 412 281 422T193 435Q181 423 169 391T146 316T125 231T110 155T104 109Q109 100 120 91T142 75T159 68Z" />
<glyph unicode="r" horiz-adv-x="401" d="M118 0Q111 0 99 5T75 17T53 33T41 46Q45 60 54 92T76 168T102 261Q111 293 118 327T129 387T134 419Q134 430 128 434T109 438H56Q56 446 58 454T62 468Q80 476 99 483T136 495T168 500Q189 500 201 489T213 456Q213
447 208 425T194 372T176 309T156 247T139 199L142 195Q159 230 179 271T223 353T269 427T313 480T353 500Q363 500 373 492T393 472T409 450T416 433Q413 398 402 368T379 316Q368 316 358 318T342 324Q342 333 341 353T339 395T334 430Q325 425 306 402T264 345T218
271T173 194T138 126Q134 112 131 97T128 64Q128 52 129 40T134 14Q133 11 130 8T118 0Z" />
<glyph unicode="s" horiz-adv-x="386" d="M124 0Q107 0 88 8T51 28T21 53T6 75Q12 101 23 126T47 170T64 196Q71 196 76 195T86 191T93 185Q90 169 86 142T76 89Q91 76 113 65T160 54Q179 54 197 59T227 70Q235 78 241 94T252 129T258 167T257 195Q255 201 237
209T192 227T140 249T95 271T73 293Q73 305 76 329T86 380T104 423Q112 431 129 444T172 469T227 491T290 500Q299 500 314 494T345 479T370 460T381 444Q381 436 373 413T354 365T333 327Q327 327 321 328T310 333T303 338Q303 351 303 369T302 405T301 435Q291
439 278 440T251 441Q225 441 203 436T174 428Q164 413 156 383T147 321Q157 312 181 302T235 280T290 255T327 227Q330 204 327 174T317 118T299 75Q286 60 265 47T220 23T170 6T124 0Z" />
<glyph unicode="t" horiz-adv-x="284" d="M108 0Q97 0 79 7T45 23T26 39Q40 83 53 130T79 225T102 316T121 395T133 452L55 463Q55 474 56 483T59 497L127 501Q138 502 144 506T153 524L177 662Q187 666 203 669T235 675L249 659L212 500H317L326 488Q321 477
312 466T291 447L202 450L109 63L120 56Q128 64 143 84T176 129T204 175Q212 175 218 172T227 164Q221 143 207 115T176 61T140 18T108 0Z" />
<glyph unicode="u" horiz-adv-x="538" d="M178 0Q165 0 144 8T102 29T67 53T50 71Q50 98 59 138T81 224T109 311T132 382T141 422Q141 431 135 434T117 438H63Q63 445 65 454T69 468Q90 478 109 485T146 496T175 500Q194 500 206 489T219 460Q219 453 210 424T188
354T161 267T139 178T130 104Q142 90 160 79T186 68Q192 68 210 90T253 150T305 230T356 314T395 385Q400 406 403 439T409 500Q430 500 446 497T471 483T481 456Q481 439 469 384T437 247T391 63L402 56Q411 65 426 86T458 132T484 175Q492 175 498 172T507 164Q500
142 487 114T456 60T422 17T390 0Q378 0 361 7T329 23T311 39L363 214Q373 244 380 267T393 301L388 304Q371 270 349 229T304 148T259 74T216 20T178 0Z" />
<glyph unicode="v" horiz-adv-x="460" d="M181 0Q170 0 154 6T121 23T88 46T63 72Q71 103 78 138T92 211T102 285T109 355T112 415Q112 430 106 434T87 438H34Q34 446 36 455T40 468Q58 476 77 483T115 495T146 500Q168 500 179 489T190 454Q190 421 185 372T171
268T155 169T142 96Q148 90 158 81T179 66T196 60Q209 71 228 94T269 148T312 214T350 282T378 344T388 391Q388 397 377 406T349 427T317 446T294 456Q294 461 295 468T298 478Q306 483 317 487T340 496T357 500Q366 500 382 491T417 469T447 443T459 424Q459
396 443 354T399 264T339 170T276 85T219 23T181 0Z" />
<glyph unicode="w" horiz-adv-x="738" d="M182 0Q172 0 156 6T122 23T89 46T64 72Q72 102 79 136T93 207T103 281T110 352T113 415Q113 430 107 434T88 438H34Q34 446 36 455T40 468Q58 476 77 483T115 495T146 500Q167 500 179 489T191 454Q191 421 186 372T172
269T156 171T143 98Q149 92 159 83T180 68T198 62Q208 70 226 92T267 145T311 213T352 286T382 355T394 410Q394 428 388 433T368 438H311Q311 446 313 455T317 468Q335 476 354 483T392 495T423 500Q445 500 457 489T470 454Q470 420 464 371T450 269T434 170T422
98Q428 92 437 83T457 68T475 62Q486 70 504 92T544 145T587 210T627 279T656 343T667 391Q667 397 656 406T628 426T596 445T572 456Q572 461 573 468T577 478Q583 483 594 487T618 496T635 500Q644 500 660 491T694 469T724 444T737 424Q737 396 721 354T677
264T618 170T554 85T498 23T459 0Q449 0 434 6T401 23T368 46T344 72Q349 86 358 117T378 186T394 261L390 262Q365 215 335 169T274 84T219 23T182 0Z" />
<glyph unicode="x" horiz-adv-x="499" d="M88 0Q80 0 65 9T34 31T7 56T-5 76Q-5 88 12 109T59 156T125 212T198 270L149 407Q146 417 141 424T126 434T98 438H51Q51 446 52 455T56 468Q74 476 93 483T131 495T161 500Q183 500 195 488T214 448L262 285Q293 310
324 335T375 380T395 406Q395 412 386 420T361 436T331 450T304 459Q304 466 305 472T308 481Q316 485 329 489T356 496T376 500Q384 500 399 491T430 469T457 444T469 426Q469 413 451 392T404 346T340 295T272 243L331 61L342 56Q351 64 367 85T401 131T428 175Q436
175 442 172T451 164Q445 143 432 115T402 61T368 17T335 0Q324 0 307 7T276 23T259 44L209 227Q175 201 142 172T86 121T63 91Q63 87 76 81T110 68T148 59Q152 53 154 48T157 38Q148 31 135 22T109 7T88 0Z" />
<glyph unicode="y" horiz-adv-x="461" d="M76 -200Q64 -193 52 -182T32 -160T24 -144Q24 -134 40 -116T82 -72T140 -19T201 39Q181 44 158 53T114 76T84 103Q89 129 94 161T103 228T110 297T115 361T117 414Q117 429 111 433T91 438H34Q34 442 34 448T37 459T40
468Q58 476 77 483T114 495T145 500Q169 500 180 488T191 451Q191 416 189 374T182 287T172 203T162 134Q167 127 182 118T212 103T236 96Q240 96 257 119T296 178T339 254T374 331T388 391Q388 397 377 407T349 427T318 446T295 456Q295 462 296 468T300 478Q306
483 318 488T341 496T358 500Q367 500 383 491T417 469T447 444T460 424Q460 399 449 364T416 288Q372 201 324 133T232 8T153 -97T97 -193L76 -200Z" />
<glyph unicode="z" horiz-adv-x="435" d="M30 0Q24 0 16 12T2 39T-4 63Q39 99 83 146T170 246T248 346T310 433L133 443L95 333Q92 331 85 330T69 328Q64 347 59 373T54 427Q57 435 71 447T102 471T134 491T154 500Q161 500 185 497T241 489T298 482T337 479Q341
479 348 484T362 494T371 500Q374 500 383 494T400 476T408 447L115 80L283 57Q288 61 299 75T324 107T351 143T372 175Q380 175 386 172T395 164Q391 147 378 120T346 66T310 19T275 0Q260 0 235 4T180 14T124 24T83 29Q69 19 52 10T30 0Z" />
<glyph unicode="{" horiz-adv-x="368" d="M116 -164Q104 -164 90 -154T63 -129T41 -101L140 244Q123 262 93 274T43 288Q41 296 39 308T41 342Q62 346 86 352T133 366T169 384L203 723Q219 740 237 756T273 784T302 796Q321 796 344 793T389 786T426 778Q428 774
429 766T428 751L275 736L218 381Q203 360 175 344T112 316V312Q124 307 139 297T168 274T186 241L112 -103L262 -119Q259 -131 254 -138T246 -148Q217 -153 180 -158T116 -164Z" />
<glyph unicode="|" horiz-adv-x="402" d="M81 -200L271 777Q281 785 300 792T343 800Q330 764 316 706T283 556L138 -190Q130 -193 115 -196T81 -200Z" />
<glyph unicode="}" horiz-adv-x="368" d="M92 -164Q74 -164 51 -161T6 -154T-32 -146Q-34 -141 -34 -134T-34 -119L118 -104L176 251Q190 272 218 288T281 316V320Q270 326 255 335T226 359T208 391L282 735L132 751Q135 764 140 770T148 780Q176 785 213 790T278
796Q290 796 304 786T331 762T353 733L254 388Q271 371 301 359T351 344Q353 336 355 324T353 290Q332 286 308 280T261 266T224 248L191 -91Q176 -107 157 -124T121 -152T92 -164Z" />
<glyph unicode="~" horiz-adv-x="561" d="M399 255Q387 255 360 261T299 278T228 299T161 321L72 268Q67 271 62 276T56 286Q73 304 97 323T145 356T181 370Q193 370 220 365T283 350T354 331T421 312L504 378Q513 374 517 369T524 360Q507 337 483 313T436 272T399 255Z" />
<glyph unicode="&#xa0;" horiz-adv-x="200" />
<glyph unicode="&#xa1;" horiz-adv-x="221" d="M-40 -266L96 270Q104 276 115 281T143 288Q135 229 124 161T101 21T76 -118T50 -243Q37 -251 13 -258T-40 -266ZM130 374Q123 374 115 382T98 402T86 427T83 448Q85 454 93 462T114 479T139 494T160 500Q167 500
176 492T194 473T208 450T211 430Q209 422 200 413T177 394T151 380T130 374Z" />
<glyph unicode="&#xa2;" horiz-adv-x="467" d="M195 0Q172 0 149 7T104 26T67 51T45 75Q41 84 40 94T38 116Q38 152 45 194T65 279T93 361T124 427Q138 437 161 450T214 474T274 494T336 502Q353 502 374 498T415 488T453 474T480 459Q472 426 460 391T436 334Q425
334 416 336T401 342L406 431Q397 435 377 439T336 446T304 449Q290 449 269 444T226 432T193 420Q176 397 162 361T136 282T118 200T112 128Q112 122 112 117T113 107Q122 96 136 87T167 70T200 59T230 54Q244 54 266 59T310 71T352 86T382 99Q385 97 388 91T392
76Q379 67 358 54T311 28T255 8T195 0ZM158 -120L306 592Q323 604 339 609T372 615Q361 580 350 539T332 468L212 -110Q202 -114 188 -117T158 -120Z" />
<glyph unicode="&#xa3;" horiz-adv-x="518" d="M34 0Q28 0 20 8T8 28T5 49L63 77Q75 91 91 121T123 186T150 252H54Q58 270 63 280T73 293Q91 293 113 293T154 294Q141 328 134 368T127 447Q127 461 128 473T130 497Q145 510 169 524T222 550T278 570T326 578Q354
578 384 569T438 548T471 527Q467 507 458 481T438 433T421 399Q407 399 399 402T387 409L391 502Q368 512 345 516T302 521Q282 521 262 518T225 511T204 504Q202 492 200 473T198 433Q198 399 203 362T217 296Q260 298 292 300T361 306L369 297Q365 281 359 269T348
252H210Q188 190 171 149T137 77L354 65L421 181Q433 181 443 178T457 170Q452 150 446 128T432 85T419 49Q407 40 387 29T349 9T320 0Q310 0 281 5T217 18T150 30T102 36Q94 31 80 23T53 7T34 0Z" />
<glyph unicode="&#xa4;" horiz-adv-x="590" d="M41 53Q32 62 23 72T7 97L110 172Q109 181 109 187T108 200Q108 233 114 270T133 343T160 404L86 486Q96 496 110 506T145 527Q156 511 171 487T209 434Q247 456 291 473T374 490Q381 490 397 484T433 468T470 445L562
527Q576 517 586 507T601 489Q585 477 572 468T543 447T499 413Q501 410 501 407T501 398Q501 367 493 324T472 241T446 174L521 95Q513 86 498 74T469 54L403 141Q372 119 331 100T249 80Q234 80 213 89T172 111T136 138L41 53ZM273 141Q283 141 299 145T334 156T368
168T388 178Q395 192 402 218T416 276T425 335T429 379Q429 385 429 386T427 389Q426 395 408 404T368 421T329 429Q323 429 308 426T274 418T240 408T216 399Q209 386 202 362T190 308T181 252T177 208Q177 199 177 198T179 190Q180 185 197 173T237 151T273 141Z"
/>
<glyph unicode="&#xa5;" horiz-adv-x="564" d="M268 0Q260 0 240 3T195 10T148 19T115 28Q117 36 120 41T128 50L163 54Q178 56 187 65T204 92T217 138L234 216H63Q67 235 72 245T82 256Q111 256 151 256T230 257L208 312H82Q87 334 92 343T101 354H193L136 497Q131
509 123 515T95 522H71Q70 525 68 530T66 540Q72 544 82 549T104 559T123 564H286Q289 560 290 553T292 539L255 531Q234 527 222 521T209 500Q209 497 215 481T232 438T257 372T287 286H293Q322 328 352 372T412 455T466 523T510 564H604Q606 561 609 554T612
537L578 528Q550 520 521 498T460 440T391 355Q424 357 452 358T500 361L506 353Q502 335 496 325T487 312H360L321 256Q354 257 382 258T433 260T467 263L473 255Q469 239 464 230T454 216H304L283 112Q279 90 271 76T257 57L343 49Q344 47 345 42T346 29Q336
21 322 15T293 4T268 0Z" />
<glyph unicode="&#xa6;" horiz-adv-x="402" d="M190 360L271 777Q281 785 300 792T343 800Q327 750 313 692T283 556L246 368Q232 364 218 362T190 360ZM81 -200L163 220Q177 224 191 226T219 228L138 -190Q130 -193 115 -196T81 -200Z" />
<glyph unicode="&#xa7;" horiz-adv-x="562" d="M169 -200Q150 -200 125 -194T72 -178T22 -156T-16 -131Q-7 -94 2 -63T21 -7T37 39Q45 39 55 39T75 38L68 -104Q85 -113 109 -121T159 -136T205 -142Q224 -142 250 -136T302 -122T343 -107Q352 -93 362 -69T381 -18T392
32T392 69Q388 72 364 82T304 106T229 135T153 166T91 195Q80 207 73 220T64 249T63 278Q73 302 87 326T115 369T136 397Q122 406 115 410T97 423Q98 446 103 475T118 535T139 593T164 640Q182 653 210 667T268 693T328 712T380 720Q409 720 441 712T504 690T553
660Q546 632 535 602T514 545T497 503Q485 503 476 506T463 512L468 639Q441 650 411 657T346 664Q333 664 313 661T271 654T231 643Q216 622 204 591T184 524T173 460Q180 455 206 445T267 422T341 395T412 367T466 345Q477 334 486 316T501 279T505 246Q489 215
467 185T426 132Q446 120 455 113T468 97Q469 43 452 -12T411 -109Q395 -121 368 -137T306 -167T236 -190T169 -200ZM386 154Q403 181 421 216T445 276L176 378Q171 369 161 350T142 307T126 258L386 154Z" />
<glyph unicode="&#xa8;" horiz-adv-x="374" d="M336 591Q329 591 320 601T303 626T296 649Q296 657 305 666T327 683T353 696T372 701Q380 701 388 691T402 666T408 641Q408 634 400 626T380 609T355 596T336 591ZM160 591Q153 591 143 602T127 626T120 649Q120
657 129 666T151 683T176 696T195 701Q203 701 211 691T226 666T232 641Q232 634 224 626T203 609T179 596T160 591Z" />
<glyph unicode="&#xa9;" horiz-adv-x="581" d="M319 226Q289 226 256 236T194 259T144 285T118 304Q109 314 101 335T87 385T82 442Q82 515 95 563T126 647Q149 662 188 680T275 711T370 725Q389 725 416 718T473 698T525 673T558 650Q564 643 568 626T574 587T578
541T579 501Q579 451 571 400T551 317Q539 306 515 291T458 261T391 236T319 226ZM338 333Q318 333 296 342T258 363T237 379Q234 384 231 397T226 428T223 462Q223 494 227 519T236 569Q245 576 264 585T307 602T356 610Q366 610 383 603T413 587T426 575Q426
569 423 554T415 525T406 507Q402 507 397 508T390 510L378 571Q335 571 308 567T275 560Q271 550 269 525T267 485Q267 454 271 431T278 403Q280 401 292 393T319 378T344 371Q352 371 367 374T397 380T416 385Q418 383 420 379T423 370Q407 357 386 345T338 333ZM332
268Q348 268 373 274T424 288T472 306T507 321Q518 345 523 388T529 477Q529 528 524 570T511 628Q508 633 490 641T446 660T391 676T335 683Q319 683 295 679T245 667T197 653T164 639Q155 622 147 594T134 535T129 479Q129 436 137 395T156 334Q170 320 202 305T270
279T332 268Z" />
<glyph unicode="&#xaa;" horiz-adv-x="492" d="M213 350Q199 350 180 357T141 376T110 397T95 414Q95 448 101 486T117 562T137 631T156 683T168 707Q172 712 184 722T211 745T241 766T262 775Q279 775 305 768T362 748T420 723L424 775Q458 775 475 765T493 734Q493
720 483 676T455 563T416 408L426 402Q435 412 448 428T476 464T500 499Q508 499 515 496T523 489Q518 471 506 448T478 402T446 365T415 350Q403 350 385 357T353 373T336 387L382 535Q388 553 393 566T402 588T409 606L403 608Q384 572 359 528T306 443T255 376T213
350ZM222 414Q227 414 245 435T287 490T336 561T381 631T412 683Q384 693 355 698T299 708T246 714Q236 704 225 677T204 615T187 546T174 485T169 447Q179 434 197 424T222 414Z" />
<glyph unicode="&#xab;" horiz-adv-x="543" d="M220 46Q194 72 165 104T110 166T69 221T53 257Q53 266 70 284T116 327T178 378T244 430T303 473Q308 471 312 466T320 447L113 239L115 283L241 71Q233 60 229 55T220 46ZM407 46Q381 72 352 104T297 166T256 221T240
257Q240 266 257 284T303 327T365 378T431 430T490 473Q495 471 499 466T507 447L300 239L302 283L428 71Q420 60 416 55T407 46Z" />
<glyph unicode="&#xac;" horiz-adv-x="605" d="M494 174L529 346H45Q49 367 55 379T65 392Q187 392 277 393T429 396T530 399T588 403L597 389Q583 324 569 269T547 187Q540 183 527 179T494 174Z" />
<glyph unicode="&#xad;" horiz-adv-x="336" d="M38 270Q38 286 44 300T55 318Q101 318 149 319T237 324T300 331L315 315Q315 303 310 291T299 270H38Z" />
<glyph unicode="&#xae;" horiz-adv-x="581" d="M319 226Q289 226 256 236T194 259T144 285T118 304Q109 314 101 335T87 385T82 442Q82 514 95 563T126 647Q149 662 188 680T275 711T370 725Q389 725 416 718T473 698T525 673T558 650Q564 643 568 626T574 587T578
541T579 501Q579 451 571 400T551 317Q539 306 515 291T458 261T391 236T319 226ZM332 268Q348 268 373 274T424 288T472 306T507 321Q518 345 523 388T529 477Q529 511 527 541T521 595T511 628Q508 633 490 641T446 660T391 676T335 683Q319 683 295 679T245
667T197 653T164 639Q155 622 147 594T134 535T129 479Q129 436 137 395T156 334Q170 320 202 305T270 279T332 268ZM294 341Q289 341 278 343T253 348T228 354T211 358Q211 360 212 364T215 373H230Q241 373 246 379T251 410V564Q251 574 253 581T256 589H222Q219
592 218 595T217 599Q220 603 230 608T246 613H369Q376 613 394 606T417 592Q420 588 423 573T427 545Q427 534 424 519T415 495Q408 489 394 481T367 471V468Q373 465 378 461T389 444L402 418Q414 394 425 382T455 370H466Q467 369 469 366T471 357Q463 350 451
346T426 341Q417 341 401 348T370 386L339 455Q336 462 332 464T322 467H294V395Q294 387 293 380T289 370L332 364Q333 363 333 359T334 353Q331 348 318 345T294 341ZM294 491Q316 491 336 492T376 498Q378 505 380 515T383 537Q383 551 381 563T371 584Q356
586 345 587T318 588Q304 588 299 584T294 566V491Z" />
<glyph unicode="&#xaf;" horiz-adv-x="298" d="M69 592Q69 611 72 623T80 640Q110 640 150 642T233 646T309 651T362 654L372 645Q372 628 368 613T361 592H69Z" />
<glyph unicode="&#xb0;" horiz-adv-x="299" d="M169 352Q133 352 104 374T74 440Q74 478 93 509T144 560T213 579Q249 579 278 557T308 490Q308 453 289 422T239 371T169 352ZM178 396Q216 396 236 421T257 495Q257 517 245 526T205 535Q166 535 146 510T125 436Q125
414 137 405T178 396Z" />
<glyph unicode="&#xb1;" horiz-adv-x="488" d="M179 57L261 477Q265 482 279 486T319 490L236 67Q231 64 216 61T179 57ZM51 253Q55 275 61 284T71 296Q126 296 189 297T318 302T440 308L447 299Q442 283 437 271T427 253H51ZM-8 -53Q-4 -31 2 -22T12 -10Q67 -10
130 -9T259 -4T381 2L388 -7Q383 -23 378 -35T368 -53H-8Z" />
<glyph unicode="&#xb2;" horiz-adv-x="375" d="M68 346Q61 347 53 357T43 379Q126 425 187 480T289 594T347 705Q326 713 302 716T247 720Q236 720 223 720T195 719L169 638Q164 633 145 633Q140 645 135 666T128 721Q151 736 182 746T248 763T311 769Q322 769
338 763T371 749T399 731T411 714Q411 697 395 662T348 582T271 492T163 410L316 397L359 462Q370 462 378 460T388 454Q386 443 383 429T376 401T367 375Q359 370 345 363T316 351T292 346Q245 353 206 360T118 378L68 346Z" />
<glyph unicode="&#xb3;" horiz-adv-x="348" d="M117 346Q108 346 93 351T64 365T45 379Q47 388 51 393T60 400Q80 396 98 395T132 393Q152 393 175 395T218 400T250 406Q254 408 261 421T275 450T286 480T290 502Q290 513 273 523T226 543T157 559Q157 566 161
574T171 588L267 586L231 577Q254 588 273 609T306 655T325 705Q303 714 278 717T228 720Q218 720 204 720T176 719L151 638Q148 637 141 635T125 633Q120 644 117 659T112 691T109 721Q131 736 163 746T230 763T295 769Q306 769 322 763T356 749T384 731T395 715Q394
702 385 683T361 643T329 606T294 576L293 573Q330 561 343 546T356 513Q356 501 348 481T329 440T306 402T286 379Q274 371 247 364T185 351T117 346Z" />
<glyph unicode="&#xb4;" horiz-adv-x="182" d="M87 564Q81 568 74 574T65 586Q102 633 135 668T191 723T222 743Q229 743 239 736T259 717T268 692L87 564Z" />
<glyph unicode="&#xb5;" horiz-adv-x="538" d="M75 -200Q46 -200 34 -180T21 -119Q21 -80 29 -23T54 111L88 64Q79 23 74 -11T68 -80Q68 -124 82 -142T140 -161Q142 -163 144 -167T146 -176Q129 -189 109 -194T75 -200ZM178 0Q165 0 144 8T102 29T67 53T50 71Q50
98 59 138T81 224T109 311T132 382T141 422Q141 431 135 434T117 438H63Q63 445 65 454T69 468Q90 478 109 485T146 496T175 500Q194 500 206 489T219 460Q219 453 210 424T188 354T161 267T139 178T130 104Q142 90 160 79T186 68Q192 68 210 90T253 150T305 230T356
314T395 385Q400 406 403 439T409 500Q430 500 446 497T471 483T481 456Q481 439 469 384T437 247T391 63L402 56Q411 65 426 86T458 132T484 175Q492 175 498 172T507 164Q500 142 487 114T456 60T422 17T390 0Q378 0 361 7T329 23T311 39L363 214Q373 244 380
267T393 301L388 304Q371 270 349 229T304 148T259 74T216 20T178 0Z" />
<glyph unicode="&#xb6;" horiz-adv-x="705" d="M159 -200Q141 -200 115 -193T75 -177Q77 -170 80 -164T86 -155Q133 -143 181 -118T260 -63L324 258Q288 257 260 257T212 256Q186 256 160 266T113 291T78 320T60 341Q56 349 54 364T51 398Q51 432 58 471T79 549T109
613Q123 624 149 639T209 669T280 694T349 704H691Q694 700 697 694T699 675L656 662Q628 654 615 637T593 576L447 -180Q437 -188 420 -193T385 -200L538 584Q546 621 555 637T568 658H458L317 -70Q307 -88 286 -110T240 -153T193 -187T159 -200Z" />
<glyph unicode="&#xb7;" horiz-adv-x="228" d="M107 217Q100 217 91 225T73 244T59 268T55 287Q57 295 67 304T90 323T116 337T137 343Q146 343 158 329T178 298T184 269Q182 261 168 249T136 227T107 217Z" />
<glyph unicode="&#xb8;" horiz-adv-x="170" d="M-30 -200Q-36 -200 -48 -196T-71 -187T-83 -176Q-81 -170 -80 -168T-76 -160Q-45 -160 -20 -159T27 -153Q35 -142 40 -128T47 -103Q39 -94 13 -84T-34 -68Q-35 -64 -38 -55T-39 -34Q-27 -18 -15 -1T12 37H41L6 -37Q29
-41 51 -50T89 -70T104 -90Q104 -97 98 -112T84 -143T68 -166Q52 -176 32 -183T-4 -195T-30 -200Z" />
<glyph unicode="&#xb9;" horiz-adv-x="258" d="M185 346Q180 346 167 347T135 351T98 356T65 361T44 366Q46 373 48 376T53 382L91 385Q106 387 114 392T127 409T135 437L179 658Q183 675 187 687T193 704V706L105 698Q107 705 110 713T116 726Q144 733 167 739T212
753T254 769Q263 767 267 765T273 757Q262 741 256 723T243 674L193 422Q190 410 186 400T179 387L246 382Q248 380 248 376T248 367Q243 362 231 357T206 349T185 346Z" />
<glyph unicode="&#xba;" horiz-adv-x="440" d="M208 350Q196 350 180 356T148 371T119 393T97 419Q96 453 103 495T121 578T145 652T173 701Q183 710 203 722T248 747T300 767T351 775Q364 775 382 769T418 752T450 731T467 712Q467 685 461 647T444 567T419 489T390
432Q367 407 337 389T272 360T208 350ZM251 400Q258 400 269 402T292 407T312 414Q328 431 342 467T367 546T385 627T391 686Q383 696 369 704T338 717T307 723Q296 723 281 720T251 711Q233 686 219 648T195 569T179 493T173 438Q185 423 208 412T251 400Z" />
<glyph unicode="&#xbb;" horiz-adv-x="543" d="M57 46Q53 48 48 53T39 72L247 280L245 236L119 448Q127 460 131 465T140 473Q166 447 195 415T250 353T291 298T307 262Q307 253 290 235T244 192T182 141T115 89T57 46ZM244 46Q240 48 235 53T226 72L434 280L432
236L306 448Q314 460 318 465T327 473Q353 447 382 415T437 353T478 298T494 262Q494 253 477 235T431 192T369 141T302 89T244 46Z" />
<glyph unicode="&#xbc;" horiz-adv-x="830" d="M173 286Q168 286 155 287T123 291T86 296T53 301T32 306Q34 313 36 316T41 322L79 325Q94 327 102 332T115 349T123 377L167 598Q171 615 175 627T181 644V646L93 638Q95 645 98 653T104 666Q132 673 155 679T200
693T242 709Q251 707 255 705T261 697Q250 681 244 663T231 614L181 362Q178 350 174 340T167 327L234 322Q236 320 236 316T236 307Q231 302 219 297T194 289T173 286ZM248 -93Q235 -93 220 -88T195 -76L418 513Q442 575 458 622T484 701T500 752Q521 750 535
741T557 723L248 -93ZM632 -5Q631 -5 626 -2T618 3Q624 14 630 29T641 66L649 103H457Q449 115 446 125T440 150L692 406Q700 408 710 410T733 415T760 418L774 409Q770 396 766 379T757 342T746 294L717 147L781 150L786 141Q782 131 778 122T768 104H709L691
8Q681 4 663 0T632 -5ZM495 146H655L684 283Q688 298 694 320T705 352L700 354L495 146Z" />
<glyph unicode="&#xbd;" horiz-adv-x="841" d="M173 286Q168 286 155 287T123 291T86 296T53 301T32 306Q34 313 36 316T41 322L79 325Q94 327 102 332T115 349T123 377L167 598Q171 615 175 627T181 644V646L93 638Q95 645 98 653T104 666Q132 673 155 679T200
693T242 709Q251 707 255 705T261 697Q250 681 244 663T231 614L181 362Q178 350 174 340T167 327L234 322Q236 320 236 316T236 307Q231 302 219 297T194 289T173 286ZM248 -93Q235 -93 220 -88T195 -76L418 513Q442 575 458 622T484 701T500 752Q521 750 535
741T557 723L248 -93ZM465 -4Q458 -3 450 7T440 29Q523 75 584 131T686 245T744 355Q723 363 699 366T644 370Q633 370 620 370T592 369L566 288Q561 283 542 283Q537 295 532 316T525 371Q548 386 579 396T645 413T708 419Q719 419 735 413T768 399T796 381T808
364Q808 347 792 312T745 232T668 142T560 60L713 47L756 112Q767 112 775 110T785 104Q783 93 780 79T773 51T764 25Q756 20 742 13T713 1T689 -4Q642 3 603 10T515 28L465 -4Z" />
<glyph unicode="&#xbe;" horiz-adv-x="920" d="M105 286Q96 286 81 291T52 305T33 319Q35 328 39 333T48 340Q68 336 86 335T120 333Q140 333 163 335T206 340T238 346Q242 348 249 361T263 390T274 420T278 442Q278 453 261 463T214 483T145 499Q145 506 149
514T159 528L255 526L219 517Q242 528 261 549T294 595T313 645Q291 654 266 657T216 660Q206 660 192 660T164 659L139 578Q136 577 129 575T113 573Q108 584 105 599T100 631T97 661Q119 676 151 686T218 703T283 709Q294 709 310 703T344 689T372 671T383 655Q382
642 373 623T349 583T317 546T282 516L281 513Q318 501 331 486T344 453Q344 441 336 421T317 380T294 342T274 319Q262 311 235 304T173 291T105 286ZM338 -93Q325 -93 310 -88T285 -76L508 513Q532 575 548 622T574 701T590 752Q611 750 625 741T647 723L338
-93ZM723 -5Q722 -5 717 -2T709 3Q715 14 721 29T732 66L740 103H548Q540 115 537 125T531 150L783 406Q791 408 801 410T824 415T851 418L865 409Q861 396 857 379T848 342T837 294L808 147L872 150L877 141Q873 131 869 122T859 104H800L782 8Q772 4 754 0T723
-5ZM586 146H746L775 283Q779 298 785 320T796 352L791 354L586 146Z" />
<glyph unicode="&#xbf;" horiz-adv-x="500" d="M145 -276Q123 -276 93 -267T34 -242T-16 -213Q-16 -188 -11 -155T3 -85T22 -18T42 32Q55 50 80 66T133 98T183 123T212 139Q218 156 223 181T231 231T236 272Q244 277 253 282T275 290Q282 268 284 237T285 172T277
107Q261 94 236 80T184 53T137 29T105 13Q97 -13 87 -49T70 -122T63 -190Q74 -195 91 -200T126 -208T157 -212Q183 -212 215 -207T271 -192L311 -65Q318 -61 330 -58T355 -54Q356 -69 355 -99T350 -161T342 -218Q320 -231 285 -244T214 -267T145 -276ZM250 374Q244
374 235 382T219 402T207 427T204 448Q205 454 214 462T235 479T260 494T281 500Q287 500 296 492T314 473T328 449T332 430Q330 422 320 413T297 394T271 380T250 374Z" />
<glyph unicode="&#xc0;" horiz-adv-x="713" d="M125 0Q118 0 100 2T58 9T11 18T-29 28Q-27 34 -23 40T-14 50H0Q11 50 23 56T50 79T81 123T117 190L342 661Q352 670 367 680T400 699T431 714T454 720Q465 720 482 712T517 692T544 670L576 77Q578 63 581 59T597
52L651 47Q653 45 654 39T655 28Q645 22 632 16T606 5T584 0Q576 0 560 2T525 7T486 14T450 22T425 28Q426 35 429 41T437 50H455Q474 50 485 52T502 65T506 103L496 287H221L148 130Q132 96 115 79T90 56L199 47Q202 45 203 40T202 28Q192 21 178 15T149 4T125
0ZM241 332Q299 333 345 334T429 336T495 341L481 632Q464 644 443 654T398 666L241 332ZM518 768L361 898Q368 910 380 923T405 945T426 954Q435 954 454 933T499 876T550 790Q546 786 538 780T518 768Z" />
<glyph unicode="&#xc1;" horiz-adv-x="713" d="M125 0Q118 0 100 2T58 9T11 18T-29 28Q-27 34 -23 40T-14 50H0Q11 50 23 56T50 79T81 123T117 190L342 661Q352 670 367 680T400 699T431 714T454 720Q465 720 482 712T517 692T544 670L576 77Q578 63 581 59T597
52L651 47Q653 45 654 39T655 28Q645 22 632 16T606 5T584 0Q576 0 560 2T525 7T486 14T450 22T425 28Q426 35 429 41T437 50H455Q474 50 485 52T502 65T506 103L496 287H221L148 130Q132 96 115 79T90 56L199 47Q202 45 203 40T202 28Q192 21 178 15T149 4T125
0ZM241 332Q299 333 345 334T429 336T495 341L481 632Q464 644 443 654T398 666L241 332ZM415 768Q408 771 400 779T390 792Q428 840 461 876T520 933T554 954Q561 954 572 946T594 924T604 898L415 768Z" />
<glyph unicode="&#xc2;" horiz-adv-x="713" d="M125 0Q118 0 100 2T58 9T11 18T-29 28Q-27 34 -23 40T-14 50H0Q11 50 23 56T50 79T81 123T117 190L342 661Q352 670 367 680T400 699T431 714T454 720Q465 720 482 712T517 692T544 670L576 77Q578 63 581 59T597
52L651 47Q653 45 654 39T655 28Q645 22 632 16T606 5T584 0Q576 0 560 2T525 7T486 14T450 22T425 28Q426 35 429 41T437 50H455Q474 50 485 52T502 65T506 103L496 287H221L148 130Q132 96 115 79T90 56L199 47Q202 45 203 40T202 28Q192 21 178 15T149 4T125
0ZM241 332Q299 333 345 334T429 336T495 341L481 632Q464 644 443 654T398 666L241 332ZM351 773Q341 778 335 783T327 794Q373 848 406 884T459 938T490 957Q499 957 513 938T546 883T590 794Q587 789 582 783T566 773L480 874L351 773Z" />
<glyph unicode="&#xc3;" horiz-adv-x="713" d="M125 0Q118 0 100 2T58 9T11 18T-29 28Q-27 34 -23 40T-14 50H0Q11 50 23 56T50 79T81 123T117 190L342 661Q352 670 367 680T400 699T431 714T454 720Q465 720 482 712T517 692T544 670L576 77Q578 63 581 59T597
52L651 47Q653 45 654 39T655 28Q645 22 632 16T606 5T584 0Q576 0 560 2T525 7T486 14T450 22T425 28Q426 35 429 41T437 50H455Q474 50 485 52T502 65T506 103L496 287H221L148 130Q132 96 115 79T90 56L199 47Q202 45 203 40T202 28Q192 21 178 15T149 4T125
0ZM241 332Q299 333 345 334T429 336T495 341L481 632Q464 644 443 654T398 666L241 332ZM544 785Q534 785 507 794T446 818T387 845L309 788Q305 790 300 795T292 807Q308 827 326 846T362 879T390 893Q401 893 428 884T489 862T551 836L625 901Q633 899 637 894T643
885Q628 863 609 840T572 801T544 785Z" />
<glyph unicode="&#xc4;" horiz-adv-x="713" d="M125 0Q118 0 100 2T58 9T11 18T-29 28Q-27 34 -23 40T-14 50H0Q11 50 23 56T50 79T81 123T117 190L342 661Q352 670 367 680T400 699T431 714T454 720Q465 720 482 712T517 692T544 670L576 77Q578 63 581 59T597
52L651 47Q653 45 654 39T655 28Q645 22 632 16T606 5T584 0Q576 0 560 2T525 7T486 14T450 22T425 28Q426 35 429 41T437 50H455Q474 50 485 52T502 65T506 103L496 287H221L148 130Q132 96 115 79T90 56L199 47Q202 45 203 40T202 28Q192 21 178 15T149 4T125
0ZM241 332Q299 333 345 334T429 336T495 341L481 632Q464 644 443 654T398 666L241 332ZM414 790Q406 790 396 801T378 828T369 853Q369 861 379 870T404 888T431 902T452 908Q461 908 470 896T485 869T492 844Q492 837 483 828T461 810T435 796T414 790ZM493
790Q485 790 475 801T458 828T450 853Q450 861 460 870T484 888T511 902T532 908Q540 908 549 896T565 869T572 844Q572 837 563 828T541 810T514 796T493 790Z" />
<glyph unicode="&#xc5;" horiz-adv-x="713" d="M125 0Q118 0 100 2T58 9T11 18T-29 28Q-27 34 -23 40T-14 50H0Q11 50 23 56T50 79T81 123T117 190L342 661Q352 670 367 680T400 699T431 714T454 720Q465 720 482 712T517 692T544 670L576 77Q578 63 581 59T597
52L651 47Q653 45 654 39T655 28Q645 22 632 16T606 5T584 0Q576 0 560 2T525 7T486 14T450 22T425 28Q426 35 429 41T437 50H455Q474 50 485 52T502 65T506 103L496 287H221L148 130Q132 96 115 79T90 56L199 47Q202 45 203 40T202 28Q192 21 178 15T149 4T125
0ZM241 332Q299 333 345 334T429 336T495 341L481 632Q464 644 443 654T398 666L241 332ZM461 769Q421 769 396 791T370 851Q370 881 385 905T426 943T483 958Q524 958 549 935T574 875Q574 846 559 822T518 783T461 769ZM466 810Q492 810 509 828T527 871Q527
891 514 904T478 917Q453 917 435 899T416 856Q416 836 430 823T466 810Z" />
<glyph unicode="&#xc6;" horiz-adv-x="938" d="M138 0Q131 0 111 3T66 10T15 19T-28 30Q-26 37 -22 43T-13 53H1Q12 53 24 60T51 84T84 131T123 206L330 634Q339 642 356 654T394 677T432 696T460 704H851Q872 697 893 684T928 657Q914 606 897 562T868 496Q854
496 843 499T827 504L831 644Q814 647 789 649T735 654T681 658T637 660Q598 660 579 656T555 640T550 599L557 376Q597 381 639 386T720 398T791 410L797 402Q793 388 788 372T775 345L560 322L565 149Q566 125 562 107T552 78T537 62H775L854 220Q869 220 879
216T893 207Q888 183 883 157T870 102T852 41Q843 34 827 25T794 8T766 0Q740 0 703 1T624 6T539 12T462 21T404 30Q406 38 409 43T417 53L438 54Q451 54 464 58T487 76T495 119L489 313L228 288L155 135Q138 101 121 83T95 60L214 51Q216 49 217 43T217 29Q206
22 192 15T163 4T138 0ZM250 339Q288 342 323 345T399 354T486 364L479 649Q464 649 438 643T386 626L250 339Z" />
<glyph unicode="&#xc7;" horiz-adv-x="621" d="M279 0Q255 0 225 9T164 33T111 65T78 98Q68 115 63 141T58 202Q58 237 64 282T81 376T106 471T136 555T168 617Q193 636 227 654T299 687T376 711T450 720Q485 720 524 711T597 688T649 657Q638 609 622 564T595
495Q580 496 568 498T552 505L557 625Q545 632 520 639T468 652T420 657Q396 657 364 651T301 634T246 612Q227 583 209 534T175 428T152 316T143 216Q143 190 145 171T152 138Q160 127 178 114T220 89T268 69T312 61Q335 61 360 64T408 72T445 80L518 226Q531
226 544 222T563 213Q557 190 549 162T532 107T518 64Q496 51 460 37T377 11T279 0ZM236 -200Q230 -200 218 -196T195 -187T183 -176Q185 -170 186 -168T190 -160Q221 -160 246 -159T293 -153Q301 -142 306 -128T313 -103Q305 -94 279 -84T232 -68Q231 -64 228
-55T227 -34Q239 -18 251 -1T278 37H307L272 -37Q295 -41 317 -50T355 -70T370 -90Q370 -97 364 -112T350 -143T334 -166Q318 -176 298 -183T262 -195T236 -200Z" />
<glyph unicode="&#xc8;" horiz-adv-x="580" d="M395 0Q369 0 328 1T239 6T143 13T56 21T-8 29Q-6 37 -3 42T6 52L32 56Q49 58 60 63T80 87T96 144L180 580Q187 611 196 631T212 658H125Q123 660 120 664T117 676Q124 682 136 688T162 699T181 704H531Q554 696
574 684T604 658Q595 625 585 593T564 536T543 500Q533 495 522 499T507 506L513 645Q494 648 463 651T396 657T327 660Q303 660 289 651T266 625T253 583L214 388Q257 390 289 391T354 396T434 403L442 392Q437 374 432 361T422 339H206L163 124Q159 102 151 86T136
61H405L484 218Q497 218 507 214T518 205Q516 184 509 154T494 94T478 41Q468 34 452 25T420 8T395 0ZM451 768L294 898Q301 910 313 923T338 945T359 954Q368 954 387 933T432 876T483 790Q479 786 471 780T451 768Z" />
<glyph unicode="&#xc9;" horiz-adv-x="580" d="M395 0Q369 0 328 1T239 6T143 13T56 21T-8 29Q-6 37 -3 42T6 52L32 56Q49 58 60 63T80 87T96 144L180 580Q187 611 196 631T212 658H125Q123 660 120 664T117 676Q124 682 136 688T162 699T181 704H531Q554 696
574 684T604 658Q595 625 585 593T564 536T543 500Q533 495 522 499T507 506L513 645Q494 648 463 651T396 657T327 660Q303 660 289 651T266 625T253 583L214 388Q257 390 289 391T354 396T434 403L442 392Q437 374 432 361T422 339H206L163 124Q159 102 151 86T136
61H405L484 218Q497 218 507 214T518 205Q516 184 509 154T494 94T478 41Q468 34 452 25T420 8T395 0ZM348 768Q341 771 333 779T323 792Q361 840 394 876T453 933T487 954Q494 954 505 946T527 924T537 898L348 768Z" />
<glyph unicode="&#xca;" horiz-adv-x="580" d="M395 0Q369 0 328 1T239 6T143 13T56 21T-8 29Q-6 37 -3 42T6 52L32 56Q49 58 60 63T80 87T96 144L180 580Q187 611 196 631T212 658H125Q123 660 120 664T117 676Q124 682 136 688T162 699T181 704H531Q554 696
574 684T604 658Q595 625 585 593T564 536T543 500Q533 495 522 499T507 506L513 645Q494 648 463 651T396 657T327 660Q303 660 289 651T266 625T253 583L214 388Q257 390 289 391T354 396T434 403L442 392Q437 374 432 361T422 339H206L163 124Q159 102 151 86T136
61H405L484 218Q497 218 507 214T518 205Q516 184 509 154T494 94T478 41Q468 34 452 25T420 8T395 0ZM284 773Q274 778 268 783T260 794Q306 848 339 884T392 938T423 957Q432 957 446 938T479 883T523 794Q520 789 515 783T499 773L413 874L284 773Z" />
<glyph unicode="&#xcb;" horiz-adv-x="580" d="M395 0Q369 0 328 1T239 6T143 13T56 21T-8 29Q-6 37 -3 42T6 52L32 56Q49 58 60 63T80 87T96 144L180 580Q187 611 196 631T212 658H125Q123 660 120 664T117 676Q124 682 136 688T162 699T181 704H531Q554 696
574 684T604 658Q595 625 585 593T564 536T543 500Q533 495 522 499T507 506L513 645Q494 648 463 651T396 657T327 660Q303 660 289 651T266 625T253 583L214 388Q257 390 289 391T354 396T434 403L442 392Q437 374 432 361T422 339H206L163 124Q159 102 151 86T136
61H405L484 218Q497 218 507 214T518 205Q516 184 509 154T494 94T478 41Q468 34 452 25T420 8T395 0ZM347 790Q339 790 329 801T311 828T302 853Q302 861 312 870T337 888T364 902T385 908Q394 908 403 896T418 869T425 844Q425 837 416 828T394 810T368 796T347
790ZM426 790Q418 790 408 801T391 828T383 853Q383 861 393 870T417 888T444 902T465 908Q473 908 482 896T498 869T505 844Q505 837 496 828T474 810T447 796T426 790Z" />
<glyph unicode="&#xcc;" horiz-adv-x="311" d="M151 0Q144 0 129 2T93 7T53 15T16 23T-8 30Q-6 38 -2 43T6 52L33 56Q51 59 62 65T81 89T96 146L181 582Q190 621 199 637T212 657H125Q122 660 120 664T117 675Q124 681 136 687T161 699T180 704H349Q353 700 357
693T360 674L314 661Q284 653 272 634T252 575L164 124Q160 101 152 85T136 60L228 50Q229 49 231 43T233 30Q217 18 194 9T151 0ZM320 768L163 898Q170 910 182 923T207 945T228 954Q237 954 256 933T301 876T352 790Q348 786 340 780T320 768Z" />
<glyph unicode="&#xcd;" horiz-adv-x="311" d="M151 0Q144 0 129 2T93 7T53 15T16 23T-8 30Q-6 38 -2 43T6 52L33 56Q51 59 62 65T81 89T96 146L181 582Q190 621 199 637T212 657H125Q122 660 120 664T117 675Q124 681 136 687T161 699T180 704H349Q353 700 357
693T360 674L314 661Q284 653 272 634T252 575L164 124Q160 101 152 85T136 60L228 50Q229 49 231 43T233 30Q217 18 194 9T151 0ZM217 768Q210 771 202 779T192 792Q230 840 263 876T322 933T356 954Q363 954 374 946T396 924T406 898L217 768Z" />
<glyph unicode="&#xce;" horiz-adv-x="311" d="M151 0Q144 0 129 2T93 7T53 15T16 23T-8 30Q-6 38 -2 43T6 52L33 56Q51 59 62 65T81 89T96 146L181 582Q190 621 199 637T212 657H125Q122 660 120 664T117 675Q124 681 136 687T161 699T180 704H349Q353 700 357
693T360 674L314 661Q284 653 272 634T252 575L164 124Q160 101 152 85T136 60L228 50Q229 49 231 43T233 30Q217 18 194 9T151 0ZM153 773Q143 778 137 783T129 794Q175 848 208 884T261 938T292 957Q301 957 315 938T348 883T392 794Q389 789 384 783T368 773L282
874L153 773Z" />
<glyph unicode="&#xcf;" horiz-adv-x="311" d="M151 0Q144 0 129 2T93 7T53 15T16 23T-8 30Q-6 38 -2 43T6 52L33 56Q51 59 62 65T81 89T96 146L181 582Q190 621 199 637T212 657H125Q122 660 120 664T117 675Q124 681 136 687T161 699T180 704H349Q353 700 357
693T360 674L314 661Q284 653 272 634T252 575L164 124Q160 101 152 85T136 60L228 50Q229 49 231 43T233 30Q217 18 194 9T151 0ZM216 790Q208 790 198 801T180 828T171 853Q171 861 181 870T206 888T233 902T254 908Q263 908 272 896T287 869T294 844Q294 837
285 828T263 810T237 796T216 790ZM295 790Q287 790 277 801T260 828T252 853Q252 861 262 870T286 888T313 902T334 908Q342 908 351 896T367 869T374 844Q374 837 365 828T343 810T316 796T295 790Z" />
<glyph unicode="&#xd0;" horiz-adv-x="680" d="M54 336Q58 353 62 362T70 374H136L196 377Q266 378 318 381T414 389L420 382Q415 365 410 355T399 337H188L128 336H54ZM371 0Q346 0 308 1T225 6T136 13T54 21T-8 30Q-5 38 -2 43T5 52L33 56Q52 59 63 67T82 94T96
145L178 580Q186 617 196 635T213 657H124Q121 661 120 665T118 675Q124 681 137 687T163 699T182 704H526Q542 700 559 693T593 675T623 654T647 631Q656 609 660 581T664 522Q664 471 654 409T626 285T585 170T536 88Q520 73 500 59T457 34T412 14T371 0ZM141
62H422Q446 76 469 112T512 200T547 308T570 420T579 517Q579 558 571 590T542 640Q523 645 489 649T413 656T329 659Q304 659 290 649T269 621T257 582L168 125Q163 100 155 85T141 62Z" />
<glyph unicode="&#xd1;" horiz-adv-x="715" d="M149 0Q141 0 120 3T74 11T26 21T-8 30Q-6 35 -3 42T5 52L33 56Q48 59 59 65T80 90T97 149L181 580Q188 613 197 632T213 657H124Q123 660 121 665T118 676Q125 682 137 688T163 699T182 704H284L532 121Q534 141
536 160T541 201T550 251L616 577Q623 609 631 629T647 654H557Q555 656 553 661T551 673Q557 678 570 685T596 698T614 704H769Q772 700 776 692T779 674L733 660Q714 654 703 646T684 620T670 568L590 165Q580 114 577 79T573 22Q563 16 552 11T529 4T508 0L284
526Q268 563 263 585T257 620H250Q248 615 246 609T241 592T233 559L148 124Q142 101 135 85T121 62L231 50Q233 48 235 42T236 30Q217 16 191 8T149 0ZM546 785Q536 785 509 794T448 818T389 845L311 788Q307 790 302 795T294 807Q310 827 328 846T364 879T392
893Q403 893 430 884T491 862T553 836L627 901Q635 899 639 894T645 885Q630 863 611 840T574 801T546 785Z" />
<glyph unicode="&#xd2;" horiz-adv-x="662" d="M271 0Q247 0 218 9T159 34T108 66T75 97Q65 116 61 142T57 198Q57 234 63 279T81 374T107 470T137 555T168 619Q190 634 221 651T290 684T367 710T448 720Q471 720 500 711T557 688T608 656T641 622Q647 606 649
585T651 545Q651 508 645 460T627 361T600 260T568 169T534 103Q507 81 466 57T375 17T271 0ZM304 60Q332 60 363 69T421 89T460 110Q478 134 494 173T524 260T548 358T564 454T570 538Q570 551 570 563T568 586Q564 594 547 606T507 631T458 651T411 659Q386 659
355 652T293 634T241 612Q222 581 204 530T170 420T146 303T137 199Q137 180 138 165T143 137Q151 126 169 113T211 88T259 68T304 60ZM499 768L342 898Q349 910 361 923T386 945T407 954Q416 954 435 933T480 876T531 790Q527 786 519 780T499 768Z" />
<glyph unicode="&#xd3;" horiz-adv-x="662" d="M271 0Q247 0 218 9T159 34T108 66T75 97Q65 116 61 142T57 198Q57 234 63 279T81 374T107 470T137 555T168 619Q190 634 221 651T290 684T367 710T448 720Q471 720 500 711T557 688T608 656T641 622Q647 606 649
585T651 545Q651 508 645 460T627 361T600 260T568 169T534 103Q507 81 466 57T375 17T271 0ZM304 60Q332 60 363 69T421 89T460 110Q478 134 494 173T524 260T548 358T564 454T570 538Q570 551 570 563T568 586Q564 594 547 606T507 631T458 651T411 659Q386 659
355 652T293 634T241 612Q222 581 204 530T170 420T146 303T137 199Q137 180 138 165T143 137Q151 126 169 113T211 88T259 68T304 60ZM396 768Q389 771 381 779T371 792Q409 840 442 876T501 933T535 954Q542 954 553 946T575 924T585 898L396 768Z" />
<glyph unicode="&#xd4;" horiz-adv-x="662" d="M271 0Q247 0 218 9T159 34T108 66T75 97Q65 116 61 142T57 198Q57 234 63 279T81 374T107 470T137 555T168 619Q190 634 221 651T290 684T367 710T448 720Q471 720 500 711T557 688T608 656T641 622Q647 606 649
585T651 545Q651 508 645 460T627 361T600 260T568 169T534 103Q507 81 466 57T375 17T271 0ZM304 60Q332 60 363 69T421 89T460 110Q478 134 494 173T524 260T548 358T564 454T570 538Q570 551 570 563T568 586Q564 594 547 606T507 631T458 651T411 659Q386 659
355 652T293 634T241 612Q222 581 204 530T170 420T146 303T137 199Q137 180 138 165T143 137Q151 126 169 113T211 88T259 68T304 60ZM332 773Q322 778 316 783T308 794Q354 848 387 884T440 938T471 957Q480 957 494 938T527 883T571 794Q568 789 563 783T547
773L461 874L332 773Z" />
<glyph unicode="&#xd5;" horiz-adv-x="662" d="M271 0Q247 0 218 9T159 34T108 66T75 97Q65 116 61 142T57 198Q57 234 63 279T81 374T107 470T137 555T168 619Q190 634 221 651T290 684T367 710T448 720Q471 720 500 711T557 688T608 656T641 622Q647 606 649
585T651 545Q651 508 645 460T627 361T600 260T568 169T534 103Q507 81 466 57T375 17T271 0ZM304 60Q332 60 363 69T421 89T460 110Q478 134 494 173T524 260T548 358T564 454T570 538Q570 551 570 563T568 586Q564 594 547 606T507 631T458 651T411 659Q386 659
355 652T293 634T241 612Q222 581 204 530T170 420T146 303T137 199Q137 180 138 165T143 137Q151 126 169 113T211 88T259 68T304 60ZM525 785Q515 785 488 794T427 818T368 845L290 788Q286 790 281 795T273 807Q289 827 307 846T343 879T371 893Q382 893 409
884T470 862T532 836L606 901Q614 899 618 894T624 885Q609 863 590 840T553 801T525 785Z" />
<glyph unicode="&#xd6;" horiz-adv-x="662" d="M271 0Q247 0 218 9T159 34T108 66T75 97Q65 116 61 142T57 198Q57 234 63 279T81 374T107 470T137 555T168 619Q190 634 221 651T290 684T367 710T448 720Q471 720 500 711T557 688T608 656T641 622Q647 606 649
585T651 545Q651 508 645 460T627 361T600 260T568 169T534 103Q507 81 466 57T375 17T271 0ZM304 60Q332 60 363 69T421 89T460 110Q478 134 494 173T524 260T548 358T564 454T570 538Q570 551 570 563T568 586Q564 594 547 606T507 631T458 651T411 659Q386 659
355 652T293 634T241 612Q222 581 204 530T170 420T146 303T137 199Q137 180 138 165T143 137Q151 126 169 113T211 88T259 68T304 60ZM395 790Q387 790 377 801T359 828T350 853Q350 861 360 870T385 888T412 902T433 908Q442 908 451 896T466 869T473 844Q473
837 464 828T442 810T416 796T395 790ZM474 790Q466 790 456 801T439 828T431 853Q431 861 441 870T465 888T492 902T513 908Q521 908 530 896T546 869T553 844Q553 837 544 828T522 810T495 796T474 790Z" />
<glyph unicode="&#xd7;" horiz-adv-x="488" d="M75 114Q62 121 57 129T49 145L220 293L112 439Q123 451 136 460T161 476L262 330Q295 359 325 386T379 435T419 475Q433 465 442 454T455 432L286 295L386 146Q380 138 372 130T351 114L245 259L75 114Z" />
<glyph unicode="&#xd8;" horiz-adv-x="662" d="M128 -91Q113 -91 104 -86T89 -76L402 513Q432 566 463 623T521 730T565 812Q585 809 596 802T611 787L128 -91ZM271 0Q247 0 218 9T159 34T108 66T75 97Q65 116 61 142T57 198Q57 234 63 279T81 374T107 470T137
555T168 619Q190 634 221 651T290 684T367 710T448 720Q471 720 500 711T557 688T608 656T641 622Q647 606 649 585T651 545Q651 508 645 460T627 361T600 260T568 169T534 103Q507 81 466 57T375 17T271 0ZM304 60Q332 60 363 69T421 89T460 110Q478 134 494 173T524
260T548 358T564 454T570 538Q570 551 570 563T568 586Q564 594 547 606T507 631T458 651T411 659Q386 659 355 652T293 634T241 612Q222 581 204 530T170 420T146 303T137 199Q137 180 138 165T143 137Q151 126 169 113T211 88T259 68T304 60Z" />
<glyph unicode="&#xd9;" horiz-adv-x="681" d="M316 0Q287 0 256 7T194 27T140 54T101 81T85 104L177 579Q184 613 193 632T209 657H121Q120 659 117 663T114 675Q120 681 132 687T158 699T177 704H345Q348 701 352 694T356 674L312 661Q282 653 269 635T248 575L161
125Q168 116 188 104T235 81T287 63T331 55Q356 55 388 67T449 96T490 124L579 579Q587 615 596 633T611 657H523Q522 659 520 663T517 675Q524 682 537 688T562 699T579 704H731Q733 700 737 694T741 674L695 660Q677 655 665 646T646 619T632 568L543 104Q530
90 503 72T443 38T376 11T316 0ZM511 768L354 898Q361 910 373 923T398 945T419 954Q428 954 447 933T492 876T543 790Q539 786 531 780T511 768Z" />
<glyph unicode="&#xda;" horiz-adv-x="681" d="M316 0Q287 0 256 7T194 27T140 54T101 81T85 104L177 579Q184 613 193 632T209 657H121Q120 659 117 663T114 675Q120 681 132 687T158 699T177 704H345Q348 701 352 694T356 674L312 661Q282 653 269 635T248 575L161
125Q168 116 188 104T235 81T287 63T331 55Q356 55 388 67T449 96T490 124L579 579Q587 615 596 633T611 657H523Q522 659 520 663T517 675Q524 682 537 688T562 699T579 704H731Q733 700 737 694T741 674L695 660Q677 655 665 646T646 619T632 568L543 104Q530
90 503 72T443 38T376 11T316 0ZM408 768Q401 771 393 779T383 792Q421 840 454 876T513 933T547 954Q554 954 565 946T587 924T597 898L408 768Z" />
<glyph unicode="&#xdb;" horiz-adv-x="681" d="M316 0Q287 0 256 7T194 27T140 54T101 81T85 104L177 579Q184 613 193 632T209 657H121Q120 659 117 663T114 675Q120 681 132 687T158 699T177 704H345Q348 701 352 694T356 674L312 661Q282 653 269 635T248 575L161
125Q168 116 188 104T235 81T287 63T331 55Q356 55 388 67T449 96T490 124L579 579Q587 615 596 633T611 657H523Q522 659 520 663T517 675Q524 682 537 688T562 699T579 704H731Q733 700 737 694T741 674L695 660Q677 655 665 646T646 619T632 568L543 104Q530
90 503 72T443 38T376 11T316 0ZM345 773Q335 778 329 783T321 794Q367 848 400 884T453 938T484 957Q493 957 507 938T540 883T584 794Q581 789 576 783T560 773L474 874L345 773Z" />
<glyph unicode="&#xdc;" horiz-adv-x="681" d="M316 0Q287 0 256 7T194 27T140 54T101 81T85 104L177 579Q184 613 193 632T209 657H121Q120 659 117 663T114 675Q120 681 132 687T158 699T177 704H345Q348 701 352 694T356 674L312 661Q282 653 269 635T248 575L161
125Q168 116 188 104T235 81T287 63T331 55Q356 55 388 67T449 96T490 124L579 579Q587 615 596 633T611 657H523Q522 659 520 663T517 675Q524 682 537 688T562 699T579 704H731Q733 700 737 694T741 674L695 660Q677 655 665 646T646 619T632 568L543 104Q530
90 503 72T443 38T376 11T316 0ZM407 790Q399 790 389 801T371 828T362 853Q362 861 372 870T397 888T424 902T445 908Q454 908 463 896T478 869T485 844Q485 837 476 828T454 810T428 796T407 790ZM486 790Q478 790 468 801T451 828T443 853Q443 861 453 870T477
888T504 902T525 908Q533 908 542 896T558 869T565 844Q565 837 556 828T534 810T507 796T486 790Z" />
<glyph unicode="&#xdd;" horiz-adv-x="635" d="M318 0Q311 0 296 2T259 7T218 15T181 23T156 30Q158 38 161 43T168 52L198 56Q212 59 223 64T244 87T261 146L294 307L176 628Q170 643 161 650T130 657H99Q97 659 95 663T92 675Q98 681 111 687T137 699T157 704H343Q346
700 350 693T353 674L302 662Q281 657 267 650T253 626Q253 622 254 615T259 598L342 357H345Q380 421 414 479T480 583T538 661T581 704H699Q702 700 706 693T709 674L664 661Q646 656 627 644T584 608T530 542T459 440T366 290L331 123Q326 100 318 83T304 61L397
50Q399 47 400 43T402 30Q385 17 361 9T318 0ZM378 768Q371 771 363 779T353 792Q391 840 424 876T483 933T517 954Q524 954 535 946T557 924T567 898L378 768Z" />
<glyph unicode="&#xde;" horiz-adv-x="563" d="M150 0Q145 0 130 2T95 7T55 14T18 22T-8 29Q-7 36 -2 42T5 51L32 55Q49 58 60 65T80 91T95 142L182 582Q190 616 198 635T211 658H124Q122 661 120 666T118 676Q125 682 137 688T163 699T181 704H353Q355 700 359
693T361 675L317 662Q300 656 288 648T267 623T252 576L244 536H453Q473 530 492 520T527 497T554 472Q558 462 559 451T560 431Q560 400 551 364T527 298T492 249Q474 233 442 214T376 192H178L164 121Q159 98 152 83T137 59L230 49Q232 48 233 41T233 29Q218
19 194 10T150 0ZM186 238Q250 238 310 241T418 251Q435 268 449 297T472 359T480 422Q480 437 477 452T469 476Q447 482 417 485T356 491T301 493Q274 493 259 485T235 460T222 417L186 238Z" />
<glyph unicode="&#xdf;" horiz-adv-x="582" d="M-77 -200Q-84 -200 -94 -197T-117 -189T-138 -179T-153 -168Q-151 -159 -150 -156T-146 -148Q-110 -143 -74 -134T-6 -112Q0 -100 7 -78T22 -25T39 38T55 104T69 165Q85 238 101 306T134 451L50 462Q50 471 52 480T56
493L134 501Q145 502 150 507T157 524L167 713Q179 727 199 740T242 763T288 782T329 795T357 800Q384 800 415 793T474 774T518 754T535 738Q532 695 528 655T518 580T507 521T496 481Q439 468 410 462T371 446Q363 429 355 393T346 320Q356 311 380 301T433 280T487
255T523 226Q527 205 524 177T514 122T496 80Q484 64 464 50T418 24T368 7T321 0Q304 0 286 8T250 28T220 53T205 75Q211 101 222 125T245 169T263 195Q269 195 274 194T283 191T291 185Q289 175 286 156T279 117T274 88Q289 75 311 64T357 53Q377 53 395 58T424
70Q433 78 439 94T450 131T455 169T454 196Q452 202 434 210T390 229T339 250T295 273T273 295Q273 306 276 334T285 392T304 438Q317 454 345 473T414 513T501 555L465 507Q465 549 465 588T464 658T459 708T448 732Q441 736 420 736T373 736T319 731T270 725T239
717L214 500L79 -87Q73 -98 55 -117T12 -155T-37 -187T-77 -200Z" />
<glyph unicode="&#xe0;" horiz-adv-x="509" d="M151 0Q135 0 116 9T78 31T47 56T32 75Q31 112 38 157T57 248T81 332T102 397T116 427Q122 433 134 445T162 470T190 491T211 500Q228 500 256 492T317 469T380 436L386 500Q420 500 436 490T452 456Q452 439 440
385T408 248T362 63L373 56Q382 65 397 85T428 130T455 175Q463 175 469 172T477 164Q471 143 458 115T427 61T393 18T360 0Q349 0 332 7T300 23T282 39L334 214Q340 235 346 253T357 284T364 301L359 304Q341 270 320 229T275 148T229 74T186 20T151 0ZM159 66Q163
66 178 84T213 134T258 202T304 276T344 344T370 395Q329 411 283 421T193 435Q181 423 169 390T145 315T124 229T109 153T103 106Q112 91 131 79T159 66ZM380 564L233 692Q240 703 251 715T274 735T293 743Q301 743 319 724T361 669T409 585Q405 580 397 574T380
564Z" />
<glyph unicode="&#xe1;" horiz-adv-x="509" d="M151 0Q135 0 116 9T78 31T47 56T32 75Q31 112 38 157T57 248T81 332T102 397T116 427Q122 433 134 445T162 470T190 491T211 500Q228 500 256 492T317 469T380 436L386 500Q420 500 436 490T452 456Q452 439 440
385T408 248T362 63L373 56Q382 65 397 85T428 130T455 175Q463 175 469 172T477 164Q471 143 458 115T427 61T393 18T360 0Q349 0 332 7T300 23T282 39L334 214Q340 235 346 253T357 284T364 301L359 304Q341 270 320 229T275 148T229 74T186 20T151 0ZM159 66Q163
66 178 84T213 134T258 202T304 276T344 344T370 395Q329 411 283 421T193 435Q181 423 169 390T145 315T124 229T109 153T103 106Q112 91 131 79T159 66ZM281 564Q275 568 268 574T259 586Q296 633 329 668T385 723T416 743Q423 743 433 736T453 717T462 692L281
564Z" />
<glyph unicode="&#xe2;" horiz-adv-x="509" d="M151 0Q135 0 116 9T78 31T47 56T32 75Q31 112 38 157T57 248T81 332T102 397T116 427Q122 433 134 445T162 470T190 491T211 500Q228 500 256 492T317 469T380 436L386 500Q420 500 436 490T452 456Q452 439 440
385T408 248T362 63L373 56Q382 65 397 85T428 130T455 175Q463 175 469 172T477 164Q471 143 458 115T427 61T393 18T360 0Q349 0 332 7T300 23T282 39L334 214Q340 235 346 253T357 284T364 301L359 304Q341 270 320 229T275 148T229 74T186 20T151 0ZM159 66Q163
66 178 84T213 134T258 202T304 276T344 344T370 395Q329 411 283 421T193 435Q181 423 169 390T145 315T124 229T109 153T103 106Q112 91 131 79T159 66ZM221 571Q213 576 207 581T200 590Q246 646 277 681T327 732T354 749Q362 749 375 732T407 679T448 590Q444
586 440 581T426 571L344 671L221 571Z" />
<glyph unicode="&#xe3;" horiz-adv-x="509" d="M151 0Q135 0 116 9T78 31T47 56T32 75Q31 112 38 157T57 248T81 332T102 397T116 427Q122 433 134 445T162 470T190 491T211 500Q228 500 256 492T317 469T380 436L386 500Q420 500 436 490T452 456Q452 439 440
385T408 248T362 63L373 56Q382 65 397 85T428 130T455 175Q463 175 469 172T477 164Q471 143 458 115T427 61T393 18T360 0Q349 0 332 7T300 23T282 39L334 214Q340 235 346 253T357 284T364 301L359 304Q341 270 320 229T275 148T229 74T186 20T151 0ZM159 66Q163
66 178 84T213 134T258 202T304 276T344 344T370 395Q329 411 283 421T193 435Q181 423 169 390T145 315T124 229T109 153T103 106Q112 91 131 79T159 66ZM408 581Q398 581 371 590T310 614T251 641L173 584Q169 586 164 591T156 603Q172 623 190 642T226 675T254
689Q265 689 292 680T353 658T415 632L489 697Q497 695 501 690T507 681Q492 659 473 636T436 597T408 581Z" />
<glyph unicode="&#xe4;" horiz-adv-x="509" d="M151 0Q135 0 116 9T78 31T47 56T32 75Q31 112 38 157T57 248T81 332T102 397T116 427Q122 433 134 445T162 470T190 491T211 500Q228 500 256 492T317 469T380 436L386 500Q420 500 436 490T452 456Q452 439 440
385T408 248T362 63L373 56Q382 65 397 85T428 130T455 175Q463 175 469 172T477 164Q471 143 458 115T427 61T393 18T360 0Q349 0 332 7T300 23T282 39L334 214Q340 235 346 253T357 284T364 301L359 304Q341 270 320 229T275 148T229 74T186 20T151 0ZM159 66Q163
66 178 84T213 134T258 202T304 276T344 344T370 395Q329 411 283 421T193 435Q181 423 169 390T145 315T124 229T109 153T103 106Q112 91 131 79T159 66ZM355 591Q349 591 339 602T323 626T316 649Q316 657 325 666T347 683T372 696T391 701Q399 701 407 691T422
666T428 641Q428 634 420 626T399 609T374 596T355 591ZM280 591Q274 591 264 601T247 626T240 649Q240 657 249 666T271 683T297 696T316 701Q324 701 332 691T347 666T353 641Q353 634 345 626T324 609T300 596T280 591Z" />
<glyph unicode="&#xe5;" horiz-adv-x="509" d="M151 0Q135 0 116 9T78 31T47 56T32 75Q31 112 38 157T57 248T81 332T102 397T116 427Q122 433 134 445T162 470T190 491T211 500Q228 500 256 492T317 469T380 436L386 500Q420 500 436 490T452 456Q452 439 440
385T408 248T362 63L373 56Q382 65 397 85T428 130T455 175Q463 175 469 172T477 164Q471 143 458 115T427 61T393 18T360 0Q349 0 332 7T300 23T282 39L334 214Q340 235 346 253T357 284T364 301L359 304Q341 270 320 229T275 148T229 74T186 20T151 0ZM159 66Q163
66 178 84T213 134T258 202T304 276T344 344T370 395Q329 411 283 421T193 435Q181 423 169 390T145 315T124 229T109 153T103 106Q112 91 131 79T159 66ZM325 565Q285 565 260 587T234 647Q234 677 249 701T290 739T347 754Q388 754 413 731T438 671Q438 642 423
618T382 579T325 565ZM330 606Q356 606 373 624T391 667Q391 687 378 700T342 713Q317 713 299 695T280 652Q280 632 294 619T330 606Z" />
<glyph unicode="&#xe6;" horiz-adv-x="669" d="M146 0Q131 0 113 9T76 31T46 56T32 75Q31 111 38 156T57 247T81 332T102 397T116 427Q122 433 134 445T162 470T190 491T211 500Q228 500 256 492T318 469T380 436L386 500Q426 500 440 488T450 443Q476 463 513
481T586 500Q600 500 619 489T654 464T671 441Q668 420 661 396T643 351T624 317Q606 299 571 279T492 239T404 204Q400 174 397 149T391 97Q398 87 411 77T442 59T475 52Q485 52 500 67T533 105T565 147T588 176Q597 176 601 172T608 163Q594 130 571 92T513 27T431
0Q420 0 405 7T375 26T346 53T323 84Q323 105 328 141T344 220T365 301L359 304Q341 270 319 229T273 148T226 74T183 20T146 0ZM158 66Q162 66 177 84T213 134T259 202T306 276T347 345T373 395Q331 411 284 421T193 435Q181 423 169 390T145 314T124 229T109
153T103 106Q111 92 130 79T158 66ZM411 250Q445 262 478 276T541 306T589 335Q593 345 594 359T596 385Q596 402 594 416T589 439Q566 440 539 437T488 426T447 409Q437 381 428 339T411 250Z" />
<glyph unicode="&#xe7;" horiz-adv-x="377" d="M146 0Q132 0 116 7T82 25T52 50T32 77Q32 118 40 167T62 266T90 354T121 414Q134 424 153 438T198 467T249 490T302 500Q317 500 335 490T368 465T383 442Q379 411 367 379T344 328Q333 328 325 330T310 336Q310
348 310 368T309 407T305 435Q294 440 284 442T266 444Q250 444 230 438T194 424Q174 398 159 355T131 263T113 169T105 97Q115 85 130 75T161 59T187 53Q200 53 216 65T249 96T282 135T309 172Q317 172 322 169T330 160Q318 126 295 89T236 26T146 0ZM102 -200Q96
-200 84 -196T61 -187T49 -176Q51 -170 52 -168T56 -160Q87 -160 112 -159T159 -153Q167 -142 172 -128T179 -103Q171 -94 145 -84T98 -68Q97 -64 94 -55T93 -34Q105 -18 117 -1T144 37H173L138 -37Q161 -41 183 -50T221 -70T236 -90Q236 -97 230 -112T216 -143T200
-166Q184 -176 164 -183T128 -195T102 -200Z" />
<glyph unicode="&#xe8;" horiz-adv-x="390" d="M141 0Q131 0 116 7T86 26T56 53T33 84Q33 129 42 178T65 272T93 352T119 405Q128 415 148 431T194 463T249 489T307 500Q321 500 341 489T376 464T392 441Q389 420 382 396T364 351T345 317Q327 299 291 279T210
239T117 203Q111 172 107 145T102 97Q108 87 121 77T151 59T182 52Q191 52 202 60T227 85T260 124T303 176Q311 176 316 173T323 164Q313 139 297 111T259 57T207 16T141 0ZM128 250Q160 261 194 276T260 306T309 336Q311 345 312 356T314 374Q316 392 316 409T312
439Q301 441 291 442T272 443Q249 443 231 438T197 426Q178 398 160 351T128 250ZM332 564L185 692Q192 703 203 715T226 735T245 743Q253 743 271 724T313 669T361 585Q357 580 349 574T332 564Z" />
<glyph unicode="&#xe9;" horiz-adv-x="390" d="M141 0Q131 0 116 7T86 26T56 53T33 84Q33 129 42 178T65 272T93 352T119 405Q128 415 148 431T194 463T249 489T307 500Q321 500 341 489T376 464T392 441Q389 420 382 396T364 351T345 317Q327 299 291 279T210
239T117 203Q111 172 107 145T102 97Q108 87 121 77T151 59T182 52Q191 52 202 60T227 85T260 124T303 176Q311 176 316 173T323 164Q313 139 297 111T259 57T207 16T141 0ZM128 250Q160 261 194 276T260 306T309 336Q311 345 312 356T314 374Q316 392 316 409T312
439Q301 441 291 442T272 443Q249 443 231 438T197 426Q178 398 160 351T128 250ZM233 564Q227 568 220 574T211 586Q248 633 281 668T337 723T368 743Q375 743 385 736T405 717T414 692L233 564Z" />
<glyph unicode="&#xea;" horiz-adv-x="390" d="M141 0Q131 0 116 7T86 26T56 53T33 84Q33 129 42 178T65 272T93 352T119 405Q128 415 148 431T194 463T249 489T307 500Q321 500 341 489T376 464T392 441Q389 420 382 396T364 351T345 317Q327 299 291 279T210
239T117 203Q111 172 107 145T102 97Q108 87 121 77T151 59T182 52Q191 52 202 60T227 85T260 124T303 176Q311 176 316 173T323 164Q313 139 297 111T259 57T207 16T141 0ZM128 250Q160 261 194 276T260 306T309 336Q311 345 312 356T314 374Q316 392 316 409T312
439Q301 441 291 442T272 443Q249 443 231 438T197 426Q178 398 160 351T128 250ZM173 571Q165 576 159 581T152 590Q198 646 229 681T279 732T306 749Q314 749 327 732T359 679T400 590Q396 586 392 581T378 571L296 671L173 571Z" />
<glyph unicode="&#xeb;" horiz-adv-x="390" d="M141 0Q131 0 116 7T86 26T56 53T33 84Q33 129 42 178T65 272T93 352T119 405Q128 415 148 431T194 463T249 489T307 500Q321 500 341 489T376 464T392 441Q389 420 382 396T364 351T345 317Q327 299 291 279T210
239T117 203Q111 172 107 145T102 97Q108 87 121 77T151 59T182 52Q191 52 202 60T227 85T260 124T303 176Q311 176 316 173T323 164Q313 139 297 111T259 57T207 16T141 0ZM128 250Q160 261 194 276T260 306T309 336Q311 345 312 356T314 374Q316 392 316 409T312
439Q301 441 291 442T272 443Q249 443 231 438T197 426Q178 398 160 351T128 250ZM307 591Q301 591 291 602T275 626T268 649Q268 657 277 666T299 683T324 696T343 701Q351 701 359 691T374 666T380 641Q380 634 372 626T351 609T326 596T307 591ZM232 591Q226
591 216 601T199 626T192 649Q192 657 201 666T223 683T249 696T268 701Q276 701 284 691T299 666T305 641Q305 634 297 626T276 609T252 596T232 591Z" />
<glyph unicode="&#xec;" horiz-adv-x="279" d="M124 0Q112 0 95 7T63 23T45 39Q50 54 58 84T77 154T98 236T117 316T131 381T137 419Q137 430 131 434T112 438H59Q59 446 61 455T66 468Q82 475 101 482T139 495T171 500Q193 500 204 489T215 456Q215 446 211 421T197
359T177 276T152 176T125 63L136 56Q146 66 161 86T192 131T218 175Q226 175 232 172T241 164Q235 143 222 115T191 61T156 17T124 0ZM241 564L94 692Q101 703 112 715T135 735T154 743Q162 743 180 724T222 669T270 585Q266 580 258 574T241 564Z" />
<glyph unicode="&#xed;" horiz-adv-x="279" d="M124 0Q112 0 95 7T63 23T45 39Q50 54 58 84T77 154T98 236T117 316T131 381T137 419Q137 430 131 434T112 438H59Q59 446 61 455T66 468Q82 475 101 482T139 495T171 500Q193 500 204 489T215 456Q215 446 211 421T197
359T177 276T152 176T125 63L136 56Q146 66 161 86T192 131T218 175Q226 175 232 172T241 164Q235 143 222 115T191 61T156 17T124 0ZM142 564Q136 568 129 574T120 586Q157 633 190 668T246 723T277 743Q284 743 294 736T314 717T323 692L142 564Z" />
<glyph unicode="&#xee;" horiz-adv-x="279" d="M124 0Q112 0 95 7T63 23T45 39Q50 54 58 84T77 154T98 236T117 316T131 381T137 419Q137 430 131 434T112 438H59Q59 446 61 455T66 468Q82 475 101 482T139 495T171 500Q193 500 204 489T215 456Q215 446 211 421T197
359T177 276T152 176T125 63L136 56Q146 66 161 86T192 131T218 175Q226 175 232 172T241 164Q235 143 222 115T191 61T156 17T124 0ZM338 571Q330 576 324 581T317 590Q363 646 394 681T444 732T471 749Q479 749 492 732T524 679T565 590Q561 586 557 581T543
571L461 671L338 571Z" />
<glyph unicode="&#xef;" horiz-adv-x="279" d="M124 0Q112 0 95 7T63 23T45 39Q50 54 58 84T77 154T98 236T117 316T131 381T137 419Q137 430 131 434T112 438H59Q59 446 61 455T66 468Q82 475 101 482T139 495T171 500Q193 500 204 489T215 456Q215 446 211 421T197
359T177 276T152 176T125 63L136 56Q146 66 161 86T192 131T218 175Q226 175 232 172T241 164Q235 143 222 115T191 61T156 17T124 0ZM472 591Q466 591 456 602T440 626T433 649Q433 657 442 666T464 683T489 696T508 701Q516 701 524 691T539 666T545 641Q545
634 537 626T516 609T491 596T472 591ZM397 591Q391 591 381 601T364 626T357 649Q357 657 366 666T388 683T414 696T433 701Q441 701 449 691T464 666T470 641Q470 634 462 626T441 609T417 596T397 591Z" />
<glyph unicode="&#xf0;" horiz-adv-x="457" d="M145 0Q130 0 114 7T81 25T52 50T33 77Q33 116 41 166T61 266T89 357T121 418Q133 429 154 443T202 470T255 491T304 500Q316 500 331 493T363 474T393 449L362 434Q368 490 364 534T339 616T279 684T174 745Q177
757 184 767T198 780Q275 746 325 706T401 610T427 473Q427 417 419 360T398 250T368 156T335 88Q311 63 279 43T212 12T145 0ZM187 53Q195 53 209 55T237 62T260 72Q274 89 288 121T314 192T335 271T349 345T354 401Q346 412 331 422T300 438T271 445Q254 445
234 439T196 424Q177 398 161 356T133 264T114 171T107 97Q117 84 130 74T158 59T187 53ZM181 523Q172 526 166 535T158 552L321 693Q345 714 368 733T409 766T432 787Q446 781 457 770T470 750L181 523Z" />
<glyph unicode="&#xf1;" horiz-adv-x="542" d="M118 0Q111 0 99 5T75 17T53 33T41 46Q45 60 54 92T76 168T102 261Q111 293 118 327T129 387T134 419Q134 430 128 434T109 438H56Q56 446 58 454T62 468Q80 476 99 483T136 495T168 500Q189 500 201 489T213 456Q213
447 208 425T194 372T176 309T156 247T139 199L143 195Q160 230 181 270T227 351T275 425T322 479T363 500Q377 500 395 492T432 471T462 447T476 429Q476 392 468 346T448 252T423 164T401 96T390 63L401 56Q411 64 427 85T461 132T487 175Q497 175 503 171T510
164Q504 143 491 116T459 62T422 18T389 0Q378 0 361 7T330 23T313 40Q318 52 330 88T358 177T385 285T401 393Q394 403 383 411T361 424T344 430Q337 430 318 409T275 352T225 276T176 197T138 130Q133 115 131 99T128 66Q128 53 129 41T134 14Q133 11 130 8T118
0ZM421 581Q411 581 384 590T323 614T264 641L186 584Q182 586 177 591T169 603Q185 623 203 642T239 675T267 689Q278 689 305 680T366 658T428 632L502 697Q510 695 514 690T520 681Q505 659 486 636T449 597T421 581Z" />
<glyph unicode="&#xf2;" horiz-adv-x="457" d="M145 0Q130 0 114 7T81 25T52 50T33 77Q33 116 40 165T60 264T89 355T121 418Q133 429 154 443T200 470T253 491T304 500Q318 500 337 493T375 473T408 448T425 426Q425 392 417 345T397 249T368 157T335 88Q311
63 279 43T212 12T145 0ZM187 53Q195 53 208 55T236 62T258 72Q272 89 286 120T311 191T332 269T346 343T351 400Q344 411 328 421T295 438T263 445Q250 445 233 441T197 427Q178 402 162 359T134 265T115 170T107 97Q117 84 130 74T159 59T187 53ZM351 564L204
692Q211 703 222 715T245 735T264 743Q272 743 290 724T332 669T380 585Q376 580 368 574T351 564Z" />
<glyph unicode="&#xf3;" horiz-adv-x="457" d="M145 0Q130 0 114 7T81 25T52 50T33 77Q33 116 40 165T60 264T89 355T121 418Q133 429 154 443T200 470T253 491T304 500Q318 500 337 493T375 473T408 448T425 426Q425 392 417 345T397 249T368 157T335 88Q311
63 279 43T212 12T145 0ZM187 53Q195 53 208 55T236 62T258 72Q272 89 286 120T311 191T332 269T346 343T351 400Q344 411 328 421T295 438T263 445Q250 445 233 441T197 427Q178 402 162 359T134 265T115 170T107 97Q117 84 130 74T159 59T187 53ZM251 564Q245
568 238 574T229 586Q266 633 299 668T355 723T386 743Q393 743 403 736T423 717T432 692L251 564Z" />
<glyph unicode="&#xf4;" horiz-adv-x="457" d="M145 0Q130 0 114 7T81 25T52 50T33 77Q33 116 40 165T60 264T89 355T121 418Q133 429 154 443T200 470T253 491T304 500Q318 500 337 493T375 473T408 448T425 426Q425 392 417 345T397 249T368 157T335 88Q311
63 279 43T212 12T145 0ZM187 53Q195 53 208 55T236 62T258 72Q272 89 286 120T311 191T332 269T346 343T351 400Q344 411 328 421T295 438T263 445Q250 445 233 441T197 427Q178 402 162 359T134 265T115 170T107 97Q117 84 130 74T159 59T187 53ZM191 571Q183
576 177 581T170 590Q216 646 247 681T297 732T324 749Q332 749 345 732T377 679T418 590Q414 586 410 581T396 571L314 671L191 571Z" />
<glyph unicode="&#xf5;" horiz-adv-x="457" d="M145 0Q130 0 114 7T81 25T52 50T33 77Q33 116 40 165T60 264T89 355T121 418Q133 429 154 443T200 470T253 491T304 500Q318 500 337 493T375 473T408 448T425 426Q425 392 417 345T397 249T368 157T335 88Q311
63 279 43T212 12T145 0ZM187 53Q195 53 208 55T236 62T258 72Q272 89 286 120T311 191T332 269T346 343T351 400Q344 411 328 421T295 438T263 445Q250 445 233 441T197 427Q178 402 162 359T134 265T115 170T107 97Q117 84 130 74T159 59T187 53ZM378 581Q368
581 341 590T280 614T221 641L143 584Q139 586 134 591T126 603Q142 623 160 642T196 675T224 689Q235 689 262 680T323 658T385 632L459 697Q467 695 471 690T477 681Q462 659 443 636T406 597T378 581Z" />
<glyph unicode="&#xf6;" horiz-adv-x="457" d="M145 0Q130 0 114 7T81 25T52 50T33 77Q33 116 40 165T60 264T89 355T121 418Q133 429 154 443T200 470T253 491T304 500Q318 500 337 493T375 473T408 448T425 426Q425 392 417 345T397 249T368 157T335 88Q311
63 279 43T212 12T145 0ZM187 53Q195 53 208 55T236 62T258 72Q272 89 286 120T311 191T332 269T346 343T351 400Q344 411 328 421T295 438T263 445Q250 445 233 441T197 427Q178 402 162 359T134 265T115 170T107 97Q117 84 130 74T159 59T187 53ZM326 591Q320
591 310 602T294 626T287 649Q287 657 296 666T318 683T343 696T362 701Q370 701 378 691T393 666T399 641Q399 634 391 626T370 609T345 596T326 591ZM251 591Q245 591 235 601T218 626T211 649Q211 657 220 666T242 683T268 696T287 701Q295 701 303 691T318
666T324 641Q324 634 316 626T295 609T271 596T251 591Z" />
<glyph unicode="&#xf7;" horiz-adv-x="489" d="M197 69Q191 69 182 79T167 104T161 129Q161 137 170 146T193 165T219 179T238 184Q246 184 255 173T270 147T276 122Q276 114 267 105T244 88T217 74T197 69ZM262 371Q255 371 245 382T229 407T222 432Q222 439
231 448T254 466T280 480T299 486Q307 486 315 475T330 450T336 424Q336 417 328 408T307 390T282 377T262 371ZM51 253Q55 275 61 284T71 296Q126 296 189 297T318 302T440 308L447 299Q442 283 437 271T427 253H51Z" />
<glyph unicode="&#xf8;" horiz-adv-x="457" d="M122 -91Q112 -91 104 -87T89 -76L118 5Q101 12 84 23T54 49T33 77Q33 116 40 165T60 264T89 355T121 418Q137 432 164 449T225 481T290 499Q292 499 294 499T299 500Q310 530 320 556T338 604Q354 604 363 596T374
579L340 490Q358 483 376 472T408 448T425 426Q425 392 417 345T397 249T368 157T335 88Q313 65 283 46T221 15T157 0L122 -91ZM141 67L279 443Q275 445 271 445T263 445Q250 445 233 441T197 427Q178 402 162 359T134 265T115 170T107 97Q114 88 123 81T141 67ZM176
54Q179 53 181 53T187 53Q195 53 208 55T236 62T258 72Q272 89 286 120T311 191T332 269T346 343T351 400Q347 407 338 414T317 428L176 54Z" />
<glyph unicode="&#xf9;" horiz-adv-x="538" d="M178 0Q165 0 144 8T102 29T67 53T50 71Q50 98 59 138T81 224T109 311T132 382T141 422Q141 431 135 434T117 438H63Q63 445 65 454T69 468Q90 478 109 485T146 496T175 500Q194 500 206 489T219 460Q219 453 210
424T188 354T161 267T139 178T130 104Q142 90 160 79T186 68Q192 68 210 90T253 150T305 230T356 314T395 385Q400 406 403 439T409 500Q430 500 446 497T471 483T481 456Q481 439 469 384T437 247T391 63L402 56Q411 65 426 86T458 132T484 175Q492 175 498 172T507
164Q500 142 487 114T456 60T422 17T390 0Q378 0 361 7T329 23T311 39L363 214Q373 244 380 267T393 301L388 304Q371 270 349 229T304 148T259 74T216 20T178 0ZM388 564L241 692Q248 703 259 715T282 735T301 743Q309 743 327 724T369 669T417 585Q413 580 405
574T388 564Z" />
<glyph unicode="&#xfa;" horiz-adv-x="538" d="M178 0Q165 0 144 8T102 29T67 53T50 71Q50 98 59 138T81 224T109 311T132 382T141 422Q141 431 135 434T117 438H63Q63 445 65 454T69 468Q90 478 109 485T146 496T175 500Q194 500 206 489T219 460Q219 453 210
424T188 354T161 267T139 178T130 104Q142 90 160 79T186 68Q192 68 210 90T253 150T305 230T356 314T395 385Q400 406 403 439T409 500Q430 500 446 497T471 483T481 456Q481 439 469 384T437 247T391 63L402 56Q411 65 426 86T458 132T484 175Q492 175 498 172T507
164Q500 142 487 114T456 60T422 17T390 0Q378 0 361 7T329 23T311 39L363 214Q373 244 380 267T393 301L388 304Q371 270 349 229T304 148T259 74T216 20T178 0ZM289 564Q283 568 276 574T267 586Q304 633 337 668T393 723T424 743Q431 743 441 736T461 717T470
692L289 564Z" />
<glyph unicode="&#xfb;" horiz-adv-x="538" d="M178 0Q165 0 144 8T102 29T67 53T50 71Q50 98 59 138T81 224T109 311T132 382T141 422Q141 431 135 434T117 438H63Q63 445 65 454T69 468Q90 478 109 485T146 496T175 500Q194 500 206 489T219 460Q219 453 210
424T188 354T161 267T139 178T130 104Q142 90 160 79T186 68Q192 68 210 90T253 150T305 230T356 314T395 385Q400 406 403 439T409 500Q430 500 446 497T471 483T481 456Q481 439 469 384T437 247T391 63L402 56Q411 65 426 86T458 132T484 175Q492 175 498 172T507
164Q500 142 487 114T456 60T422 17T390 0Q378 0 361 7T329 23T311 39L363 214Q373 244 380 267T393 301L388 304Q371 270 349 229T304 148T259 74T216 20T178 0ZM229 571Q221 576 215 581T208 590Q254 646 285 681T335 732T362 749Q370 749 383 732T415 679T456
590Q452 586 448 581T434 571L352 671L229 571Z" />
<glyph unicode="&#xfc;" horiz-adv-x="538" d="M178 0Q165 0 144 8T102 29T67 53T50 71Q50 98 59 138T81 224T109 311T132 382T141 422Q141 431 135 434T117 438H63Q63 445 65 454T69 468Q90 478 109 485T146 496T175 500Q194 500 206 489T219 460Q219 453 210
424T188 354T161 267T139 178T130 104Q142 90 160 79T186 68Q192 68 210 90T253 150T305 230T356 314T395 385Q400 406 403 439T409 500Q430 500 446 497T471 483T481 456Q481 439 469 384T437 247T391 63L402 56Q411 65 426 86T458 132T484 175Q492 175 498 172T507
164Q500 142 487 114T456 60T422 17T390 0Q378 0 361 7T329 23T311 39L363 214Q373 244 380 267T393 301L388 304Q371 270 349 229T304 148T259 74T216 20T178 0ZM363 591Q357 591 347 602T331 626T324 649Q324 657 333 666T355 683T380 696T399 701Q407 701 415
691T430 666T436 641Q436 634 428 626T407 609T382 596T363 591ZM288 591Q282 591 272 601T255 626T248 649Q248 657 257 666T279 683T305 696T324 701Q332 701 340 691T355 666T361 641Q361 634 353 626T332 609T308 596T288 591Z" />
<glyph unicode="&#xfd;" horiz-adv-x="461" d="M76 -200Q64 -193 52 -182T32 -160T24 -144Q24 -134 40 -116T82 -72T140 -19T201 39Q181 44 158 53T114 76T84 103Q89 129 94 161T103 228T110 297T115 361T117 414Q117 429 111 433T91 438H34Q34 442 34 448T37
459T40 468Q58 476 77 483T114 495T145 500Q169 500 180 488T191 451Q191 416 189 374T182 287T172 203T162 134Q167 127 182 118T212 103T236 96Q240 96 257 119T296 178T339 254T374 331T388 391Q388 397 377 407T349 427T318 446T295 456Q295 462 296 468T300
478Q306 483 318 488T341 496T358 500Q367 500 383 491T417 469T447 444T460 424Q460 399 449 364T416 288Q372 201 324 133T232 8T153 -97T97 -193L76 -200ZM245 564Q239 568 232 574T223 586Q260 633 293 668T349 723T380 743Q387 743 397 736T417 717T426 692L245
564Z" />
<glyph unicode="&#xfe;" horiz-adv-x="486" d="M28 -200Q9 -200 -8 -190T-26 -157Q-26 -148 -15 -108T14 -6T53 131Q60 153 71 201T97 311T127 439T154 564T173 665T181 721Q181 732 175 735T160 738H101Q101 746 103 755T108 768Q124 775 143 782T180 795T214
800Q234 800 249 789T265 757Q265 754 262 733T254 691Q247 661 237 617T213 521T187 419T162 324T141 251T129 213L137 208Q157 251 184 301T239 396T295 471T343 500Q358 500 376 491T411 469T441 444T454 425Q455 389 447 346T428 258T404 177T382 115T369 86Q363
78 349 64T318 35T285 10T260 0Q227 0 184 10T96 34L60 -111Q56 -124 61 -130T79 -136H140Q140 -143 139 -151T135 -167Q119 -175 99 -182T61 -195T28 -200ZM288 61Q299 72 311 105T335 181T358 267T374 343T380 389Q376 399 365 408T341 423T323 429Q319 429 303
407T263 350T214 274T165 194T127 126T109 84Q158 70 207 66T288 61Z" />
<glyph unicode="&#xff;" horiz-adv-x="461" d="M76 -200Q64 -193 52 -182T32 -160T24 -144Q24 -134 40 -116T82 -72T140 -19T201 39Q181 44 158 53T114 76T84 103Q89 129 94 161T103 228T110 297T115 361T117 414Q117 429 111 433T91 438H34Q34 442 34 448T37
459T40 468Q58 476 77 483T114 495T145 500Q169 500 180 488T191 451Q191 416 189 374T182 287T172 203T162 134Q167 127 182 118T212 103T236 96Q240 96 257 119T296 178T339 254T374 331T388 391Q388 397 377 407T349 427T318 446T295 456Q295 462 296 468T300
478Q306 483 318 488T341 496T358 500Q367 500 383 491T417 469T447 444T460 424Q460 399 449 364T416 288Q372 201 324 133T232 8T153 -97T97 -193L76 -200ZM320 591Q314 591 304 602T288 626T281 649Q281 657 290 666T312 683T337 696T356 701Q364 701 372 691T387
666T393 641Q393 634 385 626T364 609T339 596T320 591ZM245 591Q239 591 229 601T212 626T205 649Q205 657 214 666T236 683T262 696T281 701Q289 701 297 691T312 666T318 641Q318 634 310 626T289 609T265 596T245 591Z" />
<glyph unicode="&#x2013;" horiz-adv-x="532" d="M38 260Q38 280 41 291T49 305Q92 305 144 305T251 307T356 311T444 314T499 316L508 307Q508 292 505 280T498 260H38Z" />
<glyph unicode="&#x2014;" horiz-adv-x="856" d="M38 260Q38 279 42 290T50 306Q139 306 237 306T431 308T607 311T745 314T822 317L832 307Q832 292 829 280T821 260H38Z" />
<glyph unicode="&#x2018;" horiz-adv-x="180" d="M127 523Q120 523 111 533T96 559T89 584Q89 594 98 612T121 652T152 692T182 724T205 737Q215 737 222 733T234 722T239 709Q227 703 212 690T183 663T162 636Q173 633 182 622T197 597T203 576Q203 567 194 558T172
541T147 528T127 523Z" />
<glyph unicode="&#x2019;" horiz-adv-x="168" d="M113 532Q103 532 95 536T83 548T78 560Q90 566 105 579T135 607T155 633Q145 637 136 648T120 672T114 693Q114 702 123 711T145 728T171 741T190 746Q197 746 206 736T222 711T228 685Q228 675 219 657T196 617T165
577T135 545T113 532Z" />
<glyph unicode="&#x201a;" horiz-adv-x="193" d="M5 -119Q-4 -119 -14 -115T-30 -103T-37 -91Q-25 -85 -8 -69T24 -32T47 3Q37 7 28 18T12 41T5 63Q5 71 12 79T31 96T54 109T72 115Q80 115 90 104T109 79T117 55Q117 45 109 25T86 -20T57 -67T28 -104T5 -119Z" />
<glyph unicode="&#x201c;" horiz-adv-x="332" d="M127 523Q120 523 111 533T96 559T89 584Q89 594 98 612T121 652T152 692T182 724T205 737Q215 737 222 733T234 722T239 709Q227 703 212 690T183 663T162 636Q173 633 182 622T197 597T203 576Q203 567 194 558T172
541T147 528T127 523ZM279 523Q272 523 263 533T248 559T241 584Q241 594 250 612T273 652T304 692T334 724T357 737Q367 737 374 733T386 722T391 709Q379 703 364 690T335 663T314 636Q325 633 334 622T349 597T355 576Q355 567 346 558T324 541T299 528T279
523Z" />
<glyph unicode="&#x201d;" horiz-adv-x="321" d="M113 532Q103 532 95 536T83 548T78 560Q90 566 105 579T135 607T155 633Q145 637 136 648T120 672T114 693Q114 702 123 711T145 728T171 741T190 746Q197 746 206 736T222 711T228 685Q228 675 219 657T196 617T165
577T135 545T113 532ZM265 532Q255 532 247 536T235 548T230 560Q242 566 257 579T287 607T307 633Q297 637 288 648T272 672T266 693Q266 702 275 711T297 728T323 741T342 746Q349 746 358 736T374 711T380 685Q380 675 371 657T348 617T317 577T287 545T265
532Z" />
<glyph unicode="&#x201e;" horiz-adv-x="345" d="M5 -119Q-4 -119 -14 -115T-30 -103T-37 -91Q-25 -85 -8 -69T24 -32T47 3Q37 7 28 18T12 41T5 63Q5 71 12 79T31 96T54 109T72 115Q80 115 90 104T109 79T117 55Q117 45 109 25T86 -20T57 -67T28 -104T5 -119ZM157
-119Q148 -119 138 -115T122 -103T115 -91Q127 -85 144 -69T176 -32T199 3Q189 7 180 18T164 41T157 63Q157 71 164 79T183 96T206 109T224 115Q232 115 242 104T261 79T269 55Q269 45 261 25T238 -20T209 -67T180 -104T157 -119Z" />
<glyph unicode="&#x2022;" horiz-adv-x="382" d="M174 161Q162 161 147 173T118 204T94 242T84 275Q84 290 100 307T141 339T188 365T223 376Q235 376 249 364T276 333T298 295T306 261Q306 246 291 229T253 197T209 171T174 161Z" />
<glyph unicode="&#x2039;" horiz-adv-x="357" d="M220 46Q194 72 165 104T110 166T69 221T53 257Q53 266 70 284T116 327T178 378T244 430T303 473Q308 471 312 466T320 447L113 239L115 283L241 71Q233 60 229 55T220 46Z" />
<glyph unicode="&#x203a;" horiz-adv-x="356" d="M57 46Q53 48 48 53T39 72L247 280L245 236L119 448Q127 460 131 465T140 473Q166 447 195 415T250 353T291 298T307 262Q307 253 290 235T244 192T182 141T115 89T57 46Z" />
</font>
</defs>
</svg>
