<?xml version="1.0" standalone="no"?>
<!DOCTYPE svg PUBLIC "-//W3C//DTD SVG 1.1//EN" "http://www.w3.org/Graphics/SVG/1.1/DTD/svg11.dtd">
<svg xmlns="http://www.w3.org/2000/svg">
<defs >
<font id="Texturina" horiz-adv-x="585" ><font-face
    font-family="Texturina Medium 12pt"
    units-per-em="1000"
    panose-1="0 0 0 0 0 0 0 0 0 0"
    ascent="1260"
    descent="-300"
    alphabetic="0" />
<glyph unicode=" " horiz-adv-x="200" />
<glyph unicode="!" horiz-adv-x="253" d="M84 213Q75 294 68 386T56 570T52 742Q72 757 113 767T199 777L169 235Q163 228 140 222T84 213ZM117 -6Q109 -6 95 5T68 32T45 65T35 92Q35 103 47 115T78 140T113 160T141 168Q151 168 164 157T189 129T210 95T218 68Q218
59 207 46T180 22T147 2T117 -6Z" />
<glyph unicode="&quot;" horiz-adv-x="358" d="M109 435Q93 435 78 437T54 441L36 696Q42 700 60 704T90 708Q104 708 118 696T143 671T154 650Q154 636 150 600T135 520T109 435ZM278 435Q262 435 247 437T223 441L205 696Q211 700 229 704T259 708Q273 708 287
696T312 671T323 650Q323 636 319 600T304 520T278 435Z" />
<glyph unicode="#" horiz-adv-x="644" d="M128 -14Q101 -14 82 -9T56 0L116 155H9Q9 180 13 194T21 209H136L204 381H67Q67 406 71 419T79 436H225Q243 478 258 522T283 594Q307 594 326 585T355 566L303 436L448 439Q461 469 475 507T504 589Q533 589 551 581T576
564L528 441Q577 443 602 444T636 448Q636 423 632 406T623 381H505L439 214Q497 216 527 218T567 221Q567 198 563 180T555 155H416L351 -14Q327 -14 307 -9T278 0L338 155H194L128 -14ZM215 209L360 212L427 381H282L215 209Z" />
<glyph unicode="$" horiz-adv-x="573" d="M253 -115V-10Q227 -8 190 0T119 19T67 44Q67 68 70 95T78 148T87 191Q95 193 111 196T147 199L169 99Q183 93 206 86T253 74V240Q225 250 194 261T136 285T90 310T68 334Q67 343 66 355T64 377Q64 407 70 444T88 503Q101
514 127 526T187 550T253 567V657Q263 665 286 672T340 680Q338 669 334 642T327 573Q356 571 388 563T448 544T491 522Q491 502 487 474T478 421T467 383Q444 383 430 386T409 394L385 478Q372 482 358 485T325 491V328Q370 313 411 298T481 268T513 239Q515 225
516 212T517 182Q517 150 513 116T498 57Q489 48 464 35T402 9T325 -8V-105Q318 -108 299 -111T253 -115ZM325 72Q346 74 364 78T394 87Q399 100 402 117T405 151Q405 162 404 173T400 193Q397 196 383 201T352 212T325 220V72ZM253 347V493Q236 492 219 490T185
484Q179 466 176 447T173 409Q173 402 173 393T176 376Q181 372 202 364T253 347Z" />
<glyph unicode="%" horiz-adv-x="1011" d="M222 285Q194 285 160 294T98 316T58 342Q49 363 45 402T41 487Q41 521 43 553T49 610T59 647Q67 654 87 664T133 685T187 701T240 708Q263 708 292 700T346 680T382 658Q390 640 395 605T401 516Q401 497 400 466T395
402T386 349Q378 340 359 330T316 309T267 292T222 285ZM233 353Q239 353 249 355T270 361T287 369Q292 389 295 420T298 488Q298 530 296 566T287 616Q280 623 265 629T235 638T210 642Q204 642 193 640T172 634T154 629Q149 615 147 581T144 511Q144 483 145
455T150 406T156 378Q164 372 179 366T209 357T233 353ZM372 -101Q346 -101 330 -95T301 -76L528 514Q554 579 571 627T600 708T615 761Q642 757 662 746T690 723L372 -101ZM792 -5Q764 -5 730 4T668 26T628 52Q619 73 615 112T611 197Q611 231 613 263T619 320T629
357Q637 364 657 374T703 395T757 411T810 418Q833 418 862 410T916 390T952 368Q960 350 965 315T971 226Q971 207 970 176T965 112T956 59Q948 50 929 40T886 19T837 2T792 -5ZM803 63Q809 63 819 65T840 71T857 79Q862 99 865 130T868 198Q868 240 866 276T857
326Q850 333 835 339T805 348T780 352Q774 352 763 350T742 344T724 339Q719 325 717 291T714 221Q714 193 715 165T720 116T726 88Q734 82 749 76T779 67T803 63Z" />
<glyph unicode="&amp;" horiz-adv-x="785" d="M283 0Q250 0 214 17T143 63T80 122T36 180T19 223Q19 240 37 262T85 310T145 357T202 397Q167 455 140 514T101 627Q110 638 136 653T197 684T270 710T342 720Q375 720 417 711T499 688T560 658Q558 610 550 561T534
484Q521 484 506 485T477 489T459 494L437 618Q409 629 387 634T342 641T294 639T232 631Q238 591 260 543T318 441T397 336T489 238Q488 269 485 300T476 358T467 398L478 419H502Q558 419 618 423T720 432L734 418Q733 391 727 370T717 342H580Q579 317 577 287T570
227T557 174Q609 131 659 104T747 76Q757 76 767 76T787 76Q789 74 792 63T795 39Q792 36 773 27T721 9T643 0Q614 0 570 22T476 85Q439 60 400 41T329 11T283 0ZM310 95Q318 95 336 100T376 115T420 135Q369 182 323 234T236 341Q223 329 208 313T179 282T157
256T148 238Q148 232 158 216T186 180T225 140T269 108T310 95Z" />
<glyph unicode="&apos;" horiz-adv-x="190" d="M109 435Q93 435 78 437T54 441L36 696Q42 700 60 704T90 708Q104 708 118 696T143 671T154 650Q154 636 150 600T135 520T109 435Z" />
<glyph unicode="(" horiz-adv-x="320" d="M234 -200Q140 -111 96 8T51 257Q51 352 73 447T137 633T239 800Q260 800 275 789T295 766Q255 697 228 616T186 446T172 268Q172 146 200 36T286 -158Q276 -175 261 -186T234 -200Z" />
<glyph unicode=")" horiz-adv-x="320" d="M82 -200Q60 -200 46 -189T26 -166Q66 -96 93 -15T134 155T149 332Q149 454 121 565T35 758Q45 776 60 787T87 800Q181 711 225 592T269 344Q269 248 247 153T183 -32T82 -200Z" />
<glyph unicode="*" horiz-adv-x="535" d="M229 295Q210 297 189 308T153 333T138 356Q138 366 150 382T185 421T239 475L238 477L52 481Q51 486 50 492T49 504Q49 518 53 538T67 574T94 590Q110 590 129 583T174 562T236 531L237 534L188 704Q202 713 221 716T258
720Q272 720 283 718T298 711Q305 704 305 686T304 644T297 596T290 551H292L442 656Q454 647 464 631T481 598T488 567Q488 564 488 561T487 556Q481 547 460 540T404 526T325 511V508L473 401Q467 386 452 370T420 342T393 331Q378 331 364 348T336 388T314 433T299
463L294 462L229 295Z" />
<glyph unicode="+" horiz-adv-x="516" d="M220 57V477Q224 482 244 486T298 490V67Q292 64 272 61T220 57ZM53 243Q53 272 57 287T66 306Q135 307 206 308T341 312T453 318L466 303Q465 277 461 263T453 243H53Z" />
<glyph unicode="," horiz-adv-x="242" d="M62 -146Q50 -146 38 -139T17 -121T7 -103Q22 -93 42 -75T80 -35T106 1Q89 10 73 27T47 64T37 93Q37 102 48 114T75 137T108 155T134 163Q143 163 155 152T178 126T197 94T205 67Q205 54 194 29T166 -26T129 -83T91 -128T62
-146Z" />
<glyph unicode="-" horiz-adv-x="342" d="M30 270Q30 295 33 311T42 332Q103 332 150 334T233 341T294 352L315 328Q315 311 312 296T304 270H30Z" />
<glyph unicode="." horiz-adv-x="244" d="M113 -6Q104 -6 90 5T63 32T40 65T31 92Q31 103 43 115T73 140T108 160T137 168Q147 168 160 157T185 129T206 95T214 68Q214 59 203 46T175 22T142 2T113 -6Z" />
<glyph unicode="/" horiz-adv-x="459" d="M111 -93Q84 -93 62 -87T29 -76L258 513Q293 602 314 663T343 753Q378 749 400 740T430 723L111 -93Z" />
<glyph unicode="0" horiz-adv-x="575" d="M274 0Q239 0 205 12T143 43T96 77T70 100Q54 127 48 169T41 258Q41 300 45 339T55 411T67 464Q82 476 108 493T168 527T240 555T317 567Q339 567 368 558T426 536T477 508T511 481Q524 452 529 410T534 324Q534 284 530
244T520 168T507 107Q490 88 456 63T375 19T274 0ZM308 84Q327 84 345 90T377 109Q386 134 389 171T393 245Q393 287 390 324T383 390T375 430Q357 456 328 469T268 482Q251 482 232 478T197 466Q191 452 188 428T182 374T180 314Q180 273 182 235T189 169T200
131Q219 109 248 97T308 84Z" />
<glyph unicode="1" horiz-adv-x="425" d="M313 0Q307 0 282 3T223 10T153 19T92 28T56 36Q56 49 60 58T67 71L103 76Q122 78 134 86T152 114T159 177V373Q159 400 162 419T168 446L165 449L31 436Q31 456 33 472T39 494Q98 508 158 526T262 565Q281 564 293 560T311
551Q308 539 305 516T299 465T296 403V148Q296 125 290 107T278 82L385 70Q386 67 389 59T393 37Q385 28 371 20T340 6T313 0Z" />
<glyph unicode="2" horiz-adv-x="553" d="M87 0Q80 0 66 13T41 45T29 78Q52 90 89 120T169 190T249 276T310 366T334 447Q318 456 299 462T253 471T185 476L160 346Q155 343 138 340T98 337Q85 347 75 370T58 424T46 483Q74 509 116 527T205 555T291 565Q307 565
331 559T382 541T432 518T471 493T486 472Q486 435 468 395T420 315T355 239T286 174T225 126L408 107L452 188Q474 188 490 183T512 174Q512 144 509 108T500 49Q490 40 470 29T427 9T390 0Q382 0 359 4T306 16T244 29T188 40T151 44Q145 40 132 29T106 9T87 0Z"
/>
<glyph unicode="3" horiz-adv-x="469" d="M147 -105Q132 -105 107 -96T58 -73T25 -50Q28 -31 34 -18T44 -2Q67 -6 93 -8T147 -10Q177 -10 208 -6T266 6Q273 13 280 30T293 67T299 103Q299 136 274 156T209 187T129 207Q129 215 131 229T137 258T146 281Q158 280
172 280T198 287Q230 305 251 329T283 385T293 455Q281 462 260 466T212 472T151 476L114 378Q111 374 98 372T62 369Q51 381 38 413T19 483Q43 509 81 527T160 555T237 565Q251 565 274 559T326 541T378 518T418 493T434 472Q434 429 414 384T363 302T297 250V246Q335
236 367 220T418 179T437 118Q437 101 431 76T415 24T394 -22T373 -50Q356 -64 319 -76T236 -97T147 -105Z" />
<glyph unicode="4" horiz-adv-x="545" d="M307 -112Q304 -112 295 -107T280 -97Q286 -81 291 -52T297 9V49H58Q45 58 30 80T10 136L283 546Q299 551 320 556T362 566T401 569L430 551Q429 540 428 518T425 468T423 412T422 360V134L515 139L525 123Q524 111 521
96T514 67T507 50H422V-89Q412 -93 392 -98T349 -108T307 -112ZM122 132H294V324Q294 349 298 374T306 412L304 413L122 132Z" />
<glyph unicode="5" horiz-adv-x="452" d="M133 -105Q119 -105 93 -96T44 -73T11 -50Q16 -25 21 -15T30 -2Q55 -6 82 -8T132 -10Q164 -10 191 -6T243 6Q249 10 255 26T268 64T279 108T283 146Q283 158 267 170T225 195T168 220T108 243Q84 252 65 259T35 273T21
283Q21 327 29 372T49 459T77 532Q113 537 154 542T237 552T316 564T381 577L406 560Q406 540 401 516T387 472T371 441Q330 449 273 451T165 455Q158 437 153 419T144 383T140 343L232 316Q289 300 330 279T393 228T415 152Q415 107 402 67T371 -4T335 -50Q318
-62 286 -74T213 -96T133 -105Z" />
<glyph unicode="6" horiz-adv-x="519" d="M258 0Q227 0 196 11T139 40T95 72T71 95Q55 124 49 170T43 267Q43 344 56 404T88 507T128 578T162 615Q175 626 195 636T240 653T288 665T332 670Q346 670 371 661T420 638T454 614Q449 592 443 581T434 567Q411 569
391 569T351 570Q333 570 311 569T267 566T228 559Q218 549 203 497T175 355Q192 365 214 376T258 397T298 406Q323 406 350 396T403 371T446 342T468 321Q477 300 481 272T485 216Q485 181 480 153T466 104Q451 85 421 61T349 18T258 0ZM295 91Q303 91 312 94T331
103T352 117Q356 133 359 155T362 199Q362 214 360 229T354 255Q341 270 322 280T285 296T252 302Q241 302 228 298T202 290T176 281Q174 273 173 259T172 228Q172 211 174 193T180 161T188 143Q205 128 225 117T265 98T295 91Z" />
<glyph unicode="7" horiz-adv-x="516" d="M227 -112Q212 -109 193 -102T155 -86T122 -68T103 -51Q103 -30 115 2T146 76T191 163T242 253T293 338T338 410T370 460H168L143 368Q140 366 126 363T90 359Q80 375 69 397T49 443T40 484Q48 497 63 513T96 545T127
566Q132 566 157 565T217 561T287 556T351 552T391 550Q395 550 410 554T441 562T461 566Q472 560 483 546T495 516L399 339Q361 266 335 211T292 112T269 35T261 -30Q261 -42 263 -53T268 -76Q262 -86 249 -97T227 -112Z" />
<glyph unicode="8" horiz-adv-x="528" d="M249 0Q219 0 187 11T128 38T81 70T55 96Q51 106 49 126T46 166Q46 191 49 213T59 255Q66 269 83 284T123 314T163 337Q131 354 111 365T83 386Q76 400 71 430T65 494Q65 525 69 546T81 584Q106 605 141 625T216 657T294
670Q317 670 348 661T407 638T444 614Q451 601 455 576T460 523Q460 502 458 478T451 442Q440 420 415 401T366 368Q388 358 407 349T442 330T466 312Q475 296 478 271T482 219Q482 183 478 154T469 106Q444 76 407 52T330 14T249 0ZM279 97Q294 97 308 99T334
106T354 115Q359 124 361 140T363 178Q363 200 361 217T354 245Q336 256 320 264T285 280T237 300Q227 293 209 282T173 252Q168 243 166 226T164 188Q164 176 165 166T168 147Q181 134 203 123T247 104T279 97ZM290 400Q299 405 312 411T335 432Q341 447 343 472T346
520Q346 531 345 542T341 560Q328 568 313 572T281 579T246 582Q238 582 228 582T207 579T187 574Q185 564 183 551T181 523Q181 495 184 471T195 436Q203 433 210 430T228 422T253 413T290 400Z" />
<glyph unicode="9" horiz-adv-x="519" d="M194 -105Q179 -105 154 -95T105 -72T72 -48Q75 -27 81 -15T91 -1Q120 -5 141 -7T180 -9Q198 -9 214 -7T248 -2T281 7Q288 14 302 39T330 108T351 211Q335 202 312 190T264 169T222 159Q197 159 169 169T116 195T73 223T51
244Q42 265 38 293T34 349Q34 383 39 412T53 461Q68 482 99 506T172 547T262 565Q293 565 323 554T379 527T422 496T446 473Q463 444 470 399T477 291Q477 223 465 166T435 65T398 -8T364 -49Q347 -62 319 -75T257 -96T194 -105ZM267 263Q278 263 293 267T323 276T350
285Q352 295 352 307T353 333Q353 349 351 366T346 396T336 415Q320 434 298 447T255 467T219 475Q212 475 203 472T184 464T163 448Q159 440 156 425T152 395T150 368Q150 356 153 341T163 311Q175 298 193 287T232 270T267 263Z" />
<glyph unicode=":" horiz-adv-x="244" d="M113 -6Q104 -6 90 5T63 32T40 65T31 92Q31 103 43 115T73 140T108 160T137 168Q147 168 160 157T185 129T206 95T214 68Q214 59 203 46T175 22T142 2T113 -6ZM113 339Q104 339 90 350T63 377T40 410T31 437Q31 448 43
460T73 485T108 505T137 513Q147 513 160 502T185 474T206 440T214 413Q214 404 203 391T175 367T142 347T113 339Z" />
<glyph unicode=";" horiz-adv-x="241" d="M62 -146Q50 -146 38 -139T17 -121T7 -103Q22 -93 42 -75T80 -35T106 1Q89 10 73 27T47 64T37 93Q37 102 48 114T75 137T108 155T134 163Q143 163 155 152T178 126T197 94T205 67Q205 54 194 29T166 -26T129 -83T91 -128T62
-146ZM110 339Q101 339 87 350T60 377T37 410T28 437Q28 448 40 460T70 485T105 505T134 513Q144 513 157 502T182 474T203 440T211 413Q211 404 200 391T172 367T139 347T110 339Z" />
<glyph unicode="&lt;" horiz-adv-x="407" d="M328 42Q276 74 220 110T115 181T36 241T6 277Q6 287 36 312T114 372T219 443T328 513Q339 508 352 497T371 466L146 279V272L371 87Q363 67 350 57T328 42Z" />
<glyph unicode="=" horiz-adv-x="516" d="M53 323Q53 352 57 367T66 386Q135 387 206 388T341 392T453 398L466 383Q465 357 461 343T453 323H53ZM53 419Q53 448 57 463T66 482Q135 483 206 484T341 488T453 494L466 479Q465 453 461 439T453 419H53Z" />
<glyph unicode="&gt;" horiz-adv-x="407" d="M79 42Q68 47 55 59T36 90L261 277V284L36 469Q45 489 58 499T79 513Q132 481 188 445T292 374T371 314T401 278Q401 268 371 243T293 183T188 112T79 42Z" />
<glyph unicode="?" horiz-adv-x="519" d="M199 221Q186 243 176 276T161 345T155 412Q170 430 196 445T252 474T305 496T340 512Q347 531 349 557T352 611Q352 632 350 650T344 682Q334 686 321 688T294 692T264 693Q248 693 231 692T198 687T168 678L148 564Q138
559 115 554T72 547Q66 563 59 594T47 661T42 725Q64 739 101 753T182 777T266 787Q293 787 330 776T405 749T467 715Q472 696 475 669T478 612Q478 572 474 535T461 475Q449 457 420 439T358 404T298 377T266 360Q264 350 263 336T262 309Q262 293 263 275T267
239Q259 234 241 228T199 221ZM236 -6Q227 -6 213 5T186 32T163 65T154 93Q154 103 166 115T196 140T231 160T260 168Q270 168 283 157T308 129T329 95T337 68Q337 59 326 46T299 22T265 2T236 -6Z" />
<glyph unicode="@" horiz-adv-x="978" d="M479 -200Q437 -200 392 -189T304 -160T223 -123T160 -85T122 -57Q105 -39 92 -10T70 57T57 134T53 211Q53 273 61 330T82 435T112 516Q147 548 201 581T319 642T447 687T565 704Q597 704 635 695T714 672T790 640T852
606T887 575Q913 535 924 482T936 372Q936 315 926 257T896 146T847 56Q838 47 813 34T757 11T701 0Q682 0 662 8T627 29T605 53Q589 41 567 29T521 8T472 0Q448 0 421 10T370 34T327 63T303 86Q297 95 291 118T280 169T276 222Q276 282 284 336T300 420Q314 429
338 442T393 469T456 491T517 500Q532 500 558 494T617 479T677 460T720 443L727 415Q714 404 707 393T698 360T695 299V88Q707 84 724 81T758 77Q777 95 792 125T819 192T837 269T843 348Q843 405 833 451T806 528Q793 540 761 556T689 587T608 611T538 621Q510
621 467 611T374 583T278 541T198 489Q176 431 165 364T153 224Q153 182 157 141T172 65T198 6Q214 -10 249 -31T329 -72T418 -106T497 -119Q519 -119 547 -116T603 -107T650 -96Q655 -102 659 -111T665 -133Q640 -154 605 -169T535 -192T479 -200ZM486 93Q499
93 518 97T557 108T587 120V380Q572 387 551 393T509 404T476 409Q466 409 452 408T425 403T402 396Q399 386 396 366T390 324T388 283Q388 253 390 212T402 144Q410 134 425 122T457 102T486 93Z" />
<glyph unicode="A" horiz-adv-x="814" d="M256 0Q251 0 231 2T182 9T123 17T66 27T24 36Q24 47 27 56T35 69L49 72Q60 74 72 79T99 101T128 154T163 255L272 641Q280 650 300 663T344 689T391 711T425 720Q440 720 466 712T519 690T564 661L693 98Q696 87 702
82T722 74L785 67Q789 61 791 58T795 36Q787 28 772 20T739 6T709 0Q702 0 677 3T619 11T552 21T492 31T455 40Q455 53 460 61T466 71L499 73Q512 73 523 77T541 95T539 140L506 284H266L227 147Q222 129 213 114T195 89T176 77L332 65Q333 62 337 54T341 35Q334
27 318 19T285 5T256 0ZM283 350Q336 352 377 353T446 357T488 362L436 599Q416 612 397 620T357 632L283 350Z" />
<glyph unicode="B" horiz-adv-x="713" d="M487 0Q467 0 427 2T335 7T230 14T129 23T49 33Q49 43 52 52T58 66L87 70Q104 72 114 82T129 112T134 168V565Q134 591 138 612T151 642H60Q57 646 53 654T48 673Q54 680 66 687T91 699T110 704H465Q490 700 519 687T574
659T614 628Q620 613 622 594T625 554Q625 520 620 487T605 428T584 392Q572 385 550 377T502 363L501 360Q548 355 585 341T637 315Q647 295 651 269T656 217Q656 194 653 169T645 121T632 79Q620 64 594 46T539 15T487 0ZM260 77H472Q485 90 493 111T505 157T509
208Q509 231 506 253T495 291Q483 301 459 310T405 326T347 332H277V142Q277 119 272 102T260 77ZM277 395Q303 395 333 396T395 399T454 405Q471 428 479 459T488 526Q488 557 482 581T458 622Q440 628 417 632T373 637T337 639Q302 639 290 620T277 567V395Z"
/>
<glyph unicode="C" horiz-adv-x="688" d="M365 0Q325 0 284 13T206 46T144 82T109 110Q88 139 76 197T63 324Q63 382 69 438T85 540T104 606Q129 628 168 648T253 684T340 710T413 720Q451 720 493 711T572 685T633 650Q633 590 624 540T608 462Q575 463 555 466T524
474L495 608Q483 615 464 621T426 630T394 634Q374 634 346 630T291 620T247 607Q238 584 231 544T219 458T215 373Q215 331 219 288T230 209T246 151Q252 145 269 135T310 115T356 99T398 92Q408 92 426 94T461 100T486 108L549 267Q574 267 596 261T630 249Q630
221 627 189T621 126T615 75Q598 61 561 44T474 13T365 0Z" />
<glyph unicode="D" horiz-adv-x="774" d="M467 -1Q440 0 395 3T296 11T193 19T104 27T49 33Q49 43 52 52T58 66L87 70Q104 72 114 82T129 112T134 168V565Q134 595 137 611T146 634T151 642H60Q56 646 53 655T48 673Q54 680 66 687T91 699T110 706H504Q515 704
535 696T580 677T625 654T653 634Q686 578 698 513T711 381Q711 319 703 263T683 161T656 90Q639 73 613 58T560 29T508 8T467 -1ZM260 77H500Q516 95 528 126T548 195T560 275T564 359Q564 400 560 440T548 517T527 581T495 624Q476 629 451 632T398 637T340 639Q302
639 290 621T277 563V142Q277 119 272 102T260 77Z" />
<glyph unicode="E" horiz-adv-x="702" d="M556 0Q536 0 497 1T407 5T304 11T201 17T111 25T49 33Q49 43 52 52T58 66L87 70Q104 72 114 82T129 112T134 168V565Q134 595 137 611T146 634T151 642H60Q56 646 53 654T48 673Q54 680 66 687T91 699T110 704H555Q578
696 601 681T639 648Q635 584 625 536T608 463Q587 463 567 467T535 475L508 621Q496 626 472 629T414 636T337 639Q312 639 299 629T282 602T277 565V394Q320 396 354 397T419 401T481 407L494 392Q492 369 489 353T482 327H277V142Q277 119 272 102T260 77H501L570
255Q594 255 616 249T646 238Q646 204 644 168T637 99T629 44Q623 36 608 26T579 8T556 0Z" />
<glyph unicode="F" horiz-adv-x="648" d="M283 0Q276 0 253 2T199 9T137 17T82 26T49 33Q49 42 51 51T58 66L87 70Q102 72 112 80T128 108T134 168V565Q134 595 137 611T146 634T151 642H60Q56 646 53 655T48 673Q54 680 66 687T91 699T110 704H545Q567 696 590
681T628 648Q624 589 615 538T598 463Q578 463 557 467T524 475L497 621Q483 627 443 633T339 639Q299 639 288 619T277 561V384Q321 386 355 387T418 391T476 397L489 382Q488 359 484 343T477 317H277V143Q277 119 272 102T260 77L363 64Q365 60 368 52T371 33Q357
21 330 11T283 0Z" />
<glyph unicode="G" horiz-adv-x="754" d="M367 0Q327 0 286 13T208 44T145 81T109 108Q87 139 75 198T63 324Q63 382 69 438T85 540T104 606Q129 627 168 647T253 684T341 710T414 720Q451 720 494 711T576 687T641 650Q640 589 632 540T615 462Q586 463 564 466T531
474L497 608Q486 615 469 621T434 630T404 634Q383 634 353 630T293 620T247 606Q240 588 234 561T224 501T217 435T215 373Q215 331 219 288T230 209T246 151Q252 145 269 135T309 115T356 99T399 92Q419 92 443 95T490 102T525 111V211Q525 236 529 257T536 288H394Q394
306 399 327T409 359Q450 359 497 361T588 366T662 372L674 359Q668 339 662 292T655 183V63Q638 54 607 43T534 22T450 6T367 0Z" />
<glyph unicode="H" horiz-adv-x="838" d="M283 0Q276 0 253 2T199 9T137 17T82 26T49 33Q49 42 51 51T58 66L87 70Q102 72 112 80T128 108T134 168V565Q134 597 139 615T151 642H60Q57 646 53 654T48 673Q54 680 66 687T91 699T110 704H355Q359 699 363 688T368
659L325 646Q309 642 299 634T283 609T277 560V398Q316 398 356 398T435 400T505 403T556 406V565Q556 597 561 616T574 642H482Q480 646 476 654T471 673Q477 680 489 687T514 699T532 704H777Q782 699 786 687T790 659L747 646Q731 642 721 634T705 609T699 560V143Q699
119 694 102T682 77L777 64Q779 62 782 54T785 33Q770 21 747 11T705 0Q698 0 675 2T621 9T559 17T504 26T471 33Q471 43 474 52T480 66L509 70Q526 72 536 81T551 111T556 168V330H277V143Q277 119 272 102T260 77L355 64Q357 61 359 52T362 33Q347 20 325 10T283
0Z" />
<glyph unicode="I" horiz-adv-x="416" d="M283 0Q276 0 253 2T199 9T137 17T82 26T49 33Q49 42 51 51T58 66L87 70Q104 72 114 82T129 112T134 168V565Q134 609 142 624T152 642H60Q57 646 53 654T48 673Q54 680 66 687T91 699T110 704H355Q359 699 363 688T368
659L325 646Q309 642 299 634T283 609T277 560V143Q277 119 272 102T260 77L355 64Q357 61 359 52T362 33Q347 20 325 10T283 0Z" />
<glyph unicode="J" horiz-adv-x="398" d="M39 -200Q14 -200 -19 -187T-74 -160Q-74 -148 -71 -137T-65 -119Q-7 -104 43 -83T129 -37V565Q129 597 134 617T147 642H44Q41 646 38 654T33 673Q38 680 50 687T75 699T94 704H349Q354 699 358 687T363 659L319 646Q304
642 294 634T278 609T272 560V17Q261 -21 233 -59T168 -129T97 -180T39 -200Z" />
<glyph unicode="K" horiz-adv-x="766" d="M283 0Q276 0 253 2T199 9T137 17T82 26T49 33Q49 42 51 51T58 66L87 70Q102 72 112 80T128 108T134 168V565Q134 599 140 618T151 642H60Q56 646 53 655T48 673Q54 680 66 687T91 699T110 704H355Q360 699 364 686T368
659L325 646Q309 642 299 634T283 609T277 560V396L381 399Q387 421 397 451T420 516T451 586T489 652T531 704H737Q742 700 747 689T752 661L704 646Q674 637 646 616T593 567T545 507T505 445T475 389L594 189Q620 146 641 123T681 90T722 80L742 79Q746 76 751
65T756 37Q739 26 714 18T663 5T618 0Q605 0 588 3T551 18T512 51T472 111L380 295Q372 309 363 320T328 331H277V143Q277 119 272 102T260 77L355 64Q357 61 359 52T362 33Q347 20 324 10T283 0Z" />
<glyph unicode="L" horiz-adv-x="629" d="M513 0Q487 0 441 2T338 7T225 14T122 24T49 33Q49 43 52 52T58 66L87 70Q104 72 114 82T129 112T134 168V565Q134 595 137 611T146 634T151 642H60Q56 646 53 655T48 673Q54 680 66 687T91 699T110 704H355Q360 699 364
686T368 659L325 646Q309 642 299 634T283 609T277 560V142Q277 119 272 102T260 77H458L526 264Q552 264 572 258T602 247Q602 212 600 174T593 102T585 44Q579 37 565 27T535 8T513 0Z" />
<glyph unicode="M" horiz-adv-x="1016" d="M234 0Q225 0 200 3T142 12T83 23T44 33Q44 43 47 52T53 66L77 69Q95 73 105 79T121 106T129 168L151 564Q153 601 160 620T171 642H75Q72 646 68 654T64 673Q69 680 81 687T106 699T125 704H331L503 265Q517 295 533
335T567 421T603 516T637 613T667 704H943Q947 698 951 687T956 659L913 646Q893 640 881 631T864 606T860 563L882 149Q884 120 879 101T867 77L963 64Q966 59 968 51T972 33Q957 21 934 11T891 0Q881 0 856 2T800 8T736 16T680 25T646 32Q646 42 649 52T656 66L695
70Q714 72 725 77T742 103T743 175L724 500Q722 539 724 565T730 599L722 603L525 96Q514 90 488 83T429 76L266 499Q254 531 248 559T241 601H235Q233 596 231 576T226 525L207 140Q206 119 201 102T191 79L316 64Q318 60 320 53T324 33Q313 24 296 17T263 5T234
0Z" />
<glyph unicode="N" horiz-adv-x="829" d="M242 0Q233 0 209 3T153 12T94 22T49 33Q49 42 51 51T58 66L85 70Q102 72 111 84T125 121T130 182V567Q130 601 136 619T147 642H60Q56 646 53 654T48 673Q54 680 66 687T91 699T110 704H301L631 171Q627 192 625 220T623
302V564Q623 598 628 618T640 642H540Q538 646 534 654T529 673Q534 680 546 687T572 699T590 704H775Q780 698 784 686T788 659L751 648Q732 642 722 634T707 608T702 555V181Q702 125 705 86T713 34Q698 22 672 15T617 4T569 0L267 489Q243 529 232 556T219 595H213Q212
589 211 573T209 525V146Q209 125 204 106T193 79L324 64Q326 62 329 53T332 33Q321 24 305 17T271 5T242 0Z" />
<glyph unicode="O" horiz-adv-x="763" d="M363 0Q326 0 286 13T210 44T147 80T110 111Q87 145 75 204T63 328Q63 382 69 434T84 532T105 606Q133 627 171 647T254 684T343 710T425 720Q452 720 485 712T552 691T610 663T649 633Q665 605 676 563T694 474T700 381Q700
329 694 278T678 182T653 98Q626 76 579 53T475 15T363 0ZM387 84Q404 84 429 89T478 101T515 116Q526 144 533 182T544 266T547 358Q547 423 542 480T527 574Q521 582 504 592T467 610T426 624T392 630Q375 630 347 627T292 618T245 606Q234 580 227 544T215 465T211
375Q211 311 219 248T245 144Q252 135 271 125T312 105T356 90T387 84Z" />
<glyph unicode="P" horiz-adv-x="652" d="M283 0Q276 0 253 2T199 9T137 17T82 26T49 33Q49 42 51 51T58 66L87 70Q103 72 113 81T129 111T134 168V565Q134 595 137 611T146 634T151 642H60Q56 646 53 655T48 673Q54 680 66 687T91 699T110 704H471Q492 699 519
688T569 662T605 635Q617 615 622 587T627 530Q627 498 622 466T609 409T591 371Q574 357 549 339T496 307T441 290H277V143Q277 119 272 102T260 77L363 64Q365 60 368 52T371 33Q357 21 330 11T283 0ZM277 359Q329 359 378 360T461 366Q470 381 476 406T486 460T490
514Q490 547 484 576T460 624Q445 629 420 632T372 637T338 639Q312 639 300 629T282 603T277 567V359Z" />
<glyph unicode="Q" horiz-adv-x="763" d="M537 -200Q520 -200 491 -192T425 -168T355 -136T295 -100T257 -65Q260 -45 273 -22T300 19L366 16L355 -28Q372 -41 402 -55T467 -82T537 -103T597 -112H656Q661 -116 664 -127T668 -150Q657 -162 633 -173T583 -192T537
-200ZM363 0Q326 0 286 13T210 44T147 80T110 111Q87 145 75 204T63 328Q63 382 69 434T84 532T105 606Q133 627 171 647T254 684T343 710T425 720Q452 720 485 712T552 691T610 663T649 633Q665 605 676 563T694 474T700 381Q700 329 694 278T678 182T653 98Q626
76 579 53T475 15T363 0ZM387 84Q404 84 429 89T478 101T515 116Q526 144 533 182T544 266T547 358Q547 423 542 480T527 574Q521 582 504 592T467 610T426 624T392 630Q375 630 347 627T292 618T245 606Q234 580 227 544T215 465T211 375Q211 311 219 248T245
144Q252 135 271 125T312 105T356 90T387 84Z" />
<glyph unicode="R" horiz-adv-x="736" d="M283 0Q276 0 253 2T199 9T137 17T82 26T49 33Q49 42 51 51T58 66L87 70Q104 72 114 82T129 112T134 168V565Q134 595 137 611T146 634T151 642H60Q56 646 53 655T48 673Q54 680 66 687T91 699T110 704H485Q506 699 531
688T580 664T615 639Q626 619 631 591T636 531Q636 495 631 470T618 427T600 398Q589 386 570 374T528 350T486 332V327Q506 317 519 301T547 253L587 166Q603 132 617 114T648 88T683 79H712Q716 75 721 64T726 37Q708 25 686 17T642 5T604 0Q546 0 512 29T457
111L392 277Q385 295 375 304T343 313H277V143Q277 119 272 102T260 77L363 64Q365 60 368 52T371 33Q357 21 330 11T283 0ZM277 380Q315 381 350 381T416 384T471 389Q483 406 491 437T500 515Q500 549 493 577T471 624Q454 629 427 632T374 637T337 639Q301 639
289 619T277 567V380Z" />
<glyph unicode="S" horiz-adv-x="664" d="M309 0Q279 0 243 10T171 35T107 68T64 101Q66 130 71 163T83 224T97 268Q118 268 138 263T169 254L204 124Q222 116 247 109T299 97T346 93Q362 93 382 95T421 102T453 111Q460 128 464 150T468 196Q468 208 467 223T463
249Q434 259 391 272T300 301T208 333T133 364T95 392Q86 407 83 432T80 481Q80 523 87 564T106 625Q127 640 159 656T227 687T299 711T360 720Q401 720 445 712T526 689T586 657Q585 637 582 611T574 559T564 510T554 476Q529 476 508 481T476 490L451 616Q442
619 425 622T388 629T351 632Q332 632 310 630T267 623T232 613Q226 599 224 576T221 530Q221 514 222 499T225 475Q249 467 291 454T382 426T476 395T555 362T597 329Q604 316 606 299T608 257Q608 196 599 155T578 88Q567 77 539 62T472 33T391 10T309 0Z" />
<glyph unicode="T" horiz-adv-x="705" d="M428 0Q421 0 398 2T342 9T278 17T222 26T188 33Q188 43 191 52T197 66L233 69Q251 71 261 81T275 113T280 168V562Q280 595 285 611T294 634H146L122 477Q111 472 87 468T42 463Q38 478 32 506T20 572T12 648Q26 662
50 680T93 704H619Q639 695 660 680T693 648Q689 585 680 539T662 463Q642 463 619 467T584 477L560 628Q547 632 524 636T469 641Q451 641 441 633T427 612T423 583V143Q423 119 417 102T406 77L509 64Q511 62 513 54T517 33Q501 20 474 10T428 0Z" />
<glyph unicode="U" horiz-adv-x="785" d="M398 0Q358 0 313 14T226 48T158 91T128 130V565Q128 596 133 616T145 642H54Q51 647 47 654T42 673Q48 680 60 687T85 699T104 704H349Q353 699 357 687T362 659L319 646Q301 641 291 632T276 607T272 560V143Q283 132
302 121T344 102T387 88T422 82Q456 82 488 90T547 111T588 140V564Q588 596 594 616T605 642H516Q512 646 509 654T505 673Q511 680 523 687T547 699T566 704H742Q747 698 751 687T756 659L717 648Q698 643 688 634T673 607T668 555V108Q655 91 627 72T562 37T482
11T398 0Z" />
<glyph unicode="V" horiz-adv-x="822" d="M434 0Q420 0 396 6T345 24T295 50T258 82L127 607Q123 622 114 632T81 642H37Q33 646 30 654T25 673Q30 679 42 686T67 698T88 704H358Q363 700 367 687T371 659L330 647Q319 643 306 636T287 615T287 571L384 137Q393
128 410 118T448 102T484 95L590 530Q602 579 616 606T641 642H520Q517 646 513 653T508 673Q516 680 533 687T566 699T588 704H794Q798 700 802 688T807 659L771 648Q746 640 730 629T703 596T681 537T655 439L568 80Q560 69 543 56T506 30T467 9T434 0Z" />
<glyph unicode="W" horiz-adv-x="1252" d="M434 0Q419 0 395 7T344 25T294 50T258 82L126 609Q122 626 111 634T78 642H37Q33 646 30 654T25 673Q30 679 42 686T67 698T88 704H358Q363 699 367 686T372 659L331 646Q317 642 305 635T286 613T286 571L384 140Q399
126 417 116T455 100T494 95L598 514L575 608Q571 625 559 633T523 642H477Q474 647 471 655T465 673Q471 679 483 686T508 698T528 704H791Q796 699 800 686T804 659L762 646Q749 642 736 635T717 613T717 571L817 137Q826 128 844 118T884 102T922 96L1023 530Q1031
563 1041 586T1060 624T1075 642H923Q921 645 917 653T912 673Q920 680 936 687T969 699T992 704H1224Q1229 699 1233 688T1238 659L1197 647Q1175 640 1160 630T1133 598T1110 539T1083 439L997 80Q989 69 973 56T938 30T900 9T867 0Q853 0 829 6T778 24T728 50T690
82L635 358H631L564 80Q556 70 541 57T506 30T468 9T434 0Z" />
<glyph unicode="X" horiz-adv-x="773" d="M202 0Q190 0 165 3T109 12T51 23T6 33Q6 43 9 53T16 66Q50 70 78 89T130 135T176 191L305 361L141 607Q132 621 120 631T86 642H36Q33 645 29 654T24 673Q29 680 44 687T74 699T97 704H365Q370 698 374 687T379 659L335
647Q318 642 308 633T298 608Q298 601 301 591T314 566L397 444Q419 477 442 512T491 582T541 648T590 704H743Q748 697 752 686T756 664L712 651Q683 642 657 626T605 585T555 531T503 463T447 382L582 189Q597 168 614 142T652 95T700 71L756 64Q758 61 761 53T764
33Q755 25 739 18T705 5T678 0Q668 0 644 2T589 9T527 17T473 26T440 33Q440 44 442 52T448 66L473 69Q484 70 489 74T495 86Q495 93 490 106T470 138L354 296L237 140Q222 121 205 103T179 78L295 64Q297 60 299 52T302 33Q292 24 272 17T232 5T202 0Z" />
<glyph unicode="Y" horiz-adv-x="698" d="M434 0Q426 0 403 2T348 9T286 17T231 26T197 33Q197 43 199 52T205 66L235 70Q251 72 261 81T276 111T281 168V297L106 615Q98 630 88 636T54 642H20Q17 646 13 654T8 673Q13 680 26 687T54 699T76 704H332Q336 698 340
686T345 659L297 647Q281 643 271 635T261 610Q261 604 264 592T274 565L371 374H377Q410 454 434 509T476 602T511 663T545 704H707Q712 697 715 686T719 664L678 651Q657 644 639 635T600 606T556 552T501 461T428 318V143Q428 121 423 103T411 77L505 64Q507
61 510 53T513 33Q497 20 475 10T434 0Z" />
<glyph unicode="Z" horiz-adv-x="650" d="M99 0Q90 0 75 13T49 45T36 84Q84 133 132 196T230 330T324 469Q353 513 379 552T428 624L187 633L156 475Q145 470 124 466T83 462Q76 487 69 520T56 589T50 657Q56 665 70 675T101 696T132 712T153 719Q161 719 189
718T257 713T338 707T412 702T461 698Q472 699 491 703T529 711T555 719Q569 711 586 693T609 646L243 117L475 95L535 265Q560 265 582 259T613 248Q613 198 610 159T604 93T596 51Q589 44 577 36T550 19T522 6T502 0Q485 0 450 4T371 15T285 29T210 40T167 45Q156
36 143 26T117 8T99 0Z" />
<glyph unicode="[" horiz-adv-x="383" d="M211 -170Q197 -170 176 -158T133 -127T93 -91V722Q110 739 132 757T175 788T211 801Q233 801 260 798T315 791T363 783Q366 779 370 768T374 740L204 720Q199 634 196 555T192 397T190 230Q190 157 191 78T196 -88L374
-108Q374 -125 370 -136T363 -152Q344 -156 317 -160T262 -167T211 -170Z" />
<glyph unicode="\" horiz-adv-x="459" d="M347 -93L29 723Q35 731 58 740T116 753Q124 724 145 662T200 513L430 -76Q420 -81 397 -87T347 -93Z" />
<glyph unicode="]" horiz-adv-x="383" d="M172 -170Q150 -170 122 -167T66 -160T20 -152Q17 -148 13 -137T9 -108L187 -88Q190 -1 191 78T193 230Q193 317 192 396T187 555T179 720L9 740Q9 757 13 768T20 783Q41 787 68 791T122 798T172 801Q186 801 207 788T251
757T290 722V-91Q273 -108 251 -126T207 -157T172 -170Z" />
<glyph unicode="^" horiz-adv-x="606" d="M59 370Q43 375 30 386T11 411Q42 450 78 492T152 575T221 647T276 698T307 717Q315 717 337 699T391 648T458 575T530 493T596 411Q591 399 579 388T551 370L308 582H301L59 370Z" />
<glyph unicode="_" horiz-adv-x="625" d="M47 -73Q47 -51 50 -34T59 -11Q141 -11 219 -10T366 -7T486 -3T567 3L578 -5Q578 -27 575 -46T567 -73H47Z" />
<glyph unicode="`" horiz-adv-x="234" d="M193 565L0 706Q6 723 18 738T45 764T68 775Q79 775 105 753T165 689T234 593Q230 587 219 578T193 565Z" />
<glyph unicode="a" horiz-adv-x="557" d="M190 -3Q168 -3 140 9T89 39T57 69Q52 83 49 106T45 154Q45 168 46 179T48 200Q54 208 66 219T93 241T123 260T147 270Q156 273 177 274T220 276Q236 277 251 278T282 281T309 285T332 289V393Q310 405 285 410T241 416Q232
416 220 415T200 413L168 330Q163 328 149 323T112 316Q102 330 88 360T68 426Q91 444 121 458T185 481T249 495T303 500Q327 500 355 488T410 459T452 422T469 388V79L531 73Q533 68 536 59T540 36Q531 26 514 18T477 5T443 0Q417 0 398 9T367 33T348 60Q326 46
297 31T239 7T190 -3ZM239 86Q249 86 266 90T302 102T332 115V225Q316 223 298 220T262 215Q237 211 213 207T173 191Q172 175 173 153T181 115Q191 105 208 96T239 86Z" />
<glyph unicode="b" horiz-adv-x="584" d="M294 0Q268 0 233 10T165 36T109 65T87 87V688Q87 697 83 705T69 715L1 735Q3 749 7 758T14 772Q25 777 48 783T98 795T146 800Q181 800 202 778T223 721V435Q235 442 252 453T288 475T325 493T357 500Q374 500 397 495T443
480T485 459T514 437Q524 420 529 397T538 344T541 283Q541 225 533 172T515 88Q502 77 478 62T422 33T358 10T294 0ZM306 85Q319 85 336 88T368 95T392 103Q397 115 400 147T403 214Q403 249 402 277T398 327T392 365Q388 372 374 381T345 398T321 405Q309 405
292 400T257 389T223 374V113Q235 107 250 101T281 90T306 85Z" />
<glyph unicode="c" horiz-adv-x="463" d="M264 0Q237 0 206 10T147 34T98 61T73 82Q57 104 50 143T43 226Q43 264 46 301T56 369T69 417Q84 427 111 440T173 468T242 491T306 500Q322 500 343 493T387 475T425 451T448 430Q449 408 441 385T422 341T401 306Q385
306 368 310T340 320Q334 339 326 360T308 397T290 413Q274 413 254 409T217 399T189 388Q186 380 183 364T179 329T177 290Q177 259 179 225T184 166T191 135Q193 132 203 125T228 110T255 97T276 92Q294 92 324 95T380 103T416 109Q420 106 425 98T431 76Q418
62 393 44T334 13T264 0Z" />
<glyph unicode="d" horiz-adv-x="588" d="M237 0Q211 0 186 9T137 31T98 58T73 82Q57 103 50 142T43 227Q43 265 47 302T57 368T69 415Q83 426 109 440T167 468T233 491T297 500Q310 500 329 496T365 483V688Q365 696 361 704T347 715L279 735Q281 748 285 758T293
772Q303 777 326 783T376 795T424 800Q459 800 480 778T502 721V79L564 73Q566 68 569 58T573 36Q565 26 548 18T511 5T477 0Q449 0 430 10T399 35T381 60Q364 45 338 31T284 9T237 0ZM277 87Q286 87 300 91T333 101T365 115V389Q353 394 335 399T300 408T271 412Q262
412 247 409T218 402T194 394Q191 384 188 367T184 328T182 283Q182 251 184 219T189 163T196 135Q200 130 210 123T231 107T255 93T277 87Z" />
<glyph unicode="e" horiz-adv-x="477" d="M264 0Q237 0 206 10T147 34T98 61T73 82Q57 104 50 143T43 226Q43 264 46 301T56 369T69 417Q84 426 111 440T171 467T239 490T304 500Q323 500 349 490T400 466T435 439Q441 427 445 404T452 356T454 317Q442 300 425
284T390 256T360 238Q339 232 310 228T246 222T177 218Q178 186 181 163T188 135Q191 132 202 125T227 111T254 98T276 92Q289 92 309 94T353 98T397 104T432 110Q437 105 442 97T448 76Q434 62 406 44T342 13T264 0ZM238 284Q255 285 272 286T304 291T330 300Q330
311 329 327T326 360T320 384Q316 391 307 397T288 408T272 412Q264 412 247 409T213 400T187 391Q182 378 180 360T176 324T175 290Q188 287 205 286T238 284Z" />
<glyph unicode="f" horiz-adv-x="340" d="M229 0Q219 0 191 3T128 12T65 22T24 32Q24 40 27 49T33 63L61 68Q78 71 86 86T95 146V434L24 441Q24 461 28 474T37 492L93 500L42 700Q46 713 68 730T121 763T183 789T237 800Q251 800 272 790T313 766T346 737T360
714Q360 705 354 692T340 664T323 637T308 619Q295 619 282 622T260 630Q255 649 248 668T234 701T222 714Q214 714 203 712T181 707T160 700L215 500H321L333 488Q332 470 326 455T314 430H231V127Q231 106 226 91T217 71L297 62Q299 58 301 50T304 33Q298 25
285 18T256 5T229 0Z" />
<glyph unicode="g" horiz-adv-x="514" d="M218 -200Q205 -200 181 -193T130 -172T79 -142T40 -109T24 -75Q24 -58 39 -37T76 4T120 36Q114 44 108 56T101 76Q101 86 112 101T139 131T165 154L217 143L213 96Q223 96 251 93T315 86T389 75T454 61T494 44Q500 31
502 13T505 -21Q505 -54 500 -88T485 -142Q471 -152 444 -162T380 -181T302 -195T218 -200ZM262 -118Q278 -118 301 -115T347 -108T387 -99Q389 -93 390 -82T391 -61Q391 -50 390 -38T386 -19Q384 -17 365 -13T320 -5T266 4T219 12T192 16Q183 4 173 -9T157 -34T150
-51Q150 -58 164 -69T198 -92T236 -110T262 -118ZM213 129Q181 138 156 146T112 161T83 175T65 190Q57 202 50 228T42 285Q42 334 50 372T65 434Q75 440 101 451T161 473T228 492T286 500Q301 500 321 497T354 489Q377 493 406 504T464 530T508 553L529 541Q530
521 527 499T519 462Q494 452 468 447T415 440V434Q422 429 432 421T451 400Q457 384 460 360T464 314Q464 276 457 242T441 187Q428 177 395 165T314 142T213 129ZM260 195Q267 195 280 198T305 205T324 213Q330 227 334 252T338 304Q338 335 335 362T327 398Q323
404 311 411T286 423T265 429Q256 429 242 427T212 420T184 410Q179 398 176 377T172 329Q172 307 174 285T179 247T185 226Q190 221 204 214T235 201T260 195Z" />
<glyph unicode="h" horiz-adv-x="605" d="M203 0Q193 0 170 3T118 12T66 22T29 32Q29 40 32 49T38 63L60 67Q77 69 82 85T88 146V688Q88 698 84 705T70 715L1 735Q3 749 7 759T15 772Q26 777 49 783T99 795T146 800Q182 800 203 778T224 721V432Q243 446 267 462T314
489T355 500Q379 500 408 492T464 469T508 437T525 402V127Q525 105 520 91T511 71L583 62Q585 57 587 50T590 33Q585 26 571 18T542 5T515 0Q505 0 480 3T423 12T366 22T327 32Q327 40 330 49T337 63L360 67Q370 68 376 75T386 98T389 146V353Q389 361 382 370T363
388T342 401T325 406Q318 406 304 403T275 394T246 384T224 374V135Q224 115 218 97T206 71L274 62Q276 58 278 50T281 33Q276 26 262 18T232 5T203 0Z" />
<glyph unicode="i" horiz-adv-x="320" d="M222 0Q211 0 185 3T128 12T69 22T30 32Q30 40 33 48T40 63L65 68Q76 70 82 75T92 97T95 146V388Q95 398 91 405T78 415L23 435Q25 446 28 456T37 472Q55 481 89 490T154 500Q189 500 210 478T232 421V127Q232 106 227
91T217 71L289 62Q291 58 293 51T296 33Q291 26 278 18T249 5T222 0ZM146 587Q138 587 125 597T100 623T79 653T70 679Q70 688 81 699T109 722T142 741T168 749Q178 749 190 738T213 712T232 681T240 655Q240 647 229 635T203 612T172 594T146 587Z" />
<glyph unicode="j" horiz-adv-x="302" d="M23 -200Q11 -200 -12 -191T-57 -168T-89 -142Q-89 -130 -85 -121T-78 -109Q-43 -104 -12 -98T44 -83T88 -65V388Q88 397 84 404T70 415L16 435Q18 448 22 458T29 472Q40 477 60 483T103 495T147 500Q182 500 203 478T225
421V-28Q225 -38 210 -59T172 -104T121 -150T68 -186T23 -200ZM137 587Q129 587 116 597T91 623T70 653T61 679Q61 688 72 699T100 722T133 741T159 749Q169 749 181 738T204 712T223 681T231 655Q231 647 220 635T194 612T163 594T137 587Z" />
<glyph unicode="k" horiz-adv-x="587" d="M201 0Q190 0 167 3T115 12T63 22T26 32Q26 40 29 49T36 63L58 67Q76 69 81 87T86 146V688Q86 697 82 705T68 715L0 735Q1 749 5 759T13 772Q24 777 47 783T97 795T145 800Q179 800 200 778T222 721V435Q243 449 268 464T319
489T361 500Q383 500 411 491T467 468T511 436T529 402Q529 382 511 360T468 317T421 280T392 258Q398 256 407 248T428 221L484 121Q494 103 507 94T538 85H565Q567 81 571 73T575 54Q568 42 552 29T515 8T476 0Q448 0 421 17T377 70L314 194Q304 210 294 219T274
232T258 239Q258 252 263 265T274 284L326 289Q333 295 343 305T363 327T381 347T388 361Q388 365 382 373T365 390T345 405T327 411Q313 411 282 401T222 375V135Q222 114 216 97T204 71L280 62Q282 58 284 50T287 33Q281 26 265 18T231 5T201 0Z" />
<glyph unicode="l" horiz-adv-x="304" d="M214 0Q204 0 179 3T123 12T67 22T29 32Q29 40 32 49T38 63L60 67Q77 69 82 85T87 146V688Q87 696 84 703T70 714L1 735Q3 749 7 758T15 772Q26 777 49 783T99 795T146 800Q181 800 202 778T224 721V127Q224 106 219 92T210
71L282 62Q284 58 286 50T289 33Q283 26 270 18T241 5T214 0Z" />
<glyph unicode="m" horiz-adv-x="915" d="M212 0Q202 0 177 3T123 12T69 22T31 32Q31 40 34 48T41 63L67 68Q84 71 90 85T96 146V388Q96 397 92 404T79 415L24 435Q26 448 29 457T38 472Q55 480 89 490T155 500Q188 500 209 481T232 430Q250 443 273 459T321 488T364
500Q390 500 421 490T479 462T522 425Q535 434 553 446T591 471T631 491T665 500Q688 500 717 492T773 469T817 437T835 402V127Q835 105 830 91T820 71L892 62Q894 59 896 51T899 33Q894 26 881 18T852 5T825 0Q815 0 789 3T732 12T675 22T637 32Q637 41 640 49T646
63L669 67Q679 68 685 74T695 96T698 146V353Q698 361 691 370T673 388T652 401T635 406Q626 406 606 401T566 388T534 374V135Q534 113 528 96T516 71L585 62Q586 60 588 52T591 33Q586 26 572 18T541 5T513 0Q503 0 479 3T426 12T373 22T336 32Q336 40 339 49T345
63L368 67Q385 69 391 85T398 146V353Q398 361 391 370T372 388T351 401T334 406Q327 406 313 403T284 394T254 384T233 374V135Q233 115 227 98T215 71L283 62Q285 59 287 51T290 33Q285 26 271 18T240 5T212 0Z" />
<glyph unicode="n" horiz-adv-x="614" d="M212 0Q202 0 177 3T123 12T69 22T31 32Q31 40 34 48T41 63L67 68Q84 71 90 85T96 146V388Q96 397 92 404T79 415L24 435Q26 448 29 457T38 472Q55 480 89 490T155 500Q188 500 209 482T232 431Q250 444 274 460T322 488T364
500Q387 500 416 492T472 469T516 437T534 402V127Q534 106 529 92T519 71L592 62Q594 58 596 50T599 33Q594 26 580 18T551 5T524 0Q514 0 488 3T432 12T375 22T336 32Q336 41 339 49T346 63L368 66Q378 68 384 74T394 96T397 146V353Q397 361 390 370T372 388T351
401T334 406Q327 406 313 403T284 394T254 384T233 374V135Q233 115 227 98T215 71L283 62Q285 60 287 52T290 33Q285 26 271 18T240 5T212 0Z" />
<glyph unicode="o" horiz-adv-x="541" d="M260 0Q234 0 205 9T148 33T100 60T73 83Q57 104 50 144T43 229Q43 267 47 303T57 369T69 417Q83 426 110 440T171 467T239 490T303 500Q322 500 347 493T399 474T446 449T476 425Q484 410 489 387T496 336T498 281Q498
224 491 171T472 86Q460 75 437 61T385 32T323 9T260 0ZM273 85Q281 85 296 88T328 96T352 104Q358 117 360 145T362 205Q362 237 361 273T357 337T350 371Q346 377 333 386T302 404T271 412Q261 412 245 409T213 401T188 392Q185 385 182 369T178 332T177 291Q177
257 179 223T184 163T189 131Q192 128 202 121T225 105T251 91T273 85Z" />
<glyph unicode="p" horiz-adv-x="583" d="M221 -200Q211 -200 183 -197T120 -188T57 -178T16 -168Q16 -160 19 -151T26 -137L54 -132Q71 -129 79 -114T87 -54V388Q87 398 83 405T70 415L15 435Q17 449 21 458T29 472Q46 480 80 490T146 500Q180 500 201 481T223
431Q235 440 252 451T288 474T324 493T356 500Q371 500 394 494T441 476T486 453T518 428Q527 409 532 384T540 331T542 277Q542 220 534 168T516 86Q504 75 481 61T430 32T371 9T315 0Q299 0 274 8T224 27V-73Q224 -94 219 -109T209 -129L289 -138Q291 -142 293
-150T296 -167Q291 -174 277 -182T248 -195T221 -200ZM306 85Q314 85 331 88T367 97T393 106Q400 124 403 157T406 222Q406 253 404 281T399 332T393 365Q388 374 376 383T349 399T326 406Q317 406 297 401T256 388T224 374V106Q239 101 255 96T285 88T306 85Z"
/>
<glyph unicode="q" horiz-adv-x="583" d="M498 -200Q490 -200 469 -198T420 -192T364 -184T314 -176T282 -168Q282 -161 285 -152T292 -137L330 -132Q347 -130 355 -115T364 -54V46Q338 27 309 14T253 0Q226 0 198 9T143 32T97 60T72 82Q56 104 49 143T42 227Q42
265 45 302T55 369T68 418Q82 427 108 440T166 467T232 490T296 500Q315 500 345 495T410 480T474 460T522 438Q522 425 517 410T506 368T500 291V-73Q500 -93 495 -108T486 -129L566 -138Q568 -141 570 -149T573 -167Q568 -174 554 -182T525 -195T498 -200ZM275
87Q283 87 298 91T331 103T364 117V390Q347 395 329 400T296 408T271 412Q264 412 249 409T218 402T193 393Q189 385 187 369T183 333T181 291Q181 258 183 224T188 165T195 135Q197 132 206 124T228 108T254 94T275 87Z" />
<glyph unicode="r" horiz-adv-x="433" d="M230 0Q220 0 193 3T132 12T71 22T31 32Q31 40 34 48T41 63L66 68Q77 70 83 76T93 98T96 146V388Q96 398 92 405T79 415L24 435Q26 448 29 457T38 472Q55 480 89 490T155 500Q189 500 210 478T232 414V402Q238 408 249
424T275 457T306 487T336 500Q350 500 366 490T396 466T420 437T429 415Q429 402 423 380T407 338T391 309Q376 309 359 312T332 319Q329 329 324 344T313 371T301 384Q296 384 287 377T266 360T246 341T233 327V127Q233 106 228 91T218 71L301 62Q303 59 306 51T309
33Q302 25 288 18T257 5T230 0Z" />
<glyph unicode="s" horiz-adv-x="480" d="M209 0Q184 0 155 8T99 29T56 52T36 69Q37 99 47 131T68 182Q86 181 101 178T123 170Q129 155 139 131T159 88Q170 85 188 83T218 81Q235 81 257 83T296 93Q299 100 301 114T304 142Q304 150 304 158T302 171Q299 175
274 183T211 201T137 222T74 244T42 263Q40 273 39 288T38 318Q38 350 44 383T58 437Q70 445 94 455T150 476T212 493T268 500Q284 500 309 492T360 471T403 447T421 429Q421 419 415 398T401 355T384 321Q363 322 348 326T326 333Q312 366 299 389T278 413Q260
413 241 412T205 409T175 403Q172 392 171 381T170 360Q170 349 171 341T174 324Q178 320 201 314T259 300T328 281T392 259T431 235Q435 225 436 207T438 173Q438 140 432 106T418 59Q406 50 382 40T328 21T266 6T209 0Z" />
<glyph unicode="t" horiz-adv-x="351" d="M233 0Q219 0 195 8T145 28T103 54T86 78V434L9 441Q9 465 13 477T22 492L79 501Q91 503 96 509T101 538V645Q113 654 139 664T193 676L214 660V501L316 500L328 488Q327 470 321 454T308 428L222 430V90L321 73Q323 69
326 61T330 39Q320 28 304 19T270 5T233 0Z" />
<glyph unicode="u" horiz-adv-x="611" d="M244 -4Q219 -4 191 7T139 35T100 67T84 92V388Q84 398 80 405T67 415L13 435Q15 448 18 457T26 472Q43 480 78 490T143 500Q178 500 199 478T221 421V123Q229 117 240 108T265 91T286 84Q295 84 313 89T351 102T386 119V388Q386
397 382 404T368 415L305 435Q307 449 311 459T319 472Q330 477 351 483T398 495T444 500Q479 500 500 478T522 421V79L584 73Q586 68 589 59T593 37Q587 28 571 20T533 6T495 0Q460 0 436 17T401 58Q382 46 353 32T293 7T244 -4Z" />
<glyph unicode="v" horiz-adv-x="549" d="M312 0Q284 0 256 8T201 28T155 55T121 82L69 356Q65 374 58 393T31 422L-7 439Q-7 450 -3 459T4 474Q14 480 34 486T76 496T112 500Q147 500 169 479T198 409L238 126Q244 120 252 113T273 99T298 88Q317 112 334 151T365
235T386 322T396 396Q387 403 373 410T344 424T315 436T293 444Q293 456 296 467T305 484Q318 489 340 492T384 498T421 500Q432 500 449 490T483 466T511 438T523 417Q523 385 513 342T486 252T447 161T401 80T354 22T312 0Z" />
<glyph unicode="w" horiz-adv-x="853" d="M312 0Q284 0 256 8T201 28T155 55T121 82L69 356Q65 374 58 393T31 422L-7 439Q-7 450 -3 459T4 474Q14 480 34 486T77 496T112 500Q147 500 169 479T199 408L237 129Q246 119 263 107T300 90Q317 110 333 139T363 202T388
271L373 356Q370 374 362 393T336 422L297 439Q297 450 301 459T308 474Q319 480 339 486T380 496T416 500Q451 500 474 479T503 409L539 127Q549 118 565 107T602 89Q621 112 638 148T669 227T691 313T702 394Q693 401 679 408T649 422T619 435T597 444Q598 458
601 468T609 484Q623 489 644 492T688 498T726 500Q738 500 755 491T788 468T816 441T827 421Q827 389 817 346T790 255T751 162T705 81T658 22T615 0Q589 0 564 7T517 26T476 50T446 77L428 141Q409 103 389 71T348 20T312 0Z" />
<glyph unicode="x" horiz-adv-x="511" d="M115 0Q103 0 86 10T53 34T26 61T15 80Q15 95 29 116T68 162T120 212T177 261L123 352Q115 364 105 379T80 407T48 426L15 438Q16 451 20 462T27 478Q36 482 55 487T93 496T122 500Q161 500 184 480T226 426L284 317Q301
331 317 347T347 379T368 405Q357 412 341 420T310 434T284 444Q284 457 287 468T295 484Q303 488 321 491T359 497T394 500Q400 500 413 493T442 476T467 454T477 435Q477 416 464 395T428 350T379 304T323 257L389 146Q409 112 428 99T468 85H486Q489 81 492
73T496 54Q490 42 473 30T436 9T398 0Q375 0 344 17T283 81L213 197Q196 181 178 160T145 121T125 94Q133 90 147 85T178 73T206 62Q209 57 212 47T215 23Q205 17 188 12T152 4T115 0Z" />
<glyph unicode="y" horiz-adv-x="552" d="M119 -200Q102 -200 80 -192T38 -172T12 -153Q13 -137 18 -126T28 -108Q78 -106 121 -92T201 -49T267 20Q236 28 207 41T155 69T120 97L69 356Q65 376 58 394T31 422L-7 439Q-7 450 -3 459T4 474Q14 480 34 486T76 496T112
500Q148 500 170 478T199 408L236 132Q242 127 254 120T282 106T312 95Q322 115 334 145T357 211T377 281T392 347T399 398Q387 407 368 416T329 432T296 444Q297 457 301 468T308 484Q322 489 344 492T388 498T425 500Q437 500 454 490T487 466T515 437T526 415Q526
380 514 329T479 220T427 102Q397 42 361 -12T285 -108T203 -175T119 -200Z" />
<glyph unicode="z" horiz-adv-x="493" d="M92 0Q85 0 69 13T40 47T26 90Q58 115 96 153T174 235T250 323T315 404L160 412L130 319Q122 316 105 311T69 307Q60 327 49 362T37 434Q43 443 57 454T87 475T118 493T137 500Q142 500 161 499T205 495T257 491T304 488T334
485Q343 485 359 489T389 496T407 498Q422 492 438 467T457 411L202 112L344 93L399 193Q418 192 434 187T459 174Q459 168 458 153T453 117T446 76T436 41Q426 32 409 23T375 7T348 0Q334 0 306 5T247 16T189 28T150 33Q136 33 125 27T92 0Z" />
<glyph unicode="{" horiz-adv-x="395" d="M211 -170Q198 -170 176 -158T131 -127T90 -91L123 230Q105 253 79 265T36 280Q30 286 26 306T22 351Q36 354 55 360T92 375T123 394L90 722Q108 739 131 757T176 788T211 801Q233 801 261 798T316 791T363 783Q366 779
370 768T374 740L203 720Q203 660 205 600T210 489T212 400Q212 380 196 364T157 336T117 318V314Q134 308 156 296T194 264T210 209Q210 182 208 137T202 33T199 -88L373 -108Q373 -124 370 -136T363 -152Q344 -156 317 -160T261 -167T211 -170Z" />
<glyph unicode="|" horiz-adv-x="429" d="M169 -200V777Q180 785 208 792T272 800Q268 777 265 716T261 556V-190Q252 -193 227 -196T169 -200Z" />
<glyph unicode="}" horiz-adv-x="395" d="M184 -170Q163 -170 135 -167T79 -160T32 -152Q29 -148 25 -138T21 -110L192 -90Q192 -29 190 30T186 142T183 230Q183 250 199 266T238 295T278 313V317Q261 323 239 334T201 367T185 421Q185 448 188 494T193 597T196
718L22 738Q22 755 25 766T32 783Q51 787 78 791T134 798T184 801Q198 801 219 789T264 758T305 722L272 400Q290 378 317 366T359 351Q365 344 369 325T373 280Q359 277 340 271T303 256T272 237L305 -92Q287 -109 264 -127T220 -157T184 -170Z" />
<glyph unicode="~" horiz-adv-x="589" d="M425 242Q412 242 382 248T313 265T234 286T158 308L76 258Q70 260 60 267T46 286Q62 308 83 330T128 368T169 384Q183 384 212 379T280 365T359 346T435 326L507 389Q520 384 530 375T543 360Q529 335 508 307T466 261T425 242Z" />
<glyph unicode="&#xa0;" horiz-adv-x="200" />
<glyph unicode="&#xa1;" horiz-adv-x="253" d="M55 -277L84 266Q91 273 114 279T169 287Q179 206 186 114T197 -70T202 -242Q182 -257 141 -267T55 -277ZM112 333Q102 333 89 344T64 372T43 405T35 433Q35 441 46 454T73 479T107 498T136 506Q145 506 159 495T186
468T209 435T218 408Q218 398 206 386T176 361T141 341T112 333Z" />
<glyph unicode="&#xa2;" horiz-adv-x="491" d="M278 0Q249 0 216 10T152 35T99 64T72 85Q58 104 51 141T43 223Q43 280 51 331T68 409Q84 420 111 436T173 467T241 492T304 502Q321 502 344 499T391 489T438 474T476 454Q475 406 468 370T455 314Q437 314 422
316T399 322L378 409Q369 412 353 415T322 420T298 422Q285 422 264 418T221 409T186 399Q182 385 178 363T172 316T170 271Q170 242 172 213T177 164T184 139Q187 137 200 129T232 113T266 99T291 92Q305 92 329 97T379 108T425 119T451 126Q456 122 460 114T465
93Q455 82 437 67T395 36T341 11T278 0ZM255 -118V594Q272 605 294 611T340 617Q336 583 333 542T329 470V-108Q317 -112 298 -115T255 -118Z" />
<glyph unicode="&#xa3;" horiz-adv-x="540" d="M97 0Q89 0 77 12T56 39T46 65L105 98Q114 115 123 140T140 195T152 251H53Q53 277 56 290T64 307Q84 307 104 307T145 308Q126 340 111 375T86 443T76 497Q89 510 114 524T170 550T231 570T284 578Q315 578 351
569T416 548T457 527Q457 504 453 475T443 422T433 388Q406 388 388 391T363 399L339 486Q320 494 301 497T264 500Q249 500 235 498T211 493T194 488Q194 470 201 439T222 373T253 311Q278 313 296 314T334 318T381 324L395 313Q394 291 390 275T383 251H256Q249
205 241 167T225 98L394 90L438 205Q456 205 475 201T506 190Q505 161 501 120T490 49Q480 39 460 28T419 8T387 0Q376 0 355 3T308 10T254 20T204 29T164 35Q157 31 143 22T116 7T97 0Z" />
<glyph unicode="&#xa4;" horiz-adv-x="610" d="M86 40Q69 51 54 67T30 97L119 168Q111 190 107 222T102 288Q102 321 106 351T119 404L30 485Q37 494 52 509T94 539Q111 517 133 492T179 442Q215 461 258 475T338 490Q345 490 362 485T401 471T444 452L520 537Q545
522 560 508T581 486Q558 469 534 449T494 414Q499 402 502 373T506 311Q506 267 502 234T488 173L581 96Q576 87 566 76T545 56T525 41L439 131Q408 112 370 96T293 80Q278 80 256 87T211 106T167 130L86 40ZM304 157Q315 157 329 161T357 170T383 180T398 189Q403
204 405 226T408 273Q408 295 407 316T403 352T397 373Q394 379 378 388T341 405T303 413Q296 413 284 411T258 404T232 396T212 388Q207 376 205 351T202 303Q202 274 205 245T214 201Q216 197 226 190T250 175T278 162T304 157Z" />
<glyph unicode="&#xa5;" horiz-adv-x="583" d="M343 0Q333 0 307 3T248 13T188 25T148 35Q148 43 151 51T158 65L192 70Q213 73 219 91T225 158V201H67Q67 227 70 240T78 255Q104 255 140 255T215 256L189 299H67Q67 326 70 339T78 355H159L80 485Q72 499 66 504T42
509H8Q6 513 3 518T-2 534Q3 540 15 547T39 559T57 564H274Q279 558 282 549T286 526L242 516Q220 510 208 500T197 471T219 416L291 293H294Q308 330 326 370T365 449T405 517T442 564H572Q576 560 580 550T584 527L543 515Q515 507 489 485T439 431T393 358Q426
358 450 359T493 362L506 351Q505 330 502 318T494 299H367L348 255Q378 256 398 256T438 258T484 261L495 250Q494 228 491 217T484 201H342V125Q342 111 338 97T328 74L417 64Q419 61 421 54T424 36Q418 27 403 19T371 6T343 0Z" />
<glyph unicode="&#xa6;" horiz-adv-x="429" d="M169 360V777Q180 785 208 792T272 800Q268 777 265 716T261 556V370Q237 365 215 363T169 360ZM169 -200V219Q193 224 215 226T261 229V-190Q252 -193 227 -196T169 -200Z" />
<glyph unicode="&#xa7;" horiz-adv-x="591" d="M268 -200Q243 -200 210 -192T142 -171T81 -143T37 -113Q38 -84 43 -51T54 11T66 57Q84 58 97 57T128 52L159 -84Q178 -92 203 -99T255 -112T301 -117Q319 -117 340 -114T383 -106T417 -95Q426 -78 430 -53T435 -4Q435
12 434 23T429 47Q414 53 380 64T304 90T218 120T139 151T86 179Q76 189 66 206T48 243T40 278Q46 301 56 323T76 363T94 390Q77 398 66 402T48 417Q45 426 44 436T41 456T40 479Q40 505 43 533T53 586T67 624Q86 639 115 656T180 687T248 711T307 720Q345 720
386 711T465 688T523 658Q523 633 518 599T507 532T494 482Q475 482 457 486T429 495L407 621Q384 628 354 634T290 640Q273 640 254 639T216 634T180 625Q175 613 171 596T166 561T164 523Q164 510 165 502T168 482Q176 479 203 472T267 454T344 432T420 409T476
387Q492 372 507 344T533 285T546 234Q538 209 524 183T497 139Q518 128 530 118T551 97Q553 86 554 70T555 36T555 7Q553 -24 546 -53T529 -104Q518 -117 490 -133T425 -164T346 -190T268 -200ZM416 180Q423 197 428 213T436 245T440 274L169 360Q166 350 162
335T155 303T151 266L416 180Z" />
<glyph unicode="&#xa8;" horiz-adv-x="457" d="M329 571Q321 571 310 580T287 604T268 632T260 655Q260 663 270 674T296 695T326 712T350 719Q358 719 369 709T390 685T408 657T415 634Q415 624 399 609T363 583T329 571ZM112 571Q104 571 93 580T70 604T50 632T42
655Q42 663 52 674T78 695T109 712T133 719Q141 719 152 710T173 686T191 657T198 634Q198 624 182 609T146 583T112 571Z" />
<glyph unicode="&#xa9;" horiz-adv-x="616" d="M296 219Q265 219 231 228T167 251T115 278T86 298Q79 306 71 329T58 382T52 442Q52 517 65 568T96 654Q119 669 159 687T248 718T347 732Q368 732 397 724T457 704T510 680T542 658Q548 651 552 633T559 590T563
542T564 501Q564 448 555 395T535 310Q522 298 497 283T439 253T369 229T296 219ZM317 333Q296 333 273 342T232 363T210 379Q207 384 204 399T198 433T195 469Q195 501 199 523T208 569Q218 576 238 585T285 602T336 610Q347 610 366 602T401 584T417 570Q417
564 413 550T404 523T394 506Q386 506 379 507T367 510L351 560Q314 560 294 556T268 550Q265 541 263 520T260 485Q260 460 263 440T269 412Q273 410 282 403T303 391T323 385Q332 385 349 387T381 392T400 396Q403 394 407 387T411 370Q395 357 372 345T317 333ZM309
272Q323 272 345 277T392 290T436 306T469 320Q480 344 485 387T491 477Q491 521 487 562T473 620Q470 625 453 634T413 652T363 668T311 675Q297 675 276 672T231 663T188 651T156 641Q148 624 140 597T126 538T121 479Q121 435 129 396T148 338Q162 324 191 309T252
283T309 272Z" />
<glyph unicode="&#xaa;" horiz-adv-x="466" d="M194 345Q180 345 161 350T122 364T88 379T70 392Q64 400 59 421T54 470Q54 479 54 488T57 506Q57 510 72 523T108 548T141 564Q152 567 177 568T232 571T287 579V667Q268 679 244 686T191 693Q183 693 173 693T155
693L139 628Q132 626 120 624T92 622Q82 632 72 652T57 695Q78 717 109 732T177 756T245 765Q258 765 280 757T325 737T364 713T381 692V419L441 410Q444 408 446 396T448 373Q441 363 419 354T382 345Q361 345 339 358T306 390Q282 372 253 359T194 345ZM207 417Q216
417 230 421T260 431T287 442V530Q261 520 234 517T183 511T147 500Q147 486 148 469T156 437Q160 433 175 425T207 417Z" />
<glyph unicode="&#xab;" horiz-adv-x="582" d="M278 29Q239 60 197 95T118 163T59 222T36 259Q36 271 58 296T117 355T196 424T278 490Q285 488 297 478T318 446L140 224L141 296L318 72Q307 55 296 44T278 29ZM487 29Q448 60 406 95T327 163T268 222T245 259Q245
271 267 296T326 355T405 424T487 490Q494 488 506 478T527 446L349 224L350 296L527 72Q516 55 505 44T487 29Z" />
<glyph unicode="&#xac;" horiz-adv-x="634" d="M515 168V327H26Q26 355 29 372T38 393Q153 393 244 394T402 398T513 404T577 413L597 388Q596 317 593 265T587 183Q574 176 558 172T515 168Z" />
<glyph unicode="&#xad;" horiz-adv-x="342" d="M30 270Q30 295 33 311T42 332Q103 332 150 334T233 341T294 352L315 328Q315 311 312 296T304 270H30Z" />
<glyph unicode="&#xae;" horiz-adv-x="616" d="M296 219Q265 219 231 228T167 251T115 278T86 298Q79 306 71 329T58 382T52 442Q52 517 65 568T96 654Q119 669 159 687T248 718T347 732Q368 732 397 724T457 704T510 680T542 658Q548 651 552 633T559 590T563
542T564 501Q564 448 555 395T535 310Q522 298 497 283T439 253T369 229T296 219ZM309 272Q323 272 345 277T392 290T436 306T469 320Q480 344 485 387T491 477Q491 507 489 535T483 587T473 620Q470 625 453 634T413 652T363 668T311 675Q297 675 276 672T231
663T188 651T156 641Q148 624 140 597T126 538T121 479Q121 435 129 396T148 338Q162 324 191 309T252 283T309 272ZM279 341Q276 341 262 343T231 347T199 352T181 356Q181 361 182 365T184 372H196Q206 372 211 379T216 412V558Q216 575 219 580T223 586H184Q182
589 181 593T179 600Q182 604 191 608T205 613H346Q361 610 379 601T403 584Q407 579 409 568T412 546Q412 530 408 518T399 498Q392 491 380 484T356 473V470Q364 467 370 460T382 440L395 411Q403 393 411 384T434 374H446Q448 372 450 367T452 356Q442 349 427
345T402 341Q382 341 366 351T340 387L316 447Q314 454 310 457T298 460H276V400Q276 391 274 384T269 373L314 368Q315 365 316 362T317 354Q311 349 299 345T279 341ZM276 495Q293 495 312 496T345 500Q349 508 351 517T353 539Q353 551 351 560T342 576Q333
579 320 580T299 581Q286 581 281 575T276 556V495Z" />
<glyph unicode="&#xaf;" horiz-adv-x="328" d="M0 570Q0 599 4 617T12 640Q45 640 89 641T180 645T263 650T317 654L328 645Q327 619 323 599T316 570H0Z" />
<glyph unicode="&#xb0;" horiz-adv-x="326" d="M163 352Q135 352 108 364T64 402T46 465Q46 503 63 528T107 566T163 579Q192 579 218 567T262 529T280 465Q280 427 263 402T218 365T163 352ZM163 410Q192 410 203 422T214 465Q214 497 203 509T163 522Q134 522
123 510T112 465Q112 434 123 422T163 410Z" />
<glyph unicode="&#xb1;" horiz-adv-x="516" d="M220 57V477Q224 482 244 486T298 490V67Q292 64 272 61T220 57ZM53 243Q53 272 57 287T66 306Q135 307 206 308T341 312T453 318L466 303Q465 277 461 263T453 243H53ZM53 -63Q53 -34 57 -19T66 0Q135 1 206 2T341
6T453 12L466 -3Q465 -29 461 -43T453 -63H53Z" />
<glyph unicode="&#xb2;" horiz-adv-x="423" d="M92 340Q73 345 55 359T31 394Q72 425 110 467T178 552T227 629T248 679Q230 685 198 689T138 693L121 597Q111 595 98 594T76 593Q67 608 57 640T42 704Q55 719 78 731T129 752T182 765T225 770Q242 770 264 762T308
741T344 716T358 695Q358 674 336 632T275 538T182 438L299 419L333 517Q345 517 361 514T384 506Q384 488 383 464T380 417T376 377Q368 371 351 362T316 347T287 340L136 381L92 340Z" />
<glyph unicode="&#xb3;" horiz-adv-x="350" d="M114 346Q104 346 87 352T53 367T31 381Q32 396 35 406T42 420Q56 418 72 417T104 416Q131 416 160 418T208 425Q212 428 215 439T221 464T224 491Q225 501 219 506T189 517T118 537Q118 549 120 562T129 583L191
580Q197 593 203 613T214 653T219 682Q202 687 171 691T109 695L91 603Q82 601 69 600T47 599Q40 612 30 641T15 704Q34 724 67 738T135 761T195 770Q211 770 232 763T275 744T309 720T323 700Q323 683 316 663T298 624T277 590T258 566V564Q284 558 298 548T319
524T325 497Q325 473 317 448T300 405T285 381Q274 373 245 365T180 352T114 346Z" />
<glyph unicode="&#xb4;" horiz-adv-x="234" d="M41 565Q28 569 17 577T0 593Q35 646 68 687T128 751T166 775Q175 775 189 765T216 739T234 706L41 565Z" />
<glyph unicode="&#xb5;" horiz-adv-x="611" d="M188 -200Q142 -200 120 -167T91 -66T84 103L163 64Q163 26 166 -9T179 -72T206 -117T250 -139Q252 -142 255 -153T260 -176Q243 -189 224 -194T188 -200ZM244 -4Q219 -4 191 7T139 35T100 67T84 92V388Q84 398 80
405T67 415L13 435Q15 448 18 457T26 472Q43 480 78 490T143 500Q178 500 199 478T221 421V123Q229 117 240 108T265 91T286 84Q295 84 313 89T351 102T386 119V388Q386 397 382 404T368 415L305 435Q307 449 311 459T319 472Q330 477 351 483T398 495T444 500Q479
500 500 478T522 421V79L584 73Q586 68 589 59T593 37Q587 28 571 20T533 6T495 0Q460 0 436 17T401 58Q382 46 353 32T293 7T244 -4Z" />
<glyph unicode="&#xb6;" horiz-adv-x="734" d="M249 -200Q234 -200 213 -195T172 -180T138 -161Q138 -149 141 -140T146 -126Q201 -110 249 -89T331 -43V249Q308 248 287 248T251 247Q224 247 195 257T141 282T98 311T75 331Q64 347 56 385T47 468Q47 509 53 547T71
613Q83 624 107 639T163 669T231 694T301 704H688Q693 699 697 688T701 662L656 649Q638 643 627 635T610 611T605 563V-180Q598 -189 572 -194T515 -200V564Q515 599 521 618T534 644H421V-71Q409 -92 387 -114T340 -156T291 -188T249 -200Z" />
<glyph unicode="&#xb7;" horiz-adv-x="251" d="M117 190Q109 190 97 200T72 225T51 255T42 280Q42 289 53 300T80 323T113 342T138 349Q148 349 160 339T183 313T202 283T209 258Q209 246 192 231T153 203T117 190Z" />
<glyph unicode="&#xb8;" horiz-adv-x="201" d="M70 -200Q61 -200 46 -196T17 -187T0 -176Q0 -165 2 -158T5 -149Q39 -149 63 -149T109 -143Q113 -136 115 -124T117 -103Q109 -98 93 -93T59 -82T28 -75Q23 -69 18 -58T12 -36Q22 -18 32 0T55 37H109L88 -37Q116
-41 142 -51T184 -72T201 -91Q201 -107 195 -130T178 -166Q162 -176 141 -183T100 -195T70 -200Z" />
<glyph unicode="&#xb9;" horiz-adv-x="326" d="M220 347Q215 347 191 349T135 355T77 363T40 371Q40 379 42 388T47 401L87 408Q102 411 108 418T114 444V611Q114 629 116 647T122 678H37Q37 691 38 704T44 726Q85 730 120 738T183 764Q196 764 209 760T230 749Q226
731 223 703T219 644V445Q219 430 217 422T213 409L281 402Q283 398 284 391T286 376Q277 368 256 358T220 347Z" />
<glyph unicode="&#xba;" horiz-adv-x="422" d="M201 346Q179 346 155 355T108 376T70 400T50 417Q44 425 39 446T30 493T27 542Q27 590 30 626T40 688Q57 699 89 717T161 749T234 764Q251 764 273 757T316 740T355 719T378 700Q383 694 386 678T391 640T394 597T395
562Q395 519 391 485T381 425Q368 412 340 394T275 361T201 346ZM219 421Q231 421 244 425T270 435T288 444Q292 454 293 470T296 503T297 534Q297 562 296 585T292 625T285 646Q283 651 269 660T237 678T206 687Q199 687 185 684T157 676T136 668Q134 659 132
642T128 607T126 572Q126 533 131 501T140 463Q143 459 158 449T190 430T219 421Z" />
<glyph unicode="&#xbb;" horiz-adv-x="582" d="M95 29Q88 31 76 41T55 73L233 295L232 224L55 447Q66 465 77 476T95 490Q134 460 176 425T255 357T314 298T337 260Q337 249 315 223T256 164T177 95T95 29ZM304 29Q297 31 285 41T264 73L442 295L441 224L264 447Q275
465 286 476T304 490Q343 460 385 425T464 357T523 298T546 260Q546 249 524 223T465 164T386 95T304 29Z" />
<glyph unicode="&#xbc;" horiz-adv-x="871" d="M220 287Q215 287 191 289T135 295T77 303T40 311Q40 319 42 328T47 341L87 348Q102 351 108 358T114 384V551Q114 569 116 587T122 618H37Q37 631 38 644T44 666Q85 670 120 678T183 704Q196 704 209 700T230 689Q226
671 223 643T219 584V385Q219 370 217 362T213 349L281 342Q283 338 284 331T286 316Q277 308 256 298T220 287ZM302 -101Q276 -101 260 -95T231 -76L458 514Q484 579 501 627T530 708T545 761Q572 757 592 746T620 723L302 -101ZM709 -3Q708 -3 701 0T690 6Q694
14 698 33T703 72V104H537Q529 109 519 121T505 153L692 406Q707 412 732 416T779 420L803 409Q802 402 801 382T798 337T797 291V165L852 168L859 159Q858 146 855 130T847 105H797V11Q791 9 776 6T742 0T709 -3ZM585 165H700V240Q700 255 702 274T706 309T711
329L707 332L585 165Z" />
<glyph unicode="&#xbd;" horiz-adv-x="947" d="M220 287Q215 287 191 289T135 295T77 303T40 311Q40 319 42 328T47 341L87 348Q102 351 108 358T114 384V551Q114 569 116 587T122 618H37Q37 631 38 644T44 666Q85 670 120 678T183 704Q196 704 209 700T230 689Q226
671 223 643T219 584V385Q219 370 217 362T213 349L281 342Q283 338 284 331T286 316Q277 308 256 298T220 287ZM302 -101Q276 -101 260 -95T231 -76L458 514Q484 579 501 627T530 708T545 761Q572 757 592 746T620 723L302 -101ZM617 -10Q598 -5 580 9T556 44Q597
75 635 117T703 202T752 279T773 329Q755 335 723 339T663 343L646 247Q636 245 623 244T601 243Q592 258 582 290T567 354Q580 369 603 381T654 402T707 415T750 420Q767 420 789 412T833 391T869 366T883 345Q883 324 861 282T800 188T707 88L824 69L858 167Q870
167 886 164T909 156Q909 138 908 114T905 67T901 27Q893 21 876 12T841 -3T812 -10L661 31L617 -10Z" />
<glyph unicode="&#xbe;" horiz-adv-x="895" d="M114 286Q104 286 87 292T53 307T31 321Q32 336 35 346T42 360Q56 358 72 357T104 356Q131 356 160 358T208 365Q212 368 215 379T221 404T224 431Q225 441 219 446T189 457T118 477Q118 489 120 502T129 523L191
520Q197 533 203 553T214 593T219 622Q202 627 171 631T109 635L91 543Q82 541 69 540T47 539Q40 552 30 581T15 644Q34 664 67 678T135 701T195 710Q211 710 232 703T275 684T309 660T323 640Q323 623 316 603T298 564T277 530T258 506V504Q284 498 298 488T319
464T325 437Q325 413 317 388T300 345T285 321Q274 313 245 305T180 292T114 286ZM326 -101Q300 -101 284 -95T255 -76L482 514Q508 579 525 627T554 708T569 761Q596 757 616 746T644 723L326 -101ZM733 -3Q732 -3 725 0T714 6Q718 14 722 33T727 72V104H561Q553
109 543 121T529 153L716 406Q731 412 756 416T803 420L827 409Q826 402 825 382T822 337T821 291V165L876 168L883 159Q882 146 879 130T871 105H821V11Q815 9 800 6T766 0T733 -3ZM609 165H724V240Q724 255 726 274T730 309T735 329L731 332L609 165Z" />
<glyph unicode="&#xbf;" horiz-adv-x="519" d="M254 -287Q227 -287 189 -276T115 -248T53 -214Q48 -195 45 -168T42 -112Q42 -72 46 -35T59 26Q71 44 100 62T162 96T221 124T253 141Q255 150 256 164T257 192Q257 208 256 226T253 261Q261 266 279 272T320 279Q334
258 344 225T359 156T365 89Q349 71 323 56T268 27T215 4T179 -11Q173 -30 170 -56T167 -111Q167 -131 169 -149T176 -182Q187 -185 199 -187T226 -191T255 -193Q272 -193 288 -191T321 -186T352 -178L371 -63Q382 -58 404 -53T447 -47Q454 -62 461 -93T473 -160T478
-224Q456 -238 419 -252T338 -277T254 -287ZM260 333Q250 333 237 344T212 372T191 405T183 433Q183 442 194 454T221 479T255 498T283 506Q293 506 306 495T333 468T356 435T366 408Q366 398 354 386T323 361T288 341T260 333Z" />
<glyph unicode="&#xc0;" horiz-adv-x="814" d="M256 0Q251 0 231 2T182 9T123 17T66 27T24 36Q24 47 27 56T35 69L49 72Q60 74 72 79T99 101T128 154T163 255L272 641Q280 650 300 663T344 689T391 711T425 720Q440 720 466 712T519 690T564 661L693 98Q696 87
702 82T722 74L785 67Q789 61 791 58T795 36Q787 28 772 20T739 6T709 0Q702 0 677 3T619 11T552 21T492 31T455 40Q455 53 460 61T466 71L499 73Q512 73 523 77T541 95T539 140L506 284H266L227 147Q222 129 213 114T195 89T176 77L332 65Q333 62 337 54T341 35Q334
27 318 19T285 5T256 0ZM283 350Q336 352 377 353T446 357T488 362L436 599Q416 612 397 620T357 632L283 350ZM474 769L270 913Q276 930 289 946T317 973T342 984Q354 984 381 961T444 897T518 798Q513 791 500 782T474 769Z" />
<glyph unicode="&#xc1;" horiz-adv-x="814" d="M256 0Q251 0 231 2T182 9T123 17T66 27T24 36Q24 47 27 56T35 69L49 72Q60 74 72 79T99 101T128 154T163 255L272 641Q280 650 300 663T344 689T391 711T425 720Q440 720 466 712T519 690T564 661L693 98Q696 87
702 82T722 74L785 67Q789 61 791 58T795 36Q787 28 772 20T739 6T709 0Q702 0 677 3T619 11T552 21T492 31T455 40Q455 53 460 61T466 71L499 73Q512 73 523 77T541 95T539 140L506 284H266L227 147Q222 129 213 114T195 89T176 77L332 65Q333 62 337 54T341 35Q334
27 318 19T285 5T256 0ZM283 350Q336 352 377 353T446 357T488 362L436 599Q416 612 397 620T357 632L283 350ZM342 769Q328 773 316 782T298 798Q336 853 371 895T434 960T474 984Q483 984 498 974T526 947T546 913L342 769Z" />
<glyph unicode="&#xc2;" horiz-adv-x="814" d="M256 0Q251 0 231 2T182 9T123 17T66 27T24 36Q24 47 27 56T35 69L49 72Q60 74 72 79T99 101T128 154T163 255L272 641Q280 650 300 663T344 689T391 711T425 720Q440 720 466 712T519 690T564 661L693 98Q696 87
702 82T722 74L785 67Q789 61 791 58T795 36Q787 28 772 20T739 6T709 0Q702 0 677 3T619 11T552 21T492 31T455 40Q455 53 460 61T466 71L499 73Q512 73 523 77T541 95T539 140L506 284H266L227 147Q222 129 213 114T195 89T176 77L332 65Q333 62 337 54T341 35Q334
27 318 19T285 5T256 0ZM283 350Q336 352 377 353T446 357T488 362L436 599Q416 612 397 620T357 632L283 350ZM276 768Q264 771 255 780T242 798Q281 850 313 892T369 959T409 984Q425 984 449 959T505 892T575 798Q571 792 562 782T540 768L407 873L276 768Z"
/>
<glyph unicode="&#xc3;" horiz-adv-x="814" d="M256 0Q251 0 231 2T182 9T123 17T66 27T24 36Q24 47 27 56T35 69L49 72Q60 74 72 79T99 101T128 154T163 255L272 641Q280 650 300 663T344 689T391 711T425 720Q440 720 466 712T519 690T564 661L693 98Q696 87
702 82T722 74L785 67Q789 61 791 58T795 36Q787 28 772 20T739 6T709 0Q702 0 677 3T619 11T552 21T492 31T455 40Q455 53 460 61T466 71L499 73Q512 73 523 77T541 95T539 140L506 284H266L227 147Q222 129 213 114T195 89T176 77L332 65Q333 62 337 54T341 35Q334
27 318 19T285 5T256 0ZM283 350Q336 352 377 353T446 357T488 362L436 599Q416 612 397 620T357 632L283 350ZM506 775Q491 775 457 783T383 804T309 829L237 783Q231 785 223 792T210 809Q224 831 243 855T283 897T317 914Q332 914 366 906T441 886T515 863L577
921Q585 918 592 914T607 902Q595 875 577 846T539 796T506 775Z" />
<glyph unicode="&#xc4;" horiz-adv-x="814" d="M256 0Q251 0 231 2T182 9T123 17T66 27T24 36Q24 47 27 56T35 69L49 72Q60 74 72 79T99 101T128 154T163 255L272 641Q280 650 300 663T344 689T391 711T425 720Q440 720 466 712T519 690T564 661L693 98Q696 87
702 82T722 74L785 67Q789 61 791 58T795 36Q787 28 772 20T739 6T709 0Q702 0 677 3T619 11T552 21T492 31T455 40Q455 53 460 61T466 71L499 73Q512 73 523 77T541 95T539 140L506 284H266L227 147Q222 129 213 114T195 89T176 77L332 65Q333 62 337 54T341 35Q334
27 318 19T285 5T256 0ZM283 350Q336 352 377 353T446 357T488 362L436 599Q416 612 397 620T357 632L283 350ZM515 773Q507 773 495 782T471 806T450 835T442 860Q442 868 453 879T480 901T512 919T538 926Q546 926 558 916T581 891T599 862T607 837Q607 830 597
819T571 798T541 780T515 773ZM285 773Q277 773 265 782T240 807T220 836T211 860Q211 868 222 879T250 901T282 919T307 926Q316 926 327 916T350 892T369 863T376 837Q376 830 366 819T342 798T312 780T285 773Z" />
<glyph unicode="&#xc5;" horiz-adv-x="814" d="M256 0Q251 0 231 2T182 9T123 17T66 27T24 36Q24 47 27 56T35 69L49 72Q60 74 72 79T99 101T128 154T163 255L272 641Q280 650 300 663T344 689T391 711T425 720Q440 720 466 712T519 690T564 661L693 98Q696 87
702 82T722 74L785 67Q789 61 791 58T795 36Q787 28 772 20T739 6T709 0Q702 0 677 3T619 11T552 21T492 31T455 40Q455 53 460 61T466 71L499 73Q512 73 523 77T541 95T539 140L506 284H266L227 147Q222 129 213 114T195 89T176 77L332 65Q333 62 337 54T341 35Q334
27 318 19T285 5T256 0ZM283 350Q336 352 377 353T446 357T488 362L436 599Q416 612 397 620T357 632L283 350ZM409 766Q362 766 332 793T301 863Q301 906 331 934T409 962Q456 962 486 934T517 863Q517 821 487 794T409 766ZM409 823Q430 823 441 833T453 863Q453
883 442 893T409 904Q389 904 377 894T365 863Q365 844 377 834T409 823Z" />
<glyph unicode="&#xc6;" horiz-adv-x="1031" d="M218 0Q210 0 186 3T131 12T71 22T24 33Q24 44 27 53T33 67L56 69Q67 70 77 74T99 92T124 138T153 224L275 646Q282 653 296 663T327 682T361 698T388 705L861 704Q884 696 909 681T947 648Q943 585 934 536T916
463Q895 463 875 467T843 475L816 621Q808 624 790 628T748 635T695 640T639 642Q601 642 585 637T569 615T576 567L620 383Q677 390 721 395T795 405T840 412L852 397Q852 375 849 354T842 324L638 310L672 172Q681 135 682 113T672 77H857L917 255Q942 255 962
250T993 238Q993 205 992 169T989 100T984 44Q978 37 963 27T933 8T909 0Q888 0 851 1T768 6T674 12T584 19T511 27T469 33Q469 44 472 53T478 66L495 68Q514 70 524 76T537 97T534 137L497 300L254 283L215 138Q210 122 203 108T188 84T175 72L298 63Q301 59 304
51T308 33Q300 25 283 18T247 5T218 0ZM270 348Q300 351 327 353T379 357T429 362T480 368L420 627Q400 628 380 625T341 616L270 348Z" />
<glyph unicode="&#xc7;" horiz-adv-x="688" d="M365 0Q325 0 284 13T206 46T144 82T109 110Q88 139 76 197T63 324Q63 382 69 438T85 540T104 606Q129 628 168 648T253 684T340 710T413 720Q451 720 493 711T572 685T633 650Q633 590 624 540T608 462Q575 463
555 466T524 474L495 608Q483 615 464 621T426 630T394 634Q374 634 346 630T291 620T247 607Q238 584 231 544T219 458T215 373Q215 331 219 288T230 209T246 151Q252 145 269 135T310 115T356 99T398 92Q408 92 426 94T461 100T486 108L549 267Q574 267 596 261T630
249Q630 221 627 189T621 126T615 75Q598 61 561 44T474 13T365 0ZM370 -200Q361 -200 346 -196T317 -187T300 -176Q300 -165 302 -158T305 -149Q339 -149 363 -149T409 -143Q413 -136 415 -124T417 -103Q409 -98 393 -93T359 -82T328 -75Q323 -69 318 -58T312
-36Q322 -18 332 0T355 37H409L388 -37Q416 -41 442 -51T484 -72T501 -91Q501 -107 495 -130T478 -166Q462 -176 441 -183T400 -195T370 -200Z" />
<glyph unicode="&#xc8;" horiz-adv-x="702" d="M556 0Q536 0 497 1T407 5T304 11T201 17T111 25T49 33Q49 43 52 52T58 66L87 70Q104 72 114 82T129 112T134 168V565Q134 595 137 611T146 634T151 642H60Q56 646 53 654T48 673Q54 680 66 687T91 699T110 704H555Q578
696 601 681T639 648Q635 584 625 536T608 463Q587 463 567 467T535 475L508 621Q496 626 472 629T414 636T337 639Q312 639 299 629T282 602T277 565V394Q320 396 354 397T419 401T481 407L494 392Q492 369 489 353T482 327H277V142Q277 119 272 102T260 77H501L570
255Q594 255 616 249T646 238Q646 204 644 168T637 99T629 44Q623 36 608 26T579 8T556 0ZM433 769L229 913Q235 930 248 946T276 973T301 984Q313 984 340 961T403 897T477 798Q472 791 459 782T433 769Z" />
<glyph unicode="&#xc9;" horiz-adv-x="702" d="M556 0Q536 0 497 1T407 5T304 11T201 17T111 25T49 33Q49 43 52 52T58 66L87 70Q104 72 114 82T129 112T134 168V565Q134 595 137 611T146 634T151 642H60Q56 646 53 654T48 673Q54 680 66 687T91 699T110 704H555Q578
696 601 681T639 648Q635 584 625 536T608 463Q587 463 567 467T535 475L508 621Q496 626 472 629T414 636T337 639Q312 639 299 629T282 602T277 565V394Q320 396 354 397T419 401T481 407L494 392Q492 369 489 353T482 327H277V142Q277 119 272 102T260 77H501L570
255Q594 255 616 249T646 238Q646 204 644 168T637 99T629 44Q623 36 608 26T579 8T556 0ZM301 769Q287 773 275 782T257 798Q295 853 330 895T393 960T433 984Q442 984 457 974T485 947T505 913L301 769Z" />
<glyph unicode="&#xca;" horiz-adv-x="702" d="M556 0Q536 0 497 1T407 5T304 11T201 17T111 25T49 33Q49 43 52 52T58 66L87 70Q104 72 114 82T129 112T134 168V565Q134 595 137 611T146 634T151 642H60Q56 646 53 654T48 673Q54 680 66 687T91 699T110 704H555Q578
696 601 681T639 648Q635 584 625 536T608 463Q587 463 567 467T535 475L508 621Q496 626 472 629T414 636T337 639Q312 639 299 629T282 602T277 565V394Q320 396 354 397T419 401T481 407L494 392Q492 369 489 353T482 327H277V142Q277 119 272 102T260 77H501L570
255Q594 255 616 249T646 238Q646 204 644 168T637 99T629 44Q623 36 608 26T579 8T556 0ZM235 768Q223 771 214 780T201 798Q240 850 272 892T328 959T368 984Q384 984 408 959T464 892T534 798Q530 792 521 782T499 768L366 873L235 768Z" />
<glyph unicode="&#xcb;" horiz-adv-x="702" d="M556 0Q536 0 497 1T407 5T304 11T201 17T111 25T49 33Q49 43 52 52T58 66L87 70Q104 72 114 82T129 112T134 168V565Q134 595 137 611T146 634T151 642H60Q56 646 53 654T48 673Q54 680 66 687T91 699T110 704H555Q578
696 601 681T639 648Q635 584 625 536T608 463Q587 463 567 467T535 475L508 621Q496 626 472 629T414 636T337 639Q312 639 299 629T282 602T277 565V394Q320 396 354 397T419 401T481 407L494 392Q492 369 489 353T482 327H277V142Q277 119 272 102T260 77H501L570
255Q594 255 616 249T646 238Q646 204 644 168T637 99T629 44Q623 36 608 26T579 8T556 0ZM474 773Q466 773 454 782T430 806T409 835T401 860Q401 868 412 879T439 901T471 919T497 926Q505 926 517 916T540 891T558 862T566 837Q566 830 556 819T530 798T500
780T474 773ZM244 773Q236 773 224 782T199 807T179 836T170 860Q170 868 181 879T209 901T241 919T266 926Q275 926 286 916T309 892T328 863T335 837Q335 830 325 819T301 798T271 780T244 773Z" />
<glyph unicode="&#xcc;" horiz-adv-x="416" d="M283 0Q276 0 253 2T199 9T137 17T82 26T49 33Q49 42 51 51T58 66L87 70Q104 72 114 82T129 112T134 168V565Q134 609 142 624T152 642H60Q57 646 53 654T48 673Q54 680 66 687T91 699T110 704H355Q359 699 363 688T368
659L325 646Q309 642 299 634T283 609T277 560V143Q277 119 272 102T260 77L355 64Q357 61 359 52T362 33Q347 20 325 10T283 0ZM274 769L70 913Q76 930 89 946T117 973T142 984Q154 984 181 961T244 897T318 798Q313 791 300 782T274 769Z" />
<glyph unicode="&#xcd;" horiz-adv-x="416" d="M283 0Q276 0 253 2T199 9T137 17T82 26T49 33Q49 42 51 51T58 66L87 70Q104 72 114 82T129 112T134 168V565Q134 609 142 624T152 642H60Q57 646 53 654T48 673Q54 680 66 687T91 699T110 704H355Q359 699 363 688T368
659L325 646Q309 642 299 634T283 609T277 560V143Q277 119 272 102T260 77L355 64Q357 61 359 52T362 33Q347 20 325 10T283 0ZM141 769Q127 773 115 782T97 798Q135 853 170 895T233 960T273 984Q282 984 297 974T325 947T345 913L141 769Z" />
<glyph unicode="&#xce;" horiz-adv-x="416" d="M283 0Q276 0 253 2T199 9T137 17T82 26T49 33Q49 42 51 51T58 66L87 70Q104 72 114 82T129 112T134 168V565Q134 609 142 624T152 642H60Q57 646 53 654T48 673Q54 680 66 687T91 699T110 704H355Q359 699 363 688T368
659L325 646Q309 642 299 634T283 609T277 560V143Q277 119 272 102T260 77L355 64Q357 61 359 52T362 33Q347 20 325 10T283 0ZM76 768Q64 771 55 780T42 798Q81 850 113 892T169 959T209 984Q225 984 249 959T305 892T375 798Q371 792 362 782T340 768L207 873L76
768Z" />
<glyph unicode="&#xcf;" horiz-adv-x="416" d="M283 0Q276 0 253 2T199 9T137 17T82 26T49 33Q49 42 51 51T58 66L87 70Q104 72 114 82T129 112T134 168V565Q134 609 142 624T152 642H60Q57 646 53 654T48 673Q54 680 66 687T91 699T110 704H355Q359 699 363 688T368
659L325 646Q309 642 299 634T283 609T277 560V143Q277 119 272 102T260 77L355 64Q357 61 359 52T362 33Q347 20 325 10T283 0ZM315 773Q307 773 295 782T271 806T250 835T242 860Q242 868 253 879T280 901T312 919T338 926Q346 926 358 916T381 891T399 862T407
837Q407 830 397 819T371 798T341 780T315 773ZM85 773Q77 773 65 782T40 807T20 836T11 860Q11 868 22 879T50 901T82 919T107 926Q116 926 127 916T150 892T169 863T176 837Q176 830 166 819T142 798T112 780T85 773Z" />
<glyph unicode="&#xd0;" horiz-adv-x="782" d="M260 322L136 320H48Q48 342 51 357T59 378L136 379L260 385Q314 385 362 389T451 398L463 386Q462 364 459 347T452 322H260ZM475 -1Q448 0 403 3T304 11T201 19T112 27T57 33Q57 43 60 52T66 66L95 70Q112 72 122
82T137 112T142 168V565Q142 595 145 611T154 634T159 642H68Q64 646 61 655T56 673Q62 680 74 687T99 699T118 706H512Q523 704 543 696T588 677T633 654T661 634Q694 578 706 513T719 381Q719 319 711 263T691 161T664 90Q647 73 621 58T568 29T516 8T475 -1ZM268
77H508Q524 95 536 126T556 195T568 275T572 359Q572 400 568 440T556 517T535 581T503 624Q484 629 459 632T406 637T348 639Q310 639 298 621T285 563V142Q285 119 280 102T268 77Z" />
<glyph unicode="&#xd1;" horiz-adv-x="829" d="M242 0Q233 0 209 3T153 12T94 22T49 33Q49 42 51 51T58 66L85 70Q102 72 111 84T125 121T130 182V567Q130 601 136 619T147 642H60Q56 646 53 654T48 673Q54 680 66 687T91 699T110 704H301L631 171Q627 192 625
220T623 302V564Q623 598 628 618T640 642H540Q538 646 534 654T529 673Q534 680 546 687T572 699T590 704H775Q780 698 784 686T788 659L751 648Q732 642 722 634T707 608T702 555V181Q702 125 705 86T713 34Q698 22 672 15T617 4T569 0L267 489Q243 529 232 556T219
595H213Q212 589 211 573T209 525V146Q209 125 204 106T193 79L324 64Q326 62 329 53T332 33Q321 24 305 17T271 5T242 0ZM520 775Q505 775 471 783T397 804T323 829L251 783Q245 785 237 792T224 809Q238 831 257 855T297 897T331 914Q346 914 380 906T455 886T529
863L591 921Q599 918 606 914T621 902Q609 875 591 846T553 796T520 775Z" />
<glyph unicode="&#xd2;" horiz-adv-x="763" d="M363 0Q326 0 286 13T210 44T147 80T110 111Q87 145 75 204T63 328Q63 382 69 434T84 532T105 606Q133 627 171 647T254 684T343 710T425 720Q452 720 485 712T552 691T610 663T649 633Q665 605 676 563T694 474T700
381Q700 329 694 278T678 182T653 98Q626 76 579 53T475 15T363 0ZM387 84Q404 84 429 89T478 101T515 116Q526 144 533 182T544 266T547 358Q547 423 542 480T527 574Q521 582 504 592T467 610T426 624T392 630Q375 630 347 627T292 618T245 606Q234 580 227 544T215
465T211 375Q211 311 219 248T245 144Q252 135 271 125T312 105T356 90T387 84ZM448 769L244 913Q250 930 263 946T291 973T316 984Q328 984 355 961T418 897T492 798Q487 791 474 782T448 769Z" />
<glyph unicode="&#xd3;" horiz-adv-x="763" d="M363 0Q326 0 286 13T210 44T147 80T110 111Q87 145 75 204T63 328Q63 382 69 434T84 532T105 606Q133 627 171 647T254 684T343 710T425 720Q452 720 485 712T552 691T610 663T649 633Q665 605 676 563T694 474T700
381Q700 329 694 278T678 182T653 98Q626 76 579 53T475 15T363 0ZM387 84Q404 84 429 89T478 101T515 116Q526 144 533 182T544 266T547 358Q547 423 542 480T527 574Q521 582 504 592T467 610T426 624T392 630Q375 630 347 627T292 618T245 606Q234 580 227 544T215
465T211 375Q211 311 219 248T245 144Q252 135 271 125T312 105T356 90T387 84ZM315 769Q301 773 289 782T271 798Q309 853 344 895T407 960T447 984Q456 984 471 974T499 947T519 913L315 769Z" />
<glyph unicode="&#xd4;" horiz-adv-x="763" d="M363 0Q326 0 286 13T210 44T147 80T110 111Q87 145 75 204T63 328Q63 382 69 434T84 532T105 606Q133 627 171 647T254 684T343 710T425 720Q452 720 485 712T552 691T610 663T649 633Q665 605 676 563T694 474T700
381Q700 329 694 278T678 182T653 98Q626 76 579 53T475 15T363 0ZM387 84Q404 84 429 89T478 101T515 116Q526 144 533 182T544 266T547 358Q547 423 542 480T527 574Q521 582 504 592T467 610T426 624T392 630Q375 630 347 627T292 618T245 606Q234 580 227 544T215
465T211 375Q211 311 219 248T245 144Q252 135 271 125T312 105T356 90T387 84ZM250 768Q238 771 229 780T216 798Q255 850 287 892T343 959T383 984Q399 984 423 959T479 892T549 798Q545 792 536 782T514 768L381 873L250 768Z" />
<glyph unicode="&#xd5;" horiz-adv-x="763" d="M363 0Q326 0 286 13T210 44T147 80T110 111Q87 145 75 204T63 328Q63 382 69 434T84 532T105 606Q133 627 171 647T254 684T343 710T425 720Q452 720 485 712T552 691T610 663T649 633Q665 605 676 563T694 474T700
381Q700 329 694 278T678 182T653 98Q626 76 579 53T475 15T363 0ZM387 84Q404 84 429 89T478 101T515 116Q526 144 533 182T544 266T547 358Q547 423 542 480T527 574Q521 582 504 592T467 610T426 624T392 630Q375 630 347 627T292 618T245 606Q234 580 227 544T215
465T211 375Q211 311 219 248T245 144Q252 135 271 125T312 105T356 90T387 84ZM480 775Q465 775 431 783T357 804T283 829L211 783Q205 785 197 792T184 809Q198 831 217 855T257 897T291 914Q306 914 340 906T415 886T489 863L551 921Q559 918 566 914T581 902Q569
875 551 846T513 796T480 775Z" />
<glyph unicode="&#xd6;" horiz-adv-x="763" d="M363 0Q326 0 286 13T210 44T147 80T110 111Q87 145 75 204T63 328Q63 382 69 434T84 532T105 606Q133 627 171 647T254 684T343 710T425 720Q452 720 485 712T552 691T610 663T649 633Q665 605 676 563T694 474T700
381Q700 329 694 278T678 182T653 98Q626 76 579 53T475 15T363 0ZM387 84Q404 84 429 89T478 101T515 116Q526 144 533 182T544 266T547 358Q547 423 542 480T527 574Q521 582 504 592T467 610T426 624T392 630Q375 630 347 627T292 618T245 606Q234 580 227 544T215
465T211 375Q211 311 219 248T245 144Q252 135 271 125T312 105T356 90T387 84ZM489 773Q481 773 469 782T445 806T424 835T416 860Q416 868 427 879T454 901T486 919T512 926Q520 926 532 916T555 891T573 862T581 837Q581 830 571 819T545 798T515 780T489 773ZM259
773Q251 773 239 782T214 807T194 836T185 860Q185 868 196 879T224 901T256 919T281 926Q290 926 301 916T324 892T343 863T350 837Q350 830 340 819T316 798T286 780T259 773Z" />
<glyph unicode="&#xd7;" horiz-adv-x="516" d="M111 104Q94 112 82 124T65 150L211 294L65 436Q74 450 91 464T124 487L261 344Q290 373 314 398T358 446T393 486Q414 476 431 461T454 426L307 294L442 150Q439 140 427 127T398 104L258 246L111 104Z" />
<glyph unicode="&#xd8;" horiz-adv-x="763" d="M237 -99Q217 -99 200 -91T174 -76L392 513Q413 569 433 626T471 732T499 812Q527 809 544 800T568 781L237 -99ZM363 0Q326 0 286 13T210 44T147 80T110 111Q87 145 75 204T63 328Q63 382 69 434T84 532T105 606Q133
627 171 647T254 684T343 710T425 720Q452 720 485 712T552 691T610 663T649 633Q665 605 676 563T694 474T700 381Q700 329 694 278T678 182T653 98Q626 76 579 53T475 15T363 0ZM387 84Q404 84 429 89T478 101T515 116Q526 144 533 182T544 266T547 358Q547 423
542 480T527 574Q521 582 504 592T467 610T426 624T392 630Q375 630 347 627T292 618T245 606Q234 580 227 544T215 465T211 375Q211 311 219 248T245 144Q252 135 271 125T312 105T356 90T387 84Z" />
<glyph unicode="&#xd9;" horiz-adv-x="785" d="M398 0Q358 0 313 14T226 48T158 91T128 130V565Q128 596 133 616T145 642H54Q51 647 47 654T42 673Q48 680 60 687T85 699T104 704H349Q353 699 357 687T362 659L319 646Q301 641 291 632T276 607T272 560V143Q283
132 302 121T344 102T387 88T422 82Q456 82 488 90T547 111T588 140V564Q588 596 594 616T605 642H516Q512 646 509 654T505 673Q511 680 523 687T547 699T566 704H742Q747 698 751 687T756 659L717 648Q698 643 688 634T673 607T668 555V108Q655 91 627 72T562
37T482 11T398 0ZM494 769L290 913Q296 930 309 946T337 973T362 984Q374 984 401 961T464 897T538 798Q533 791 520 782T494 769Z" />
<glyph unicode="&#xda;" horiz-adv-x="785" d="M398 0Q358 0 313 14T226 48T158 91T128 130V565Q128 596 133 616T145 642H54Q51 647 47 654T42 673Q48 680 60 687T85 699T104 704H349Q353 699 357 687T362 659L319 646Q301 641 291 632T276 607T272 560V143Q283
132 302 121T344 102T387 88T422 82Q456 82 488 90T547 111T588 140V564Q588 596 594 616T605 642H516Q512 646 509 654T505 673Q511 680 523 687T547 699T566 704H742Q747 698 751 687T756 659L717 648Q698 643 688 634T673 607T668 555V108Q655 91 627 72T562
37T482 11T398 0ZM361 769Q347 773 335 782T317 798Q355 853 390 895T453 960T493 984Q502 984 517 974T545 947T565 913L361 769Z" />
<glyph unicode="&#xdb;" horiz-adv-x="785" d="M398 0Q358 0 313 14T226 48T158 91T128 130V565Q128 596 133 616T145 642H54Q51 647 47 654T42 673Q48 680 60 687T85 699T104 704H349Q353 699 357 687T362 659L319 646Q301 641 291 632T276 607T272 560V143Q283
132 302 121T344 102T387 88T422 82Q456 82 488 90T547 111T588 140V564Q588 596 594 616T605 642H516Q512 646 509 654T505 673Q511 680 523 687T547 699T566 704H742Q747 698 751 687T756 659L717 648Q698 643 688 634T673 607T668 555V108Q655 91 627 72T562
37T482 11T398 0ZM296 768Q284 771 275 780T262 798Q301 850 333 892T389 959T429 984Q445 984 469 959T525 892T595 798Q591 792 582 782T560 768L427 873L296 768Z" />
<glyph unicode="&#xdc;" horiz-adv-x="785" d="M398 0Q358 0 313 14T226 48T158 91T128 130V565Q128 596 133 616T145 642H54Q51 647 47 654T42 673Q48 680 60 687T85 699T104 704H349Q353 699 357 687T362 659L319 646Q301 641 291 632T276 607T272 560V143Q283
132 302 121T344 102T387 88T422 82Q456 82 488 90T547 111T588 140V564Q588 596 594 616T605 642H516Q512 646 509 654T505 673Q511 680 523 687T547 699T566 704H742Q747 698 751 687T756 659L717 648Q698 643 688 634T673 607T668 555V108Q655 91 627 72T562
37T482 11T398 0ZM535 773Q527 773 515 782T491 806T470 835T462 860Q462 868 473 879T500 901T532 919T558 926Q566 926 578 916T601 891T619 862T627 837Q627 830 617 819T591 798T561 780T535 773ZM305 773Q297 773 285 782T260 807T240 836T231 860Q231 868
242 879T270 901T302 919T327 926Q336 926 347 916T370 892T389 863T396 837Q396 830 386 819T362 798T332 780T305 773Z" />
<glyph unicode="&#xdd;" horiz-adv-x="698" d="M434 0Q426 0 403 2T348 9T286 17T231 26T197 33Q197 43 199 52T205 66L235 70Q251 72 261 81T276 111T281 168V297L106 615Q98 630 88 636T54 642H20Q17 646 13 654T8 673Q13 680 26 687T54 699T76 704H332Q336
698 340 686T345 659L297 647Q281 643 271 635T261 610Q261 604 264 592T274 565L371 374H377Q410 454 434 509T476 602T511 663T545 704H707Q712 697 715 686T719 664L678 651Q657 644 639 635T600 606T556 552T501 461T428 318V143Q428 121 423 103T411 77L505
64Q507 61 510 53T513 33Q497 20 475 10T434 0ZM315 769Q301 773 289 782T271 798Q309 853 344 895T407 960T447 984Q456 984 471 974T499 947T519 913L315 769Z" />
<glyph unicode="&#xde;" horiz-adv-x="637" d="M283 0Q276 0 253 2T199 9T137 17T82 26T49 33Q49 42 51 51T58 66L87 70Q102 72 112 80T128 108T134 168V565Q134 595 137 611T146 634T151 642H60Q56 646 53 655T48 673Q54 680 66 687T91 699T110 704H354Q359 698
363 686T368 659L324 646Q298 637 288 619T277 552V544H455Q478 539 505 527T556 501T592 474Q603 456 608 433T613 387Q613 356 604 325T579 275Q562 259 536 241T481 208T426 191H277V143Q277 119 272 102T260 77L355 64Q357 61 359 52T362 33Q347 20 324 10T283
0ZM277 255Q328 255 372 257T450 266Q462 288 470 316T478 374Q478 400 471 423T449 463Q433 468 411 471T369 477T338 479Q302 479 290 460T277 406V255Z" />
<glyph unicode="&#xdf;" horiz-adv-x="638" d="M213 0Q204 0 179 3T122 12T63 24T21 34Q21 42 24 50T31 63L58 68Q74 71 83 85T93 148V437L25 445Q25 462 29 474T37 492L94 500L86 711Q90 719 108 730T151 754T203 776T256 793T298 800Q318 800 348 787T412 752T474
708T522 664T541 633Q541 604 525 577T479 521T406 460Q405 450 404 439T403 416Q403 403 404 391T407 365Q411 362 429 352T474 327T528 296T578 263T609 234Q612 222 614 207T616 176Q616 144 610 112T599 68Q588 55 564 39T511 12T454 0Q428 0 400 8T348 28T306
51T284 66Q284 92 292 121T309 169Q322 169 336 167T360 161Q366 142 374 121T392 81Q399 80 407 79T425 78Q444 78 464 81T498 93Q500 100 501 116T503 151Q503 160 503 169T501 186Q497 191 478 202T431 229T375 259T325 286T298 304Q295 317 294 336T292 374Q292
402 294 424T301 459Q338 495 366 523T409 571T425 604Q425 611 417 623T396 650T369 677T343 698T325 706Q310 706 286 704T236 698T192 690L215 500V128Q215 107 210 92T200 70L259 62Q261 57 263 48T266 27Q260 18 243 9T213 0Z" />
<glyph unicode="&#xe0;" horiz-adv-x="557" d="M190 -3Q168 -3 140 9T89 39T57 69Q52 83 49 106T45 154Q45 168 46 179T48 200Q54 208 66 219T93 241T123 260T147 270Q156 273 177 274T220 276Q236 277 251 278T282 281T309 285T332 289V393Q310 405 285 410T241
416Q232 416 220 415T200 413L168 330Q163 328 149 323T112 316Q102 330 88 360T68 426Q91 444 121 458T185 481T249 495T303 500Q327 500 355 488T410 459T452 422T469 388V79L531 73Q533 68 536 59T540 36Q531 26 514 18T477 5T443 0Q417 0 398 9T367 33T348
60Q326 46 297 31T239 7T190 -3ZM239 86Q249 86 266 90T302 102T332 115V225Q316 223 298 220T262 215Q237 211 213 207T173 191Q172 175 173 153T181 115Q191 105 208 96T239 86ZM356 565L163 706Q169 723 181 738T208 764T231 775Q242 775 268 753T328 689T397
593Q393 587 382 578T356 565Z" />
<glyph unicode="&#xe1;" horiz-adv-x="557" d="M190 -3Q168 -3 140 9T89 39T57 69Q52 83 49 106T45 154Q45 168 46 179T48 200Q54 208 66 219T93 241T123 260T147 270Q156 273 177 274T220 276Q236 277 251 278T282 281T309 285T332 289V393Q310 405 285 410T241
416Q232 416 220 415T200 413L168 330Q163 328 149 323T112 316Q102 330 88 360T68 426Q91 444 121 458T185 481T249 495T303 500Q327 500 355 488T410 459T452 422T469 388V79L531 73Q533 68 536 59T540 36Q531 26 514 18T477 5T443 0Q417 0 398 9T367 33T348
60Q326 46 297 31T239 7T190 -3ZM239 86Q249 86 266 90T302 102T332 115V225Q316 223 298 220T262 215Q237 211 213 207T173 191Q172 175 173 153T181 115Q191 105 208 96T239 86ZM230 565Q217 569 206 577T189 593Q224 646 257 687T317 751T355 775Q364 775 378
765T405 739T423 706L230 565Z" />
<glyph unicode="&#xe2;" horiz-adv-x="557" d="M190 -3Q168 -3 140 9T89 39T57 69Q52 83 49 106T45 154Q45 168 46 179T48 200Q54 208 66 219T93 241T123 260T147 270Q156 273 177 274T220 276Q236 277 251 278T282 281T309 285T332 289V393Q310 405 285 410T241
416Q232 416 220 415T200 413L168 330Q163 328 149 323T112 316Q102 330 88 360T68 426Q91 444 121 458T185 481T249 495T303 500Q327 500 355 488T410 459T452 422T469 388V79L531 73Q533 68 536 59T540 36Q531 26 514 18T477 5T443 0Q417 0 398 9T367 33T348
60Q326 46 297 31T239 7T190 -3ZM239 86Q249 86 266 90T302 102T332 115V225Q316 223 298 220T262 215Q237 211 213 207T173 191Q172 175 173 153T181 115Q191 105 208 96T239 86ZM169 564Q158 568 150 576T137 593Q174 644 204 685T257 751T294 775Q309 775 332
751T385 686T451 593Q447 587 439 578T418 564L293 669L169 564Z" />
<glyph unicode="&#xe3;" horiz-adv-x="557" d="M190 -3Q168 -3 140 9T89 39T57 69Q52 83 49 106T45 154Q45 168 46 179T48 200Q54 208 66 219T93 241T123 260T147 270Q156 273 177 274T220 276Q236 277 251 278T282 281T309 285T332 289V393Q310 405 285 410T241
416Q232 416 220 415T200 413L168 330Q163 328 149 323T112 316Q102 330 88 360T68 426Q91 444 121 458T185 481T249 495T303 500Q327 500 355 488T410 459T452 422T469 388V79L531 73Q533 68 536 59T540 36Q531 26 514 18T477 5T443 0Q417 0 398 9T367 33T348
60Q326 46 297 31T239 7T190 -3ZM239 86Q249 86 266 90T302 102T332 115V225Q316 223 298 220T262 215Q237 211 213 207T173 191Q172 175 173 153T181 115Q191 105 208 96T239 86ZM392 571Q377 571 343 579T269 600T195 625L123 579Q117 581 109 588T96 605Q110
627 129 651T169 693T203 710Q218 710 252 702T327 682T401 659L463 717Q471 714 478 710T493 698Q481 671 463 642T425 592T392 571Z" />
<glyph unicode="&#xe4;" horiz-adv-x="557" d="M190 -3Q168 -3 140 9T89 39T57 69Q52 83 49 106T45 154Q45 168 46 179T48 200Q54 208 66 219T93 241T123 260T147 270Q156 273 177 274T220 276Q236 277 251 278T282 281T309 285T332 289V393Q310 405 285 410T241
416Q232 416 220 415T200 413L168 330Q163 328 149 323T112 316Q102 330 88 360T68 426Q91 444 121 458T185 481T249 495T303 500Q327 500 355 488T410 459T452 422T469 388V79L531 73Q533 68 536 59T540 36Q531 26 514 18T477 5T443 0Q417 0 398 9T367 33T348
60Q326 46 297 31T239 7T190 -3ZM239 86Q249 86 266 90T302 102T332 115V225Q316 223 298 220T262 215Q237 211 213 207T173 191Q172 175 173 153T181 115Q191 105 208 96T239 86ZM395 571Q387 571 376 580T352 603T333 631T326 655Q326 663 336 674T362 695T392
712T416 719Q424 719 434 709T456 685T474 657T481 634Q481 624 465 609T429 583T395 571ZM177 571Q170 571 159 580T136 604T116 631T108 655Q108 663 118 674T144 695T175 712T198 719Q207 719 218 710T239 686T257 657T264 634Q264 624 248 609T212 583T177
571Z" />
<glyph unicode="&#xe5;" horiz-adv-x="557" d="M190 -3Q168 -3 140 9T89 39T57 69Q52 83 49 106T45 154Q45 168 46 179T48 200Q54 208 66 219T93 241T123 260T147 270Q156 273 177 274T220 276Q236 277 251 278T282 281T309 285T332 289V393Q310 405 285 410T241
416Q232 416 220 415T200 413L168 330Q163 328 149 323T112 316Q102 330 88 360T68 426Q91 444 121 458T185 481T249 495T303 500Q327 500 355 488T410 459T452 422T469 388V79L531 73Q533 68 536 59T540 36Q531 26 514 18T477 5T443 0Q417 0 398 9T367 33T348
60Q326 46 297 31T239 7T190 -3ZM239 86Q249 86 266 90T302 102T332 115V225Q316 223 298 220T262 215Q237 211 213 207T173 191Q172 175 173 153T181 115Q191 105 208 96T239 86ZM294 562Q247 562 217 589T186 659Q186 702 216 730T294 758Q341 758 371 730T402
659Q402 617 372 590T294 562ZM294 619Q315 619 326 629T338 659Q338 679 327 689T294 700Q274 700 262 690T250 659Q250 640 262 630T294 619Z" />
<glyph unicode="&#xe6;" horiz-adv-x="766" d="M199 0Q182 0 160 7T117 25T80 47T57 69Q52 82 49 105T45 154Q45 168 46 179T48 200Q53 208 65 219T93 241T123 260T148 270Q155 272 172 273T212 276T259 279T303 282T332 284V393Q310 405 285 410T236 416Q227
416 217 415T200 413L168 330Q163 328 149 323T112 316Q101 332 87 361T68 426Q91 444 121 458T185 481T249 495T303 500Q322 500 343 493T385 475T422 450Q448 462 477 473T535 492T590 500Q609 500 636 489T688 464T723 436Q728 427 732 404T740 357T743 319Q731
302 714 286T679 258T649 238Q607 234 561 232T465 229Q467 193 470 167T477 135Q480 132 491 125T516 110T543 97T565 92Q577 92 595 94T634 98T673 104T706 110Q710 105 715 97T721 76Q708 62 683 45T624 14T552 0Q528 0 501 8T448 28T402 52T370 74Q346 55 316
38T255 11T199 0ZM248 87Q258 87 273 91T305 102T332 114V227Q310 225 286 223T240 219T200 213T174 204Q173 186 174 159T181 115Q187 109 199 103T225 92T248 87ZM464 288Q493 289 518 289T568 291T619 295Q618 308 617 325T614 358T607 384Q603 391 595 397T577
407T561 412Q552 412 535 409T502 402T475 393Q471 381 469 363T465 325T464 288Z" />
<glyph unicode="&#xe7;" horiz-adv-x="463" d="M264 0Q237 0 206 10T147 34T98 61T73 82Q57 104 50 143T43 226Q43 264 46 301T56 369T69 417Q84 427 111 440T173 468T242 491T306 500Q322 500 343 493T387 475T425 451T448 430Q449 408 441 385T422 341T401 306Q385
306 368 310T340 320Q334 339 326 360T308 397T290 413Q274 413 254 409T217 399T189 388Q186 380 183 364T179 329T177 290Q177 259 179 225T184 166T191 135Q193 132 203 125T228 110T255 97T276 92Q294 92 324 95T380 103T416 109Q420 106 425 98T431 76Q418
62 393 44T334 13T264 0ZM233 -200Q224 -200 209 -196T180 -187T163 -176Q163 -165 165 -158T168 -149Q202 -149 226 -149T272 -143Q276 -136 278 -124T280 -103Q272 -98 256 -93T222 -82T191 -75Q186 -69 181 -58T175 -36Q185 -18 195 0T218 37H272L251 -37Q279
-41 305 -51T347 -72T364 -91Q364 -107 358 -130T341 -166Q325 -176 304 -183T263 -195T233 -200Z" />
<glyph unicode="&#xe8;" horiz-adv-x="477" d="M264 0Q237 0 206 10T147 34T98 61T73 82Q57 104 50 143T43 226Q43 264 46 301T56 369T69 417Q84 426 111 440T171 467T239 490T304 500Q323 500 349 490T400 466T435 439Q441 427 445 404T452 356T454 317Q442 300
425 284T390 256T360 238Q339 232 310 228T246 222T177 218Q178 186 181 163T188 135Q191 132 202 125T227 111T254 98T276 92Q289 92 309 94T353 98T397 104T432 110Q437 105 442 97T448 76Q434 62 406 44T342 13T264 0ZM238 284Q255 285 272 286T304 291T330
300Q330 311 329 327T326 360T320 384Q316 391 307 397T288 408T272 412Q264 412 247 409T213 400T187 391Q182 378 180 360T176 324T175 290Q188 287 205 286T238 284ZM323 565L130 706Q136 723 148 738T175 764T198 775Q209 775 235 753T295 689T364 593Q360
587 349 578T323 565Z" />
<glyph unicode="&#xe9;" horiz-adv-x="477" d="M264 0Q237 0 206 10T147 34T98 61T73 82Q57 104 50 143T43 226Q43 264 46 301T56 369T69 417Q84 426 111 440T171 467T239 490T304 500Q323 500 349 490T400 466T435 439Q441 427 445 404T452 356T454 317Q442 300
425 284T390 256T360 238Q339 232 310 228T246 222T177 218Q178 186 181 163T188 135Q191 132 202 125T227 111T254 98T276 92Q289 92 309 94T353 98T397 104T432 110Q437 105 442 97T448 76Q434 62 406 44T342 13T264 0ZM238 284Q255 285 272 286T304 291T330
300Q330 311 329 327T326 360T320 384Q316 391 307 397T288 408T272 412Q264 412 247 409T213 400T187 391Q182 378 180 360T176 324T175 290Q188 287 205 286T238 284ZM196 565Q183 569 172 577T155 593Q190 646 223 687T283 751T321 775Q330 775 344 765T371
739T389 706L196 565Z" />
<glyph unicode="&#xea;" horiz-adv-x="477" d="M264 0Q237 0 206 10T147 34T98 61T73 82Q57 104 50 143T43 226Q43 264 46 301T56 369T69 417Q84 426 111 440T171 467T239 490T304 500Q323 500 349 490T400 466T435 439Q441 427 445 404T452 356T454 317Q442 300
425 284T390 256T360 238Q339 232 310 228T246 222T177 218Q178 186 181 163T188 135Q191 132 202 125T227 111T254 98T276 92Q289 92 309 94T353 98T397 104T432 110Q437 105 442 97T448 76Q434 62 406 44T342 13T264 0ZM238 284Q255 285 272 286T304 291T330
300Q330 311 329 327T326 360T320 384Q316 391 307 397T288 408T272 412Q264 412 247 409T213 400T187 391Q182 378 180 360T176 324T175 290Q188 287 205 286T238 284ZM136 564Q125 568 117 576T104 593Q141 644 171 685T224 751T261 775Q276 775 299 751T352
686T418 593Q414 587 406 578T385 564L260 669L136 564Z" />
<glyph unicode="&#xeb;" horiz-adv-x="477" d="M264 0Q237 0 206 10T147 34T98 61T73 82Q57 104 50 143T43 226Q43 264 46 301T56 369T69 417Q84 426 111 440T171 467T239 490T304 500Q323 500 349 490T400 466T435 439Q441 427 445 404T452 356T454 317Q442 300
425 284T390 256T360 238Q339 232 310 228T246 222T177 218Q178 186 181 163T188 135Q191 132 202 125T227 111T254 98T276 92Q289 92 309 94T353 98T397 104T432 110Q437 105 442 97T448 76Q434 62 406 44T342 13T264 0ZM238 284Q255 285 272 286T304 291T330
300Q330 311 329 327T326 360T320 384Q316 391 307 397T288 408T272 412Q264 412 247 409T213 400T187 391Q182 378 180 360T176 324T175 290Q188 287 205 286T238 284ZM361 571Q353 571 342 580T318 603T299 631T292 655Q292 663 302 674T328 695T358 712T382
719Q390 719 400 709T422 685T440 657T447 634Q447 624 431 609T395 583T361 571ZM143 571Q136 571 125 580T102 604T82 631T74 655Q74 663 84 674T110 695T141 712T164 719Q173 719 184 710T205 686T223 657T230 634Q230 624 214 609T178 583T143 571Z" />
<glyph unicode="&#xec;" horiz-adv-x="320" d="M222 0Q211 0 185 3T128 12T69 22T30 32Q30 40 33 48T40 63L65 68Q76 70 82 75T92 97T95 146V388Q95 398 91 405T78 415L23 435Q25 446 28 456T37 472Q55 481 89 490T154 500Q189 500 210 478T232 421V127Q232 106
227 91T217 71L289 62Q291 58 293 51T296 33Q291 26 278 18T249 5T222 0ZM217 565L24 706Q30 723 42 738T69 764T92 775Q103 775 129 753T189 689T258 593Q254 587 243 578T217 565Z" />
<glyph unicode="&#xed;" horiz-adv-x="320" d="M222 0Q211 0 185 3T128 12T69 22T30 32Q30 40 33 48T40 63L65 68Q76 70 82 75T92 97T95 146V388Q95 398 91 405T78 415L23 435Q25 446 28 456T37 472Q55 481 89 490T154 500Q189 500 210 478T232 421V127Q232 106
227 91T217 71L289 62Q291 58 293 51T296 33Q291 26 278 18T249 5T222 0ZM91 565Q78 569 67 577T50 593Q85 646 118 687T178 751T216 775Q225 775 239 765T266 739T284 706L91 565Z" />
<glyph unicode="&#xee;" horiz-adv-x="320" d="M222 0Q211 0 185 3T128 12T69 22T30 32Q30 40 33 48T40 63L65 68Q76 70 82 75T92 97T95 146V388Q95 398 91 405T78 415L23 435Q25 446 28 456T37 472Q55 481 89 490T154 500Q189 500 210 478T232 421V127Q232 106
227 91T217 71L289 62Q291 58 293 51T296 33Q291 26 278 18T249 5T222 0ZM286 564Q275 568 267 576T254 593Q291 644 321 685T374 751T411 775Q426 775 449 751T502 686T568 593Q564 587 556 578T535 564L410 669L286 564Z" />
<glyph unicode="&#xef;" horiz-adv-x="320" d="M222 0Q211 0 185 3T128 12T69 22T30 32Q30 40 33 48T40 63L65 68Q76 70 82 75T92 97T95 146V388Q95 398 91 405T78 415L23 435Q25 446 28 456T37 472Q55 481 89 490T154 500Q189 500 210 478T232 421V127Q232 106
227 91T217 71L289 62Q291 58 293 51T296 33Q291 26 278 18T249 5T222 0ZM512 571Q504 571 493 580T469 603T450 631T443 655Q443 663 453 674T479 695T509 712T533 719Q541 719 551 709T573 685T591 657T598 634Q598 624 582 609T546 583T512 571ZM294 571Q287
571 276 580T253 604T233 631T225 655Q225 663 235 674T261 695T292 712T315 719Q324 719 335 710T356 686T374 657T381 634Q381 624 365 609T329 583T294 571Z" />
<glyph unicode="&#xf0;" horiz-adv-x="539" d="M260 0Q234 0 204 9T147 33T99 60T73 82Q57 104 50 144T43 229Q43 285 51 335T69 412Q83 422 110 436T171 465T239 490T303 500Q313 500 325 496T349 485T373 465Q370 509 345 552T264 636T114 714Q117 725 121 739T130
764T140 777Q243 745 311 706T420 611T478 476T496 284Q496 248 493 211T483 143T469 91Q457 79 435 64T383 34T322 10T260 0ZM273 85Q281 85 296 87T328 92T352 99Q356 108 359 125T365 164T368 210Q368 234 368 260T366 310T363 349T358 372Q353 378 338 388T306
406T274 414Q264 414 247 411T214 402T188 394Q185 387 182 371T178 334T177 291Q177 256 179 221T184 161T190 131Q192 128 202 121T225 105T251 91T273 85ZM163 513Q149 520 140 529T126 549L278 693Q299 714 320 732T356 765T375 786Q397 778 416 761T442 732L163
513Z" />
<glyph unicode="&#xf1;" horiz-adv-x="614" d="M212 0Q202 0 177 3T123 12T69 22T31 32Q31 40 34 48T41 63L67 68Q84 71 90 85T96 146V388Q96 397 92 404T79 415L24 435Q26 448 29 457T38 472Q55 480 89 490T155 500Q188 500 209 482T232 431Q250 444 274 460T322
488T364 500Q387 500 416 492T472 469T516 437T534 402V127Q534 106 529 92T519 71L592 62Q594 58 596 50T599 33Q594 26 580 18T551 5T524 0Q514 0 488 3T432 12T375 22T336 32Q336 41 339 49T346 63L368 66Q378 68 384 74T394 96T397 146V353Q397 361 390 370T372
388T351 401T334 406Q327 406 313 403T284 394T254 384T233 374V135Q233 115 227 98T215 71L283 62Q285 60 287 52T290 33Q285 26 271 18T240 5T212 0ZM405 571Q390 571 356 579T282 600T208 625L136 579Q130 581 122 588T109 605Q123 627 142 651T182 693T216
710Q231 710 265 702T340 682T414 659L476 717Q484 714 491 710T506 698Q494 671 476 642T438 592T405 571Z" />
<glyph unicode="&#xf2;" horiz-adv-x="541" d="M260 0Q234 0 205 9T148 33T100 60T73 83Q57 104 50 144T43 229Q43 267 47 303T57 369T69 417Q83 426 110 440T171 467T239 490T303 500Q322 500 347 493T399 474T446 449T476 425Q484 410 489 387T496 336T498 281Q498
224 491 171T472 86Q460 75 437 61T385 32T323 9T260 0ZM273 85Q281 85 296 88T328 96T352 104Q358 117 360 145T362 205Q362 237 361 273T357 337T350 371Q346 377 333 386T302 404T271 412Q261 412 245 409T213 401T188 392Q185 385 182 369T178 332T177 291Q177
257 179 223T184 163T189 131Q192 128 202 121T225 105T251 91T273 85ZM333 565L140 706Q146 723 158 738T185 764T208 775Q219 775 245 753T305 689T374 593Q370 587 359 578T333 565Z" />
<glyph unicode="&#xf3;" horiz-adv-x="541" d="M260 0Q234 0 205 9T148 33T100 60T73 83Q57 104 50 144T43 229Q43 267 47 303T57 369T69 417Q83 426 110 440T171 467T239 490T303 500Q322 500 347 493T399 474T446 449T476 425Q484 410 489 387T496 336T498 281Q498
224 491 171T472 86Q460 75 437 61T385 32T323 9T260 0ZM273 85Q281 85 296 88T328 96T352 104Q358 117 360 145T362 205Q362 237 361 273T357 337T350 371Q346 377 333 386T302 404T271 412Q261 412 245 409T213 401T188 392Q185 385 182 369T178 332T177 291Q177
257 179 223T184 163T189 131Q192 128 202 121T225 105T251 91T273 85ZM206 565Q193 569 182 577T165 593Q200 646 233 687T293 751T331 775Q340 775 354 765T381 739T399 706L206 565Z" />
<glyph unicode="&#xf4;" horiz-adv-x="541" d="M260 0Q234 0 205 9T148 33T100 60T73 83Q57 104 50 144T43 229Q43 267 47 303T57 369T69 417Q83 426 110 440T171 467T239 490T303 500Q322 500 347 493T399 474T446 449T476 425Q484 410 489 387T496 336T498 281Q498
224 491 171T472 86Q460 75 437 61T385 32T323 9T260 0ZM273 85Q281 85 296 88T328 96T352 104Q358 117 360 145T362 205Q362 237 361 273T357 337T350 371Q346 377 333 386T302 404T271 412Q261 412 245 409T213 401T188 392Q185 385 182 369T178 332T177 291Q177
257 179 223T184 163T189 131Q192 128 202 121T225 105T251 91T273 85ZM146 564Q135 568 127 576T114 593Q151 644 181 685T234 751T271 775Q286 775 309 751T362 686T428 593Q424 587 416 578T395 564L270 669L146 564Z" />
<glyph unicode="&#xf5;" horiz-adv-x="541" d="M260 0Q234 0 205 9T148 33T100 60T73 83Q57 104 50 144T43 229Q43 267 47 303T57 369T69 417Q83 426 110 440T171 467T239 490T303 500Q322 500 347 493T399 474T446 449T476 425Q484 410 489 387T496 336T498 281Q498
224 491 171T472 86Q460 75 437 61T385 32T323 9T260 0ZM273 85Q281 85 296 88T328 96T352 104Q358 117 360 145T362 205Q362 237 361 273T357 337T350 371Q346 377 333 386T302 404T271 412Q261 412 245 409T213 401T188 392Q185 385 182 369T178 332T177 291Q177
257 179 223T184 163T189 131Q192 128 202 121T225 105T251 91T273 85ZM368 571Q353 571 319 579T245 600T171 625L99 579Q93 581 85 588T72 605Q86 627 105 651T145 693T179 710Q194 710 228 702T303 682T377 659L439 717Q447 714 454 710T469 698Q457 671 439
642T401 592T368 571Z" />
<glyph unicode="&#xf6;" horiz-adv-x="541" d="M260 0Q234 0 205 9T148 33T100 60T73 83Q57 104 50 144T43 229Q43 267 47 303T57 369T69 417Q83 426 110 440T171 467T239 490T303 500Q322 500 347 493T399 474T446 449T476 425Q484 410 489 387T496 336T498 281Q498
224 491 171T472 86Q460 75 437 61T385 32T323 9T260 0ZM273 85Q281 85 296 88T328 96T352 104Q358 117 360 145T362 205Q362 237 361 273T357 337T350 371Q346 377 333 386T302 404T271 412Q261 412 245 409T213 401T188 392Q185 385 182 369T178 332T177 291Q177
257 179 223T184 163T189 131Q192 128 202 121T225 105T251 91T273 85ZM371 571Q363 571 352 580T328 603T309 631T302 655Q302 663 312 674T338 695T368 712T392 719Q400 719 410 709T432 685T450 657T457 634Q457 624 441 609T405 583T371 571ZM153 571Q146 571
135 580T112 604T92 631T84 655Q84 663 94 674T120 695T151 712T174 719Q183 719 194 710T215 686T233 657T240 634Q240 624 224 609T188 583T153 571Z" />
<glyph unicode="&#xf7;" horiz-adv-x="516" d="M247 24Q239 24 227 34T203 60T183 90T174 116Q174 125 185 137T214 160T247 179T273 187Q282 187 294 177T318 150T338 119T346 92Q346 84 335 73T308 50T275 32T247 24ZM251 365Q243 365 230 375T205 401T183 431T174
457Q174 466 185 478T214 502T247 521T273 529Q282 529 294 518T318 492T338 460T346 434Q346 426 336 414T310 391T278 373T251 365ZM53 243Q53 272 57 287T66 306Q135 307 206 308T341 312T453 318L466 303Q465 277 461 263T453 243H53Z" />
<glyph unicode="&#xf8;" horiz-adv-x="541" d="M476 425Q484 410 489 387T496 336T498 281Q498 224 491 171T472 86Q460 75 437 61T385 32T323 9T260 0Q251 0 242 1T222 5L188 -95Q169 -95 153 -89T132 -76L165 25Q133 39 107 56T73 83Q57 104 50 144T43 229Q43
267 47 303T57 369T69 417Q83 426 110 440T171 467T239 490T303 500Q307 500 312 500T321 498Q333 531 342 559T358 608Q384 607 399 596T416 577L383 480Q413 468 439 453T476 425ZM177 291Q177 248 180 207T187 149Q188 145 191 141T199 130L292 408Q286 410
281 411T271 412Q261 412 245 409T213 401T188 392Q185 385 182 369T178 332T177 291ZM352 104Q358 117 360 145T362 205Q362 231 361 258T358 309T353 344Q352 347 350 350T343 357L251 91Q257 89 263 87T273 85Q281 85 296 88T328 96T352 104Z" />
<glyph unicode="&#xf9;" horiz-adv-x="611" d="M244 -4Q219 -4 191 7T139 35T100 67T84 92V388Q84 398 80 405T67 415L13 435Q15 448 18 457T26 472Q43 480 78 490T143 500Q178 500 199 478T221 421V123Q229 117 240 108T265 91T286 84Q295 84 313 89T351 102T386
119V388Q386 397 382 404T368 415L305 435Q307 449 311 459T319 472Q330 477 351 483T398 495T444 500Q479 500 500 478T522 421V79L584 73Q586 68 589 59T593 37Q587 28 571 20T533 6T495 0Q460 0 436 17T401 58Q382 46 353 32T293 7T244 -4ZM363 565L170 706Q176
723 188 738T215 764T238 775Q249 775 275 753T335 689T404 593Q400 587 389 578T363 565Z" />
<glyph unicode="&#xfa;" horiz-adv-x="611" d="M244 -4Q219 -4 191 7T139 35T100 67T84 92V388Q84 398 80 405T67 415L13 435Q15 448 18 457T26 472Q43 480 78 490T143 500Q178 500 199 478T221 421V123Q229 117 240 108T265 91T286 84Q295 84 313 89T351 102T386
119V388Q386 397 382 404T368 415L305 435Q307 449 311 459T319 472Q330 477 351 483T398 495T444 500Q479 500 500 478T522 421V79L584 73Q586 68 589 59T593 37Q587 28 571 20T533 6T495 0Q460 0 436 17T401 58Q382 46 353 32T293 7T244 -4ZM236 565Q223 569
212 577T195 593Q230 646 263 687T323 751T361 775Q370 775 384 765T411 739T429 706L236 565Z" />
<glyph unicode="&#xfb;" horiz-adv-x="611" d="M244 -4Q219 -4 191 7T139 35T100 67T84 92V388Q84 398 80 405T67 415L13 435Q15 448 18 457T26 472Q43 480 78 490T143 500Q178 500 199 478T221 421V123Q229 117 240 108T265 91T286 84Q295 84 313 89T351 102T386
119V388Q386 397 382 404T368 415L305 435Q307 449 311 459T319 472Q330 477 351 483T398 495T444 500Q479 500 500 478T522 421V79L584 73Q586 68 589 59T593 37Q587 28 571 20T533 6T495 0Q460 0 436 17T401 58Q382 46 353 32T293 7T244 -4ZM176 564Q165 568
157 576T144 593Q181 644 211 685T264 751T301 775Q316 775 339 751T392 686T458 593Q454 587 446 578T425 564L300 669L176 564Z" />
<glyph unicode="&#xfc;" horiz-adv-x="611" d="M244 -4Q219 -4 191 7T139 35T100 67T84 92V388Q84 398 80 405T67 415L13 435Q15 448 18 457T26 472Q43 480 78 490T143 500Q178 500 199 478T221 421V123Q229 117 240 108T265 91T286 84Q295 84 313 89T351 102T386
119V388Q386 397 382 404T368 415L305 435Q307 449 311 459T319 472Q330 477 351 483T398 495T444 500Q479 500 500 478T522 421V79L584 73Q586 68 589 59T593 37Q587 28 571 20T533 6T495 0Q460 0 436 17T401 58Q382 46 353 32T293 7T244 -4ZM401 571Q393 571
382 580T358 603T339 631T332 655Q332 663 342 674T368 695T398 712T422 719Q430 719 440 709T462 685T480 657T487 634Q487 624 471 609T435 583T401 571ZM183 571Q176 571 165 580T142 604T122 631T114 655Q114 663 124 674T150 695T181 712T204 719Q213 719
224 710T245 686T263 657T270 634Q270 624 254 609T218 583T183 571Z" />
<glyph unicode="&#xfd;" horiz-adv-x="552" d="M119 -200Q102 -200 80 -192T38 -172T12 -153Q13 -137 18 -126T28 -108Q78 -106 121 -92T201 -49T267 20Q236 28 207 41T155 69T120 97L69 356Q65 376 58 394T31 422L-7 439Q-7 450 -3 459T4 474Q14 480 34 486T76
496T112 500Q148 500 170 478T199 408L236 132Q242 127 254 120T282 106T312 95Q322 115 334 145T357 211T377 281T392 347T399 398Q387 407 368 416T329 432T296 444Q297 457 301 468T308 484Q322 489 344 492T388 498T425 500Q437 500 454 490T487 466T515 437T526
415Q526 380 514 329T479 220T427 102Q397 42 361 -12T285 -108T203 -175T119 -200ZM212 565Q199 569 188 577T171 593Q206 646 239 687T299 751T337 775Q346 775 360 765T387 739T405 706L212 565Z" />
<glyph unicode="&#xfe;" d="M222 -200Q212 -200 184 -197T121 -188T57 -178T16 -168Q16 -160 19 -152T26 -137L54 -132Q64 -130 71 -124T83 -102T87 -54V688Q87 697 84 705T70 715L1 735Q3 748 7 758T15 772Q26 777 49 783T98 795T145 800Q181 800 202 778T224
721V425Q236 435 253 447T288 472T324 492T356 500Q371 500 393 494T440 477T485 453T519 428Q528 409 533 384T540 332T542 277Q542 223 535 172T517 91Q505 79 483 64T431 35T372 10T315 0Q299 0 273 8T224 27V-73Q224 -94 219 -108T210 -129L289 -138Q291 -142
293 -150T296 -167Q291 -174 278 -182T249 -195T222 -200ZM306 85Q315 85 333 87T368 93T393 101Q400 121 403 154T406 222Q406 250 405 278T401 329T394 365Q389 374 376 383T350 399T326 406Q316 406 296 402T255 391T224 379V106Q239 101 255 96T285 88T306
85Z" />
<glyph unicode="&#xff;" horiz-adv-x="552" d="M119 -200Q102 -200 80 -192T38 -172T12 -153Q13 -137 18 -126T28 -108Q78 -106 121 -92T201 -49T267 20Q236 28 207 41T155 69T120 97L69 356Q65 376 58 394T31 422L-7 439Q-7 450 -3 459T4 474Q14 480 34 486T76
496T112 500Q148 500 170 478T199 408L236 132Q242 127 254 120T282 106T312 95Q322 115 334 145T357 211T377 281T392 347T399 398Q387 407 368 416T329 432T296 444Q297 457 301 468T308 484Q322 489 344 492T388 498T425 500Q437 500 454 490T487 466T515 437T526
415Q526 380 514 329T479 220T427 102Q397 42 361 -12T285 -108T203 -175T119 -200ZM377 571Q369 571 358 580T334 603T315 631T308 655Q308 663 318 674T344 695T374 712T398 719Q406 719 416 709T438 685T456 657T463 634Q463 624 447 609T411 583T377 571ZM159
571Q152 571 141 580T118 604T98 631T90 655Q90 663 100 674T126 695T157 712T180 719Q189 719 200 710T221 686T239 657T246 634Q246 624 230 609T194 583T159 571Z" />
<glyph unicode="&#x2013;" horiz-adv-x="558" d="M30 262Q30 290 34 305T42 324Q100 324 158 325T270 327T372 331T456 337T514 344L531 323Q531 306 528 289T521 262H30Z" />
<glyph unicode="&#x2014;" horiz-adv-x="885" d="M30 262Q30 288 34 304T42 325Q144 325 236 325T411 327T563 330T688 334T781 339T840 345L858 323Q858 305 855 288T847 262H30Z" />
<glyph unicode="&#x2018;" horiz-adv-x="254" d="M101 499Q92 499 80 509T57 536T38 568T30 595Q30 607 38 630T60 683T90 737T121 780T148 797Q160 797 172 790T193 772T202 755Q188 745 174 728T149 693T131 661Q148 653 163 635T188 599T198 569Q198 560 187
548T159 525T127 506T101 499Z" />
<glyph unicode="&#x2019;" horiz-adv-x="254" d="M107 487Q95 487 83 494T62 512T52 530Q67 540 81 557T106 592T123 624Q107 632 92 650T67 687T57 716Q57 725 68 737T95 760T128 778T154 786Q163 786 175 776T198 749T217 717T225 690Q225 678 217 654T195 602T165
547T134 504T107 487Z" />
<glyph unicode="&#x201a;" horiz-adv-x="242" d="M62 -146Q50 -146 38 -139T17 -121T7 -103Q22 -93 42 -75T80 -35T106 1Q89 10 73 27T47 64T37 93Q37 102 48 114T75 137T108 155T134 163Q143 163 155 152T178 126T197 94T205 67Q205 54 194 29T166 -26T129 -83T91
-128T62 -146Z" />
<glyph unicode="&#x201c;" horiz-adv-x="448" d="M101 499Q92 499 80 509T57 536T38 568T30 595Q30 607 38 630T60 683T90 737T121 780T148 797Q160 797 172 790T193 772T202 755Q188 745 174 728T149 693T131 661Q148 653 163 635T188 599T198 569Q198 560 187
548T159 525T127 506T101 499ZM295 499Q286 499 274 509T251 536T232 568T224 595Q224 607 232 630T254 683T284 737T315 780T342 797Q354 797 366 790T387 772T396 755Q382 745 368 728T343 693T325 661Q342 653 357 635T382 599T392 569Q392 560 381 548T353
525T321 506T295 499Z" />
<glyph unicode="&#x201d;" horiz-adv-x="448" d="M107 487Q95 487 83 494T62 512T52 530Q67 540 81 557T106 592T123 624Q107 632 92 650T67 687T57 716Q57 725 68 737T95 760T128 778T154 786Q163 786 175 776T198 749T217 717T225 690Q225 678 217 654T195 602T165
547T134 504T107 487ZM301 487Q289 487 277 494T256 512T246 530Q261 540 275 557T300 592T317 624Q301 632 286 650T261 687T251 716Q251 725 262 737T289 760T322 778T348 786Q357 786 369 776T392 749T411 717T419 690Q419 678 411 654T389 602T359 547T328
504T301 487Z" />
<glyph unicode="&#x201e;" horiz-adv-x="437" d="M62 -146Q50 -146 38 -139T17 -121T7 -103Q22 -93 42 -75T80 -35T106 1Q89 10 73 27T47 64T37 93Q37 102 48 114T75 137T108 155T134 163Q143 163 155 152T178 126T197 94T205 67Q205 54 194 29T166 -26T129 -83T91
-128T62 -146ZM257 -146Q245 -146 233 -139T212 -121T202 -103Q217 -93 237 -75T275 -35T301 1Q284 10 268 27T242 64T232 93Q232 102 243 114T270 137T303 155T329 163Q338 163 350 152T373 126T392 94T400 67Q400 54 389 29T361 -26T324 -83T286 -128T257 -146Z"
/>
<glyph unicode="&#x2022;" horiz-adv-x="438" d="M205 134Q189 134 167 151T122 194T86 245T72 284Q72 300 91 320T140 359T197 390T242 403Q258 403 279 385T321 341T354 289T367 248Q367 233 348 214T301 176T248 146T205 134Z" />
<glyph unicode="&#x2039;" horiz-adv-x="373" d="M278 29Q239 60 197 95T118 163T59 222T36 259Q36 271 58 296T117 355T196 424T278 490Q285 488 297 478T318 446L140 224L141 296L318 72Q307 55 296 44T278 29Z" />
<glyph unicode="&#x203a;" horiz-adv-x="373" d="M95 29Q88 31 76 41T55 73L233 295L232 224L55 447Q66 465 77 476T95 490Q134 460 176 425T255 357T314 298T337 260Q337 249 315 223T256 164T177 95T95 29Z" />
</font>
</defs>
</svg>
