<?xml version="1.0" standalone="no"?>
<!DOCTYPE svg PUBLIC "-//W3C//DTD SVG 1.1//EN" "http://www.w3.org/Graphics/SVG/1.1/DTD/svg11.dtd">
<svg xmlns="http://www.w3.org/2000/svg">
<defs >
<font id="Texturina" horiz-adv-x="585" ><font-face
    font-family="Texturina Medium 12pt Light"
    units-per-em="1000"
    panose-1="0 0 0 0 0 0 0 0 0 0"
    ascent="1260"
    descent="-300"
    alphabetic="0" />
<glyph unicode=" " horiz-adv-x="220" />
<glyph unicode="!" horiz-adv-x="232" d="M90 213Q83 296 78 389T69 573T66 743Q79 753 105 760T161 768L140 231Q136 225 123 220T90 213ZM109 -6Q102 -6 92 3T71 24T54 49T47 69Q47 77 56 86T79 105T106 121T127 127Q134 127 144 118T163 97T179 72T186 51Q186
44 178 34T157 15T131 0T109 -6Z" />
<glyph unicode="&quot;" horiz-adv-x="351" d="M100 436Q90 436 81 437T68 441L51 694Q57 697 69 701T90 705Q100 705 110 694T127 670T134 650Q134 636 131 601T120 521T100 436ZM261 436Q251 436 242 437T229 441L212 694Q218 697 230 701T251 705Q261 705 271
694T288 670T295 650Q295 636 292 601T281 521T261 436Z" />
<glyph unicode="#" horiz-adv-x="660" d="M128 -14Q107 -14 94 -9T74 0L135 157H19Q19 178 23 189T31 202H152L225 389H83Q83 410 87 421T95 433H241Q258 477 275 522T302 594Q321 594 334 585T355 566L302 433L462 436Q474 466 489 506T515 589Q539 589 554 581T574
564L524 438Q577 440 603 442T641 445Q641 424 638 410T630 389H505L435 207Q497 209 527 211T567 214Q567 191 564 178T556 157H416L349 -14Q330 -14 316 -9T294 0L356 157H195L128 -14ZM212 202L373 205L445 389H285L212 202Z" />
<glyph unicode="$" horiz-adv-x="547" d="M249 -115V-9Q225 -7 190 1T121 20T70 44Q70 68 73 93T81 141T90 180Q96 182 107 185T130 188L148 78Q167 71 194 64T249 53V259Q225 266 197 274T143 293T99 314T77 334Q76 344 75 354T73 377Q73 409 79 446T97 503Q109
515 134 527T189 551T249 568V657Q257 665 275 672T317 680Q316 667 313 640T307 572Q334 569 364 561T421 543T464 521Q464 503 460 478T451 430T440 394Q426 394 416 397T401 405L382 495Q363 501 344 506T305 512V315Q347 302 385 289T449 264T480 238Q482 225
483 211T484 182Q484 152 480 118T465 57Q456 48 433 34T377 9T305 -7V-105Q299 -108 284 -111T249 -115ZM305 51Q329 53 353 57T392 66Q400 79 404 101T408 146Q408 164 406 181T400 210Q396 213 378 220T339 234T305 243V51ZM249 330V513Q229 512 210 510T167
501Q158 485 154 463T150 415Q150 402 151 389T154 365Q160 360 183 352T249 330Z" />
<glyph unicode="%" horiz-adv-x="985" d="M218 286Q189 286 159 296T105 319T68 342Q57 366 53 405T48 488Q48 521 49 552T55 609T64 648Q73 655 91 665T133 686T185 702T239 709Q259 709 287 701T339 680T372 659Q381 641 384 607T388 529Q388 502 387 468T381
401T372 347Q364 338 348 328T310 308T265 292T218 286ZM229 336Q236 336 251 339T282 349T307 361Q312 380 315 415T318 488Q318 533 315 573T307 626Q300 635 282 642T245 654T212 658Q203 658 187 655T156 646T129 636Q123 623 120 592T116 522Q116 493 117
462T122 407T129 375Q138 366 159 357T201 342T229 336ZM352 -94Q336 -94 321 -89T296 -76L525 513Q547 569 564 616T593 699T610 754Q632 750 648 741T670 723L352 -94ZM768 -4Q739 -4 709 6T655 29T618 52Q607 76 603 115T598 198Q598 231 599 262T605 319T614
358Q623 365 641 375T683 396T735 412T789 419Q809 419 837 411T889 390T922 369Q931 351 934 317T938 239Q938 212 937 178T931 111T922 57Q914 48 898 38T860 18T815 2T768 -4ZM779 46Q786 46 801 49T832 59T857 71Q862 90 865 125T868 198Q868 243 865 283T857
336Q850 345 832 352T795 364T762 368Q753 368 737 365T706 356T679 346Q673 333 670 302T666 232Q666 203 667 172T672 117T679 85Q688 76 709 67T751 52T779 46Z" />
<glyph unicode="&amp;" horiz-adv-x="785" d="M289 0Q258 0 223 18T154 64T91 124T45 182T28 223Q28 241 48 264T98 313T160 362T218 401Q184 459 157 516T116 627Q125 638 150 653T208 684T277 710T342 720Q373 720 410 711T483 688T540 658Q539 610 530 563T513
489Q504 489 496 490T481 494T470 499L457 628Q424 641 395 647T337 653T274 650T198 636Q208 589 235 532T302 414T391 296T491 191Q494 228 493 264T488 333T479 396L486 410H513Q565 410 619 413T712 423L722 414Q721 393 717 379T710 358H559Q560 325 558 287T551
212T538 148Q588 107 634 83T718 58Q727 58 738 58T768 61Q770 59 772 53T775 39Q772 36 754 27T712 9T667 0Q634 0 587 25T487 93Q449 66 409 45T335 12T289 0ZM305 65Q315 65 338 73T390 97T444 130Q392 178 339 238T242 364Q224 349 203 330T162 292T130 259T117
238Q117 231 130 212T164 167T210 119T260 80T305 65Z" />
<glyph unicode="&apos;" horiz-adv-x="190" d="M100 436Q90 436 81 437T68 441L51 694Q57 697 69 701T90 705Q100 705 110 694T127 670T134 650Q134 636 131 601T120 521T100 436Z" />
<glyph unicode="(" horiz-adv-x="320" d="M242 -200Q153 -108 110 11T66 261Q66 357 87 452T149 635T247 800Q262 800 273 793T288 778Q242 706 210 623T162 450T146 270Q146 143 179 29T279 -169Q272 -181 261 -189T242 -200Z" />
<glyph unicode=")" horiz-adv-x="320" d="M74 -200Q59 -200 48 -193T32 -177Q79 -105 110 -22T158 151T175 330Q175 458 142 572T41 770Q48 782 59 790T78 800Q168 709 211 590T254 339Q254 244 233 149T172 -34T74 -200Z" />
<glyph unicode="*" horiz-adv-x="531" d="M210 306Q199 308 185 315T162 330T152 344Q152 351 163 372T195 422T248 483L247 484L57 503Q56 507 56 510T56 517Q56 525 58 537T67 559T83 569Q92 569 116 565T173 552T245 525L246 528L208 702Q217 707 228 709T251
712Q260 712 267 711T277 706Q283 698 285 677T288 629T288 578T285 541H287L449 635Q457 630 463 620T472 600T476 583Q476 581 476 580T475 576Q472 571 450 558T393 532T311 510V508L456 388Q452 379 443 369T423 352T406 345Q396 345 379 361T344 400T312 444T292
474L289 473L210 306Z" />
<glyph unicode="+" horiz-adv-x="516" d="M230 57V477Q232 482 247 486T289 490V67Q283 64 268 61T230 57ZM53 252Q53 273 57 284T66 297Q125 297 194 298T332 303T456 309L465 300Q464 281 460 269T453 252H53Z" />
<glyph unicode="," horiz-adv-x="221" d="M69 -122Q59 -122 50 -117T35 -105T27 -92Q39 -85 55 -69T86 -32T104 4Q92 8 79 20T58 47T49 70Q49 77 57 86T77 103T100 116T119 121Q126 121 135 114T152 95T166 72T172 52Q172 39 164 18T144 -28T117 -73T90 -108T69 -122Z" />
<glyph unicode="-" horiz-adv-x="342" d="M30 270Q30 289 33 301T42 317Q93 317 144 319T237 324T302 329L315 314Q315 301 312 290T304 270H30Z" />
<glyph unicode="." horiz-adv-x="224" d="M105 -6Q98 -6 88 3T67 24T50 49T43 69Q43 77 52 86T75 105T102 121T122 127Q130 127 140 118T159 97T175 71T182 50Q182 44 174 34T153 15T127 0T105 -6Z" />
<glyph unicode="/" horiz-adv-x="464" d="M100 -88Q83 -88 68 -84T46 -76L275 513Q307 595 329 656T360 748Q383 745 398 737T418 723L100 -88Z" />
<glyph unicode="0" horiz-adv-x="578" d="M281 0Q253 0 224 10T171 35T129 64T105 85Q88 115 81 161T73 258Q73 300 77 339T87 411T99 464Q112 477 135 493T187 525T251 551T319 562Q337 562 361 554T410 533T454 507T483 481Q496 452 501 410T507 324Q507 284
503 244T493 168T479 107Q465 88 435 63T364 19T281 0ZM316 70Q341 70 365 79T408 103Q418 128 422 172T427 261Q427 297 425 333T419 397T410 440Q385 466 346 479T270 492Q245 492 216 485T170 466Q164 452 160 426T154 368T152 302Q152 265 154 229T162 167T174
129Q198 102 237 86T316 70Z" />
<glyph unicode="1" horiz-adv-x="383" d="M263 0Q256 0 237 2T192 7T140 14T92 22T60 30Q60 38 63 43T69 53L106 57Q127 59 140 65T159 88T165 135V391Q165 419 168 440T174 468L172 470L49 454Q49 467 52 478T57 494Q106 508 150 526T231 565Q239 564 246 561T259
551Q256 539 253 516T247 463T244 403V115Q244 95 240 80T231 59L332 52Q333 51 335 46T338 30Q330 23 316 16T287 5T263 0Z" />
<glyph unicode="2" horiz-adv-x="561" d="M82 0Q76 0 66 8T47 28T39 48Q65 63 106 96T192 175T278 271T343 373T368 468Q355 478 325 485T253 496T163 497L147 380Q144 377 136 374T118 371Q110 380 101 398T85 440T73 488Q98 512 135 529T214 555T289 564Q302
564 322 558T365 540T408 517T441 493T454 472Q454 431 435 388T385 301T317 219T244 149T181 96L424 71L471 167Q483 167 492 164T505 156Q505 137 502 107T493 49Q482 40 462 29T420 9T383 0Q375 0 353 4T301 15T240 29T181 41T136 48Q129 41 119 31T98 12T82
0Z" />
<glyph unicode="3" horiz-adv-x="476" d="M151 -105Q137 -105 111 -96T62 -73T29 -50Q34 -37 38 -31T47 -22Q78 -28 110 -31T172 -34Q209 -34 241 -29T297 -15Q305 -8 313 15T327 64T333 108Q333 144 306 167T236 205T151 228Q151 234 152 241T157 256T163 269Q169
269 185 268T214 274Q255 295 280 328T318 398T331 469Q319 478 288 486T213 497T119 497L100 393Q98 390 91 387T72 384Q62 399 49 426T29 488Q53 513 90 530T169 556T247 565Q259 565 279 559T323 541T366 518T400 493T413 472Q413 429 392 384T338 302T268 250V246Q307
235 340 219T395 178T416 118Q416 100 409 75T391 23T369 -23T347 -50Q332 -62 300 -74T228 -96T151 -105Z" />
<glyph unicode="4" horiz-adv-x="551" d="M330 -105Q327 -105 321 -102T308 -94Q314 -79 319 -50T325 9V56H76Q63 64 48 81T28 124L304 546Q313 549 326 552T356 560T388 565L407 551Q406 543 405 528T402 493T400 449T399 400V118L504 122L513 106Q513 98 510
88T503 70T496 57H399V-86Q392 -90 380 -94T355 -102T330 -105ZM95 116H322V387Q322 413 326 438T334 475L328 477L95 116Z" />
<glyph unicode="5" horiz-adv-x="459" d="M138 -105Q124 -105 98 -96T49 -73T16 -50Q20 -36 24 -30T33 -22Q65 -28 97 -31T158 -34Q196 -34 227 -29T279 -14Q285 -10 292 5T305 44T316 94T320 150Q320 164 302 178T256 206T193 234T127 260Q108 267 90 274T60
288T45 297Q46 337 54 380T74 463T101 532Q122 537 158 540T237 548T318 558T384 570L404 560Q404 545 400 530T388 500T374 476Q320 482 261 484T155 485Q147 465 140 438T127 381T120 328L183 309Q252 288 300 268T374 221T400 152Q400 106 388 64T358 -7T326
-49Q310 -61 280 -74T212 -96T138 -105Z" />
<glyph unicode="6" horiz-adv-x="525" d="M261 0Q233 0 206 11T155 40T115 72T93 95Q77 124 71 169T65 267Q65 344 76 404T105 507T140 578T173 616Q183 624 204 633T250 651T298 665T335 670Q350 670 375 662T424 641T457 619Q454 608 451 602T443 591Q415 596
388 597T334 599Q317 599 293 597T246 592T210 583Q199 571 179 513T145 355Q162 365 189 376T247 397T301 406Q323 406 348 396T395 371T434 342T454 321Q463 300 467 271T471 216Q471 181 466 153T452 104Q438 85 410 61T344 18T261 0ZM297 66Q308 66 323 69T355
80T381 97Q387 110 390 138T394 197Q394 221 391 247T382 288Q368 303 346 314T301 331T265 337Q251 337 227 333T181 324T146 315Q144 305 143 291T142 252Q142 226 144 201T150 157T159 133Q177 112 201 97T251 74T297 66Z" />
<glyph unicode="7" horiz-adv-x="523" d="M208 -104Q197 -102 185 -96T160 -83T138 -67T124 -51Q124 -29 138 8T175 91T227 187T284 285T340 375T384 445T409 485H145L126 392Q124 390 117 388T97 385Q88 398 79 416T63 452T55 484Q63 497 78 513T110 543T141
563Q146 563 170 562T227 557T295 551T356 546T394 544Q399 544 416 548T450 557T469 561Q477 559 485 546T493 516L381 328Q346 270 318 218T269 119T237 35T225 -34Q225 -45 227 -57T231 -80Q228 -87 220 -94T208 -104Z" />
<glyph unicode="8" horiz-adv-x="536" d="M253 0Q228 0 199 10T144 35T98 66T72 91Q68 102 66 124T63 165Q63 189 66 213T76 254Q83 270 103 287T148 320T190 343Q162 355 137 366T100 388Q92 403 87 432T82 493Q82 521 86 544T98 584Q121 605 154 625T224 657T298
670Q319 670 348 661T402 638T435 614Q443 599 447 573T451 519Q451 499 449 477T442 442Q429 417 400 396T343 358Q369 349 392 339T433 320T457 301Q466 285 469 262T473 212Q473 183 470 155T460 106Q438 76 403 52T328 14T253 0ZM276 64Q296 64 318 69T360
83T387 99Q392 111 395 132T399 180Q399 209 396 230T387 264Q374 270 355 278T307 296T242 320Q224 312 198 296T150 256Q144 244 141 224T138 181Q138 169 139 154T142 129Q157 110 184 95T237 72T276 64ZM290 376Q304 383 327 395T367 427Q373 442 376 463T379
507Q379 522 377 542T370 575Q360 585 341 592T300 604T261 608Q248 608 230 606T195 598T164 586Q160 572 158 556T156 520Q156 487 160 459T171 418Q182 414 188 411T203 405T233 396T290 376Z" />
<glyph unicode="9" horiz-adv-x="525" d="M201 -105Q186 -105 160 -96T111 -75T79 -54Q81 -41 85 -35T93 -26Q119 -30 147 -32T202 -34Q220 -34 241 -32T282 -25T314 -17Q323 -9 337 21T365 100T383 212Q367 203 339 191T280 169T225 159Q203 159 178 169T131
195T93 223T73 244Q64 265 60 293T56 349Q56 383 60 412T73 461Q88 482 116 506T183 547T265 565Q294 565 321 555T372 529T412 499T435 477Q450 449 456 401T463 285Q463 226 453 172T428 72T395 -3T363 -46Q348 -58 319 -72T257 -95T201 -105ZM260 228Q276 228
300 233T348 245T384 256Q385 264 386 276T387 307Q387 333 385 360T378 407T368 434Q350 455 325 469T275 492T228 500Q217 500 201 496T170 486T144 469Q140 461 137 445T131 410T129 368Q129 342 133 317T144 278Q157 263 179 252T224 235T260 228Z" />
<glyph unicode=":" horiz-adv-x="224" d="M105 -6Q98 -6 88 3T67 24T50 49T43 69Q43 77 52 86T75 105T102 121T122 127Q130 127 140 118T159 97T175 71T182 50Q182 44 174 34T153 15T127 0T105 -6ZM105 382Q98 382 88 391T67 412T50 437T43 457Q43 465 52 474T75
493T102 509T122 515Q130 515 140 506T159 485T175 459T182 438Q182 432 174 422T153 403T127 388T105 382Z" />
<glyph unicode=";" horiz-adv-x="221" d="M69 -122Q59 -122 50 -117T35 -105T27 -92Q39 -85 55 -69T86 -32T104 4Q92 8 79 20T58 47T49 70Q49 77 57 86T77 103T100 116T119 121Q126 121 135 114T152 95T166 72T172 52Q172 39 164 18T144 -28T117 -73T90 -108T69
-122ZM102 382Q95 382 85 391T64 412T47 437T40 457Q40 465 49 474T72 493T99 509T119 515Q127 515 137 506T156 485T172 459T179 438Q179 432 171 422T150 403T124 388T102 382Z" />
<glyph unicode="&lt;" horiz-adv-x="407" d="M335 52Q284 82 228 117T124 185T45 243T15 278Q15 287 45 311T123 368T227 436T335 503Q342 500 350 493T361 472L108 281V274L361 80Q356 69 350 62T335 52Z" />
<glyph unicode="=" horiz-adv-x="516" d="M53 332Q53 353 57 364T66 377Q125 377 194 378T332 383T456 389L465 380Q464 361 460 349T453 332H53ZM53 428Q53 449 57 460T66 473Q125 473 194 474T332 479T456 485L465 476Q464 457 460 445T453 428H53Z" />
<glyph unicode="&gt;" horiz-adv-x="407" d="M72 52Q65 55 57 62T46 83L299 275V282L46 475Q51 487 57 493T72 504Q123 474 179 439T283 370T362 312T392 278Q392 268 362 244T284 187T180 120T72 52Z" />
<glyph unicode="?" horiz-adv-x="518" d="M222 212Q210 235 201 266T186 332T181 395Q195 408 221 422T276 449T330 473T366 489Q371 509 374 541T377 608Q377 632 376 652T370 689Q357 694 338 698T298 706T262 709Q242 709 220 707T179 700T144 690L129 565Q123
561 109 558T84 554Q80 569 75 598T65 661T61 719Q83 733 117 746T189 768T261 778Q288 778 322 768T391 744T449 713Q454 694 456 666T459 606Q459 567 455 530T443 469Q433 451 405 434T345 403T288 377T258 361Q256 353 256 340T255 315Q255 295 257 271T261
230Q256 226 246 220T222 212ZM241 -6Q234 -6 224 3T204 24T186 49T179 69Q179 77 188 86T211 105T238 121T259 127Q267 127 277 118T296 97T312 72T318 51Q318 44 310 34T289 15T264 0T241 -6Z" />
<glyph unicode="@" horiz-adv-x="978" d="M479 -200Q437 -200 394 -189T309 -161T234 -124T176 -86T142 -57Q125 -38 112 -8T91 60T78 136T74 213Q74 274 81 331T102 437T131 516Q166 548 217 581T329 642T450 687T565 704Q597 704 634 695T708 672T779 640T837
606T870 574Q895 537 906 487T918 385Q918 328 907 267T876 151T825 56Q816 47 794 34T746 11T699 0Q682 0 663 10T629 34T608 59Q591 47 569 33T521 10T470 0Q449 0 426 10T380 34T343 62T321 84Q313 94 308 117T299 169T296 225Q296 283 302 336T317 420Q331
429 354 442T405 469T461 491T515 500Q528 500 551 494T601 479T653 460T693 443L698 429Q690 420 685 408T676 374T673 318V70Q684 65 705 59T744 52Q768 69 788 100T823 172T846 256T854 340Q854 412 843 462T813 541Q800 554 771 571T704 606T624 634T545 646Q513
646 466 634T368 600T269 553T188 496Q165 437 155 369T145 227Q145 183 150 137T167 50T194 -16Q210 -32 244 -54T321 -97T409 -132T493 -146Q513 -146 539 -142T590 -131T632 -120Q636 -123 639 -129T644 -144Q622 -161 591 -173T529 -193T479 -200ZM482 64Q496
64 519 71T565 87T600 103V403Q584 410 562 418T518 431T484 437Q473 437 454 433T416 423T387 410Q383 397 380 373T374 320T372 268Q372 234 375 193T387 125Q395 115 412 101T450 75T482 64Z" />
<glyph unicode="A" horiz-adv-x="710" d="M202 0Q197 0 181 2T142 7T95 13T50 21T16 29Q16 37 19 44T27 55H34Q46 55 58 64T83 94T108 145T132 221L249 655Q257 663 273 674T309 695T345 713T372 720Q385 720 404 712T443 691T475 666L609 82Q612 71 615 65T634
57L690 53Q692 50 694 48T698 32Q691 25 680 18T655 6T630 0Q622 0 603 2T558 9T509 17T466 26T438 34Q438 41 442 48T448 58H476Q493 58 503 60T515 73T512 111L473 287H219L180 138Q174 116 166 101T149 76T130 63L263 53Q265 51 267 46T270 31Q261 23 249 16T225
4T202 0ZM232 336Q276 337 320 338T402 342T459 348L398 624Q376 639 356 648T315 661L232 336Z" />
<glyph unicode="B" horiz-adv-x="655" d="M433 0Q409 0 372 2T291 7T201 14T117 22T53 30Q53 38 56 44T62 54L88 58Q106 60 115 68T129 95T133 148V578Q133 607 138 628T150 655H63Q60 658 57 663T53 675Q58 681 69 687T93 699T110 704H430Q450 699 473 688T517
664T550 636Q559 618 562 596T566 550Q566 520 562 488T549 431T528 393Q515 385 493 377T446 364L445 360Q490 354 525 341T576 316Q586 296 589 270T593 218Q593 195 590 170T582 121T568 79Q558 65 535 48T484 17T433 0ZM207 63H461Q475 76 483 99T496 149T500
203Q500 225 497 247T489 285Q474 297 451 309T394 330T317 339H222V127Q222 104 217 87T207 63ZM222 390Q270 391 308 392T380 395T446 401Q463 424 471 458T479 527Q479 560 472 590T448 639Q429 645 402 649T345 655T291 657Q254 657 238 636T222 581V390Z"
/>
<glyph unicode="C" horiz-adv-x="642" d="M346 0Q318 0 283 10T214 35T153 68T114 99Q91 129 78 190T65 325Q65 386 71 443T86 547T106 617Q127 634 160 652T232 685T310 710T383 720Q419 720 457 711T528 687T582 657Q579 601 572 557T559 491Q538 493 526 496T508
501L490 623Q476 631 453 638T406 650T366 655Q344 655 312 648T248 631T195 608Q183 580 175 539T163 450T159 358Q159 314 163 272T175 195T193 140Q203 129 224 116T271 92T323 74T370 67Q388 67 410 69T452 76T484 86L531 231Q547 231 560 227T581 218Q580
195 578 168T573 114T566 63Q547 50 514 36T438 11T346 0Z" />
<glyph unicode="D" horiz-adv-x="720" d="M455 0Q429 0 388 2T298 7T203 14T116 22T53 30Q53 38 56 44T62 54L88 58Q106 60 115 68T129 95T133 148V578Q133 603 136 619T143 644T150 655H63Q59 658 56 664T53 675Q58 681 69 687T93 699T110 704H475Q491 700 509
693T546 675T581 654T607 632Q636 580 646 514T656 383Q656 321 649 265T629 163T600 87Q587 74 569 60T531 34T491 13T455 0ZM207 63H486Q506 79 520 110T543 181T557 267T562 357Q562 405 559 448T547 529T525 594T491 639Q473 644 438 647T360 654T279 657Q245
657 234 637T222 580V127Q222 104 217 87T207 63Z" />
<glyph unicode="E" horiz-adv-x="635" d="M489 0Q467 0 433 1T356 5T270 10T184 16T108 23T53 31Q53 38 56 44T62 54L88 58Q106 60 115 68T129 95T133 148V578Q133 603 136 619T143 644T150 655H63Q60 658 57 663T53 675Q58 681 69 687T93 699T110 704H487Q512
696 534 683T570 656Q567 600 559 557T543 492Q527 492 515 495T497 501L474 642Q454 645 423 648T355 654T281 657Q255 657 243 646T226 618T222 580V391Q267 392 305 393T377 397T438 402L447 393Q445 374 442 358T436 335H222V127Q222 104 217 87T207 63H478L530
224Q545 224 558 219T575 210Q575 187 574 158T570 99T564 42Q556 34 542 25T513 8T489 0Z" />
<glyph unicode="F" horiz-adv-x="593" d="M232 0Q225 0 208 2T168 7T122 15T81 23T53 30Q53 38 56 44T62 54L88 57Q104 60 114 66T128 92T133 149V578Q133 603 136 619T143 644T150 655H63Q59 658 56 664T53 675Q58 681 69 687T93 699T110 704H479Q502 696 525
683T562 656Q558 601 550 557T535 492Q520 492 507 495T488 501L465 642Q435 647 384 652T281 657Q243 657 233 635T222 580V381Q268 382 306 383T379 387T442 392L451 383Q449 362 446 347T439 325H222V126Q222 103 217 86T206 62L301 52Q304 50 306 44T308 30Q295
19 273 10T232 0Z" />
<glyph unicode="G" horiz-adv-x="692" d="M347 0Q319 0 284 10T215 35T154 67T114 99Q90 131 78 193T65 325Q65 386 71 443T86 547T106 617Q127 633 160 651T232 685T310 710T383 720Q418 720 455 711T527 688T583 657Q580 604 573 560T560 491Q539 493 528 495T510
501L490 623Q478 630 456 637T409 650T367 655Q345 655 312 648T247 630T195 607Q186 586 179 558T168 496T161 427T159 358Q159 314 163 272T175 195T193 140Q204 128 225 116T272 92T324 74T368 67Q393 67 420 70T471 80T512 92V197Q512 233 516 259T524 297H372Q372
315 376 331T386 355Q422 355 461 356T538 360T604 366L613 356Q609 332 603 275T597 147V63Q583 54 556 43T494 22T422 6T347 0Z" />
<glyph unicode="H" horiz-adv-x="771" d="M232 0Q225 0 208 2T168 7T122 15T81 23T53 31Q53 38 56 44T62 54L88 57Q104 60 114 66T128 91T133 149V578Q133 615 139 632T150 655H63Q61 659 58 662T53 675Q58 681 69 687T93 699T110 704H296Q300 700 304 692T308
672L268 659Q250 653 240 643T226 617T222 572V393Q261 393 305 394T394 396T476 399T543 402V578Q543 610 549 630T560 655H473Q470 658 467 663T463 675Q468 681 479 687T503 699T520 704H706Q710 700 714 692T719 672L678 659Q660 653 650 644T636 618T632 572V126Q632
103 627 86T616 62L711 52Q712 51 714 46T717 31Q703 18 681 9T642 0Q635 0 617 2T577 8T531 16T490 24T463 31Q463 38 466 44T472 54L498 57Q515 60 525 67T539 93T543 149V338H222V126Q222 103 217 86T206 62L300 52Q302 50 304 44T307 31Q292 18 270 9T232 0Z"
/>
<glyph unicode="I" horiz-adv-x="360" d="M232 0Q225 0 208 2T168 7T122 15T81 23T53 31Q53 38 56 44T62 54L88 57Q106 60 115 68T129 95T133 148V580Q133 620 140 636T150 655H63Q61 659 58 662T53 675Q58 681 69 687T93 699T110 704H296Q300 700 304 692T308
672L268 659Q250 653 240 643T226 617T222 572V126Q222 103 217 86T206 62L300 52Q302 50 304 44T307 31Q292 18 270 9T232 0Z" />
<glyph unicode="J" horiz-adv-x="355" d="M59 -200Q40 -200 12 -192T-33 -173Q-33 -165 -31 -158T-26 -148Q26 -133 67 -108T133 -59V578Q133 610 138 630T150 655H52Q48 658 45 664T42 675Q47 681 58 687T81 699T99 704H295Q298 701 302 692T307 672L267 659Q250
653 240 644T225 619T220 572V-28Q215 -51 196 -80T150 -137T99 -182T59 -200Z" />
<glyph unicode="K" horiz-adv-x="669" d="M232 0Q225 0 208 2T168 7T122 15T81 23T53 30Q53 38 56 44T62 54L88 57Q104 60 114 66T128 92T133 149V578Q133 614 139 632T150 655H63Q59 658 56 664T53 675Q58 681 69 687T93 699T110 704H296Q300 700 304 692T308
672L268 659Q250 653 240 643T226 617T222 572V392L332 393Q339 409 351 439T380 506T417 581T458 651T503 704H646Q650 701 654 693T658 672L615 660Q584 651 556 626T503 567T459 497T425 428T401 374L510 179Q531 144 547 118T583 77T633 61L652 60Q655 57 658
51T661 34Q650 24 633 16T598 4T564 0Q549 0 534 5T505 22T476 54T446 105L354 293Q342 317 330 328T287 339H222V126Q222 103 217 86T206 62L300 52Q302 50 304 43T307 30Q291 17 270 9T232 0Z" />
<glyph unicode="L" horiz-adv-x="573" d="M451 0Q425 0 385 2T298 7T204 14T118 22T53 30Q53 38 56 44T62 54L88 58Q106 60 115 68T129 95T133 148V578Q133 603 136 619T143 644T150 655H63Q59 658 56 664T53 675Q58 681 69 687T93 699T110 704H296Q300 700 304
692T308 672L268 659Q250 653 240 643T226 617T222 572V127Q222 104 217 87T207 63H441L492 226Q510 226 521 221T538 212Q538 187 537 157T533 97T527 42Q519 35 505 25T475 8T451 0Z" />
<glyph unicode="M" horiz-adv-x="953" d="M213 0Q206 0 184 3T134 11T82 21T47 30Q47 38 50 44T56 54L80 57Q98 61 108 69T124 97T130 152L153 579Q155 611 161 631T172 655H80Q77 659 74 663T70 675Q75 681 86 687T109 699T127 704H276L472 201Q484 227 502 270T542
368T586 482T629 598T664 704H873Q877 699 881 691T885 672L845 659Q829 654 817 647T800 624T795 578L818 138Q820 108 815 88T804 62L899 52Q902 48 904 43T906 30Q893 19 871 10T831 0Q823 0 805 2T763 7T717 15T674 23T646 30Q646 37 649 44T654 54L687 57Q705
60 715 67T729 97T730 169L710 533Q709 569 711 595T716 632L709 634L499 108Q492 102 473 93T428 84L250 535Q239 565 233 589T226 628H220Q219 622 216 606T211 559L191 130Q190 100 184 84T174 65L287 52Q289 51 291 44T294 30Q284 21 269 15T240 4T213 0Z"
/>
<glyph unicode="N" horiz-adv-x="770" d="M219 0Q211 0 190 3T141 11T90 21T53 30Q53 38 56 44T62 54L88 57Q107 60 116 69T129 98T133 153V578Q133 612 138 631T150 655H63Q60 658 57 662T53 675Q58 681 69 687T93 699T110 704H236L594 137Q590 155 588 183T586
258V576Q586 609 592 628T603 653H514Q512 656 509 660T504 673Q509 679 520 686T544 698T561 704H720Q725 699 728 691T733 672L692 659Q673 653 664 643T651 616T647 567V167Q647 119 650 80T657 24Q648 16 633 11T603 4T575 0L247 522Q225 559 215 584T203 617H198Q197
612 196 598T194 555V127Q194 104 189 88T179 65L293 52Q295 50 297 44T300 30Q289 21 275 15T245 4T219 0Z" />
<glyph unicode="O" horiz-adv-x="718" d="M344 0Q316 0 282 10T213 35T153 68T113 100Q88 136 77 198T65 328Q65 385 71 441T86 543T107 617Q128 633 160 651T231 685T311 710T392 720Q416 720 448 711T514 688T574 657T614 624Q628 598 636 562T649 486T653 402Q653
343 647 286T631 181T608 102Q585 81 544 57T452 17T344 0ZM366 64Q393 64 424 73T482 94T521 115Q532 142 540 183T553 273T557 374Q557 437 551 492T533 584Q527 592 508 604T464 627T413 646T365 654Q341 654 309 647T245 630T194 608Q182 581 174 541T162 455T158
363Q158 298 166 237T193 139Q203 128 224 115T271 91T322 72T366 64Z" />
<glyph unicode="P" horiz-adv-x="606" d="M232 0Q225 0 208 2T168 7T122 15T81 23T53 30Q53 38 56 44T62 54L88 57Q104 60 114 66T128 92T133 149V578Q133 603 136 619T143 644T150 655H63Q59 658 56 664T53 675Q58 681 69 687T93 699T110 704H426Q447 699 470
688T515 664T548 637Q558 619 562 592T566 536Q566 502 561 467T547 404T524 362Q511 350 490 336T443 312T390 299H222V126Q222 103 217 86T206 62L301 52Q304 50 306 44T308 30Q295 19 273 10T232 0ZM222 354Q295 354 348 356T440 363Q452 379 460 403T471 457T475
515Q475 556 468 589T444 640Q426 646 398 649T340 655T286 657Q262 657 248 648T228 621T222 581V354Z" />
<glyph unicode="Q" horiz-adv-x="718" d="M512 -200Q497 -200 469 -191T406 -167T338 -134T280 -99T246 -67Q250 -47 263 -24T290 18L339 12L322 -44Q335 -55 363 -70T427 -99T499 -122T566 -132H608Q612 -135 614 -142T616 -159Q606 -170 587 -179T547 -194T512
-200ZM344 0Q316 0 282 10T213 35T153 68T113 100Q88 136 77 198T65 328Q65 385 71 441T86 543T107 617Q128 633 160 651T231 685T311 710T392 720Q416 720 448 711T514 688T574 657T614 624Q628 598 636 562T649 486T653 402Q653 343 647 286T631 181T608 102Q585
81 544 57T452 17T344 0ZM366 64Q393 64 424 73T482 94T521 115Q532 142 540 183T553 273T557 374Q557 437 551 492T533 584Q527 592 508 604T464 627T413 646T365 654Q341 654 309 647T245 630T194 608Q182 581 174 541T162 455T158 363Q158 298 166 237T193 139Q203
128 224 115T271 91T322 72T366 64Z" />
<glyph unicode="R" horiz-adv-x="665" d="M232 0Q225 0 208 2T168 7T122 15T81 23T53 30Q53 38 56 44T62 54L88 57Q106 60 115 68T129 95T133 148V578Q133 603 136 619T143 644T150 655H63Q59 658 56 664T53 675Q58 681 69 687T93 699T110 704H440Q462 699 484
689T526 666T560 639Q569 621 573 596T578 545Q578 511 573 479T558 422T536 384Q525 375 505 365T461 346T416 332V328Q428 319 435 309T454 280L515 168Q531 138 546 115T580 77T628 61H649Q651 57 654 51T658 34Q645 23 629 16T595 4T563 0Q522 0 494 28T442
104L361 279Q351 300 340 310T308 321H222V126Q222 103 217 86T206 62L301 52Q304 50 306 44T308 30Q295 19 273 10T232 0ZM222 374Q268 374 310 375T388 379T452 384Q470 409 478 449T487 528Q487 563 480 592T457 640Q437 646 407 649T345 655T291 657Q254 657
238 636T222 581V374Z" />
<glyph unicode="S" horiz-adv-x="605" d="M280 0Q258 0 229 7T168 25T111 49T69 75Q70 106 74 139T84 202T95 250Q110 250 124 247T143 242L166 105Q184 96 209 88T262 74T308 69Q326 69 349 74T396 87T433 103Q441 121 446 149T452 206Q452 222 451 241T445 274Q417
285 374 298T284 327T193 358T120 389T84 419Q81 430 79 446T77 480Q77 524 84 568T102 638Q120 652 147 666T205 693T266 712T321 720Q356 720 393 712T464 689T519 659Q518 638 515 614T508 567T500 525T492 494Q476 494 463 498T443 505L423 631Q406 637 387
642T346 651T300 654Q283 654 263 651T224 643T188 631Q178 609 174 575T169 511Q169 496 170 482T172 461Q196 450 238 437T330 408T425 377T501 345T536 314Q540 300 541 281T543 239Q543 192 537 157T519 89Q507 78 482 63T422 34T351 10T280 0Z" />
<glyph unicode="T" horiz-adv-x="631" d="M368 0Q362 0 344 2T303 8T257 15T215 23T188 30Q188 37 191 44T196 54L224 57Q243 60 253 68T266 96T270 148V595Q270 619 274 633T282 653H116L96 495Q90 492 77 489T47 486Q43 500 38 526T28 587T20 656Q34 670 57
684T102 704H529Q553 697 576 683T611 656Q607 600 599 555T583 486Q568 486 555 489T536 495L517 647Q499 650 471 653T407 655Q383 655 373 646T361 624T359 594V126Q359 103 354 86T343 62L439 52Q441 51 443 44T445 30Q431 19 409 10T368 0Z" />
<glyph unicode="U" horiz-adv-x="737" d="M367 0Q334 0 294 12T217 42T155 78T127 108V578Q127 614 133 632T144 655H57Q54 658 51 662T46 675Q51 681 62 687T86 699T103 704H289Q294 700 298 692T303 672L262 659Q243 653 233 643T220 616T216 572V135Q226 123
247 111T295 88T345 72T387 65Q415 65 449 74T511 96T551 121V578Q551 611 557 630T568 655H483Q480 658 477 663T473 675Q478 681 489 688T513 699T530 704H687Q691 700 695 692T699 672L658 659Q640 654 631 644T618 616T614 567V106Q603 91 579 73T522 39T450
11T367 0Z" />
<glyph unicode="V" horiz-adv-x="756" d="M385 0Q375 0 359 5T324 19T291 38T267 59L118 626Q114 639 106 647T81 655H35Q32 658 29 663T24 675Q29 681 40 688T63 699T81 704H295Q299 700 303 691T307 672L261 661Q248 658 236 652T218 633T220 589L345 97Q354
88 368 81T399 69T429 64L548 528Q564 589 580 619T606 655H490Q486 659 483 663T479 675Q486 682 498 688T523 699T540 704H732Q736 701 740 692T744 672L719 663Q698 656 682 646T653 614T625 551T591 438L493 63Q484 53 470 42T441 22T411 6T385 0Z" />
<glyph unicode="W" horiz-adv-x="1120" d="M385 0Q376 0 359 5T324 20T291 39T267 59L117 627Q114 639 106 647T80 655H35Q32 658 29 663T24 675Q29 680 40 687T63 699T81 704H291Q295 700 299 692T304 672L261 661Q244 657 232 650T217 629T219 589L345 97Q355
88 369 81T400 69T430 65L539 481L501 624Q498 640 490 647T461 655H416Q413 659 410 664T406 675Q412 681 423 688T446 699T464 704H676Q679 701 683 692T688 672L638 661Q621 657 610 651T595 632T599 589L716 97Q724 89 737 82T766 70T797 65L910 528Q921 572
933 598T954 638T968 655H816Q815 657 812 661T806 675Q813 682 825 688T850 699T867 704H1095Q1100 700 1104 692T1108 672L1081 663Q1061 656 1045 645T1015 612T986 548T954 438L861 63Q852 53 839 42T810 22T780 7T754 0Q744 0 728 5T694 20T661 39T637 59L570
357H566L491 63Q483 53 469 42T440 22T411 7T385 0Z" />
<glyph unicode="X" horiz-adv-x="716" d="M201 0Q190 0 167 3T116 10T62 20T20 31Q20 39 23 46T30 55Q56 56 79 72T124 114T165 169L302 373L141 625Q131 641 122 648T92 655H57Q56 657 53 662T47 675Q52 681 63 687T88 699T107 704H317Q322 700 326 692T330 672L283
660Q267 656 255 649T243 629Q243 623 245 615T256 594L363 428Q390 474 416 516T466 595T513 660T555 704H674Q678 699 681 691T685 673L647 661Q620 653 596 635T547 590T500 529T452 455T402 372L550 145Q563 127 576 107T608 73T652 56L689 52Q691 50 693 44T696
31Q689 24 675 17T647 5T623 0Q615 0 597 2T556 8T509 16T467 24T440 30Q440 39 443 45T449 55H472Q481 55 487 59T493 71Q493 76 491 83T481 100L341 316L203 108Q193 95 184 83T166 63L280 52Q283 50 285 44T288 30Q278 22 261 15T228 4T201 0Z" />
<glyph unicode="Y" horiz-adv-x="649" d="M385 0Q378 0 360 2T320 8T274 15T233 23T205 30Q205 38 208 44T214 54L241 57Q258 60 267 67T281 92T286 149V290L103 627Q95 643 85 649T54 655H24Q22 657 19 662T14 675Q19 681 30 688T54 699T72 704H282Q287 699 291
691T295 672L248 660Q232 656 220 651T207 629Q207 624 210 615T219 594L338 365H342Q378 457 402 517T445 615T477 672T508 704H637Q641 699 644 691T648 673L615 664Q593 659 575 649T538 616T497 554T445 451T375 293V126Q375 103 370 86T360 62L454 52Q456
49 458 44T460 30Q445 18 424 9T385 0Z" />
<glyph unicode="Z" horiz-adv-x="622" d="M96 0Q89 0 77 9T57 34T47 63Q81 99 122 153T211 275T311 419Q346 471 382 526T454 637L163 646L139 500Q133 497 121 494T91 491Q86 512 80 541T69 602T63 662Q70 672 84 681T113 698T140 710T158 715Q165 715 194 713T264
708T343 702T411 696T444 694Q452 694 465 697T491 705T514 714Q529 705 545 687T566 643L193 94L475 71L522 227Q538 227 551 223T570 213Q570 187 569 156T565 95T559 43Q550 36 539 28T516 14T493 4T475 0Q461 0 428 4T351 13T266 24T192 34T150 40Q139 29 129
20T110 6T96 0Z" />
<glyph unicode="[" horiz-adv-x="383" d="M196 -165Q184 -165 168 -155T136 -129T108 -99V722Q120 738 136 755T168 784T196 797Q218 797 245 794T300 787T346 779Q348 776 351 768T354 750L185 732Q181 643 178 561T173 398T171 230Q171 160 173 76T178 -99L356
-118Q356 -129 353 -137T346 -148Q325 -152 299 -156T245 -162T196 -165Z" />
<glyph unicode="\" horiz-adv-x="464" d="M364 -88L46 723Q51 730 66 738T104 748Q113 720 133 662T189 513L418 -76Q412 -79 397 -83T364 -88Z" />
<glyph unicode="]" horiz-adv-x="383" d="M187 -165Q166 -165 139 -163T85 -156T37 -148Q34 -145 31 -137T27 -118L205 -99Q208 -9 210 75T212 230Q212 316 211 397T206 561T198 732L29 750Q29 760 32 768T37 779Q57 783 83 787T137 794T187 797Q199 797 215 785T247
755T275 722V-99Q263 -113 247 -128T215 -154T187 -165Z" />
<glyph unicode="^" horiz-adv-x="606" d="M48 384Q38 387 29 395T16 411Q48 448 84 488T157 565T224 632T277 680T307 698Q315 698 336 681T388 633T453 566T524 488T591 411Q588 403 580 396T562 384L308 603H301L48 384Z" />
<glyph unicode="_" horiz-adv-x="625" d="M47 -56Q47 -39 50 -27T59 -11Q141 -11 219 -10T366 -7T487 -3T568 3L578 -5Q578 -22 574 -36T567 -56H47Z" />
<glyph unicode="`" horiz-adv-x="203" d="M175 565L0 693Q5 706 14 718T35 738T53 747Q62 747 84 727T138 671T203 586Q200 581 192 575T175 565Z" />
<glyph unicode="a" horiz-adv-x="533" d="M196 -4Q179 -4 154 7T107 32T78 56Q70 66 65 93T60 152Q60 164 60 174T62 195Q63 200 73 210T99 232T129 253T156 264Q165 266 182 267T222 269Q236 270 252 271T284 274T316 278T346 283V406Q316 420 281 427T216 435Q204
435 193 434T171 431L147 345Q143 344 135 341T112 336Q103 349 91 372T74 425Q94 443 119 457T173 480T228 495T279 500Q294 500 318 492T368 470T409 443T426 418V61L497 53Q499 51 501 45T504 31Q498 24 484 17T456 5T430 0Q415 0 399 7T370 26T352 53Q326 40
296 27T239 5T196 -4ZM224 62Q236 62 259 68T307 83T346 100V230Q320 225 295 223T241 218Q210 215 182 211T141 198Q140 176 140 148T150 99Q161 87 183 75T224 62Z" />
<glyph unicode="b" horiz-adv-x="564" d="M283 0Q261 0 230 9T169 33T119 61T99 83V707Q99 715 96 721T82 731L16 751Q18 760 20 767T25 777Q35 782 53 787T90 796T118 800Q145 800 162 782T179 736V441Q197 451 216 461T255 481T293 495T328 500Q345 500 368
493T416 473T459 449T485 427Q494 413 498 388T505 333T507 278Q507 222 499 169T481 84Q469 72 448 58T399 31T342 9T283 0ZM298 65Q312 65 335 71T380 85T409 97Q417 117 421 155T425 230Q425 264 423 295T418 350T410 381Q405 388 386 400T343 422T303 432Q293
432 270 425T222 407T179 389V109Q196 100 218 90T261 72T298 65Z" />
<glyph unicode="c" horiz-adv-x="449" d="M260 0Q233 0 205 9T152 32T110 58T87 78Q73 98 65 137T57 222Q57 263 60 301T70 370T83 421Q98 431 122 444T176 470T237 491T296 500Q311 500 331 492T372 471T408 446T427 426Q427 414 421 396T406 361T389 336Q379
336 371 339T355 345Q350 361 342 382T324 419T303 435Q270 435 240 428T188 413T154 399Q151 389 147 370T141 325T138 272Q138 242 141 211T148 156T157 123Q162 118 176 109T207 89T242 73T272 66Q288 66 315 70T368 80T402 88Q405 85 409 79T413 64Q393 48
369 34T317 10T260 0Z" />
<glyph unicode="d" horiz-adv-x="564" d="M256 0Q232 0 205 9T154 32T113 57T88 78Q72 98 65 138T57 223Q57 264 60 302T69 370T81 421Q96 430 122 443T179 470T242 491T302 500Q317 500 339 493T384 476V707Q384 714 381 721T367 731L302 751Q303 759 305 766T310
777Q320 782 338 787T375 796T404 800Q430 800 447 782T464 736V61L535 53Q537 51 539 45T542 31Q535 23 522 16T494 5T468 0Q451 0 435 7T408 27T391 52Q373 40 350 28T303 8T256 0ZM277 65Q287 65 305 70T344 84T384 100V399Q369 406 348 414T306 427T269 432Q256
432 233 427T188 414T154 400Q149 389 146 368T140 322T137 273Q137 238 140 207T147 153T157 123Q162 117 176 108T208 89T245 72T277 65Z" />
<glyph unicode="e" horiz-adv-x="467" d="M260 0Q233 0 205 9T151 33T109 59T87 78Q73 98 65 138T57 222Q57 263 60 301T70 370T83 421Q97 430 121 443T176 469T237 491T295 500Q311 500 335 490T380 465T410 439Q417 430 421 407T428 356T430 310Q421 296 407
284T378 261T354 246Q344 243 312 239T235 231T138 227Q140 192 145 163T156 123Q161 118 175 109T208 89T243 73T272 66Q284 66 304 69T345 76T385 84T412 90Q416 87 420 80T424 66Q403 50 377 35T321 10T260 0ZM214 282Q240 282 267 284T318 291T353 301Q354
314 353 333T349 370T343 395Q341 399 327 408T296 424T268 432Q257 432 233 427T186 414T153 399Q148 386 145 367T139 327T137 289Q149 286 170 284T214 282Z" />
<glyph unicode="f" horiz-adv-x="333" d="M202 0Q194 0 173 3T127 11T79 21T44 30Q44 38 47 44T53 52L80 57Q97 59 106 75T115 132V449L45 456Q45 470 48 480T55 494L119 500L68 715Q74 725 96 739T149 768T206 791T246 800Q260 800 276 789T306 763T331 734T341
714Q341 709 337 702T328 686T317 670T305 656Q297 656 288 659T274 666Q269 679 261 694T245 720T230 731Q221 731 205 727T172 718T142 707L193 500H303L314 488Q313 478 309 465T300 446L195 447V115Q195 95 192 80T184 59L266 52Q268 50 270 44T273 31Q267
24 254 17T227 5T202 0Z" />
<glyph unicode="g" horiz-adv-x="505" d="M225 -200Q210 -200 186 -191T136 -168T86 -136T48 -101T33 -69Q33 -54 50 -34T91 6T138 42Q133 48 127 58T121 77Q121 86 132 102T158 134T183 158L212 150L199 89Q207 87 235 84T299 77T371 66T435 52T471 36Q476 23
478 8T481 -22Q481 -53 475 -85T461 -136Q449 -145 425 -156T367 -177T298 -193T225 -200ZM245 -137Q264 -137 294 -133T353 -123T398 -111Q402 -102 404 -82T406 -49Q406 -37 405 -25T399 -7Q397 -5 377 -1T329 7T270 16T218 23T190 27Q175 12 159 -5T131 -37T119
-57Q119 -64 134 -77T170 -104T212 -127T245 -137ZM205 132Q175 144 154 153T118 170T95 184T82 197Q73 211 67 234T60 287Q60 334 68 373T84 434Q94 440 115 451T164 473T219 492T271 500Q284 500 303 495T330 486Q357 491 386 502T441 526T482 547L498 536Q498
519 494 502T486 474Q465 467 438 462T383 455V450Q393 444 403 436T424 414Q431 398 435 376T439 333Q439 293 432 255T414 191Q401 181 369 167T294 143T205 132ZM258 185Q269 185 286 189T320 199T342 208Q350 222 355 250T361 307Q361 339 358 365T349 401Q343
408 326 417T289 434T257 441Q243 441 222 436T182 425T152 412Q146 397 142 373T137 323Q137 300 139 279T146 244T154 224Q159 218 179 209T221 192T258 185Z" />
<glyph unicode="h" horiz-adv-x="599" d="M197 0Q189 0 169 3T123 11T76 21T42 30Q42 38 45 44T51 52L78 57Q95 59 103 75T112 132V707Q112 715 109 721T95 731L27 751Q28 760 31 767T36 777Q46 782 64 787T101 796T129 800Q156 800 174 782T192 736V437Q214 451
241 465T293 490T337 500Q358 500 385 491T438 466T479 434T495 402V115Q495 94 492 80T485 59L565 52Q567 49 569 44T572 31Q566 24 553 17T525 5T501 0Q493 0 473 3T428 11T381 21T348 30Q348 37 350 42T356 52L383 57Q393 59 400 65T411 88T415 132V371Q415
381 404 391T375 411T342 426T316 432Q309 432 292 427T255 414T218 399T192 389V116Q192 95 188 80T181 59L260 52Q262 49 264 44T266 31Q260 24 248 17T221 5T197 0Z" />
<glyph unicode="i" horiz-adv-x="302" d="M202 0Q194 0 173 3T127 11T80 21T45 30Q45 37 48 43T54 52L81 57Q92 59 100 66T112 89T116 132V407Q116 416 113 422T99 431L44 449Q45 459 48 466T54 477Q69 485 95 492T135 500Q162 500 179 482T196 436V115Q196 94
192 80T185 59L266 52Q268 48 270 43T272 31Q267 24 254 17T226 5T202 0ZM136 606Q130 606 120 614T101 633T86 655T80 674Q80 681 88 689T108 706T133 719T152 725Q159 725 168 717T185 698T199 675T205 656Q205 650 198 642T179 625T155 611T136 606Z" />
<glyph unicode="j" horiz-adv-x="288" d="M44 -200Q35 -200 19 -194T-12 -180T-35 -164Q-35 -156 -33 -151T-28 -142Q1 -137 27 -130T74 -115T110 -96V407Q110 416 107 422T93 431L35 449Q36 460 39 467T44 477Q55 482 71 487T103 496T130 500Q156 500 173 482T190
436V-90Q190 -97 179 -110T149 -138T111 -168T73 -191T44 -200ZM136 606Q130 606 120 614T101 633T86 655T80 674Q80 681 88 689T108 706T133 719T152 725Q159 725 168 717T185 698T199 675T205 656Q205 650 198 642T179 625T155 611T136 606Z" />
<glyph unicode="k" horiz-adv-x="576" d="M199 0Q191 0 171 3T126 11T79 21T45 30Q45 36 47 42T54 52L81 57Q98 59 106 75T115 132V707Q115 715 112 722T98 731L35 751Q36 760 39 767T43 777Q54 782 71 787T106 796T135 800Q161 800 178 782T195 736V433Q218 447
248 462T308 489T355 500Q373 500 397 490T445 465T484 433T500 402Q500 383 481 361T436 317T386 279T353 255Q358 251 367 242T390 213L452 120Q465 101 481 84T526 67H553Q555 65 558 60T562 47Q555 35 541 24T510 7T482 0Q460 0 437 17T397 62L319 184Q302
211 289 224T268 242T253 251Q254 260 259 267T267 277L303 281Q312 287 328 299T363 326T395 354T410 376Q410 383 400 392T376 411T349 427T328 434Q311 434 272 420T195 384V116Q195 96 191 81T184 59L265 52Q267 49 269 44T271 31Q266 24 253 17T224 5T199
0Z" />
<glyph unicode="l" horiz-adv-x="289" d="M195 0Q188 0 168 3T122 11T74 21T40 30Q40 38 43 44T49 52L76 57Q93 59 101 75T110 132V707Q110 715 107 721T93 731L27 751Q29 760 31 767T36 777Q46 782 64 787T101 796T129 800Q156 800 173 782T190 736V115Q190 94
186 80T179 59L260 52Q262 49 264 44T266 31Q261 24 248 17T220 5T195 0Z" />
<glyph unicode="m" horiz-adv-x="911" d="M202 0Q195 0 175 3T129 11T81 21T47 30Q47 37 50 43T56 52L83 57Q99 59 108 73T118 132V407Q118 415 115 421T101 431L44 449Q46 461 48 466T54 477Q69 485 95 492T135 500Q163 500 179 483T196 436Q219 450 246 464T299
489T343 500Q365 500 393 490T447 464T489 431Q505 441 527 453T572 475T615 493T649 500Q671 500 698 491T750 466T791 434T808 402V115Q808 93 804 79T797 59L878 52Q880 50 882 45T884 31Q879 24 866 17T838 5T814 0Q806 0 786 3T740 11T692 21T658 30Q658 38
661 43T667 52L694 57Q704 59 712 65T724 88T728 132V371Q728 381 717 391T688 411T655 426T629 432Q620 432 596 424T545 405T503 387V116Q503 94 499 80T492 59L573 52Q575 49 577 44T579 31Q574 24 561 17T533 5T508 0Q500 0 480 3T434 11T387 21T353 30Q353
37 356 43T362 52L389 57Q406 59 414 74T423 132V371Q423 381 411 391T382 411T348 426T322 432Q315 432 299 427T262 414T225 399T198 389V116Q198 96 194 81T186 59L267 52Q269 49 271 44T273 31Q268 24 255 17T227 5T202 0Z" />
<glyph unicode="n" horiz-adv-x="605" d="M202 0Q195 0 175 3T129 11T81 21T47 30Q47 37 50 43T56 52L83 57Q99 59 108 73T118 132V407Q118 415 115 421T101 431L44 449Q46 461 48 466T54 477Q69 485 95 492T135 500Q164 500 180 483T196 436Q219 450 245 464T298
489T343 500Q365 500 392 491T444 466T485 434T501 402V115Q501 94 498 80T490 59L571 52Q574 48 576 43T578 31Q572 24 559 17T532 5T507 0Q499 0 479 3T434 11T387 21T354 30Q354 38 357 43T363 52L388 56Q399 58 406 64T417 87T421 132V371Q421 381 410 391T381
411T348 426T322 432Q315 432 299 427T262 414T225 399T198 389V116Q198 96 194 81T186 59L266 52Q268 48 270 43T272 31Q267 23 254 16T226 5T202 0Z" />
<glyph unicode="o" horiz-adv-x="534" d="M258 0Q233 0 206 9T155 32T112 58T87 79Q72 98 65 138T57 223Q57 264 60 301T70 369T83 421Q98 430 123 443T178 470T239 491T298 500Q316 500 339 492T387 472T430 448T456 425Q464 412 469 387T476 332T478 278Q478
221 470 168T452 81Q439 71 419 57T372 30T317 9T258 0ZM272 65Q286 65 309 72T352 87T380 100Q388 120 392 157T396 229Q396 261 394 293T389 349T381 382Q376 388 356 400T312 422T269 432Q256 432 233 427T187 414T153 400Q148 389 145 368T139 322T137 274Q137
239 140 208T147 154T156 123Q161 118 174 108T205 89T241 72T272 65Z" />
<glyph unicode="p" horiz-adv-x="569" d="M192 -200Q184 -200 163 -197T117 -189T69 -179T34 -170Q34 -162 37 -157T43 -148L70 -143Q86 -141 95 -127T105 -68V407Q105 416 102 422T89 431L34 449Q36 461 38 466T43 477Q59 485 85 492T125 500Q152 500 167 484T184
440Q202 450 221 460T261 480T300 494T334 500Q351 500 374 493T422 473T465 448T492 426Q500 412 505 386T512 331T514 278Q514 222 506 169T488 81Q475 70 454 57T406 30T350 9T292 0Q267 0 238 12T185 38V-85Q185 -106 182 -120T174 -141L256 -148Q258 -150
260 -155T263 -169Q257 -176 244 -183T216 -195T192 -200ZM304 65Q318 65 341 72T387 87T416 100Q424 120 428 158T432 231Q432 264 430 294T425 348T417 381Q412 388 393 400T350 422T309 432Q300 432 278 425T230 407T185 389V101Q203 92 224 84T267 71T304 65Z"
/>
<glyph unicode="q" horiz-adv-x="556" d="M470 -200Q463 -200 447 -198T411 -193T369 -186T329 -178T302 -170Q302 -163 304 -157T310 -148L348 -143Q365 -141 374 -125T383 -68V43Q356 27 324 14T260 0Q236 0 209 9T156 31T113 57T86 79Q71 98 64 138T56 223Q56
263 59 300T69 368T82 419Q97 429 122 442T177 469T238 491T297 500Q312 500 336 494T389 478T443 458T483 441Q483 428 478 413T468 376T463 317V-85Q463 -106 460 -120T452 -141L534 -148Q536 -151 538 -156T541 -169Q535 -176 522 -183T494 -195T470 -200ZM276
65Q287 65 307 71T348 86T383 102V400Q370 406 349 413T305 426T268 432Q255 432 232 427T187 415T153 402Q148 390 145 369T139 322T136 274Q136 239 139 208T146 154T156 123Q161 118 175 108T207 89T244 72T276 65Z" />
<glyph unicode="r" horiz-adv-x="387" d="M202 0Q195 0 174 3T128 11T80 21T45 30Q45 37 48 43T54 52L81 57Q92 59 100 66T112 89T116 132V407Q116 416 113 422T99 431L44 449Q46 460 48 467T54 477Q69 485 95 492T135 500Q162 500 178 483T195 437V423Q204 431
219 444T250 470T282 491T309 500Q320 500 333 491T357 469T376 445T384 428Q384 423 380 411T370 384T355 360Q345 360 335 363T320 367Q314 379 307 392T293 414T281 423Q276 423 264 416T238 398T212 379T196 366V115Q196 94 192 80T185 59L267 52Q269 50 271
45T274 31Q268 24 255 17T227 5T202 0Z" />
<glyph unicode="s" horiz-adv-x="481" d="M217 0Q193 0 166 9T114 32T74 57T56 75Q57 97 65 122T83 164Q94 164 103 161T117 156Q122 140 131 117T153 76Q167 72 184 70T220 68Q248 68 278 71T331 83Q335 92 338 110T341 145Q341 153 340 163T337 182Q334 186
308 194T245 212T169 234T102 255T68 274Q66 286 65 299T64 328Q64 359 69 388T82 436Q94 444 117 455T168 476T224 493T277 500Q292 500 314 492T359 472T396 449T412 432Q413 422 408 402T393 364T377 337Q366 337 357 340T343 347Q330 380 324 405T307 430Q284
430 253 428T195 423T153 415Q150 403 149 387T147 357Q147 344 148 333T151 314Q155 311 179 304T240 288T314 268T380 245T421 221Q424 211 425 199T426 173Q426 141 420 107T408 61Q396 52 375 42T328 22T273 6T217 0Z" />
<glyph unicode="t" horiz-adv-x="339" d="M235 0Q224 0 202 6T158 23T119 43T103 60V449L24 454Q24 471 27 481T34 495L86 500Q99 501 103 508T108 534V647Q119 655 134 664T164 674L182 662V501L291 500L301 488Q300 474 296 462T287 444L183 448V78L300 55Q302
52 304 47T307 32Q300 24 287 17T259 5T235 0Z" />
<glyph unicode="u" d="M246 -4Q223 -4 197 7T148 34T111 65T97 90V407Q97 416 94 422T80 431L25 449Q27 460 29 467T35 477Q50 485 76 492T116 500Q143 500 160 482T177 436V116Q187 106 203 93T238 71T271 61Q284 61 307 67T356 84T400 102V407Q400 416 396 422T383
431L321 451Q322 461 324 467T329 477Q340 482 357 487T392 496T420 500Q446 500 463 482T480 436V61L551 53Q553 50 555 44T558 31Q552 23 538 16T509 5T484 0Q459 0 437 14T407 48Q385 36 355 24T296 4T246 -4Z" />
<glyph unicode="v" horiz-adv-x="552" d="M299 0Q277 0 253 9T206 31T166 57T141 79L86 373Q82 389 76 407T50 432L-2 450Q-2 460 1 467T6 476Q17 482 32 487T62 496T84 500Q115 500 136 478T163 417L212 122Q219 114 232 103T264 83T301 67Q321 91 341 131T379
220T407 318T422 409Q414 415 398 423T362 439T326 453T300 461Q301 470 303 476T309 486Q319 491 335 493T370 498T403 500Q413 500 430 491T464 470T492 445T504 427Q504 395 495 351T469 259T431 165T387 82T342 23T299 0Z" />
<glyph unicode="w" horiz-adv-x="862" d="M299 0Q277 0 253 9T206 31T166 57T141 79L86 373Q82 389 76 407T50 432L-2 450Q-2 460 1 467T6 476Q17 482 32 487T62 496T85 500Q118 500 138 477T164 415L212 122Q224 110 246 93T298 69Q317 91 338 126T378 203T410
288L394 373Q391 389 385 407T358 432L306 450Q307 460 310 467T315 476Q325 482 340 487T370 496T393 500Q423 500 444 478T471 417L519 119Q532 109 554 93T605 67Q625 91 646 131T685 219T716 317T732 409Q724 415 708 423T672 439T636 453T610 461Q612 471
614 476T619 486Q629 490 645 493T680 498T713 500Q724 500 740 491T774 470T802 445T814 428Q814 395 804 351T777 259T739 165T694 82T647 23T604 0Q582 0 559 9T513 31T475 57T451 78L432 170Q413 128 389 89T342 25T299 0Z" />
<glyph unicode="x" horiz-adv-x="514" d="M123 0Q114 0 98 9T65 30T37 55T25 73Q25 87 42 109T86 158T145 212T205 262L134 381Q126 396 118 407T98 427T67 441L28 452Q29 460 32 467T38 478Q47 483 61 488T90 496T111 500Q140 500 161 479T199 428L271 304Q297
326 320 348T360 389T386 424Q376 430 360 437T329 452T305 462Q306 470 308 476T313 486Q321 489 335 492T363 498T385 500Q393 500 407 494T435 478T459 459T469 443Q469 427 452 404T409 355T354 304T299 258L371 137Q393 100 414 84T454 67H479Q482 65 485
60T488 47Q482 36 468 25T438 7T407 0Q384 0 356 24T301 97L233 215Q208 193 183 168T138 121T109 86Q119 79 133 72T163 57T191 46Q193 42 196 35T199 18Q191 14 177 10T147 3T123 0Z" />
<glyph unicode="y" horiz-adv-x="549" d="M109 -200Q100 -200 85 -194T57 -178T36 -161Q38 -151 40 -146T44 -137Q95 -132 140 -112T225 -58T292 23Q258 33 226 47T170 76T138 100L85 375Q82 393 76 409T50 432L-2 450Q-2 460 1 467T6 476Q17 482 32 487T62 496T85
500Q118 500 138 476T163 415L207 140Q215 134 234 123T278 100T325 82Q341 114 354 149T379 221T398 293T410 359T417 415Q405 423 383 432T338 449T300 461Q301 468 303 475T309 486Q319 491 335 493T368 498T400 500Q410 500 427 492T461 473T489 450T501 433Q500
397 489 345T457 231T407 108Q379 47 346 -8T274 -107T194 -175T109 -200Z" />
<glyph unicode="z" horiz-adv-x="484" d="M85 0Q77 0 65 9T44 32T34 55Q68 86 109 132T194 230T276 334T346 429L149 437L115 343Q112 341 103 338T81 335Q74 352 64 379T51 432Q56 439 68 450T95 472T123 492T142 500Q147 500 166 499T212 495T264 491T311 488T339
485Q348 485 364 489T395 496T412 498Q425 493 436 475T449 441L173 90L356 69L411 160Q424 159 434 155T449 146Q448 138 447 127T444 101T438 71T431 42Q422 33 406 24T373 7T349 0Q338 0 310 5T247 16T183 28T138 33Q126 33 115 26T85 0Z" />
<glyph unicode="{" horiz-adv-x="395" d="M208 -165Q196 -165 180 -155T146 -129T117 -99L145 242Q124 262 94 273T45 287Q39 293 35 308T31 343Q47 347 69 353T112 367T145 386L117 722Q130 739 146 756T179 785T208 797Q230 797 257 794T312 787T358 779Q360
775 363 768T366 750L197 732Q197 672 199 610T202 493T204 402Q204 381 190 364T156 336T115 317V313Q136 305 155 294T188 264T202 211Q202 182 200 135T196 29T193 -99L368 -118Q368 -128 365 -136T358 -148Q337 -152 310 -156T257 -162T208 -165Z" />
<glyph unicode="|" horiz-adv-x="429" d="M186 -200V777Q195 785 213 792T256 800Q252 777 249 716T245 556V-190Q238 -193 222 -196T186 -200Z" />
<glyph unicode="}" horiz-adv-x="395" d="M187 -165Q166 -165 138 -162T84 -155T37 -147Q35 -144 32 -136T29 -119L198 -101Q198 -39 197 22T193 138T191 229Q191 250 205 267T239 296T280 315V319Q260 327 240 338T207 368T193 420Q193 450 195 497T200 603T202
730L27 749Q27 760 30 768T37 780Q58 784 85 787T139 794T187 797Q199 797 215 787T249 761T278 731L250 390Q271 370 301 359T350 344Q356 339 360 324T364 288Q349 285 327 279T283 265T250 245L278 -91Q266 -107 249 -124T216 -153T187 -165Z" />
<glyph unicode="~" horiz-adv-x="589" d="M425 254Q412 254 382 260T313 277T234 298T158 320L75 268Q71 269 64 274T54 286Q69 305 90 324T132 358T169 372Q183 372 212 367T280 352T359 333T435 314L509 379Q519 376 526 370T535 360Q521 337 501 313T461 271T425 254Z" />
<glyph unicode="&#xa0;" horiz-adv-x="220" />
<glyph unicode="&#xa1;" horiz-adv-x="232" d="M72 -267L92 269Q97 276 110 281T142 288Q149 205 155 112T164 -72T167 -243Q154 -252 128 -259T72 -267ZM106 374Q98 374 88 382T69 404T53 429T47 450Q47 457 55 466T76 485T102 500T124 506Q131 506 141 498T161
477T179 452T186 431Q186 424 177 414T153 395T127 380T106 374Z" />
<glyph unicode="&#xa2;" horiz-adv-x="481" d="M271 0Q242 0 212 9T156 32T111 58T88 77Q73 98 65 138T57 222Q57 282 65 334T83 417Q99 430 124 445T179 473T238 495T292 504Q313 504 335 501T380 491T422 476T458 458Q456 416 450 383T439 333Q426 333 416 335T400
340L384 433Q372 437 352 440T311 447T278 450Q263 450 238 442T190 425T153 409Q149 397 145 376T138 327T135 269Q135 239 137 208T144 155T154 123Q161 117 177 107T213 88T252 72T283 65Q298 65 321 70T368 81T411 94T438 102Q441 99 445 94T449 78Q435 66
415 53T371 28T322 8T271 0ZM248 -120V592Q265 604 281 609T315 615Q311 582 308 540T304 468V-110Q296 -114 281 -117T248 -120Z" />
<glyph unicode="&#xa3;" horiz-adv-x="540" d="M102 0Q96 0 87 9T69 30T61 52L115 79Q124 94 134 123T153 187T167 252H70Q70 273 73 283T80 295Q99 295 120 295T161 296Q141 330 127 367T105 439T96 497Q108 510 130 524T180 550T235 570T284 578Q313 578 346
569T407 548T446 527Q446 506 442 480T432 432T422 399Q407 399 397 402T382 409L366 501Q341 510 316 514T270 519Q250 519 230 516T194 509T173 503Q173 481 180 445T199 370T230 298Q258 300 283 301T332 304T380 308L390 299Q389 284 386 272T378 252H231Q224
195 214 154T195 80L420 68L463 184Q477 184 488 181T505 172Q504 144 500 108T490 49Q480 39 462 28T425 8T396 0Q388 0 366 3T316 12T258 23T204 32T166 36Q159 32 146 23T120 7T102 0Z" />
<glyph unicode="&#xa4;" horiz-adv-x="610" d="M84 52Q73 61 60 74T39 97L129 173Q121 194 117 225T113 288Q113 319 117 350T130 404L39 487Q48 498 63 510T91 529Q108 511 128 488T177 436Q211 457 255 473T338 490Q345 490 363 484T405 468T447 447L523 529Q541
518 552 508T572 489Q549 471 526 451T485 414Q490 401 493 374T496 312Q496 274 492 238T480 174L572 95Q568 88 559 79T541 63T527 52L443 140Q414 118 375 99T293 80Q277 80 254 89T206 111T164 137L84 52ZM305 144Q316 144 332 148T366 159T398 171T416 180Q421
194 423 218T425 267Q425 294 424 319T420 362T414 387Q411 393 391 402T346 419T304 427Q297 427 282 424T250 416T217 406T193 398Q189 386 187 362T185 310Q185 272 188 240T197 193Q199 189 212 181T242 164T277 150T305 144Z" />
<glyph unicode="&#xa5;" horiz-adv-x="583" d="M331 0Q324 0 302 3T254 11T203 21T166 30Q166 36 169 42T175 52L210 56Q232 59 240 78T248 143V213H72Q72 232 76 243T84 256Q113 256 154 256T238 257L204 310H72Q72 330 76 341T84 354H178L90 496Q82 509 73 515T44
521H18Q17 524 14 529T10 540Q14 544 24 550T45 560T62 565H235Q239 560 241 553T244 537L207 529Q190 525 179 520T168 505T180 471L292 287H295Q313 325 334 367T378 450T422 521T460 565H562Q566 561 569 553T573 536L541 527Q513 519 487 496T435 437T382 356Q420
357 450 358T494 361L503 353Q502 337 499 327T491 310H360L333 256Q364 257 394 257T448 259T482 263L491 254Q490 237 486 228T478 213H324V114Q324 95 320 81T310 60L401 52Q403 49 405 43T407 30Q399 22 385 15T356 4T331 0Z" />
<glyph unicode="&#xa6;" horiz-adv-x="429" d="M186 360V777Q195 785 214 792T256 800Q252 777 249 716T245 556V368Q230 364 215 362T186 360ZM186 -200V220Q200 224 215 226T245 229V-190Q238 -193 222 -196T186 -200Z" />
<glyph unicode="&#xa7;" horiz-adv-x="591" d="M269 -200Q247 -200 218 -194T157 -177T100 -154T56 -129Q57 -95 60 -63T69 -3T78 42Q88 42 97 42T119 41L142 -101Q162 -109 190 -118T246 -133T296 -139Q316 -139 342 -133T394 -120T434 -105Q445 -86 451 -55T457
6Q457 25 456 39T449 66Q442 70 413 80T342 104T255 133T168 164T100 192Q87 203 77 218T62 249T55 278Q61 301 70 325T90 368T107 396Q95 402 86 407T63 422Q60 436 59 444T57 461T57 482Q57 509 60 539T70 595T85 638Q102 651 128 665T186 692T247 712T303 720Q339
720 376 712T447 689T503 660Q501 632 497 602T487 546T476 501Q462 501 452 504T436 509L416 636Q387 647 354 654T280 661Q264 661 243 659T201 652T160 641Q152 626 147 604T139 556T136 506Q136 492 137 483T139 463Q148 459 177 450T247 428T331 401T413 375T473
352Q487 342 500 322T524 281T534 244Q524 213 508 184T479 133Q499 124 510 116T528 98Q531 88 532 77T534 54T535 26Q535 -11 529 -44T510 -108Q498 -121 472 -136T411 -166T340 -190T269 -200ZM431 157Q439 177 446 199T457 242T463 276L152 377Q150 370 145
351T135 308T130 259L431 157Z" />
<glyph unicode="&#xa8;" horiz-adv-x="396" d="M287 588Q281 588 272 595T254 613T240 635T234 652Q234 660 242 668T261 684T284 697T302 703Q310 703 318 696T335 677T348 654T354 636Q354 629 342 618T314 597T287 588ZM96 588Q90 588 81 595T63 613T48 634T42
652Q42 660 50 668T70 684T94 697T112 703Q118 703 126 696T143 677T157 655T163 636Q163 629 151 618T122 597T96 588Z" />
<glyph unicode="&#xa9;" horiz-adv-x="613" d="M295 226Q265 226 232 236T170 259T120 285T93 304Q85 314 77 335T63 385T57 442Q57 515 70 564T101 648Q124 663 163 681T250 712T346 726Q365 726 393 718T449 698T501 674T534 650Q540 644 544 627T551 587T555
541T556 501Q556 451 547 400T527 317Q515 306 490 291T434 261T366 236T295 226ZM314 333Q294 333 272 342T234 363T213 379Q210 384 207 397T201 428T198 463Q198 495 202 520T212 569Q221 576 240 585T283 602T332 610Q342 610 359 603T389 587T403 574Q403
568 400 553T392 525T383 507Q378 507 373 508T365 510L352 570Q310 570 285 566T253 559Q249 549 247 525T245 485Q245 455 249 432T256 405Q258 402 269 394T295 380T320 373Q328 373 343 375T373 381T392 387Q394 385 397 381T400 370Q384 357 363 345T314 333ZM308
270Q324 270 348 275T398 289T446 306T480 321Q491 345 496 388T502 477Q502 526 497 568T484 626Q481 631 464 639T420 658T366 674T311 681Q295 681 272 677T223 666T176 652T143 639Q134 623 126 595T113 536T108 479Q108 437 116 396T135 336Q149 322 180 307T246
281T308 270Z" />
<glyph unicode="&#xaa;" horiz-adv-x="466" d="M192 354Q179 354 161 359T126 373T95 388T78 401Q72 409 67 431T62 479Q62 488 62 497T65 515Q65 519 78 532T109 557T139 573Q151 576 179 577T240 580T302 588V687Q278 699 252 706T198 714Q186 714 173 714T143
711L132 637Q127 635 120 633T102 631Q94 641 85 661T71 708Q91 727 121 740T184 761T248 769Q259 769 278 763T318 745T353 723T368 702V413L439 403Q442 400 444 394T446 382Q439 372 417 363T381 354Q362 354 343 367T313 399Q286 381 256 368T192 354ZM205
408Q216 408 233 412T269 422T302 433V549Q269 539 235 536T173 529T129 516Q129 500 131 479T139 440Q143 432 163 420T205 408Z" />
<glyph unicode="&#xab;" horiz-adv-x="565" d="M286 45Q249 73 209 105T133 169T75 224T53 259Q53 270 75 294T132 349T208 414T286 475Q291 474 297 468T310 447L121 237L122 286L309 72Q302 60 297 54T286 45ZM478 45Q441 73 401 105T325 169T267 224T245 259Q245
270 267 294T324 349T400 414T478 475Q483 474 489 468T502 447L313 237L314 286L501 72Q494 60 489 54T478 45Z" />
<glyph unicode="&#xac;" horiz-adv-x="634" d="M534 173V344H28Q28 366 31 378T40 393Q162 393 255 394T414 396T523 400T585 405L598 389Q597 316 594 267T587 187Q580 183 567 178T534 173Z" />
<glyph unicode="&#xad;" horiz-adv-x="342" d="M30 270Q30 289 33 301T42 317Q93 317 144 319T237 324T302 329L315 314Q315 301 312 290T304 270H30Z" />
<glyph unicode="&#xae;" horiz-adv-x="613" d="M295 226Q265 226 232 236T170 259T120 285T93 304Q85 314 77 335T63 385T57 442Q57 515 70 564T101 648Q124 663 163 681T250 712T346 726Q365 726 393 718T449 698T501 674T534 650Q540 644 544 627T551 587T555
541T556 501Q556 451 547 400T527 317Q515 306 490 291T434 261T366 236T295 226ZM308 270Q324 270 348 275T398 289T446 306T480 321Q491 345 496 388T502 477Q502 510 500 540T494 593T484 626Q481 631 464 639T420 658T366 674T311 681Q295 681 272 677T223
666T176 652T143 639Q134 623 126 595T113 536T108 479Q108 437 116 396T135 336Q149 322 180 307T246 281T308 270ZM271 341Q266 341 254 343T228 349T203 355T186 359Q186 361 187 365T190 374H205Q216 374 221 380T226 411V563Q226 575 227 581T231 589H195Q192
592 191 595T190 599Q193 603 203 608T219 613H344Q352 613 370 605T394 591Q397 587 400 573T403 545Q403 535 400 520T391 496Q384 489 370 482T343 471V468Q349 465 354 461T366 444L379 418Q390 395 401 383T431 371H442Q444 370 445 367T447 358Q439 350 426
346T402 341Q392 341 375 348T344 386L314 455Q311 462 307 464T297 467H270V396Q270 388 269 381T265 371L309 365Q310 363 310 360T311 354Q308 349 295 345T271 341ZM270 492Q292 492 312 493T351 499Q353 506 355 515T358 537Q358 551 356 563T345 584Q331
586 320 587T294 588Q280 588 275 583T270 565V492Z" />
<glyph unicode="&#xaf;" horiz-adv-x="328" d="M0 589Q0 609 4 622T12 640Q43 640 87 641T178 645T262 650T317 654L328 645Q327 626 323 611T316 589H0Z" />
<glyph unicode="&#xb0;" horiz-adv-x="326" d="M163 352Q135 352 109 364T65 402T47 465Q47 503 64 528T108 566T163 579Q191 579 217 567T261 529T279 465Q279 427 262 402T218 365T163 352ZM163 398Q198 398 211 412T224 465Q224 503 211 518T163 533Q128 533
115 519T102 465Q102 427 115 413T163 398Z" />
<glyph unicode="&#xb1;" horiz-adv-x="516" d="M230 57V477Q232 482 247 486T289 490V67Q283 64 268 61T230 57ZM53 252Q53 273 57 284T66 297Q125 297 194 298T332 303T456 309L465 300Q464 281 460 269T453 252H53ZM53 -54Q53 -33 57 -22T66 -9Q125 -9 194 -8T332
-3T456 3L465 -6Q464 -25 460 -37T453 -54H53Z" />
<glyph unicode="&#xb2;" horiz-adv-x="427" d="M77 345Q62 348 50 359T36 385Q84 419 126 462T200 550T249 632T267 694Q243 702 202 707T126 712L110 616Q105 615 96 614T79 613Q69 635 61 660T50 709Q63 723 84 734T129 754T177 766T219 770Q235 770 255 763T296
743T329 720T343 700Q343 670 321 623T258 522T161 422L310 404L342 504Q350 504 361 502T378 496Q378 477 377 454T373 410T369 377Q361 371 347 364T316 351T289 345L124 383L77 345Z" />
<glyph unicode="&#xb3;" horiz-adv-x="349" d="M119 346Q110 346 92 352T58 366T36 381Q37 388 40 395T47 407Q61 404 82 403T117 401Q147 401 175 404T221 412Q227 418 232 433T240 467T243 499Q243 507 230 513T190 526T120 544Q121 554 123 564T131 583L193
578Q206 593 216 616T233 662T241 696Q217 703 177 707T101 712L85 617Q80 615 70 614T54 613Q44 635 36 659T25 709Q43 728 73 742T135 763T193 770Q208 770 228 763T269 744T302 721T316 701Q316 687 309 668T289 629T265 593T242 568V566Q268 559 283 550T306
528T314 502Q314 483 307 458T290 411T269 381Q259 373 233 365T176 352T119 346Z" />
<glyph unicode="&#xb4;" horiz-adv-x="203" d="M28 565Q19 568 12 574T0 586Q34 634 64 670T118 726T150 747Q157 747 168 739T189 718T203 693L28 565Z" />
<glyph unicode="&#xb5;" d="M183 -200Q143 -200 125 -167T102 -66T97 103L153 64Q153 13 156 -26T169 -94T196 -139T240 -159Q242 -161 245 -165T250 -176Q235 -189 216 -194T183 -200ZM246 -4Q223 -4 197 7T148 34T111 65T97 90V407Q97 416 94 422T80 431L25
449Q27 460 29 467T35 477Q50 485 76 492T116 500Q143 500 160 482T177 436V116Q187 106 203 93T238 71T271 61Q284 61 307 67T356 84T400 102V407Q400 416 396 422T383 431L321 451Q322 461 324 467T329 477Q340 482 357 487T392 496T420 500Q446 500 463 482T480
436V61L551 53Q553 50 555 44T558 31Q552 23 538 16T509 5T484 0Q459 0 437 14T407 48Q385 36 355 24T296 4T246 -4Z" />
<glyph unicode="&#xb6;" horiz-adv-x="735" d="M283 -200Q271 -200 254 -197T220 -187T192 -174Q192 -167 194 -161T199 -152Q244 -140 288 -116T359 -61V257Q325 256 298 256T251 255Q224 255 196 265T143 290T102 319T80 339Q69 355 61 391T52 472Q52 513 58
550T76 613Q88 624 111 639T166 669T232 694T301 704H652Q656 701 660 693T665 674L624 661Q605 655 595 646T581 620T577 575V-180Q569 -188 552 -193T515 -200V582Q515 620 521 636T532 657H421V-70Q414 -89 397 -111T358 -153T316 -187T283 -200Z" />
<glyph unicode="&#xb7;" horiz-adv-x="253" d="M119 203Q112 203 102 212T82 233T64 258T57 278Q57 286 66 295T89 314T116 330T137 336Q145 336 155 327T174 306T190 280T196 260Q196 250 182 237T150 214T119 203Z" />
<glyph unicode="&#xb8;" horiz-adv-x="189" d="M65 -200Q57 -200 43 -196T16 -187T0 -176Q0 -169 2 -165T5 -159Q41 -159 68 -158T119 -152Q124 -144 127 -129T130 -103Q123 -97 106 -91T69 -78T32 -69Q28 -63 24 -54T19 -34Q29 -17 36 -3T60 37H91L69 -37Q96
-41 124 -51T170 -72T189 -91Q189 -107 183 -130T166 -166Q150 -176 130 -183T92 -195T65 -200Z" />
<glyph unicode="&#xb9;" horiz-adv-x="327" d="M211 347Q204 347 183 349T136 355T87 363T54 370Q54 376 56 382T60 392L99 398Q117 401 124 409T131 447V625Q131 643 133 661T137 688H53Q53 697 54 708T60 726Q94 731 124 739T178 766Q188 766 198 763T214 754Q210
737 207 705T203 644V441Q203 428 200 417T192 399L269 392Q270 389 271 384T274 372Q259 363 240 355T211 347Z" />
<glyph unicode="&#xba;" horiz-adv-x="422" d="M201 346Q180 346 157 355T114 376T80 400T61 417Q54 426 49 447T41 496T38 548Q38 595 42 631T52 692Q68 703 99 720T167 750T238 764Q252 764 271 757T310 740T345 719T367 700Q372 695 375 680T380 644T383 603T384
566Q384 521 380 485T370 422Q358 409 332 392T271 360T201 346ZM212 402Q226 402 246 407T284 419T308 429Q312 440 314 457T317 494T318 533Q318 562 316 590T311 638T305 663Q302 668 286 678T249 696T212 705Q203 705 183 701T143 693T116 684Q113 674 111
655T107 613T105 571Q105 531 109 496T120 453Q123 449 140 437T177 413T212 402Z" />
<glyph unicode="&#xbb;" horiz-adv-x="565" d="M87 44Q83 46 77 52T64 72L252 283V234L64 448Q72 460 77 466T87 475Q125 447 165 415T240 351T298 295T320 260Q320 250 298 226T241 170T166 106T87 44ZM279 44Q275 46 269 52T256 72L444 283V234L256 448Q264
460 269 466T279 475Q317 447 357 415T432 351T490 295T512 260Q512 250 490 226T433 170T358 106T279 44Z" />
<glyph unicode="&#xbc;" horiz-adv-x="888" d="M211 287Q204 287 183 289T136 295T87 303T54 310Q54 316 56 322T60 332L99 338Q117 341 124 349T131 387V565Q131 583 133 601T137 628H53Q53 637 54 648T60 666Q94 671 124 679T178 706Q188 706 198 703T214 694Q210
677 207 645T203 584V381Q203 368 200 357T192 339L269 332Q270 329 271 324T274 312Q259 303 240 295T211 287ZM298 -94Q282 -94 267 -89T242 -76L471 513Q493 569 510 616T539 699T556 754Q578 750 594 741T616 723L298 -94ZM730 -2Q728 -2 723 0T714 5Q717 13
722 31T727 70V104H545Q538 108 529 120T516 149L708 408Q721 413 742 416T783 419L799 411Q797 403 796 387T793 352T792 312V154L861 157L867 146Q866 138 863 125T855 105H792V10Q786 7 775 5T752 0T730 -2ZM577 154H725V275Q725 292 726 308T730 338T735 358L730
361L577 154Z" />
<glyph unicode="&#xbd;" horiz-adv-x="958" d="M211 287Q204 287 183 289T136 295T87 303T54 310Q54 316 56 322T60 332L99 338Q117 341 124 349T131 387V565Q131 583 133 601T137 628H53Q53 637 54 648T60 666Q94 671 124 679T178 706Q188 706 198 703T214 694Q210
677 207 645T203 584V381Q203 368 200 357T192 339L269 332Q270 329 271 324T274 312Q259 303 240 295T211 287ZM298 -94Q282 -94 267 -89T242 -76L471 513Q493 569 510 616T539 699T556 754Q578 750 594 741T616 723L298 -94ZM608 -5Q593 -2 581 9T567 35Q615
69 657 112T731 200T780 282T798 344Q774 352 733 357T657 362L641 266Q636 265 627 264T610 263Q600 285 592 310T581 359Q594 373 615 384T660 404T708 416T750 420Q766 420 786 413T827 393T860 370T874 350Q874 320 852 273T789 172T692 72L841 54L873 154Q881
154 892 152T909 146Q909 127 908 104T904 60T900 27Q892 21 878 14T847 1T820 -5L655 33L608 -5Z" />
<glyph unicode="&#xbe;" horiz-adv-x="910" d="M119 286Q110 286 92 292T58 306T36 321Q37 328 40 335T47 347Q61 344 82 343T117 341Q147 341 175 344T221 352Q227 358 232 373T240 407T243 439Q243 447 230 453T190 466T120 484Q121 494 123 504T131 523L193
518Q206 533 216 556T233 602T241 636Q217 643 177 647T101 652L85 557Q80 555 70 554T54 553Q44 575 36 599T25 649Q43 668 73 682T135 703T193 710Q208 710 228 703T269 684T302 661T316 641Q316 627 309 608T289 569T265 533T242 508V506Q268 499 283 490T306
468T314 442Q314 423 307 398T290 351T269 321Q259 313 233 305T176 292T119 286ZM320 -94Q304 -94 289 -89T264 -76L493 513Q515 569 532 616T561 699T578 754Q600 750 616 741T638 723L320 -94ZM752 -2Q750 -2 745 0T736 5Q739 13 744 31T749 70V104H567Q560
108 551 120T538 149L730 408Q743 413 764 416T805 419L821 411Q819 403 818 387T815 352T814 312V154L883 157L889 146Q888 138 885 125T877 105H814V10Q808 7 797 5T774 0T752 -2ZM599 154H747V275Q747 292 748 308T752 338T757 358L752 361L599 154Z" />
<glyph unicode="&#xbf;" horiz-adv-x="518" d="M258 -277Q232 -277 198 -268T129 -243T70 -213Q66 -193 64 -165T61 -106Q61 -66 65 -29T76 31Q87 49 115 66T174 98T231 124T262 140Q263 147 264 160T265 185Q265 206 263 230T258 271Q264 275 274 281T297 289Q310
267 319 235T333 169T339 106Q324 93 298 79T243 51T190 27T154 11Q149 -8 146 -40T143 -107Q143 -131 144 -152T150 -188Q163 -193 182 -198T221 -206T258 -209Q278 -209 299 -207T341 -200T375 -190L390 -64Q397 -60 411 -57T436 -53Q440 -68 445 -98T455 -161T459
-219Q437 -232 403 -245T331 -268T258 -277ZM260 374Q253 374 243 382T224 404T208 429T201 450Q201 457 209 466T230 485T256 500T278 506Q285 506 295 498T316 477T333 452T340 431Q340 424 331 414T308 395T281 380T260 374Z" />
<glyph unicode="&#xc0;" horiz-adv-x="710" d="M202 0Q197 0 181 2T142 7T95 13T50 21T16 29Q16 37 19 44T27 55H34Q46 55 58 64T83 94T108 145T132 221L249 655Q257 663 273 674T309 695T345 713T372 720Q385 720 404 712T443 691T475 666L609 82Q612 71 615
65T634 57L690 53Q692 50 694 48T698 32Q691 25 680 18T655 6T630 0Q622 0 603 2T558 9T509 17T466 26T438 34Q438 41 442 48T448 58H476Q493 58 503 60T515 73T512 111L473 287H219L180 138Q174 116 166 101T149 76T130 63L263 53Q265 51 267 46T270 31Q261 23
249 16T225 4T202 0ZM232 336Q276 337 320 338T402 342T459 348L398 624Q376 639 356 648T315 661L232 336ZM419 769L233 899Q238 912 248 925T271 947T290 956Q300 956 323 936T380 878T450 791Q446 785 437 778T419 769Z" />
<glyph unicode="&#xc1;" horiz-adv-x="710" d="M202 0Q197 0 181 2T142 7T95 13T50 21T16 29Q16 37 19 44T27 55H34Q46 55 58 64T83 94T108 145T132 221L249 655Q257 663 273 674T309 695T345 713T372 720Q385 720 404 712T443 691T475 666L609 82Q612 71 615
65T634 57L690 53Q692 50 694 48T698 32Q691 25 680 18T655 6T630 0Q622 0 603 2T558 9T509 17T466 26T438 34Q438 41 442 48T448 58H476Q493 58 503 60T515 73T512 111L473 287H219L180 138Q174 116 166 101T149 76T130 63L263 53Q265 51 267 46T270 31Q261 23
249 16T225 4T202 0ZM232 336Q276 337 320 338T402 342T459 348L398 624Q376 639 356 648T315 661L232 336ZM291 769Q280 772 272 779T260 791Q295 840 328 877T385 935T419 956Q427 956 438 948T461 926T477 899L291 769Z" />
<glyph unicode="&#xc2;" horiz-adv-x="710" d="M202 0Q197 0 181 2T142 7T95 13T50 21T16 29Q16 37 19 44T27 55H34Q46 55 58 64T83 94T108 145T132 221L249 655Q257 663 273 674T309 695T345 713T372 720Q385 720 404 712T443 691T475 666L609 82Q612 71 615
65T634 57L690 53Q692 50 694 48T698 32Q691 25 680 18T655 6T630 0Q622 0 603 2T558 9T509 17T466 26T438 34Q438 41 442 48T448 58H476Q493 58 503 60T515 73T512 111L473 287H219L180 138Q174 116 166 101T149 76T130 63L263 53Q265 51 267 46T270 31Q261 23
249 16T225 4T202 0ZM232 336Q276 337 320 338T402 342T459 348L398 624Q376 639 356 648T315 661L232 336ZM234 773Q225 777 218 782T208 795Q249 849 277 886T325 941T356 960Q367 960 386 941T434 885T502 795Q499 790 493 784T476 773L355 874L234 773Z" />
<glyph unicode="&#xc3;" horiz-adv-x="710" d="M202 0Q197 0 181 2T142 7T95 13T50 21T16 29Q16 37 19 44T27 55H34Q46 55 58 64T83 94T108 145T132 221L249 655Q257 663 273 674T309 695T345 713T372 720Q385 720 404 712T443 691T475 666L609 82Q612 71 615
65T634 57L690 53Q692 50 694 48T698 32Q691 25 680 18T655 6T630 0Q622 0 603 2T558 9T509 17T466 26T438 34Q438 41 442 48T448 58H476Q493 58 503 60T515 73T512 111L473 287H219L180 138Q174 116 166 101T149 76T130 63L263 53Q265 51 267 46T270 31Q261 23
249 16T225 4T202 0ZM232 336Q276 337 320 338T402 342T459 348L398 624Q376 639 356 648T315 661L232 336ZM447 781Q436 781 405 790T336 814T266 841L193 789Q188 791 182 795T172 808Q185 828 202 850T235 887T264 902Q276 902 307 893T377 870T449 845L515
906Q524 904 530 899T539 890Q527 867 510 842T475 799T447 781Z" />
<glyph unicode="&#xc4;" horiz-adv-x="710" d="M202 0Q197 0 181 2T142 7T95 13T50 21T16 29Q16 37 19 44T27 55H34Q46 55 58 64T83 94T108 145T132 221L249 655Q257 663 273 674T309 695T345 713T372 720Q385 720 404 712T443 691T475 666L609 82Q612 71 615
65T634 57L690 53Q692 50 694 48T698 32Q691 25 680 18T655 6T630 0Q622 0 603 2T558 9T509 17T466 26T438 34Q438 41 442 48T448 58H476Q493 58 503 60T515 73T512 111L473 287H219L180 138Q174 116 166 101T149 76T130 63L263 53Q265 51 267 46T270 31Q261 23
249 16T225 4T202 0ZM232 336Q276 337 320 338T402 342T459 348L398 624Q376 639 356 648T315 661L232 336ZM451 789Q444 789 435 796T415 815T399 838T393 856Q393 864 401 873T422 890T447 903T467 909Q474 909 483 901T502 882T517 858T523 839Q523 833 515
825T495 808T471 795T451 789ZM246 789Q240 789 231 796T212 815T195 838T188 856Q188 864 197 873T218 890T243 903T263 909Q271 909 280 902T298 883T313 859T319 840Q319 833 311 825T292 808T268 795T246 789Z" />
<glyph unicode="&#xc5;" horiz-adv-x="710" d="M202 0Q197 0 181 2T142 7T95 13T50 21T16 29Q16 37 19 44T27 55H34Q46 55 58 64T83 94T108 145T132 221L249 655Q257 663 273 674T309 695T345 713T372 720Q385 720 404 712T443 691T475 666L609 82Q612 71 615
65T634 57L690 53Q692 50 694 48T698 32Q691 25 680 18T655 6T630 0Q622 0 603 2T558 9T509 17T466 26T438 34Q438 41 442 48T448 58H476Q493 58 503 60T515 73T512 111L473 287H219L180 138Q174 116 166 101T149 76T130 63L263 53Q265 51 267 46T270 31Q261 23
249 16T225 4T202 0ZM232 336Q276 337 320 338T402 342T459 348L398 624Q376 639 356 648T315 661L232 336ZM357 769Q313 769 284 795T254 863Q254 904 283 931T356 959Q401 959 430 932T459 863Q459 822 430 796T357 769ZM356 813Q381 813 396 826T411 863Q411
887 396 901T356 915Q333 915 318 901T303 863Q303 841 318 827T356 813Z" />
<glyph unicode="&#xc6;" horiz-adv-x="952" d="M188 0Q181 0 160 3T113 10T60 20T16 31Q16 38 19 45T26 56H39Q49 56 59 60T81 80T106 126T133 208L251 636Q259 644 275 655T309 678T345 697T372 704H777Q800 697 824 684T861 656Q857 599 849 556T835 492Q820
492 807 495T788 501L765 642Q751 644 727 647T674 652T618 656T568 658Q528 658 512 654T494 636T498 596L546 377Q595 383 637 388T713 399T774 411L782 401Q782 384 779 368T772 342L560 321L597 152Q605 116 603 94T588 63H818L868 224Q882 224 894 220T913
210Q913 188 912 158T909 98T904 42Q896 34 881 25T851 8T826 0Q805 0 774 1T705 5T630 10T555 16T490 23T442 30Q442 38 445 45T451 54L471 56Q486 58 498 63T515 81T514 121L472 311L218 287L178 135Q172 111 163 96T147 72T134 62L254 52Q256 50 258 44T261
30Q253 23 240 16T212 5T188 0ZM232 340Q264 344 289 346T338 350T391 356T459 365L398 646Q366 646 343 639T307 625L232 340Z" />
<glyph unicode="&#xc7;" horiz-adv-x="642" d="M346 0Q318 0 283 10T214 35T153 68T114 99Q91 129 78 190T65 325Q65 386 71 443T86 547T106 617Q127 634 160 652T232 685T310 710T383 720Q419 720 457 711T528 687T582 657Q579 601 572 557T559 491Q538 493 526
496T508 501L490 623Q476 631 453 638T406 650T366 655Q344 655 312 648T248 631T195 608Q183 580 175 539T163 450T159 358Q159 314 163 272T175 195T193 140Q203 129 224 116T271 92T323 74T370 67Q388 67 410 69T452 76T484 86L531 231Q547 231 560 227T581
218Q580 195 578 168T573 114T566 63Q547 50 514 36T438 11T346 0ZM351 -200Q343 -200 329 -196T302 -187T286 -176Q286 -169 288 -165T291 -159Q327 -159 354 -158T405 -152Q410 -144 413 -129T416 -103Q409 -97 392 -91T355 -78T318 -69Q314 -63 310 -54T305
-34Q315 -17 322 -3T346 37H377L355 -37Q382 -41 410 -51T456 -72T475 -91Q475 -107 469 -130T452 -166Q436 -176 416 -183T378 -195T351 -200Z" />
<glyph unicode="&#xc8;" horiz-adv-x="635" d="M489 0Q467 0 433 1T356 5T270 10T184 16T108 23T53 31Q53 38 56 44T62 54L88 58Q106 60 115 68T129 95T133 148V578Q133 603 136 619T143 644T150 655H63Q60 658 57 663T53 675Q58 681 69 687T93 699T110 704H487Q512
696 534 683T570 656Q567 600 559 557T543 492Q527 492 515 495T497 501L474 642Q454 645 423 648T355 654T281 657Q255 657 243 646T226 618T222 580V391Q267 392 305 393T377 397T438 402L447 393Q445 374 442 358T436 335H222V127Q222 104 217 87T207 63H478L530
224Q545 224 558 219T575 210Q575 187 574 158T570 99T564 42Q556 34 542 25T513 8T489 0ZM399 769L213 899Q218 912 228 925T251 947T270 956Q280 956 303 936T360 878T430 791Q426 785 417 778T399 769Z" />
<glyph unicode="&#xc9;" horiz-adv-x="635" d="M489 0Q467 0 433 1T356 5T270 10T184 16T108 23T53 31Q53 38 56 44T62 54L88 58Q106 60 115 68T129 95T133 148V578Q133 603 136 619T143 644T150 655H63Q60 658 57 663T53 675Q58 681 69 687T93 699T110 704H487Q512
696 534 683T570 656Q567 600 559 557T543 492Q527 492 515 495T497 501L474 642Q454 645 423 648T355 654T281 657Q255 657 243 646T226 618T222 580V391Q267 392 305 393T377 397T438 402L447 393Q445 374 442 358T436 335H222V127Q222 104 217 87T207 63H478L530
224Q545 224 558 219T575 210Q575 187 574 158T570 99T564 42Q556 34 542 25T513 8T489 0ZM271 769Q260 772 252 779T240 791Q275 840 308 877T365 935T399 956Q407 956 418 948T441 926T457 899L271 769Z" />
<glyph unicode="&#xca;" horiz-adv-x="635" d="M489 0Q467 0 433 1T356 5T270 10T184 16T108 23T53 31Q53 38 56 44T62 54L88 58Q106 60 115 68T129 95T133 148V578Q133 603 136 619T143 644T150 655H63Q60 658 57 663T53 675Q58 681 69 687T93 699T110 704H487Q512
696 534 683T570 656Q567 600 559 557T543 492Q527 492 515 495T497 501L474 642Q454 645 423 648T355 654T281 657Q255 657 243 646T226 618T222 580V391Q267 392 305 393T377 397T438 402L447 393Q445 374 442 358T436 335H222V127Q222 104 217 87T207 63H478L530
224Q545 224 558 219T575 210Q575 187 574 158T570 99T564 42Q556 34 542 25T513 8T489 0ZM214 773Q205 777 198 782T188 795Q229 849 257 886T305 941T336 960Q347 960 366 941T414 885T482 795Q479 790 473 784T456 773L335 874L214 773Z" />
<glyph unicode="&#xcb;" horiz-adv-x="635" d="M489 0Q467 0 433 1T356 5T270 10T184 16T108 23T53 31Q53 38 56 44T62 54L88 58Q106 60 115 68T129 95T133 148V578Q133 603 136 619T143 644T150 655H63Q60 658 57 663T53 675Q58 681 69 687T93 699T110 704H487Q512
696 534 683T570 656Q567 600 559 557T543 492Q527 492 515 495T497 501L474 642Q454 645 423 648T355 654T281 657Q255 657 243 646T226 618T222 580V391Q267 392 305 393T377 397T438 402L447 393Q445 374 442 358T436 335H222V127Q222 104 217 87T207 63H478L530
224Q545 224 558 219T575 210Q575 187 574 158T570 99T564 42Q556 34 542 25T513 8T489 0ZM431 789Q424 789 415 796T395 815T379 838T373 856Q373 864 381 873T402 890T427 903T447 909Q454 909 463 901T482 882T497 858T503 839Q503 833 495 825T475 808T451
795T431 789ZM226 789Q220 789 211 796T192 815T175 838T168 856Q168 864 177 873T198 890T223 903T243 909Q251 909 260 902T278 883T293 859T299 840Q299 833 291 825T272 808T248 795T226 789Z" />
<glyph unicode="&#xcc;" horiz-adv-x="360" d="M232 0Q225 0 208 2T168 7T122 15T81 23T53 31Q53 38 56 44T62 54L88 57Q106 60 115 68T129 95T133 148V580Q133 620 140 636T150 655H63Q61 659 58 662T53 675Q58 681 69 687T93 699T110 704H296Q300 700 304 692T308
672L268 659Q250 653 240 643T226 617T222 572V126Q222 103 217 86T206 62L300 52Q302 50 304 44T307 31Q292 18 270 9T232 0ZM244 769L58 899Q63 912 73 925T96 947T115 956Q125 956 148 936T205 878T275 791Q271 785 262 778T244 769Z" />
<glyph unicode="&#xcd;" horiz-adv-x="360" d="M232 0Q225 0 208 2T168 7T122 15T81 23T53 31Q53 38 56 44T62 54L88 57Q106 60 115 68T129 95T133 148V580Q133 620 140 636T150 655H63Q61 659 58 662T53 675Q58 681 69 687T93 699T110 704H296Q300 700 304 692T308
672L268 659Q250 653 240 643T226 617T222 572V126Q222 103 217 86T206 62L300 52Q302 50 304 44T307 31Q292 18 270 9T232 0ZM115 769Q104 772 96 779T84 791Q119 840 152 877T209 935T243 956Q251 956 262 948T285 926T301 899L115 769Z" />
<glyph unicode="&#xce;" horiz-adv-x="360" d="M232 0Q225 0 208 2T168 7T122 15T81 23T53 31Q53 38 56 44T62 54L88 57Q106 60 115 68T129 95T133 148V580Q133 620 140 636T150 655H63Q61 659 58 662T53 675Q58 681 69 687T93 699T110 704H296Q300 700 304 692T308
672L268 659Q250 653 240 643T226 617T222 572V126Q222 103 217 86T206 62L300 52Q302 50 304 44T307 31Q292 18 270 9T232 0ZM59 773Q50 777 43 782T33 795Q74 849 102 886T150 941T181 960Q192 960 211 941T259 885T327 795Q324 790 318 784T301 773L180 874L59
773Z" />
<glyph unicode="&#xcf;" horiz-adv-x="360" d="M232 0Q225 0 208 2T168 7T122 15T81 23T53 31Q53 38 56 44T62 54L88 57Q106 60 115 68T129 95T133 148V580Q133 620 140 636T150 655H63Q61 659 58 662T53 675Q58 681 69 687T93 699T110 704H296Q300 700 304 692T308
672L268 659Q250 653 240 643T226 617T222 572V126Q222 103 217 86T206 62L300 52Q302 50 304 44T307 31Q292 18 270 9T232 0ZM276 789Q269 789 260 796T240 815T224 838T218 856Q218 864 226 873T247 890T272 903T292 909Q299 909 308 901T327 882T342 858T348
839Q348 833 340 825T320 808T296 795T276 789ZM71 789Q65 789 56 796T37 815T20 838T13 856Q13 864 22 873T43 890T68 903T88 909Q96 909 105 902T123 883T138 859T144 840Q144 833 136 825T117 808T93 795T71 789Z" />
<glyph unicode="&#xd0;" horiz-adv-x="724" d="M204 333L132 334H54Q54 353 57 362T63 375L132 376L204 379Q271 380 323 383T419 391L427 384Q426 366 422 353T415 333H204ZM459 0Q432 0 391 2T302 7T206 14T119 22T56 30Q56 38 59 44T65 54L91 58Q109 60 119
68T133 95T137 148V578Q137 603 140 619T147 644T153 655H66Q63 658 60 664T56 675Q61 681 72 687T96 699T114 704H479Q494 700 512 693T550 675T585 654T611 632Q639 580 649 514T659 383Q659 321 652 265T633 163T604 87Q591 74 573 60T534 34T495 13T459 0ZM210
63H490Q509 79 523 110T546 181T560 267T565 357Q565 405 562 448T550 529T529 594T495 639Q476 644 441 647T364 654T282 657Q248 657 237 637T226 580V127Q226 104 221 87T210 63Z" />
<glyph unicode="&#xd1;" horiz-adv-x="770" d="M219 0Q211 0 190 3T141 11T90 21T53 30Q53 38 56 44T62 54L88 57Q107 60 116 69T129 98T133 153V578Q133 612 138 631T150 655H63Q60 658 57 662T53 675Q58 681 69 687T93 699T110 704H236L594 137Q590 155 588
183T586 258V576Q586 609 592 628T603 653H514Q512 656 509 660T504 673Q509 679 520 686T544 698T561 704H720Q725 699 728 691T733 672L692 659Q673 653 664 643T651 616T647 567V167Q647 119 650 80T657 24Q648 16 633 11T603 4T575 0L247 522Q225 559 215 584T203
617H198Q197 612 196 598T194 555V127Q194 104 189 88T179 65L293 52Q295 50 297 44T300 30Q289 21 275 15T245 4T219 0ZM484 781Q473 781 442 790T373 814T303 841L230 789Q225 791 219 795T209 808Q222 828 239 850T272 887T301 902Q313 902 344 893T414 870T486
845L552 906Q561 904 567 899T576 890Q564 867 547 842T512 799T484 781Z" />
<glyph unicode="&#xd2;" horiz-adv-x="718" d="M344 0Q316 0 282 10T213 35T153 68T113 100Q88 136 77 198T65 328Q65 385 71 441T86 543T107 617Q128 633 160 651T231 685T311 710T392 720Q416 720 448 711T514 688T574 657T614 624Q628 598 636 562T649 486T653
402Q653 343 647 286T631 181T608 102Q585 81 544 57T452 17T344 0ZM366 64Q393 64 424 73T482 94T521 115Q532 142 540 183T553 273T557 374Q557 437 551 492T533 584Q527 592 508 604T464 627T413 646T365 654Q341 654 309 647T245 630T194 608Q182 581 174 541T162
455T158 363Q158 298 166 237T193 139Q203 128 224 115T271 91T322 72T366 64ZM423 769L237 899Q242 912 252 925T275 947T294 956Q304 956 327 936T384 878T454 791Q450 785 441 778T423 769Z" />
<glyph unicode="&#xd3;" horiz-adv-x="718" d="M344 0Q316 0 282 10T213 35T153 68T113 100Q88 136 77 198T65 328Q65 385 71 441T86 543T107 617Q128 633 160 651T231 685T311 710T392 720Q416 720 448 711T514 688T574 657T614 624Q628 598 636 562T649 486T653
402Q653 343 647 286T631 181T608 102Q585 81 544 57T452 17T344 0ZM366 64Q393 64 424 73T482 94T521 115Q532 142 540 183T553 273T557 374Q557 437 551 492T533 584Q527 592 508 604T464 627T413 646T365 654Q341 654 309 647T245 630T194 608Q182 581 174 541T162
455T158 363Q158 298 166 237T193 139Q203 128 224 115T271 91T322 72T366 64ZM294 769Q283 772 275 779T263 791Q298 840 331 877T388 935T422 956Q430 956 441 948T464 926T480 899L294 769Z" />
<glyph unicode="&#xd4;" horiz-adv-x="718" d="M344 0Q316 0 282 10T213 35T153 68T113 100Q88 136 77 198T65 328Q65 385 71 441T86 543T107 617Q128 633 160 651T231 685T311 710T392 720Q416 720 448 711T514 688T574 657T614 624Q628 598 636 562T649 486T653
402Q653 343 647 286T631 181T608 102Q585 81 544 57T452 17T344 0ZM366 64Q393 64 424 73T482 94T521 115Q532 142 540 183T553 273T557 374Q557 437 551 492T533 584Q527 592 508 604T464 627T413 646T365 654Q341 654 309 647T245 630T194 608Q182 581 174 541T162
455T158 363Q158 298 166 237T193 139Q203 128 224 115T271 91T322 72T366 64ZM238 773Q229 777 222 782T212 795Q253 849 281 886T329 941T360 960Q371 960 390 941T438 885T506 795Q503 790 497 784T480 773L359 874L238 773Z" />
<glyph unicode="&#xd5;" horiz-adv-x="718" d="M344 0Q316 0 282 10T213 35T153 68T113 100Q88 136 77 198T65 328Q65 385 71 441T86 543T107 617Q128 633 160 651T231 685T311 710T392 720Q416 720 448 711T514 688T574 657T614 624Q628 598 636 562T649 486T653
402Q653 343 647 286T631 181T608 102Q585 81 544 57T452 17T344 0ZM366 64Q393 64 424 73T482 94T521 115Q532 142 540 183T553 273T557 374Q557 437 551 492T533 584Q527 592 508 604T464 627T413 646T365 654Q341 654 309 647T245 630T194 608Q182 581 174 541T162
455T158 363Q158 298 166 237T193 139Q203 128 224 115T271 91T322 72T366 64ZM450 781Q439 781 408 790T339 814T269 841L196 789Q191 791 185 795T175 808Q188 828 205 850T238 887T267 902Q279 902 310 893T380 870T452 845L518 906Q527 904 533 899T542 890Q530
867 513 842T478 799T450 781Z" />
<glyph unicode="&#xd6;" horiz-adv-x="718" d="M344 0Q316 0 282 10T213 35T153 68T113 100Q88 136 77 198T65 328Q65 385 71 441T86 543T107 617Q128 633 160 651T231 685T311 710T392 720Q416 720 448 711T514 688T574 657T614 624Q628 598 636 562T649 486T653
402Q653 343 647 286T631 181T608 102Q585 81 544 57T452 17T344 0ZM366 64Q393 64 424 73T482 94T521 115Q532 142 540 183T553 273T557 374Q557 437 551 492T533 584Q527 592 508 604T464 627T413 646T365 654Q341 654 309 647T245 630T194 608Q182 581 174 541T162
455T158 363Q158 298 166 237T193 139Q203 128 224 115T271 91T322 72T366 64ZM455 789Q448 789 439 796T419 815T403 838T397 856Q397 864 405 873T426 890T451 903T471 909Q478 909 487 901T506 882T521 858T527 839Q527 833 519 825T499 808T475 795T455 789ZM250
789Q244 789 235 796T216 815T199 838T192 856Q192 864 201 873T222 890T247 903T267 909Q275 909 284 902T302 883T317 859T323 840Q323 833 315 825T296 808T272 795T250 789Z" />
<glyph unicode="&#xd7;" horiz-adv-x="516" d="M107 113Q94 120 86 128T73 146L224 294L76 439Q85 451 96 461T120 477L262 331Q289 358 315 385T364 437T398 476Q415 467 428 455T445 431L295 295L435 146Q431 139 424 130T403 114L259 258L107 113Z" />
<glyph unicode="&#xd8;" horiz-adv-x="718" d="M226 -92Q210 -92 198 -87T180 -76L398 513Q419 569 439 626T477 732T505 812Q526 810 539 802T557 785L226 -92ZM344 0Q316 0 282 10T213 35T153 68T113 100Q88 136 77 198T65 328Q65 385 71 441T86 543T107 617Q128
633 160 651T231 685T311 710T392 720Q416 720 448 711T514 688T574 657T614 624Q628 598 636 562T649 486T653 402Q653 343 647 286T631 181T608 102Q585 81 544 57T452 17T344 0ZM366 64Q393 64 424 73T482 94T521 115Q532 142 540 183T553 273T557 374Q557 437
551 492T533 584Q527 592 508 604T464 627T413 646T365 654Q341 654 309 647T245 630T194 608Q182 581 174 541T162 455T158 363Q158 298 166 237T193 139Q203 128 224 115T271 91T322 72T366 64Z" />
<glyph unicode="&#xd9;" horiz-adv-x="737" d="M367 0Q334 0 294 12T217 42T155 78T127 108V578Q127 614 133 632T144 655H57Q54 658 51 662T46 675Q51 681 62 687T86 699T103 704H289Q294 700 298 692T303 672L262 659Q243 653 233 643T220 616T216 572V135Q226
123 247 111T295 88T345 72T387 65Q415 65 449 74T511 96T551 121V578Q551 611 557 630T568 655H483Q480 658 477 663T473 675Q478 681 489 688T513 699T530 704H687Q691 700 695 692T699 672L658 659Q640 654 631 644T618 616T614 567V106Q603 91 579 73T522 39T450
11T367 0ZM453 769L267 899Q272 912 282 925T305 947T324 956Q334 956 357 936T414 878T484 791Q480 785 471 778T453 769Z" />
<glyph unicode="&#xda;" horiz-adv-x="737" d="M367 0Q334 0 294 12T217 42T155 78T127 108V578Q127 614 133 632T144 655H57Q54 658 51 662T46 675Q51 681 62 687T86 699T103 704H289Q294 700 298 692T303 672L262 659Q243 653 233 643T220 616T216 572V135Q226
123 247 111T295 88T345 72T387 65Q415 65 449 74T511 96T551 121V578Q551 611 557 630T568 655H483Q480 658 477 663T473 675Q478 681 489 688T513 699T530 704H687Q691 700 695 692T699 672L658 659Q640 654 631 644T618 616T614 567V106Q603 91 579 73T522 39T450
11T367 0ZM325 769Q314 772 306 779T294 791Q329 840 362 877T419 935T453 956Q461 956 472 948T495 926T511 899L325 769Z" />
<glyph unicode="&#xdb;" horiz-adv-x="737" d="M367 0Q334 0 294 12T217 42T155 78T127 108V578Q127 614 133 632T144 655H57Q54 658 51 662T46 675Q51 681 62 687T86 699T103 704H289Q294 700 298 692T303 672L262 659Q243 653 233 643T220 616T216 572V135Q226
123 247 111T295 88T345 72T387 65Q415 65 449 74T511 96T551 121V578Q551 611 557 630T568 655H483Q480 658 477 663T473 675Q478 681 489 688T513 699T530 704H687Q691 700 695 692T699 672L658 659Q640 654 631 644T618 616T614 567V106Q603 91 579 73T522 39T450
11T367 0ZM268 773Q259 777 252 782T242 795Q283 849 311 886T359 941T390 960Q401 960 420 941T468 885T536 795Q533 790 527 784T510 773L389 874L268 773Z" />
<glyph unicode="&#xdc;" horiz-adv-x="737" d="M367 0Q334 0 294 12T217 42T155 78T127 108V578Q127 614 133 632T144 655H57Q54 658 51 662T46 675Q51 681 62 687T86 699T103 704H289Q294 700 298 692T303 672L262 659Q243 653 233 643T220 616T216 572V135Q226
123 247 111T295 88T345 72T387 65Q415 65 449 74T511 96T551 121V578Q551 611 557 630T568 655H483Q480 658 477 663T473 675Q478 681 489 688T513 699T530 704H687Q691 700 695 692T699 672L658 659Q640 654 631 644T618 616T614 567V106Q603 91 579 73T522 39T450
11T367 0ZM485 789Q478 789 469 796T449 815T433 838T427 856Q427 864 435 873T456 890T481 903T501 909Q508 909 517 901T536 882T551 858T557 839Q557 833 549 825T529 808T505 795T485 789ZM280 789Q274 789 265 796T246 815T229 838T222 856Q222 864 231 873T252
890T277 903T297 909Q305 909 314 902T332 883T347 859T353 840Q353 833 345 825T326 808T302 795T280 789Z" />
<glyph unicode="&#xdd;" horiz-adv-x="649" d="M385 0Q378 0 360 2T320 8T274 15T233 23T205 30Q205 38 208 44T214 54L241 57Q258 60 267 67T281 92T286 149V290L103 627Q95 643 85 649T54 655H24Q22 657 19 662T14 675Q19 681 30 688T54 699T72 704H282Q287
699 291 691T295 672L248 660Q232 656 220 651T207 629Q207 624 210 615T219 594L338 365H342Q378 457 402 517T445 615T477 672T508 704H637Q641 699 644 691T648 673L615 664Q593 659 575 649T538 616T497 554T445 451T375 293V126Q375 103 370 86T360 62L454
52Q456 49 458 44T460 30Q445 18 424 9T385 0ZM275 769Q264 772 256 779T244 791Q279 840 312 877T369 935T403 956Q411 956 422 948T445 926T461 899L275 769Z" />
<glyph unicode="&#xde;" horiz-adv-x="591" d="M232 0Q225 0 208 2T168 7T122 15T81 23T53 30Q53 38 56 44T62 54L88 57Q104 60 114 66T128 92T133 149V578Q133 603 136 619T143 644T150 655H63Q59 658 56 664T53 675Q58 681 69 687T93 699T110 704H298Q302 699
306 692T311 672L270 659Q242 650 232 633T222 571V538H424Q443 533 466 523T509 499T543 470Q552 453 556 430T560 384Q560 347 550 310T523 253Q511 242 489 228T441 204T389 191H222V126Q222 103 217 86T206 62L300 52Q302 50 304 43T307 30Q291 17 270 9T232
0ZM222 241Q292 242 346 245T439 254Q454 275 462 307T470 373Q470 405 463 431T444 474Q425 480 397 483T340 488T286 490Q250 490 236 470T222 415V241Z" />
<glyph unicode="&#xdf;" horiz-adv-x="597" d="M188 0Q181 0 162 3T121 10T77 20T44 30Q44 38 47 43T53 51L79 55Q95 58 104 73T113 131V451L46 457Q46 471 49 480T56 494L117 500L109 715Q113 723 128 734T166 756T212 778T259 794T296 800Q312 800 337 787T392
752T447 708T489 665T505 634Q505 610 490 585T443 530T363 460Q362 450 361 438T360 415Q360 402 360 390T364 363Q367 359 386 348T432 320T487 286T539 251T571 219Q574 209 575 196T577 169Q577 140 572 110T560 67Q548 53 527 38T479 11T427 0Q403 0 378 9T332
32T295 57T276 74Q276 95 284 119T302 159Q312 159 319 156T328 151Q332 135 341 110T359 70Q371 66 385 65T416 63Q437 63 459 66T497 80Q500 90 502 109T505 145Q505 157 505 169T502 190Q499 196 479 209T430 239T373 273T323 304T295 325Q292 339 291 352T290
379Q290 408 292 430T298 465Q346 513 375 543T418 592T432 622Q432 629 421 643T393 673T358 704T324 728T301 738Q285 738 261 734T215 725T177 716L186 500V114Q186 92 182 78T173 57L236 49Q238 46 240 42T243 30Q236 18 218 9T188 0Z" />
<glyph unicode="&#xe0;" horiz-adv-x="533" d="M196 -4Q179 -4 154 7T107 32T78 56Q70 66 65 93T60 152Q60 164 60 174T62 195Q63 200 73 210T99 232T129 253T156 264Q165 266 182 267T222 269Q236 270 252 271T284 274T316 278T346 283V406Q316 420 281 427T216
435Q204 435 193 434T171 431L147 345Q143 344 135 341T112 336Q103 349 91 372T74 425Q94 443 119 457T173 480T228 495T279 500Q294 500 318 492T368 470T409 443T426 418V61L497 53Q499 51 501 45T504 31Q498 24 484 17T456 5T430 0Q415 0 399 7T370 26T352
53Q326 40 296 27T239 5T196 -4ZM224 62Q236 62 259 68T307 83T346 100V230Q320 225 295 223T241 218Q210 215 182 211T141 198Q140 176 140 148T150 99Q161 87 183 75T224 62ZM329 565L154 693Q159 706 168 718T189 738T207 747Q216 747 238 727T292 671T357 586Q354
581 346 575T329 565Z" />
<glyph unicode="&#xe1;" horiz-adv-x="533" d="M196 -4Q179 -4 154 7T107 32T78 56Q70 66 65 93T60 152Q60 164 60 174T62 195Q63 200 73 210T99 232T129 253T156 264Q165 266 182 267T222 269Q236 270 252 271T284 274T316 278T346 283V406Q316 420 281 427T216
435Q204 435 193 434T171 431L147 345Q143 344 135 341T112 336Q103 349 91 372T74 425Q94 443 119 457T173 480T228 495T279 500Q294 500 318 492T368 470T409 443T426 418V61L497 53Q499 51 501 45T504 31Q498 24 484 17T456 5T430 0Q415 0 399 7T370 26T352
53Q326 40 296 27T239 5T196 -4ZM224 62Q236 62 259 68T307 83T346 100V230Q320 225 295 223T241 218Q210 215 182 211T141 198Q140 176 140 148T150 99Q161 87 183 75T224 62ZM207 565Q198 568 191 574T179 586Q213 634 243 670T297 726T329 747Q336 747 347 739T368
718T382 693L207 565Z" />
<glyph unicode="&#xe2;" horiz-adv-x="533" d="M196 -4Q179 -4 154 7T107 32T78 56Q70 66 65 93T60 152Q60 164 60 174T62 195Q63 200 73 210T99 232T129 253T156 264Q165 266 182 267T222 269Q236 270 252 271T284 274T316 278T346 283V406Q316 420 281 427T216
435Q204 435 193 434T171 431L147 345Q143 344 135 341T112 336Q103 349 91 372T74 425Q94 443 119 457T173 480T228 495T279 500Q294 500 318 492T368 470T409 443T426 418V61L497 53Q499 51 501 45T504 31Q498 24 484 17T456 5T430 0Q415 0 399 7T370 26T352
53Q326 40 296 27T239 5T196 -4ZM224 62Q236 62 259 68T307 83T346 100V230Q320 225 295 223T241 218Q210 215 182 211T141 198Q140 176 140 148T150 99Q161 87 183 75T224 62ZM155 570Q145 575 139 580T131 590Q169 645 196 680T241 734T269 752Q279 752 297 734T342
681T407 590Q404 586 399 580T382 570L269 670L155 570Z" />
<glyph unicode="&#xe3;" horiz-adv-x="533" d="M196 -4Q179 -4 154 7T107 32T78 56Q70 66 65 93T60 152Q60 164 60 174T62 195Q63 200 73 210T99 232T129 253T156 264Q165 266 182 267T222 269Q236 270 252 271T284 274T316 278T346 283V406Q316 420 281 427T216
435Q204 435 193 434T171 431L147 345Q143 344 135 341T112 336Q103 349 91 372T74 425Q94 443 119 457T173 480T228 495T279 500Q294 500 318 492T368 470T409 443T426 418V61L497 53Q499 51 501 45T504 31Q498 24 484 17T456 5T430 0Q415 0 399 7T370 26T352
53Q326 40 296 27T239 5T196 -4ZM224 62Q236 62 259 68T307 83T346 100V230Q320 225 295 223T241 218Q210 215 182 211T141 198Q140 176 140 148T150 99Q161 87 183 75T224 62ZM360 577Q349 577 318 586T249 610T179 637L106 585Q101 587 95 591T85 604Q98 624
115 646T148 683T177 698Q189 698 220 689T290 666T362 641L428 702Q437 700 443 695T452 686Q440 663 423 638T388 595T360 577Z" />
<glyph unicode="&#xe4;" horiz-adv-x="533" d="M196 -4Q179 -4 154 7T107 32T78 56Q70 66 65 93T60 152Q60 164 60 174T62 195Q63 200 73 210T99 232T129 253T156 264Q165 266 182 267T222 269Q236 270 252 271T284 274T316 278T346 283V406Q316 420 281 427T216
435Q204 435 193 434T171 431L147 345Q143 344 135 341T112 336Q103 349 91 372T74 425Q94 443 119 457T173 480T228 495T279 500Q294 500 318 492T368 470T409 443T426 418V61L497 53Q499 51 501 45T504 31Q498 24 484 17T456 5T430 0Q415 0 399 7T370 26T352
53Q326 40 296 27T239 5T196 -4ZM224 62Q236 62 259 68T307 83T346 100V230Q320 225 295 223T241 218Q210 215 182 211T141 198Q140 176 140 148T150 99Q161 87 183 75T224 62ZM358 588Q352 588 343 595T325 613T311 635T305 652Q305 660 313 668T332 684T355 697T373
703Q381 703 389 696T406 677T419 654T425 636Q425 629 413 618T385 597T358 588ZM167 588Q161 588 152 595T134 613T119 634T113 652Q113 660 121 668T141 684T165 697T183 703Q189 703 197 696T214 677T228 655T234 636Q234 629 222 618T193 597T167 588Z" />
<glyph unicode="&#xe5;" horiz-adv-x="533" d="M196 -4Q179 -4 154 7T107 32T78 56Q70 66 65 93T60 152Q60 164 60 174T62 195Q63 200 73 210T99 232T129 253T156 264Q165 266 182 267T222 269Q236 270 252 271T284 274T316 278T346 283V406Q316 420 281 427T216
435Q204 435 193 434T171 431L147 345Q143 344 135 341T112 336Q103 349 91 372T74 425Q94 443 119 457T173 480T228 495T279 500Q294 500 318 492T368 470T409 443T426 418V61L497 53Q499 51 501 45T504 31Q498 24 484 17T456 5T430 0Q415 0 399 7T370 26T352
53Q326 40 296 27T239 5T196 -4ZM224 62Q236 62 259 68T307 83T346 100V230Q320 225 295 223T241 218Q210 215 182 211T141 198Q140 176 140 148T150 99Q161 87 183 75T224 62ZM270 565Q226 565 197 591T167 659Q167 700 196 727T269 755Q314 755 343 728T372 659Q372
618 343 592T270 565ZM269 609Q294 609 309 622T324 659Q324 683 309 697T269 711Q246 711 231 697T216 659Q216 637 231 623T269 609Z" />
<glyph unicode="&#xe6;" horiz-adv-x="750" d="M215 0Q200 0 180 6T138 21T101 39T78 56Q70 66 65 92T60 152Q60 164 60 174T62 195Q63 200 73 210T99 232T130 253T156 264Q167 265 184 266T223 269T266 272T309 275T346 278V406Q317 420 281 427T215 435Q204
435 193 434T171 431L147 345Q143 344 135 341T112 336Q103 348 92 371T74 425Q93 443 118 457T171 480T227 495T279 500Q296 500 320 492T369 470T410 444Q434 457 463 470T522 491T578 500Q594 500 618 489T663 464T692 439Q698 429 703 406T711 356T714 310Q705
297 691 285T663 263T640 248Q605 244 549 239T422 230Q423 194 428 164T440 123Q445 118 459 109T491 89T526 73T555 66Q567 66 586 69T626 76T664 84T691 90Q695 87 699 81T703 66Q683 50 657 35T602 10T544 0Q519 0 494 8T446 27T406 50T380 71Q358 55 331 39T274
12T215 0ZM238 65Q250 65 270 70T312 83T346 97V227Q326 225 296 224T235 219T178 212T141 199Q140 177 140 148T150 99Q158 93 173 85T206 71T238 65ZM421 283Q461 284 500 286T575 292T637 300Q637 314 636 332T632 368T625 395Q622 399 609 408T579 424T551
432Q540 432 517 427T470 416T436 404Q432 392 429 371T423 326T421 283Z" />
<glyph unicode="&#xe7;" horiz-adv-x="449" d="M260 0Q233 0 205 9T152 32T110 58T87 78Q73 98 65 137T57 222Q57 263 60 301T70 370T83 421Q98 431 122 444T176 470T237 491T296 500Q311 500 331 492T372 471T408 446T427 426Q427 414 421 396T406 361T389 336Q379
336 371 339T355 345Q350 361 342 382T324 419T303 435Q270 435 240 428T188 413T154 399Q151 389 147 370T141 325T138 272Q138 242 141 211T148 156T157 123Q162 118 176 109T207 89T242 73T272 66Q288 66 315 70T368 80T402 88Q405 85 409 79T413 64Q393 48
369 34T317 10T260 0ZM222 -200Q214 -200 200 -196T173 -187T157 -176Q157 -169 159 -165T162 -159Q198 -159 225 -158T276 -152Q281 -144 284 -129T287 -103Q280 -97 263 -91T226 -78T189 -69Q185 -63 181 -54T176 -34Q186 -17 193 -3T217 37H248L226 -37Q253
-41 281 -51T327 -72T346 -91Q346 -107 340 -130T323 -166Q307 -176 287 -183T249 -195T222 -200Z" />
<glyph unicode="&#xe8;" horiz-adv-x="467" d="M260 0Q233 0 205 9T151 33T109 59T87 78Q73 98 65 138T57 222Q57 263 60 301T70 370T83 421Q97 430 121 443T176 469T237 491T295 500Q311 500 335 490T380 465T410 439Q417 430 421 407T428 356T430 310Q421 296
407 284T378 261T354 246Q344 243 312 239T235 231T138 227Q140 192 145 163T156 123Q161 118 175 109T208 89T243 73T272 66Q284 66 304 69T345 76T385 84T412 90Q416 87 420 80T424 66Q403 50 377 35T321 10T260 0ZM214 282Q240 282 267 284T318 291T353 301Q354
314 353 333T349 370T343 395Q341 399 327 408T296 424T268 432Q257 432 233 427T186 414T153 399Q148 386 145 367T139 327T137 289Q149 286 170 284T214 282ZM317 565L142 693Q147 706 156 718T177 738T195 747Q204 747 226 727T280 671T345 586Q342 581 334
575T317 565Z" />
<glyph unicode="&#xe9;" horiz-adv-x="467" d="M260 0Q233 0 205 9T151 33T109 59T87 78Q73 98 65 138T57 222Q57 263 60 301T70 370T83 421Q97 430 121 443T176 469T237 491T295 500Q311 500 335 490T380 465T410 439Q417 430 421 407T428 356T430 310Q421 296
407 284T378 261T354 246Q344 243 312 239T235 231T138 227Q140 192 145 163T156 123Q161 118 175 109T208 89T243 73T272 66Q284 66 304 69T345 76T385 84T412 90Q416 87 420 80T424 66Q403 50 377 35T321 10T260 0ZM214 282Q240 282 267 284T318 291T353 301Q354
314 353 333T349 370T343 395Q341 399 327 408T296 424T268 432Q257 432 233 427T186 414T153 399Q148 386 145 367T139 327T137 289Q149 286 170 284T214 282ZM195 565Q186 568 179 574T167 586Q201 634 231 670T285 726T317 747Q324 747 335 739T356 718T370
693L195 565Z" />
<glyph unicode="&#xea;" horiz-adv-x="467" d="M260 0Q233 0 205 9T151 33T109 59T87 78Q73 98 65 138T57 222Q57 263 60 301T70 370T83 421Q97 430 121 443T176 469T237 491T295 500Q311 500 335 490T380 465T410 439Q417 430 421 407T428 356T430 310Q421 296
407 284T378 261T354 246Q344 243 312 239T235 231T138 227Q140 192 145 163T156 123Q161 118 175 109T208 89T243 73T272 66Q284 66 304 69T345 76T385 84T412 90Q416 87 420 80T424 66Q403 50 377 35T321 10T260 0ZM214 282Q240 282 267 284T318 291T353 301Q354
314 353 333T349 370T343 395Q341 399 327 408T296 424T268 432Q257 432 233 427T186 414T153 399Q148 386 145 367T139 327T137 289Q149 286 170 284T214 282ZM143 570Q133 575 127 580T119 590Q157 645 184 680T229 734T257 752Q267 752 285 734T330 681T395
590Q392 586 387 580T370 570L257 670L143 570Z" />
<glyph unicode="&#xeb;" horiz-adv-x="467" d="M260 0Q233 0 205 9T151 33T109 59T87 78Q73 98 65 138T57 222Q57 263 60 301T70 370T83 421Q97 430 121 443T176 469T237 491T295 500Q311 500 335 490T380 465T410 439Q417 430 421 407T428 356T430 310Q421 296
407 284T378 261T354 246Q344 243 312 239T235 231T138 227Q140 192 145 163T156 123Q161 118 175 109T208 89T243 73T272 66Q284 66 304 69T345 76T385 84T412 90Q416 87 420 80T424 66Q403 50 377 35T321 10T260 0ZM214 282Q240 282 267 284T318 291T353 301Q354
314 353 333T349 370T343 395Q341 399 327 408T296 424T268 432Q257 432 233 427T186 414T153 399Q148 386 145 367T139 327T137 289Q149 286 170 284T214 282ZM346 588Q340 588 331 595T313 613T299 635T293 652Q293 660 301 668T320 684T343 697T361 703Q369
703 377 696T394 677T407 654T413 636Q413 629 401 618T373 597T346 588ZM155 588Q149 588 140 595T122 613T107 634T101 652Q101 660 109 668T129 684T153 697T171 703Q177 703 185 696T202 677T216 655T222 636Q222 629 210 618T181 597T155 588Z" />
<glyph unicode="&#xec;" horiz-adv-x="302" d="M202 0Q194 0 173 3T127 11T80 21T45 30Q45 37 48 43T54 52L81 57Q92 59 100 66T112 89T116 132V407Q116 416 113 422T99 431L44 449Q45 459 48 466T54 477Q69 485 95 492T135 500Q162 500 179 482T196 436V115Q196
94 192 80T185 59L266 52Q268 48 270 43T272 31Q267 24 254 17T226 5T202 0ZM203 565L28 693Q33 706 42 718T63 738T81 747Q90 747 112 727T166 671T231 586Q228 581 220 575T203 565Z" />
<glyph unicode="&#xed;" horiz-adv-x="302" d="M202 0Q194 0 173 3T127 11T80 21T45 30Q45 37 48 43T54 52L81 57Q92 59 100 66T112 89T116 132V407Q116 416 113 422T99 431L44 449Q45 459 48 466T54 477Q69 485 95 492T135 500Q162 500 179 482T196 436V115Q196
94 192 80T185 59L266 52Q268 48 270 43T272 31Q267 24 254 17T226 5T202 0ZM82 565Q73 568 66 574T54 586Q88 634 118 670T172 726T204 747Q211 747 222 739T243 718T257 693L82 565Z" />
<glyph unicode="&#xee;" horiz-adv-x="302" d="M202 0Q194 0 173 3T127 11T80 21T45 30Q45 37 48 43T54 52L81 57Q92 59 100 66T112 89T116 132V407Q116 416 113 422T99 431L44 449Q45 459 48 466T54 477Q69 485 95 492T135 500Q162 500 179 482T196 436V115Q196
94 192 80T185 59L266 52Q268 48 270 43T272 31Q267 24 254 17T226 5T202 0ZM29 570Q19 575 13 580T5 590Q43 645 70 680T115 734T143 752Q153 752 171 734T216 681T281 590Q278 586 273 580T256 570L143 670L29 570Z" />
<glyph unicode="&#xef;" horiz-adv-x="302" d="M202 0Q194 0 173 3T127 11T80 21T45 30Q45 37 48 43T54 52L81 57Q92 59 100 66T112 89T116 132V407Q116 416 113 422T99 431L44 449Q45 459 48 466T54 477Q69 485 95 492T135 500Q162 500 179 482T196 436V115Q196
94 192 80T185 59L266 52Q268 48 270 43T272 31Q267 24 254 17T226 5T202 0ZM488 588Q482 588 473 595T455 613T441 635T435 652Q435 660 443 668T462 684T485 697T503 703Q511 703 519 696T536 677T549 654T555 636Q555 629 543 618T515 597T488 588ZM297 588Q291
588 282 595T264 613T249 634T243 652Q243 660 251 668T271 684T295 697T313 703Q319 703 327 696T344 677T358 655T364 636Q364 629 352 618T323 597T297 588Z" />
<glyph unicode="&#xf0;" horiz-adv-x="535" d="M258 0Q233 0 206 9T155 32T112 58T87 79Q72 98 65 138T57 223Q57 283 65 334T83 416Q98 426 123 440T178 468T239 491T298 500Q311 500 328 494T362 480T391 465Q380 531 350 577T265 661T118 735Q120 746 123 754T131
770T140 780Q238 747 303 709T407 617T462 489T479 306Q479 269 476 228T467 150T452 86Q439 75 419 61T372 32T317 9T258 0ZM272 65Q286 65 309 71T352 84T380 95Q386 112 390 141T396 206T398 273Q398 290 398 308T397 341T395 369T390 390Q382 397 361 408T317
427T277 436Q264 436 239 429T189 414T153 400Q148 389 145 368T139 323T137 274Q137 239 140 208T147 154T156 123Q161 118 174 108T205 89T241 72T272 65ZM160 519Q151 523 143 531T129 549L291 694Q316 716 335 734T367 766T386 787Q403 781 416 769T434 748L160
519Z" />
<glyph unicode="&#xf1;" horiz-adv-x="605" d="M202 0Q195 0 175 3T129 11T81 21T47 30Q47 37 50 43T56 52L83 57Q99 59 108 73T118 132V407Q118 415 115 421T101 431L44 449Q46 461 48 466T54 477Q69 485 95 492T135 500Q164 500 180 483T196 436Q219 450 245
464T298 489T343 500Q365 500 392 491T444 466T485 434T501 402V115Q501 94 498 80T490 59L571 52Q574 48 576 43T578 31Q572 24 559 17T532 5T507 0Q499 0 479 3T434 11T387 21T354 30Q354 38 357 43T363 52L388 56Q399 58 406 64T417 87T421 132V371Q421 381
410 391T381 411T348 426T322 432Q315 432 299 427T262 414T225 399T198 389V116Q198 96 194 81T186 59L266 52Q268 48 270 43T272 31Q267 23 254 16T226 5T202 0ZM394 577Q383 577 352 586T283 610T213 637L140 585Q135 587 129 591T119 604Q132 624 149 646T182
683T211 698Q223 698 254 689T324 666T396 641L462 702Q471 700 477 695T486 686Q474 663 457 638T422 595T394 577Z" />
<glyph unicode="&#xf2;" horiz-adv-x="534" d="M258 0Q233 0 206 9T155 32T112 58T87 79Q72 98 65 138T57 223Q57 264 60 301T70 369T83 421Q98 430 123 443T178 470T239 491T298 500Q316 500 339 492T387 472T430 448T456 425Q464 412 469 387T476 332T478 278Q478
221 470 168T452 81Q439 71 419 57T372 30T317 9T258 0ZM272 65Q286 65 309 72T352 87T380 100Q388 120 392 157T396 229Q396 261 394 293T389 349T381 382Q376 388 356 400T312 422T269 432Q256 432 233 427T187 414T153 400Q148 389 145 368T139 322T137 274Q137
239 140 208T147 154T156 123Q161 118 174 108T205 89T241 72T272 65ZM328 565L153 693Q158 706 167 718T188 738T206 747Q215 747 237 727T291 671T356 586Q353 581 345 575T328 565Z" />
<glyph unicode="&#xf3;" horiz-adv-x="534" d="M258 0Q233 0 206 9T155 32T112 58T87 79Q72 98 65 138T57 223Q57 264 60 301T70 369T83 421Q98 430 123 443T178 470T239 491T298 500Q316 500 339 492T387 472T430 448T456 425Q464 412 469 387T476 332T478 278Q478
221 470 168T452 81Q439 71 419 57T372 30T317 9T258 0ZM272 65Q286 65 309 72T352 87T380 100Q388 120 392 157T396 229Q396 261 394 293T389 349T381 382Q376 388 356 400T312 422T269 432Q256 432 233 427T187 414T153 400Q148 389 145 368T139 322T137 274Q137
239 140 208T147 154T156 123Q161 118 174 108T205 89T241 72T272 65ZM206 565Q197 568 190 574T178 586Q212 634 242 670T296 726T328 747Q335 747 346 739T367 718T381 693L206 565Z" />
<glyph unicode="&#xf4;" horiz-adv-x="534" d="M258 0Q233 0 206 9T155 32T112 58T87 79Q72 98 65 138T57 223Q57 264 60 301T70 369T83 421Q98 430 123 443T178 470T239 491T298 500Q316 500 339 492T387 472T430 448T456 425Q464 412 469 387T476 332T478 278Q478
221 470 168T452 81Q439 71 419 57T372 30T317 9T258 0ZM272 65Q286 65 309 72T352 87T380 100Q388 120 392 157T396 229Q396 261 394 293T389 349T381 382Q376 388 356 400T312 422T269 432Q256 432 233 427T187 414T153 400Q148 389 145 368T139 322T137 274Q137
239 140 208T147 154T156 123Q161 118 174 108T205 89T241 72T272 65ZM154 570Q144 575 138 580T130 590Q168 645 195 680T240 734T268 752Q278 752 296 734T341 681T406 590Q403 586 398 580T381 570L268 670L154 570Z" />
<glyph unicode="&#xf5;" horiz-adv-x="534" d="M258 0Q233 0 206 9T155 32T112 58T87 79Q72 98 65 138T57 223Q57 264 60 301T70 369T83 421Q98 430 123 443T178 470T239 491T298 500Q316 500 339 492T387 472T430 448T456 425Q464 412 469 387T476 332T478 278Q478
221 470 168T452 81Q439 71 419 57T372 30T317 9T258 0ZM272 65Q286 65 309 72T352 87T380 100Q388 120 392 157T396 229Q396 261 394 293T389 349T381 382Q376 388 356 400T312 422T269 432Q256 432 233 427T187 414T153 400Q148 389 145 368T139 322T137 274Q137
239 140 208T147 154T156 123Q161 118 174 108T205 89T241 72T272 65ZM359 577Q348 577 317 586T248 610T178 637L105 585Q100 587 94 591T84 604Q97 624 114 646T147 683T176 698Q188 698 219 689T289 666T361 641L427 702Q436 700 442 695T451 686Q439 663 422
638T387 595T359 577Z" />
<glyph unicode="&#xf6;" horiz-adv-x="534" d="M258 0Q233 0 206 9T155 32T112 58T87 79Q72 98 65 138T57 223Q57 264 60 301T70 369T83 421Q98 430 123 443T178 470T239 491T298 500Q316 500 339 492T387 472T430 448T456 425Q464 412 469 387T476 332T478 278Q478
221 470 168T452 81Q439 71 419 57T372 30T317 9T258 0ZM272 65Q286 65 309 72T352 87T380 100Q388 120 392 157T396 229Q396 261 394 293T389 349T381 382Q376 388 356 400T312 422T269 432Q256 432 233 427T187 414T153 400Q148 389 145 368T139 322T137 274Q137
239 140 208T147 154T156 123Q161 118 174 108T205 89T241 72T272 65ZM357 588Q351 588 342 595T324 613T310 635T304 652Q304 660 312 668T331 684T354 697T372 703Q380 703 388 696T405 677T418 654T424 636Q424 629 412 618T384 597T357 588ZM166 588Q160 588
151 595T133 613T118 634T112 652Q112 660 120 668T140 684T164 697T182 703Q188 703 196 696T213 677T227 655T233 636Q233 629 221 618T192 597T166 588Z" />
<glyph unicode="&#xf7;" horiz-adv-x="516" d="M250 63Q244 63 235 70T218 89T203 111T197 131Q197 138 205 147T226 164T251 177T270 183Q277 183 286 175T304 156T318 133T324 113Q324 108 316 99T295 82T271 69T250 63ZM254 370Q248 370 238 378T219 397T204
419T197 438Q197 445 205 454T226 471T251 485T270 491Q277 491 286 483T304 464T318 440T324 422Q324 415 317 407T298 390T274 376T254 370ZM53 252Q53 273 57 284T66 297Q125 297 194 298T332 303T456 309L465 300Q464 281 460 269T453 252H53Z" />
<glyph unicode="&#xf8;" horiz-adv-x="534" d="M456 425Q464 412 469 387T476 332T478 278Q478 221 470 168T452 81Q439 71 419 57T372 30T317 9T258 0Q245 0 231 3T202 10L164 -92Q150 -92 139 -87T122 -76L161 29Q135 42 115 56T87 79Q72 98 65 138T57 223Q57
264 60 301T70 369T83 421Q98 430 123 443T178 470T239 491T298 500Q305 500 313 499T331 495Q344 528 354 556T372 606Q391 604 402 596T415 579L377 477Q404 465 426 451T456 425ZM137 274Q137 221 143 178T156 123Q159 119 167 113T187 100L305 425Q296 428
287 430T269 432Q256 432 233 427T187 414T153 400Q148 389 145 368T139 322T137 274ZM380 100Q388 120 392 157T396 229Q396 261 394 293T389 349T381 382Q378 385 370 391T350 403L227 78Q239 72 251 69T272 65Q286 65 309 72T352 87T380 100Z" />
<glyph unicode="&#xf9;" d="M246 -4Q223 -4 197 7T148 34T111 65T97 90V407Q97 416 94 422T80 431L25 449Q27 460 29 467T35 477Q50 485 76 492T116 500Q143 500 160 482T177 436V116Q187 106 203 93T238 71T271 61Q284 61 307 67T356 84T400 102V407Q400 416
396 422T383 431L321 451Q322 461 324 467T329 477Q340 482 357 487T392 496T420 500Q446 500 463 482T480 436V61L551 53Q553 50 555 44T558 31Q552 23 538 16T509 5T484 0Q459 0 437 14T407 48Q385 36 355 24T296 4T246 -4ZM348 565L173 693Q178 706 187 718T208
738T226 747Q235 747 257 727T311 671T376 586Q373 581 365 575T348 565Z" />
<glyph unicode="&#xfa;" d="M246 -4Q223 -4 197 7T148 34T111 65T97 90V407Q97 416 94 422T80 431L25 449Q27 460 29 467T35 477Q50 485 76 492T116 500Q143 500 160 482T177 436V116Q187 106 203 93T238 71T271 61Q284 61 307 67T356 84T400 102V407Q400 416
396 422T383 431L321 451Q322 461 324 467T329 477Q340 482 357 487T392 496T420 500Q446 500 463 482T480 436V61L551 53Q553 50 555 44T558 31Q552 23 538 16T509 5T484 0Q459 0 437 14T407 48Q385 36 355 24T296 4T246 -4ZM226 565Q217 568 210 574T198 586Q232
634 262 670T316 726T348 747Q355 747 366 739T387 718T401 693L226 565Z" />
<glyph unicode="&#xfb;" d="M246 -4Q223 -4 197 7T148 34T111 65T97 90V407Q97 416 94 422T80 431L25 449Q27 460 29 467T35 477Q50 485 76 492T116 500Q143 500 160 482T177 436V116Q187 106 203 93T238 71T271 61Q284 61 307 67T356 84T400 102V407Q400 416
396 422T383 431L321 451Q322 461 324 467T329 477Q340 482 357 487T392 496T420 500Q446 500 463 482T480 436V61L551 53Q553 50 555 44T558 31Q552 23 538 16T509 5T484 0Q459 0 437 14T407 48Q385 36 355 24T296 4T246 -4ZM174 570Q164 575 158 580T150 590Q188
645 215 680T260 734T288 752Q298 752 316 734T361 681T426 590Q423 586 418 580T401 570L288 670L174 570Z" />
<glyph unicode="&#xfc;" d="M246 -4Q223 -4 197 7T148 34T111 65T97 90V407Q97 416 94 422T80 431L25 449Q27 460 29 467T35 477Q50 485 76 492T116 500Q143 500 160 482T177 436V116Q187 106 203 93T238 71T271 61Q284 61 307 67T356 84T400 102V407Q400 416
396 422T383 431L321 451Q322 461 324 467T329 477Q340 482 357 487T392 496T420 500Q446 500 463 482T480 436V61L551 53Q553 50 555 44T558 31Q552 23 538 16T509 5T484 0Q459 0 437 14T407 48Q385 36 355 24T296 4T246 -4ZM377 588Q371 588 362 595T344 613T330
635T324 652Q324 660 332 668T351 684T374 697T392 703Q400 703 408 696T425 677T438 654T444 636Q444 629 432 618T404 597T377 588ZM186 588Q180 588 171 595T153 613T138 634T132 652Q132 660 140 668T160 684T184 697T202 703Q208 703 216 696T233 677T247
655T253 636Q253 629 241 618T212 597T186 588Z" />
<glyph unicode="&#xfd;" horiz-adv-x="549" d="M109 -200Q100 -200 85 -194T57 -178T36 -161Q38 -151 40 -146T44 -137Q95 -132 140 -112T225 -58T292 23Q258 33 226 47T170 76T138 100L85 375Q82 393 76 409T50 432L-2 450Q-2 460 1 467T6 476Q17 482 32 487T62
496T85 500Q118 500 138 476T163 415L207 140Q215 134 234 123T278 100T325 82Q341 114 354 149T379 221T398 293T410 359T417 415Q405 423 383 432T338 449T300 461Q301 468 303 475T309 486Q319 491 335 493T368 498T400 500Q410 500 427 492T461 473T489 450T501
433Q500 397 489 345T457 231T407 108Q379 47 346 -8T274 -107T194 -175T109 -200ZM210 565Q201 568 194 574T182 586Q216 634 246 670T300 726T332 747Q339 747 350 739T371 718T385 693L210 565Z" />
<glyph unicode="&#xfe;" horiz-adv-x="575" d="M196 -200Q189 -200 168 -197T122 -189T73 -179T39 -170Q39 -163 42 -157T47 -148L75 -143Q86 -141 93 -135T105 -113T110 -68V707Q110 715 107 721T93 731L27 751Q28 760 31 767T36 777Q46 782 64 787T100 796T129
800Q156 800 173 782T190 736V435Q208 446 227 457T267 479T305 494T338 500Q355 500 378 493T426 473T469 449T496 425Q505 412 510 386T516 331T518 278Q518 223 511 171T493 86Q480 75 459 61T411 32T355 9T297 0Q271 0 242 12T190 38V-85Q190 -106 186 -120T179
-141L261 -148Q263 -152 265 -157T267 -169Q262 -176 249 -183T221 -195T196 -200ZM309 65Q323 65 346 71T391 84T420 95Q428 115 432 153T436 231Q436 265 434 296T429 349T422 380Q416 388 397 400T355 422T314 432Q305 432 282 426T234 410T190 394V101Q208
92 230 84T273 70T309 65Z" />
<glyph unicode="&#xff;" horiz-adv-x="549" d="M109 -200Q100 -200 85 -194T57 -178T36 -161Q38 -151 40 -146T44 -137Q95 -132 140 -112T225 -58T292 23Q258 33 226 47T170 76T138 100L85 375Q82 393 76 409T50 432L-2 450Q-2 460 1 467T6 476Q17 482 32 487T62
496T85 500Q118 500 138 476T163 415L207 140Q215 134 234 123T278 100T325 82Q341 114 354 149T379 221T398 293T410 359T417 415Q405 423 383 432T338 449T300 461Q301 468 303 475T309 486Q319 491 335 493T368 498T400 500Q410 500 427 492T461 473T489 450T501
433Q500 397 489 345T457 231T407 108Q379 47 346 -8T274 -107T194 -175T109 -200ZM361 588Q355 588 346 595T328 613T314 635T308 652Q308 660 316 668T335 684T358 697T376 703Q384 703 392 696T409 677T422 654T428 636Q428 629 416 618T388 597T361 588ZM170
588Q164 588 155 595T137 613T122 634T116 652Q116 660 124 668T144 684T168 697T186 703Q192 703 200 696T217 677T231 655T237 636Q237 629 225 618T196 597T170 588Z" />
<glyph unicode="&#x2013;" horiz-adv-x="553" d="M30 259Q30 282 34 293T42 306Q88 306 144 307T259 309T369 311T461 314T517 318L526 308Q525 293 522 280T515 259H30Z" />
<glyph unicode="&#x2014;" horiz-adv-x="880" d="M30 259Q30 281 34 292T42 307Q125 307 211 307T381 309T540 311T678 314T783 316T843 319L853 308Q853 292 850 280T842 259H30Z" />
<glyph unicode="&#x2018;" horiz-adv-x="209" d="M89 519Q83 519 74 526T57 545T42 568T36 587Q36 599 42 618T57 659T78 699T100 730T120 742Q130 742 139 737T154 725T161 712Q149 705 138 692T117 664T105 637Q117 633 129 620T150 593T159 570Q159 563 151
554T132 538T109 525T89 519Z" />
<glyph unicode="&#x2019;" horiz-adv-x="209" d="M89 517Q80 517 71 522T56 534T49 547Q61 555 72 568T92 596T105 623Q93 627 81 640T59 667T50 690Q50 696 58 705T78 722T101 735T120 740Q127 740 135 733T153 714T167 691T173 672Q173 660 167 641T152 601T131
560T109 529T89 517Z" />
<glyph unicode="&#x201a;" horiz-adv-x="221" d="M69 -122Q59 -122 50 -117T35 -105T27 -92Q39 -85 55 -69T86 -32T104 4Q92 8 79 20T58 47T49 70Q49 77 57 86T77 103T100 116T119 121Q126 121 135 114T152 95T166 72T172 52Q172 39 164 18T144 -28T117 -73T90
-108T69 -122Z" />
<glyph unicode="&#x201c;" horiz-adv-x="368" d="M89 519Q83 519 74 526T57 545T42 568T36 587Q36 599 42 618T57 659T78 699T100 730T120 742Q130 742 139 737T154 725T161 712Q149 705 138 692T117 664T105 637Q117 633 129 620T150 593T159 570Q159 563 151
554T132 538T109 525T89 519ZM248 519Q242 519 233 526T216 545T201 568T195 587Q195 599 201 618T216 659T237 699T259 730T279 742Q289 742 298 737T313 725T320 712Q308 705 297 692T276 664T264 637Q276 633 288 620T309 593T318 570Q318 563 310 554T291 538T268
525T248 519Z" />
<glyph unicode="&#x201d;" horiz-adv-x="368" d="M89 517Q80 517 71 522T56 534T49 547Q61 555 72 568T92 596T105 623Q93 627 81 640T59 667T50 690Q50 696 58 705T78 722T101 735T120 740Q127 740 135 733T153 714T167 691T173 672Q173 660 167 641T152 601T131
560T109 529T89 517ZM248 517Q239 517 230 522T215 534T208 547Q220 555 231 568T251 596T264 623Q252 627 240 640T218 667T209 690Q209 696 217 705T237 722T260 735T279 740Q286 740 294 733T312 714T326 691T332 672Q332 660 326 641T311 601T290 560T268 529T248
517Z" />
<glyph unicode="&#x201e;" horiz-adv-x="381" d="M69 -122Q59 -122 50 -117T35 -105T27 -92Q39 -85 55 -69T86 -32T104 4Q92 8 79 20T58 47T49 70Q49 77 57 86T77 103T100 116T119 121Q126 121 135 114T152 95T166 72T172 52Q172 39 164 18T144 -28T117 -73T90
-108T69 -122ZM229 -122Q219 -122 210 -117T195 -105T187 -92Q199 -85 215 -69T246 -32T264 4Q252 8 239 20T218 47T209 70Q209 77 217 86T237 103T260 116T279 121Q286 121 295 114T312 95T326 72T332 52Q332 39 324 18T304 -28T277 -73T250 -108T229 -122Z" />
<glyph unicode="&#x2022;" horiz-adv-x="439" d="M207 155Q194 155 175 169T137 205T106 248T93 282Q93 296 110 313T152 346T201 372T238 383Q252 383 270 368T305 330T334 287T346 252Q346 239 330 223T290 191T243 165T207 155Z" />
<glyph unicode="&#x2039;" horiz-adv-x="373" d="M286 45Q249 73 209 105T133 169T75 224T53 259Q53 270 75 294T132 349T208 414T286 475Q291 474 297 468T310 447L121 237L122 286L309 72Q302 60 297 54T286 45Z" />
<glyph unicode="&#x203a;" horiz-adv-x="373" d="M87 44Q83 46 77 52T64 72L252 283V234L64 448Q72 460 77 466T87 475Q125 447 165 415T240 351T298 295T320 260Q320 250 298 226T241 170T166 106T87 44Z" />
</font>
</defs>
</svg>
