<?xml version="1.0" standalone="no"?>
<!DOCTYPE svg PUBLIC "-//W3C//DTD SVG 1.1//EN" "http://www.w3.org/Graphics/SVG/1.1/DTD/svg11.dtd">
<svg xmlns="http://www.w3.org/2000/svg">
<defs >
<font id="Texturina" horiz-adv-x="537" ><font-face
    font-family="Texturina Medium 12pt Light"
    units-per-em="1000"
    panose-1="0 0 0 0 0 0 0 0 0 0"
    ascent="1260"
    descent="-300"
    alphabetic="0" />
<glyph unicode=" " horiz-adv-x="200" />
<glyph unicode="!" horiz-adv-x="223" d="M76 212Q84 272 95 340T118 480T143 618T168 743Q184 753 211 760T267 768L128 231Q121 224 109 219T76 212ZM62 0Q54 0 45 8T26 29T12 53T8 74Q10 82 20 92T45 111T72 126T93 132Q101 132 110 124T127 103T140 77T143
54Q142 48 133 39T110 21T84 6T62 0Z" />
<glyph unicode="&quot;" horiz-adv-x="316" d="M128 436Q118 436 109 437T97 441L129 694Q137 698 150 701T170 705Q179 705 187 695T200 673T205 653Q205 645 197 619T177 558T152 490T128 436ZM279 436Q269 436 260 437T248 441L280 694Q288 698 301 701T321
705Q330 705 338 695T351 673T356 653Q356 645 348 619T328 558T303 490T279 436Z" />
<glyph unicode="#" horiz-adv-x="631" d="M129 -14Q108 -14 94 -9T74 0L133 157H19Q19 178 22 189T30 203H150L220 388H80Q79 410 83 421T91 434H236Q247 461 257 491T278 548T295 594Q314 594 328 585T349 566L297 434L456 437Q467 467 481 506T507 589Q531 589
545 581T566 564L517 439Q570 441 597 443T633 446Q633 424 630 411T622 388H499L431 208Q497 210 525 211T562 215Q563 193 560 179T551 157H412L348 -14Q328 -14 314 -9T292 0L352 157H194L129 -14ZM211 203L369 206L438 388H281L211 203Z" />
<glyph unicode="$" horiz-adv-x="533" d="M188 -9Q166 -7 134 1T71 20T26 44Q31 67 39 92T57 140T74 180Q80 182 92 185T115 188L111 78Q128 71 153 64T200 53L242 259Q211 270 177 282T118 308T92 334Q94 360 100 391T118 452T146 503Q160 515 187 527T245 550T306
568L324 657Q333 665 352 672T395 680Q393 672 389 659T378 626T363 572Q389 570 416 562T467 543T505 521Q501 502 492 477T472 430T455 394Q441 394 431 397T418 405L417 495Q401 501 383 505T349 511L308 315Q345 303 380 290T438 264T464 238Q462 211 455 178T437
112T412 57Q400 47 374 33T314 8T243 -7L224 -105Q217 -108 202 -111T166 -115L188 -9ZM255 51Q277 53 301 57T341 66Q361 92 370 133T379 210Q376 213 360 220T326 233T294 243L255 51ZM294 513Q277 512 257 510T216 501Q204 485 195 461T180 411T175 365Q180
359 203 350T257 331L294 513Z" />
<glyph unicode="%" horiz-adv-x="966" d="M213 286Q178 286 151 298T106 324T84 344Q83 351 82 360T80 380Q80 407 85 445T100 523T119 596T141 648Q154 658 183 672T249 697T320 709Q340 709 366 701T415 680T442 659Q444 655 444 648T445 630Q445 603 439 565T424
487T403 410T381 350Q369 339 343 324T282 297T213 286ZM240 335Q247 335 262 338T294 346T319 356Q328 378 337 411T354 482T366 554T371 614Q371 620 371 623T370 628Q363 638 346 645T312 655T285 659Q278 659 262 657T229 651T203 644Q194 630 185 597T169
523T157 446T152 388Q152 383 152 380T153 374Q161 363 178 354T213 340T240 335ZM367 -94Q351 -94 336 -89T310 -76L533 513Q557 577 573 623T599 702T615 753Q637 751 653 742T676 723L367 -94ZM698 -4Q663 -4 636 8T591 34T569 54Q568 61 567 70T565 90Q565
117 570 155T585 233T604 306T626 358Q639 368 668 382T734 407T805 419Q825 419 851 411T900 390T927 369Q929 365 929 358T930 340Q930 313 924 275T909 197T888 120T866 60Q854 49 828 34T767 7T698 -4ZM725 45Q732 45 747 48T779 56T804 66Q813 88 822 121T839
192T851 264T856 324Q856 330 856 333T855 338Q848 348 831 355T797 365T770 369Q763 369 747 367T714 361T688 354Q679 340 670 307T654 233T642 156T637 98Q637 93 637 90T638 84Q646 73 663 64T698 50T725 45Z" />
<glyph unicode="&amp;" horiz-adv-x="755" d="M239 0Q210 0 180 17T123 60T74 117T40 173T27 217Q27 233 43 253T86 296T142 338T198 375T241 402Q219 459 204 516T184 627Q195 638 222 653T284 684T355 710T420 720Q446 720 478 711T539 688T587 658Q576 608
564 562T543 490Q535 490 527 491T511 494T501 499L498 628Q463 644 432 649T362 652T269 637Q269 589 284 532T327 415T390 298T467 194Q476 230 480 266T487 336T490 397L499 410H525Q569 410 616 414T701 423L709 414Q703 392 698 379T687 357H564Q559 326 550
288T530 213T507 150Q543 108 577 84T646 59Q654 59 664 59T691 62Q694 60 695 54T695 39Q691 36 672 27T628 9T583 0Q556 0 521 24T446 93Q405 66 362 45T285 12T239 0ZM265 65Q275 65 299 74T353 99T410 132Q369 179 329 239T259 364Q235 344 211 324T165 286T131
255T118 236Q118 227 127 207T152 163T187 117T226 80T265 65Z" />
<glyph unicode="&apos;" horiz-adv-x="165" d="M128 436Q118 436 109 437T97 441L129 694Q137 698 150 701T170 705Q179 705 187 695T200 673T205 653Q205 645 197 619T177 558T152 490T128 436Z" />
<glyph unicode="(" horiz-adv-x="307" d="M156 -200Q105 -127 78 -37T50 164Q50 252 69 339T125 508T214 664T333 800Q343 800 353 791T367 772Q312 714 267 643T189 492T140 326T122 152Q122 56 140 -27T192 -176Q184 -184 174 -191T156 -200Z" />
<glyph unicode=")" horiz-adv-x="307" d="M-6 -200Q-16 -200 -26 -191T-40 -171Q16 -114 61 -43T138 108T188 275T205 449Q205 545 187 628T135 776Q143 785 153 792T171 800Q223 728 250 638T277 436Q277 349 258 262T202 93T113 -64T-6 -200Z" />
<glyph unicode="*" horiz-adv-x="502" d="M192 306Q181 308 169 314T150 329T142 343Q142 349 156 370T198 421T264 483V485L77 502Q80 518 86 533T100 559T116 569Q126 569 149 566T204 553T269 525L270 527L266 702Q276 708 288 710T311 712Q326 712 332 708T338
690Q338 679 335 659T328 616T320 573T311 540H312L492 636Q501 628 505 614T509 589Q509 586 509 582T507 576Q502 571 478 558T416 532T331 510V508L450 388Q444 378 433 368T411 352T393 345Q383 345 370 361T343 401T319 444T306 474L302 473L192 306Z" />
<glyph unicode="+" horiz-adv-x="489" d="M178 57L260 477Q264 482 279 486T321 490L239 67Q234 64 218 61T178 57ZM50 252Q55 275 61 285T71 297Q126 297 191 298T321 303T442 309L450 301Q445 283 440 270T429 252H50Z" />
<glyph unicode="," horiz-adv-x="196" d="M3 -122Q-6 -122 -16 -117T-34 -105T-41 -92Q-28 -86 -11 -69T24 -32T49 4Q38 8 28 20T11 45T4 68Q4 76 12 85T32 103T56 117T75 123Q84 123 95 112T114 85T123 58Q123 48 114 27T89 -20T58 -69T27 -107T3 -122Z" />
<glyph unicode="-" horiz-adv-x="336" d="M39 270Q39 287 45 301T55 321Q101 321 148 322T236 327T300 334L315 317Q315 304 311 291T300 270H39Z" />
<glyph unicode="." horiz-adv-x="218" d="M59 0Q52 0 43 8T24 29T10 53T6 74Q8 82 18 92T42 111T69 126T91 132Q98 132 107 124T124 103T137 77T140 54Q139 48 130 39T107 21T81 6T59 0Z" />
<glyph unicode="/" horiz-adv-x="385" d="M43 -89Q25 -89 11 -85T-11 -76L264 513Q293 575 313 619T346 694T368 748Q391 746 405 738T425 723L43 -89Z" />
<glyph unicode="0" horiz-adv-x="561" d="M221 0Q193 0 169 10T124 35T92 64T74 85Q70 97 68 112T65 147Q65 184 72 228T92 318T118 402T147 467Q162 479 186 495T241 526T306 551T374 561Q392 561 412 553T452 532T487 506T510 481Q512 473 513 463T514 439Q514
403 507 357T487 264T459 175T430 105Q412 86 379 62T304 19T221 0ZM270 69Q295 69 318 78T362 102Q373 121 384 152T404 220T420 296T431 367T435 423Q435 430 435 434T434 440Q417 464 385 478T310 493Q283 493 258 486T212 466Q199 447 187 409T164 324T148
234T142 162Q142 151 143 143T146 130Q164 102 196 86T270 69Z" />
<glyph unicode="1" horiz-adv-x="387" d="M201 0Q194 0 177 2T137 7T91 13T50 21T21 28Q23 34 26 40T35 50L66 53Q100 57 115 72T140 131L197 392Q203 419 210 440T221 469L219 472L94 455Q96 468 101 479T111 494Q159 508 205 526T291 565Q299 564 305 560T314
551Q307 530 293 490T269 403L206 111Q202 93 196 78T183 55L281 49Q284 47 286 42T289 29Q278 21 261 15T227 4T201 0Z" />
<glyph unicode="2" horiz-adv-x="546" d="M35 0Q29 0 21 8T7 29T1 49Q28 64 73 97T170 176T271 272T354 374T398 470Q386 479 361 487T298 499T211 499L169 395Q166 392 159 389T142 386Q137 396 132 412T123 448T119 488Q147 512 187 529T269 555T345 564Q361
564 383 554T427 529T463 498T476 472Q473 434 448 391T385 303T303 219T220 146T151 93L379 68L448 164Q461 164 468 161T478 154Q474 132 463 101T442 49Q429 40 407 29T361 9T323 0Q313 0 284 6T219 19T150 34T95 42Q86 36 75 27T53 10T35 0Z" />
<glyph unicode="3" horiz-adv-x="471" d="M74 -105Q60 -105 38 -96T-5 -73T-33 -50Q-28 -40 -22 -33T-11 -24Q18 -30 49 -33T109 -36Q146 -36 178 -31T234 -17Q242 -10 253 7T274 47T292 91T299 125Q299 156 276 176T217 210T143 230Q145 235 147 241T152 255T162
268Q168 268 178 268T198 270T217 275Q259 294 291 327T343 398T371 471Q361 479 332 487T260 499T169 499L129 395Q126 392 119 389T102 386Q95 403 87 430T79 488Q108 513 148 530T230 556T309 565Q323 565 346 557T392 534T432 505T449 476Q449 455 433 423T388
355T327 292T261 250L260 246Q292 236 319 222T363 188T380 139Q380 120 369 92T340 35T306 -17T275 -49Q256 -62 222 -75T149 -96T74 -105Z" />
<glyph unicode="4" horiz-adv-x="536" d="M251 -104Q247 -104 241 -101T231 -94Q239 -80 250 -51T269 9L279 58H35Q24 66 13 83T1 124L364 546Q373 549 387 552T417 559T445 564L460 551Q456 538 450 518T437 470T421 403L361 117L464 121L470 105Q466 92 457
79T442 59H349L319 -86Q311 -89 300 -93T276 -101T251 -104ZM66 116H288L347 393Q352 419 361 443T378 481L372 483L66 116Z" />
<glyph unicode="5" horiz-adv-x="446" d="M57 -105Q43 -105 20 -96T-23 -73T-50 -50Q-44 -39 -39 -33T-28 -24Q2 -30 33 -33T91 -36Q127 -36 159 -31T214 -17Q224 -8 237 13T262 60T282 112T290 155Q290 169 275 182T237 208T188 232T140 253Q122 262 103 270T69
287T52 299Q62 340 79 382T116 464T157 532Q177 536 212 539T290 547T371 556T438 569L457 560Q453 545 446 530T429 502T410 479Q374 483 337 485T264 487T198 488Q185 467 172 438T147 380T129 326L181 308Q276 277 322 249T368 175Q368 147 356 114T326 48T287
-11T251 -50Q233 -62 201 -74T131 -96T57 -105Z" />
<glyph unicode="6" horiz-adv-x="511" d="M199 0Q172 0 148 12T104 41T72 73T56 95Q53 106 51 120T49 151Q49 191 58 242T85 349T126 457T179 550T243 616Q259 628 289 640T352 661T411 670Q426 670 448 662T492 641T519 619Q515 609 510 603T501 594Q477 598
450 600T394 602Q379 602 358 600T315 594T281 585Q273 578 252 550T205 474T158 361Q177 370 206 380T268 398T323 406Q345 406 366 396T406 370T437 342T453 321Q454 316 454 309T455 289Q455 263 449 228T433 160T407 104Q389 84 356 60T282 18T199 0ZM247 64Q264
64 291 74T338 99Q346 110 353 130T367 174T378 223T382 268Q382 273 382 278T379 291Q369 305 350 316T309 334T274 341Q260 341 236 337T187 327T151 318Q143 298 136 268T125 207T121 155Q121 146 122 141T124 133Q144 100 179 82T247 64Z" />
<glyph unicode="7" horiz-adv-x="507" d="M129 -104Q115 -100 101 -91T75 -72T60 -51Q65 -28 86 9T139 93T209 191T285 290T357 379T414 449T446 487H186L147 395Q144 392 137 390T120 388Q115 402 110 420T101 455T98 484Q108 496 126 512T165 542T200 563Q205
563 227 562T281 557T345 551T404 546T441 544Q445 544 462 548T497 557T518 561Q523 557 527 544T532 516L409 356Q368 302 333 255T269 167T219 91T183 25T162 -32Q159 -43 157 -56T155 -80Q151 -86 144 -92T129 -104Z" />
<glyph unicode="8" horiz-adv-x="520" d="M194 0Q170 0 144 10T95 35T57 65T36 90Q36 132 45 178T75 255Q86 271 109 288T160 320T205 344Q177 356 157 367T126 390Q124 397 124 404T123 420Q123 447 128 479T143 541T165 592Q194 611 229 629T303 658T379 670Q399
670 425 661T472 638T500 614Q502 609 502 602T502 586Q502 566 498 538T486 484T470 442Q451 417 420 396T356 358Q394 343 421 328T455 301Q457 292 458 282T460 263Q460 233 454 202T438 143T419 99Q390 71 351 49T270 13T194 0ZM230 61Q250 61 273 67T317 81T348
97Q359 109 367 135T380 190T385 241Q385 249 385 255T383 266Q368 274 336 291T254 325Q235 317 204 299T147 257Q137 243 129 219T117 170T111 127Q122 107 145 92T193 69T230 61ZM308 374Q323 380 347 392T394 427Q411 454 420 493T429 576Q421 587 404 594T366
606T329 611Q317 611 299 608T263 600T231 588Q221 571 214 545T203 493T199 443Q199 434 200 427T202 416Q221 408 246 398T308 374Z" />
<glyph unicode="9" horiz-adv-x="513" d="M128 -105Q113 -105 90 -96T47 -75T19 -54Q23 -45 27 -38T37 -28Q63 -32 90 -34T144 -37Q162 -37 183 -35T224 -28T257 -20Q269 -10 289 21T332 101T373 211Q356 202 325 190T261 169T204 159Q183 159 161 169T121 195T90
224T75 244Q73 252 72 260T71 279Q71 311 77 345T95 411T120 466Q139 486 171 509T245 548T327 565Q355 565 380 555T424 529T455 499T472 477Q476 467 478 453T480 418Q480 377 471 324T444 215T404 107T354 15T298 -46Q282 -58 250 -72T185 -95T128 -105ZM253
225Q267 225 293 230T344 244T381 256Q387 271 391 291T400 333T406 376T408 411Q408 419 407 425T404 436Q383 468 347 485T279 502Q264 502 237 494T188 471Q177 453 167 423T152 360T146 300Q146 292 146 286T147 275Q158 260 177 249T218 232T253 225Z" />
<glyph unicode=":" horiz-adv-x="218" d="M59 0Q52 0 43 8T24 29T10 53T6 74Q8 82 18 92T42 111T69 126T91 132Q98 132 107 124T124 103T137 77T140 54Q139 48 130 39T107 21T81 6T59 0ZM135 388Q128 388 119 396T100 417T86 441T82 462Q84 470 94 480T118 499T145
514T167 520Q174 520 183 512T200 491T213 465T216 442Q215 436 206 427T183 409T157 394T135 388Z" />
<glyph unicode=";" horiz-adv-x="218" d="M3 -122Q-6 -122 -16 -117T-34 -105T-41 -92Q-28 -86 -11 -69T24 -32T49 4Q38 8 28 20T11 45T4 68Q4 76 12 85T32 103T56 117T75 123Q84 123 95 112T114 85T123 58Q123 48 114 27T89 -20T58 -69T27 -107T3 -122ZM135 388Q128
388 119 396T100 417T86 441T82 462Q84 470 94 480T118 499T145 514T167 520Q174 520 183 512T200 491T213 465T216 442Q215 436 206 427T183 409T157 394T135 388Z" />
<glyph unicode="&lt;" horiz-adv-x="380" d="M278 52Q238 81 195 115T114 183T53 241T30 276Q30 283 47 297T95 331T170 379T265 437T375 504Q383 500 389 492T395 473L122 271L121 264L311 80Q302 68 294 61T278 52Z" />
<glyph unicode="=" horiz-adv-x="492" d="M66 332Q71 355 77 365T87 377Q142 377 207 378T337 383T458 389L466 381Q461 363 456 350T445 332H66ZM294 428Q299 451 305 461T315 473Q370 473 435 474T565 479T686 485L694 477Q689 459 684 446T673 428H294Z" />
<glyph unicode="&gt;" horiz-adv-x="380" d="M16 52Q9 56 3 64T-4 83L270 284L271 291L81 476Q90 487 99 494T113 504Q154 474 197 440T277 373T338 315T362 279Q362 273 345 259T296 224T221 176T126 118T16 52Z" />
<glyph unicode="?" horiz-adv-x="502" d="M223 212Q215 234 213 265T212 330T221 394Q238 408 263 422T314 449T362 473T394 489Q403 516 412 551T428 623T435 688Q424 694 408 698T375 705T343 708Q318 708 288 704T234 690L192 564Q185 560 171 557T144 553Q143
569 144 598T148 661T156 719Q180 732 214 745T287 768T357 778Q380 778 410 768T470 743T521 712Q521 687 516 654T502 585T483 519T462 469Q449 451 424 434T370 402T320 376T291 360Q285 344 280 319T271 270T265 230Q258 226 248 221T223 212ZM218 0Q211 0
201 8T182 29T168 53T164 74Q166 82 176 92T201 111T228 126T250 132Q257 132 266 124T283 103T296 77T299 55Q298 48 289 39T266 21T240 6T218 0Z" />
<glyph unicode="@" horiz-adv-x="948" d="M381 -200Q334 -200 286 -183T196 -142T125 -94T86 -57Q77 -43 71 -21T61 30T58 88Q58 137 66 195T90 313T127 425T173 516Q204 542 246 568T338 619T438 663T537 693T627 704Q665 704 709 691T794 657T863 614T900 573Q910
552 914 525T919 467Q919 419 907 363T873 249T823 141T762 56Q752 47 729 34T681 10T634 0Q617 0 601 10T572 34T556 58Q538 45 514 32T464 10T413 0Q393 0 372 8T332 29T300 55T282 76Q279 82 277 96T274 128Q274 150 279 187T292 267T312 351T335 420Q350 429
375 442T431 469T492 491T547 500Q560 500 581 494T627 479T674 460T710 443L713 429Q703 419 695 406T681 372T668 318L623 70Q633 65 647 60T680 53Q713 74 743 117T798 217T836 335T850 452Q850 481 846 503T836 541Q826 553 801 570T743 605T672 633T599 644Q568
644 521 632T420 600T315 553T226 496Q205 458 187 409T155 305T134 197T126 95Q126 61 130 33T143 -15Q156 -31 185 -53T252 -96T331 -130T405 -144Q424 -144 450 -140T501 -131T543 -120Q547 -123 549 -129T551 -144Q526 -161 493 -173T430 -193T381 -200ZM436
65Q449 65 472 71T519 87T556 102L611 402Q596 409 576 416T536 430T505 436Q495 436 477 432T439 423T408 411Q399 392 390 357T372 279T358 199T352 135Q352 126 352 121T353 112Q359 102 374 91T407 72T436 65Z" />
<glyph unicode="A" horiz-adv-x="712" d="M136 0Q129 0 109 3T62 10T12 20T-30 30Q-28 37 -24 43T-15 53H-3Q8 53 20 59T48 82T81 129T122 206L336 656Q346 665 363 676T398 697T433 713T458 720Q469 720 486 712T521 691T549 667L577 80Q578 66 581 62T598 55L653
50Q655 48 656 42T656 30Q647 23 633 16T606 5T583 0Q576 0 559 2T522 9T480 17T442 25T417 32Q419 39 422 45T430 55H452Q469 55 480 57T497 70T501 108L494 287H222L152 134Q135 98 117 81T91 60L210 50Q212 48 213 43T213 30Q203 22 189 16T160 5T136 0ZM244
336Q301 336 347 337T430 340T492 345L481 628Q463 641 442 651T397 663L244 336Z" />
<glyph unicode="B" horiz-adv-x="625" d="M360 0Q332 0 294 2T214 7T130 14T52 22T-9 31Q-6 39 -3 45T5 55L33 59Q54 63 66 71T85 99T99 152L182 576Q190 613 199 632T215 655H123Q120 659 119 663T117 674Q123 680 136 687T162 699T182 704H496Q517 699 537 687T575
661T605 630Q606 615 606 603T604 567Q602 542 597 515T582 463T561 419T534 387Q518 380 495 374T445 364L443 360Q486 353 519 340T566 315Q569 309 570 298T571 275Q571 242 564 208T543 141T514 80Q505 70 487 58T447 33T402 12T360 0ZM147 65H409Q425 78 440
103T465 162T477 230Q479 250 479 259T479 283Q468 294 447 306T391 328T309 338H217L176 130Q171 106 163 89T147 65ZM227 387Q282 389 323 391T398 396T465 404Q483 424 495 454T515 517T523 577Q523 598 519 613T507 638Q478 647 434 652T352 657Q316 657 295
636T265 578L227 387Z" />
<glyph unicode="C" horiz-adv-x="623" d="M280 0Q256 0 225 9T164 34T111 66T77 100Q68 116 63 142T58 202Q58 237 64 282T81 375T106 470T135 554T167 615Q192 634 226 652T299 686T377 711T453 720Q489 720 527 711T599 688T652 657Q640 606 624 561T596 492Q579
492 566 495T549 501L553 622Q541 629 517 636T467 649T421 654Q398 654 367 648T306 633T252 612Q233 582 215 533T182 428T158 316T149 216Q149 193 151 174T158 140Q165 129 183 117T224 92T271 73T314 65Q337 65 361 67T407 74T441 82L517 231Q531 231 545
227T566 217Q560 195 552 166T535 111T521 65Q499 53 463 38T380 11T280 0Z" />
<glyph unicode="D" horiz-adv-x="687" d="M374 0Q348 0 309 2T224 7T135 14T53 22T-9 31Q-6 39 -3 45T5 55L33 59Q54 62 66 71T85 99T99 152L179 576Q186 614 197 632T215 655H123Q120 659 119 663T117 674Q123 680 136 687T163 699T182 704H531Q548 700 565 692T600
674T631 652T655 628Q664 607 668 580T672 522Q672 473 662 411T634 287T594 173T546 91Q529 76 508 62T463 36T416 14T374 0ZM149 65H426Q450 79 473 116T515 204T549 313T572 424T580 519Q580 559 572 589T545 637Q527 642 494 646T420 653T337 657Q311 657 297
646T275 617T264 578L177 130Q172 105 164 89T149 65Z" />
<glyph unicode="E" horiz-adv-x="588" d="M399 0Q371 0 329 2T239 7T142 14T55 22T-8 31Q-6 39 -3 44T6 55L33 58Q52 61 64 68T84 94T99 151L182 577Q189 610 198 630T215 656H124Q122 658 119 662T116 675Q123 681 136 687T162 699T181 704H534Q557 696 578 683T610
655Q601 621 591 589T570 532T548 497Q538 492 526 496T510 504L515 642Q496 646 466 649T402 655T332 658Q308 658 294 648T271 621T258 580L221 389Q263 390 296 392T362 397T437 404L446 392Q441 373 436 360T425 338H211L170 129Q166 106 158 89T142 64H408L489
223Q502 223 513 219T525 209Q523 186 516 156T499 95T483 43Q474 35 458 25T425 8T399 0Z" />
<glyph unicode="F" horiz-adv-x="560" d="M163 0Q157 0 140 2T102 8T58 16T17 24T-9 31Q-7 38 -3 45T5 55L33 59Q53 63 65 71T84 99T99 153L182 576Q189 614 199 632T215 655H123Q120 659 119 663T117 674Q123 680 136 687T162 699T182 704H540Q562 697 583 684T616
654Q608 623 598 591T577 533T556 495Q543 490 531 494T514 501L519 642Q492 647 442 652T340 657Q315 657 300 647T278 619T265 578L227 389Q274 390 313 392T388 398T454 405L463 392Q457 373 452 360T442 337H217L176 128Q171 104 163 87T148 64L243 53Q245
51 247 45T249 31Q231 19 207 10T163 0Z" />
<glyph unicode="G" horiz-adv-x="669" d="M280 0Q253 0 222 10T161 35T110 67T78 98Q68 114 63 140T58 200Q58 236 64 282T81 377T106 473T135 556T165 615Q189 633 224 651T298 685T378 710T454 720Q491 720 528 711T597 688T647 657Q640 627 631 594T611 534T589
495Q575 490 562 494T545 501L549 623Q538 630 515 637T467 649T425 654Q402 654 370 648T307 633T251 612Q232 580 214 531T181 425T158 312T149 212Q149 189 151 171T158 141Q167 129 184 117T224 93T269 74T311 66Q338 66 367 69T422 78T467 89L488 194Q496
228 504 256T519 296H352Q356 315 361 331T372 352Q391 352 421 353T484 357T550 361T605 367L616 354Q610 335 600 304T580 231T559 140L545 65Q523 53 480 38T384 12T280 0Z" />
<glyph unicode="H" horiz-adv-x="712" d="M159 0Q152 0 136 2T98 8T55 16T17 24T-8 31Q-6 39 -2 45T6 54L34 58Q54 62 65 70T84 97T99 152L182 577Q189 611 198 631T215 656H124Q121 659 119 663T116 674Q123 680 136 687T162 699T180 704H357Q361 701 364 693T368
673L322 660Q302 655 290 646T270 619T258 574L222 393Q261 393 306 393T396 395T479 397T541 400L575 577Q583 613 592 632T608 656H516Q515 658 513 663T510 674Q517 681 530 687T556 699T574 704H751Q753 701 757 695T761 673L715 660Q697 655 685 647T665 622T651
574L564 127Q560 104 551 87T536 63L629 53Q631 51 633 45T636 31Q620 19 596 10T553 0Q546 0 529 2T491 8T449 16T411 24T386 31Q387 39 391 45T399 54L428 58Q448 60 459 68T478 95T493 152L529 338H211L171 128Q166 103 157 86T142 63L236 53Q238 49 240 44T242
31Q226 19 202 10T159 0Z" />
<glyph unicode="I" horiz-adv-x="319" d="M159 0Q152 0 136 2T98 8T55 16T17 24T-8 31Q-6 39 -2 45T6 54L34 58Q54 62 65 69T84 95T99 152L183 579Q192 621 201 637T214 656H124Q121 659 119 663T116 674Q123 680 136 687T162 699T180 704H357Q361 700 365 692T369
673L322 660Q290 652 278 633T258 574L171 128Q166 104 158 87T142 63L236 53Q238 50 240 44T242 31Q226 19 202 10T159 0Z" />
<glyph unicode="J" horiz-adv-x="326" d="M-25 -200Q-38 -200 -56 -196T-92 -186T-120 -172Q-118 -165 -115 -159T-108 -149Q-50 -132 -6 -107T64 -60L188 576Q195 615 205 633T220 655H129Q127 658 125 663T123 674Q130 681 143 688T169 699T187 704H365Q367
700 371 692T374 672L329 659Q299 651 286 633T264 573L142 -35Q134 -57 113 -85T65 -139T14 -183T-25 -200Z" />
<glyph unicode="K" horiz-adv-x="641" d="M164 0Q158 0 141 2T102 8T58 16T17 24T-9 31Q-7 38 -3 45T5 55L33 59Q53 63 65 71T84 99T99 153L182 576Q189 613 199 632T215 655H123Q120 659 119 663T117 674Q123 680 136 687T162 699T182 704H364Q368 701 372 693T375
672L329 659Q300 651 287 635T264 573L228 391Q254 391 278 391T319 392T343 393Q357 414 375 445T416 514T464 587T517 655T573 704H717Q719 701 723 694T727 672L678 659Q643 650 609 624T543 561T484 486T436 414T403 360L488 150Q502 115 513 96T540 69T582
62H599Q601 60 603 54T606 37Q585 21 561 11T512 0Q489 0 472 12T441 46T417 98L347 290Q338 316 325 327T278 338H218L177 128Q172 103 164 87T148 64L242 53Q244 52 246 46T249 31Q233 19 208 10T164 0Z" />
<glyph unicode="L" horiz-adv-x="532" d="M376 0Q347 0 308 2T223 7T135 14T54 22T-9 31Q-6 39 -3 45T5 55L33 59Q53 62 65 70T84 98T99 152L182 576Q189 614 199 632T215 655H123Q120 659 119 663T117 674Q123 680 136 687T162 699T182 704H364Q367 700 371 693T375
672L328 659Q311 655 300 648T280 624T264 573L177 130Q172 105 164 89T149 65H381L463 227Q474 227 486 223T505 213Q501 186 494 155T478 93T462 38Q452 30 436 22T403 7T376 0Z" />
<glyph unicode="M" horiz-adv-x="940" d="M162 0Q154 0 132 3T82 12T31 22T-3 31Q-1 38 3 45T11 55L37 59Q56 62 68 70T89 99T107 156L212 576Q222 611 231 630T247 655H155Q154 657 152 662T149 674Q156 681 169 688T196 699T214 704H351L453 195Q466 218 491
259T549 355T617 469T688 589T753 704H957Q960 700 964 693T967 672L921 659Q902 654 890 646T870 623T857 577L794 139Q789 105 780 87T763 63L860 53Q862 51 864 45T867 31Q851 20 826 10T781 0Q773 0 755 2T714 8T670 16T629 24T604 31Q606 38 610 45T618 55L651
59Q670 61 681 67T701 95T717 167L770 533Q776 571 783 598T795 634L785 637L470 111Q460 102 440 94T395 85L305 536Q301 559 299 577T296 608Q296 616 296 622T298 630H290Q287 623 281 606T267 561L164 133Q154 93 145 81T133 66L246 53Q248 50 250 45T252 31Q233
17 206 9T162 0Z" />
<glyph unicode="N" horiz-adv-x="724" d="M158 0Q149 0 127 3T78 12T28 22T-9 31Q-7 38 -3 45T5 55L33 59Q50 62 62 69T83 96T100 157L181 577Q188 611 198 630T214 655H123Q122 658 120 663T117 675Q124 681 137 688T163 699T182 704H291L537 121Q539 144 541
166T548 212T557 264L619 574Q626 606 635 626T651 652H557Q556 654 554 659T551 671Q558 677 571 685T598 698T616 704H778Q781 700 785 692T788 672L741 658Q722 653 710 645T691 618T677 566L599 174Q588 119 585 82T581 25Q571 17 558 12T532 4T509 0L289 519Q273
556 268 579T262 616H254Q252 611 250 605T245 587T237 555L153 129Q148 105 140 89T126 66L240 53Q243 50 245 44T246 31Q227 17 200 9T158 0Z" />
<glyph unicode="O" horiz-adv-x="668" d="M272 0Q248 0 218 9T159 34T108 66T75 98Q65 116 61 141T56 197Q56 233 63 279T81 374T107 470T137 555T168 617Q190 633 221 650T289 684T368 710T451 720Q474 720 503 712T561 689T613 657T647 622Q653 607 655 586T658
544Q658 507 651 459T632 360T605 259T574 170T540 106Q513 83 471 59T378 17T272 0ZM305 63Q334 63 365 72T423 92T462 112Q479 137 495 175T525 261T549 357T565 452T571 534Q571 548 571 560T568 584Q564 592 548 604T508 628T460 648T413 656Q387 656 356 649T296
632T246 612Q227 580 209 529T175 419T151 302T142 199Q142 180 143 166T148 139Q155 128 173 115T214 90T262 71T305 63Z" />
<glyph unicode="P" horiz-adv-x="581" d="M163 0Q157 0 140 2T102 8T58 16T17 24T-9 31Q-7 39 -2 46T5 55L33 59Q51 62 62 68T82 94T99 153L183 576Q190 614 200 632T215 655H123Q120 659 119 663T117 674Q123 680 136 687T162 699T182 704H488Q508 698 528 687T567
662T597 632Q600 624 601 615T603 597Q603 567 596 531T576 460T548 397T518 356Q502 345 478 333T427 311T370 299H210L176 128Q171 101 162 86T147 64L245 53Q247 51 248 45T247 31Q230 18 206 9T163 0ZM219 355Q268 356 306 356T377 359T437 363Q458 384 475
422T503 503T514 580Q514 597 511 612T500 639Q481 645 455 648T401 654T346 657Q310 657 291 636T264 578L219 355Z" />
<glyph unicode="Q" horiz-adv-x="668" d="M408 -200Q393 -200 367 -191T310 -167T250 -134T199 -98T170 -65Q178 -47 192 -26T227 16L273 13L243 -41Q256 -54 281 -69T338 -99T405 -123T470 -132H519Q522 -135 524 -142T527 -160Q514 -171 492 -180T446 -194T408
-200ZM272 0Q248 0 218 9T159 34T108 66T75 98Q65 116 61 141T56 197Q56 233 63 279T81 374T107 470T137 555T168 617Q190 633 221 650T289 684T368 710T451 720Q474 720 503 712T561 689T613 657T647 622Q653 607 655 586T658 544Q658 507 651 459T632 360T605
259T574 170T540 106Q513 83 471 59T378 17T272 0ZM305 63Q334 63 365 72T423 92T462 112Q479 137 495 175T525 261T549 357T565 452T571 534Q571 548 571 560T568 584Q564 592 548 604T508 628T460 648T413 656Q387 656 356 649T296 632T246 612Q227 580 209 529T175
419T151 302T142 199Q142 180 143 166T148 139Q155 128 173 115T214 90T262 71T305 63Z" />
<glyph unicode="R" horiz-adv-x="621" d="M157 0Q151 0 135 2T98 8T56 16T17 24T-9 31Q-7 39 -2 46T5 55L33 59Q53 62 64 70T84 96T99 152L183 576Q190 609 199 630T215 655H123Q120 659 119 663T117 674Q123 680 136 687T162 699T182 704H496Q517 698 537 687T573
661T600 632Q603 625 604 616T606 595Q606 567 600 535T583 471T558 416T529 378Q515 370 492 361T444 344T395 332V328Q404 318 409 309T422 278L477 134Q490 96 507 78T560 60H578Q583 54 585 48T587 35Q567 19 542 10T498 0Q463 0 440 25T398 109L340 277Q333
296 324 308T292 320H209L169 128Q165 105 157 88T141 64L237 53Q239 52 241 45T243 31Q226 19 201 10T157 0ZM219 376Q285 377 346 380T454 390Q473 410 488 442T512 510T521 579Q521 598 517 613T506 639Q488 645 462 648T405 654T346 657Q322 657 304 648T275
620T259 578L219 376Z" />
<glyph unicode="S" horiz-adv-x="598" d="M233 0Q211 0 182 7T123 24T69 48T31 74Q38 102 48 136T70 202T89 252Q103 252 115 248T135 240L129 104Q146 96 169 88T217 75T261 69Q281 69 308 75T361 90T401 106Q412 121 420 144T435 193T445 243T447 281Q436 287
409 296T345 316T270 342T198 370T142 398T114 424Q114 449 118 479T131 539T150 595T172 638Q191 651 219 665T279 692T342 712T398 720Q432 720 468 712T535 689T586 659Q581 640 574 617T559 570T542 527T527 494Q512 494 501 497T482 504L488 629Q461 640 430
648T363 656Q352 656 333 653T292 644T254 630Q241 609 231 580T213 518T204 457Q220 448 257 435T340 408T430 377T504 344T539 312Q538 275 531 236T512 159T481 89Q466 78 439 63T376 34T304 10T233 0Z" />
<glyph unicode="T" horiz-adv-x="602" d="M301 0Q294 0 278 2T241 8T199 16T160 24T135 31Q137 39 141 45T148 55L178 59Q194 61 205 66T225 91T243 152L331 598Q335 620 341 634T354 655H186L134 494Q129 491 116 488T86 485Q84 508 84 551T90 654Q109 669 136
684T187 704H593Q619 697 640 682T671 654Q657 601 640 555T611 485Q595 485 583 488T566 494L576 649Q563 651 544 653T505 656T469 657Q434 657 423 640T406 594L314 128Q309 102 301 86T285 64L383 53Q385 50 386 45T387 31Q368 19 344 10T301 0Z" />
<glyph unicode="U" horiz-adv-x="687" d="M320 0Q290 0 258 8T195 28T141 55T102 83T87 107L177 577Q185 611 194 631T211 656H119Q118 658 115 662T112 674Q118 680 131 687T157 699T176 704H353Q356 701 360 693T364 673L318 660Q288 652 275 635T253 574L167
128Q173 119 193 107T240 84T292 66T335 58Q360 58 392 70T453 100T493 128L581 577Q589 613 598 632T614 656H524Q522 658 520 662T517 674Q524 681 537 687T563 699T580 704H739Q741 700 745 693T749 673L702 659Q682 654 670 645T651 617T637 566L549 108Q537
94 511 76T450 40T382 12T320 0Z" />
<glyph unicode="V" horiz-adv-x="727" d="M332 0Q324 0 310 5T279 18T248 35T225 54L180 621Q179 634 172 642T148 651H99Q97 655 95 659T92 670Q99 676 112 683T138 695T157 701L362 704Q365 700 368 691T372 672L318 661Q304 658 290 653T268 632T261 587L296
92Q305 84 319 78T349 68T373 63L577 528Q605 591 629 620T662 655H539Q537 657 535 662T532 674Q541 682 554 688T581 699T599 704H795Q798 701 802 692T805 672L776 664Q754 658 736 649T698 618T655 553T599 438L430 59Q417 46 400 33T366 11T332 0Z" />
<glyph unicode="W" horiz-adv-x="1091" d="M333 0Q323 0 308 5T277 19T248 38T228 59L181 626Q180 639 172 647T148 655H101Q98 658 96 663T93 674Q100 681 113 687T139 699T158 704H360Q363 700 367 693T370 672L321 661Q307 658 293 652T270 632T263 587L298
91Q309 85 322 79T350 70T375 65L566 473L558 623Q556 642 548 648T523 655H476Q474 658 472 663T469 674Q476 681 489 687T515 699T534 704H741Q744 700 747 692T751 672L692 660Q679 658 665 652T642 632T635 587L662 92Q669 86 683 81T713 71T740 65L939 528Q960
574 977 601T1006 640T1024 655H867Q865 658 863 663T861 674Q869 682 882 688T909 699T928 704H1159Q1161 700 1165 693T1169 672L1140 664Q1117 657 1097 647T1057 613T1014 549T962 438L800 59Q786 46 768 33T732 12T703 0Q693 0 677 5T644 20T612 39T592 58Q591
71 589 89T586 130T583 176T580 225T578 274Q577 303 577 323T578 361H573Q568 349 561 333T544 295T522 249T496 193T466 129T431 57Q414 42 397 30T364 11T333 0Z" />
<glyph unicode="X" horiz-adv-x="711" d="M569 0Q562 0 546 2T510 8T468 16T430 24T405 31Q407 38 410 44T419 56H443Q455 56 462 60T469 75Q469 81 467 87T461 99L206 625Q200 639 192 647T162 655H127Q125 657 123 662T120 674Q126 680 140 687T167 699T187
704H392Q395 702 398 694T402 672L348 662Q330 659 315 651T298 629Q297 623 298 614T305 593L522 144Q532 125 542 106T568 73T609 56L643 53Q646 50 648 44T650 31Q642 24 626 17T595 5T569 0ZM160 0Q149 0 125 3T70 11T13 21T-29 31Q-27 40 -23 47T-14 56Q11
57 37 72T89 112T143 168L333 388L364 332L169 106Q156 92 144 81T125 64L244 53Q246 49 249 44T251 31Q238 21 220 14T186 4T160 0ZM400 358L369 411Q409 457 445 502T514 587T575 657T626 704H751Q754 699 757 691T759 673L713 660Q672 648 636 620T563 550T487
459T400 358Z" />
<glyph unicode="Y" horiz-adv-x="639" d="M326 0Q319 0 302 2T263 8T220 16T180 24T154 31Q156 39 159 45T166 55L197 59Q213 62 224 68T245 93T262 153L294 307L175 625Q169 640 161 647T130 655H96Q94 657 91 662T89 674Q95 680 108 687T135 699T155 704H352Q355
699 359 692T362 672L308 660Q287 656 273 648T259 622Q259 618 260 610T265 594L346 360H349Q383 424 417 481T482 584T539 662T583 704H706Q710 700 714 693T717 673L670 659Q651 654 632 641T588 603T534 538T464 437T372 291L339 128Q334 104 325 87T311 64L405
53Q407 51 409 46T411 31Q394 19 369 10T326 0Z" />
<glyph unicode="Z" horiz-adv-x="606" d="M38 0Q32 0 22 11T4 37T-4 65Q36 97 90 151T208 274T338 419Q385 472 432 529T522 638L232 650L175 501Q170 497 157 494T129 491Q126 516 126 547T127 609T133 661Q143 671 158 681T189 698T219 710T238 715Q245 715
274 713T342 709T419 703T484 699T516 697Q525 697 538 699T565 706T589 714Q601 706 615 686T630 640L150 94L432 72L510 228Q526 228 536 224T551 214Q546 189 539 159T524 98T507 44Q492 32 474 22T440 6T414 0Q403 0 371 3T298 12T215 23T143 32T103 36Q80
21 62 11T38 0Z" />
<glyph unicode="[" horiz-adv-x="365" d="M114 -166Q102 -166 88 -156T61 -129T39 -98L198 722Q213 738 232 755T270 785T300 797Q319 797 343 794T390 786T426 777Q427 774 428 767T428 750L278 732Q244 601 214 467T159 193T109 -98L259 -117Q259 -129 256 -137T249
-149Q232 -153 207 -156T156 -163T114 -166Z" />
<glyph unicode="\" horiz-adv-x="456" d="M303 -89L129 723Q135 729 150 737T189 748Q193 720 204 658T232 513L356 -76Q348 -80 334 -84T303 -89Z" />
<glyph unicode="]" horiz-adv-x="364" d="M90 -167Q72 -167 48 -163T1 -155T-36 -147Q-37 -144 -38 -137T-38 -119L112 -101Q147 30 176 164T231 438T281 729L131 748Q131 760 134 768T141 779Q159 783 184 787T234 793T276 796Q288 796 302 786T329 760T351 729L192
-92Q177 -108 158 -125T120 -154T90 -167Z" />
<glyph unicode="^" horiz-adv-x="577" d="M72 383Q62 386 55 395T45 411Q84 449 127 489T212 566T289 634T349 681T381 699Q389 699 406 681T446 634T494 566T546 488T595 411Q591 404 582 396T561 383L363 602H357L72 383Z" />
<glyph unicode="_" horiz-adv-x="591" d="M-11 -56Q-11 -40 -8 -28T1 -11Q114 -11 211 -9T379 -4T483 3L494 -5Q494 -24 490 -37T482 -56H-11Z" />
<glyph unicode="`" horiz-adv-x="202" d="M236 565L87 693Q93 706 105 718T130 739T150 748Q158 748 176 728T219 672T268 586Q263 581 255 575T236 565Z" />
<glyph unicode="a" horiz-adv-x="514" d="M151 0Q136 0 116 9T77 31T45 56T30 75Q30 112 37 157T56 247T80 330T101 394T114 423Q120 430 133 442T162 468T192 491T214 500Q232 500 259 492T319 469T381 437L387 500Q423 500 440 489T457 454Q457 438 446 385T414
251T368 66L379 59Q389 69 403 89T433 132T460 176Q469 176 475 172T484 164Q478 143 465 115T434 61T399 18T366 0Q354 0 336 7T302 25T284 42L337 218Q343 238 349 255T359 284T367 301L361 304Q344 270 323 229T277 148T231 74T188 20T151 0ZM163 71Q167 71
182 89T217 137T261 204T307 276T346 344T372 394Q329 410 283 419T195 432Q184 419 172 387T149 314T128 230T114 156T108 110Q117 96 136 84T163 71Z" />
<glyph unicode="b" horiz-adv-x="497" d="M272 0Q251 0 222 5T162 17T104 34T59 52T37 68Q41 83 50 117T73 197T97 287Q111 339 123 395T147 504T167 602T181 678T186 720Q186 729 180 732T163 736H98Q98 744 100 753T105 767Q122 775 142 782T183 795T219 800Q242
800 258 788T275 754Q275 749 272 734T263 690L208 445Q198 401 186 357T161 275T138 213L145 208Q167 252 194 302T249 397T303 471T350 500Q366 500 385 491T422 469T453 444T467 425Q467 389 460 345T441 257T417 176T395 115T382 86Q377 79 363 65T331 36T297
11T272 0ZM299 65Q309 76 321 108T345 181T366 265T381 340T387 385Q383 394 372 403T349 418T331 424Q327 424 311 403T271 348T224 273T177 195T140 128T123 87Q171 73 218 69T299 65Z" />
<glyph unicode="c" horiz-adv-x="377" d="M149 0Q135 0 118 7T84 26T53 51T31 79Q31 121 39 170T61 266T89 351T119 409Q130 419 150 434T195 465T249 490T306 500Q321 500 340 490T373 465T388 442Q384 410 371 378T347 326Q335 326 326 328T310 335Q310 346
310 365T309 404T305 433Q294 438 284 439T266 441Q250 441 232 436T197 423Q177 395 161 351T134 259T116 169T109 100Q118 89 133 79T164 63T192 56Q204 56 220 69T252 101T284 140T310 174Q318 174 324 170T332 161Q321 127 298 90T239 26T149 0Z" />
<glyph unicode="d" horiz-adv-x="512" d="M150 0Q135 0 116 9T77 31T45 56T30 75Q29 111 36 155T55 245T79 329T101 393T114 423Q120 430 133 442T161 468T191 491T213 500Q231 500 259 492T319 469T380 437Q383 449 389 477T403 543T418 617T430 681T435 717Q435
726 430 731T413 736H346Q346 744 348 753T353 767Q369 775 390 782T432 795T467 800Q490 800 506 788T523 754Q523 751 520 734T511 690L365 65L376 58Q386 68 402 89T435 134T463 177Q472 177 478 173T487 164Q480 143 466 115T433 61T397 18T363 0Q353 0 340
4T315 16T295 31T284 43L342 233Q349 256 355 276T366 301L361 304Q344 270 322 229T277 148T230 74T187 20T150 0ZM163 74Q167 74 182 92T217 140T261 206T306 278T346 345T372 394Q328 410 282 419T195 432Q183 419 171 388T148 315T128 233T114 159T108 114Q113
105 124 96T146 80T163 74Z" />
<glyph unicode="e" horiz-adv-x="391" d="M145 0Q135 0 120 7T87 26T56 53T32 84Q32 129 41 177T63 270T91 350T117 402Q126 412 146 428T192 461T249 489T309 500Q324 500 344 489T379 464T395 441Q392 420 385 397T367 353T348 319Q330 301 294 280T212 238T120
201Q114 170 111 145T106 101Q112 90 126 80T158 63T188 56Q197 56 207 63T232 86T264 124T306 177Q314 176 319 173T327 164Q317 139 302 111T264 57T212 16T145 0ZM131 252Q164 264 198 278T261 307T310 337Q312 347 313 358T314 378Q315 394 315 409T311 436Q301
438 291 439T272 440Q251 440 233 436T200 424Q179 394 162 348T131 252Z" />
<glyph unicode="f" horiz-adv-x="278" d="M-78 -200Q-85 -200 -96 -197T-119 -189T-142 -179T-157 -168Q-156 -160 -154 -154T-150 -146Q-114 -141 -77 -132T-9 -108Q-3 -98 4 -76T20 -23T37 41T54 107T68 168Q84 238 100 306T132 449L50 460Q50 471 52 480T56
493L132 501Q143 503 148 507T155 524L145 718Q161 735 187 750T244 776T300 793T339 800Q354 800 370 785T397 753T409 726Q404 691 389 663T359 614Q346 614 338 617T326 624Q327 635 326 654T324 693T319 724Q311 726 303 726T286 727Q268 727 253 723T220 715L217
500H335L345 487Q338 476 327 464T306 444L205 447L82 -87Q76 -98 57 -117T13 -155T-37 -187T-78 -200Z" />
<glyph unicode="g" horiz-adv-x="484" d="M173 -200Q162 -200 139 -198T89 -190T35 -179T-9 -166Q-35 -147 -46 -125T-60 -91Q-57 -85 -41 -74T2 -50T58 -22T116 9Q96 18 77 31T46 56T31 75Q30 112 37 157T56 247T80 330T101 393T114 422Q121 430 134 442T162
468T192 491T214 500Q232 500 259 492T319 469T380 438L392 500Q400 500 411 499T434 494T452 483T459 462Q459 461 459 456T456 442L368 67Q359 31 344 -6T309 -78T267 -140T220 -184T173 -200ZM208 -145Q230 -118 251 -71T290 42L343 233Q350 257 356 276T367
301L362 304Q337 258 310 208T254 111T195 28Q184 14 162 -4T113 -40T65 -73T32 -97Q46 -105 77 -116T144 -136T208 -145ZM163 71Q167 71 182 89T217 137T261 204T307 276T347 344T373 394Q329 410 283 419T195 432Q184 419 172 387T149 313T128 229T114 155T108
110Q117 97 136 84T163 71Z" />
<glyph unicode="h" horiz-adv-x="534" d="M110 0Q102 0 90 5T64 17T42 33T30 46Q34 61 42 88T59 149T79 218T97 286Q110 336 122 391T145 499T166 598T180 676T185 719Q185 729 180 732T163 736H98Q98 743 100 753T105 767Q124 776 145 783T185 795T218 800Q241
800 257 789T274 754Q274 748 271 733T262 690L208 447Q196 393 182 345T155 261T134 208L140 204Q157 238 177 278T221 357T268 428T313 480T353 500Q368 500 387 492T424 471T455 446T470 428Q470 391 462 345T442 253T416 166T394 99T383 66L394 59Q404 69 420
89T453 133T480 176Q489 176 495 173T504 164Q498 143 484 115T452 61T416 18T382 0Q370 0 353 7T321 25T304 43Q308 54 320 90T348 177T375 283T391 387Q385 397 373 404T350 417T334 423Q327 423 309 401T266 345T217 270T169 191T131 125Q126 108 124 93T121
61Q121 51 122 39T127 14Q125 11 122 8T110 0Z" />
<glyph unicode="i" horiz-adv-x="284" d="M130 0Q117 0 99 7T65 25T47 42Q51 54 59 83T77 151T98 231T117 311T131 378T137 417Q137 428 130 432T111 436H57Q57 445 59 454T64 467Q80 474 100 482T139 495T172 500Q195 500 207 488T220 454Q220 445 216 423T204
366T184 287T160 187T131 66L141 59Q151 69 166 89T197 134T223 176Q232 176 238 172T247 164Q241 143 228 115T198 61T163 17T130 0ZM183 606Q175 606 165 617T148 644T140 670Q140 678 150 688T174 706T201 721T222 727Q231 727 240 715T256 688T263 661Q263
653 254 644T231 626T204 612T183 606Z" />
<glyph unicode="j" horiz-adv-x="272" d="M-56 -200Q-62 -200 -73 -196T-96 -186T-119 -173T-135 -161Q-134 -153 -132 -148T-128 -139Q-102 -136 -77 -132T-28 -122T14 -108Q18 -100 25 -79T42 -25T60 44T80 121T99 198Q106 226 114 260T129 327T140 384T145
417Q145 428 138 432T119 436H63Q63 443 65 452T70 467Q87 475 107 482T146 495T178 500Q202 500 214 488T227 454Q227 450 226 441T221 417T214 387L104 -87Q100 -97 81 -116T37 -154T-13 -186T-56 -200ZM182 606Q174 606 164 617T147 644T139 670Q139 678 149
688T173 706T200 721T221 727Q230 727 239 715T255 688T262 661Q262 653 253 644T230 626T203 612T182 606Z" />
<glyph unicode="k" horiz-adv-x="528" d="M110 0Q102 0 90 5T64 17T42 33T30 46Q34 61 42 88T59 149T79 218T97 286Q110 336 122 391T145 499T166 598T180 676T185 719Q185 729 180 732T163 736H98Q98 743 100 753T105 767Q124 776 145 783T185 795T218 800Q241
800 257 789T274 754Q274 750 273 742T269 721T262 690L208 447Q197 395 182 346T154 261T134 208L140 204Q156 238 177 278T221 357T267 428T312 480T352 500Q366 500 385 492T422 471T454 447T469 428Q471 402 453 368T397 296T306 218Q316 212 325 199T342 168L390
62L398 59Q408 69 424 89T456 134T484 176Q491 176 498 173T507 164Q501 143 487 115T455 61T417 18T382 0Q361 0 340 17T308 64L249 214Q269 232 292 255T337 303T373 349T391 387Q385 397 373 404T350 417T333 423Q326 423 308 402T266 346T217 271T169 193T131
128Q127 111 124 95T121 61Q121 51 122 39T127 14Q126 12 122 8T110 0Z" />
<glyph unicode="l" horiz-adv-x="260" d="M113 0Q100 0 81 7T45 25T25 42Q29 55 36 80T53 138T72 210T92 288Q105 339 118 394T142 502T162 600T176 676T181 719Q181 729 175 732T158 736H98Q98 743 100 753T104 767Q121 775 141 782T180 795T214 800Q237 800
253 788T270 754Q270 752 267 733T257 690L114 66L125 59Q135 69 151 89T183 134T211 176Q218 176 225 173T234 164Q228 143 215 115T183 61T147 18T113 0Z" />
<glyph unicode="m" horiz-adv-x="827" d="M124 0Q116 0 103 5T77 17T54 33T42 46Q46 61 55 93T78 169T104 264Q113 296 119 329T130 386T135 417Q135 428 128 432T108 436H55Q55 444 57 452T61 467Q78 475 98 482T137 495T169 500Q193 500 205 488T218 454Q218
445 213 422T199 368T180 304T159 243T143 199L147 195Q164 230 185 270T231 351T279 425T326 479T367 500Q381 500 400 492T437 471T469 446T483 428Q483 395 474 352T451 267T425 196L429 193Q445 227 466 268T510 350T558 425T604 479T646 500Q660 500 678 492T715
471T747 446T761 428Q761 391 753 345T733 253T708 166T686 99T675 66L686 59Q696 68 712 88T745 133T772 176Q781 176 787 172T796 164Q790 143 777 115T745 61T708 17T674 0Q661 0 644 7T612 25T594 43Q599 56 612 93T639 180T666 285T682 387Q675 397 664 405T642
419T625 425Q619 425 605 408T570 361T527 297T484 227T445 162T418 113Q416 102 414 90T412 66Q412 52 414 40T419 14Q418 11 414 7T402 0Q394 0 381 5T356 17T334 33T322 46Q325 57 332 81T350 141T373 225Q383 262 391 306T403 387Q397 397 386 405T364 419T346
425Q340 425 322 404T279 348T230 274T181 196T143 130Q139 117 137 101T134 66Q134 55 135 42T141 14Q139 11 136 8T124 0Z" />
<glyph unicode="n" horiz-adv-x="548" d="M124 0Q116 0 103 5T77 17T54 33T42 46Q46 61 55 93T78 169T104 264Q113 296 119 329T130 386T135 417Q135 428 128 432T108 436H55Q55 444 57 452T61 467Q78 475 98 482T137 495T169 500Q193 500 205 488T218 454Q218
445 213 422T199 368T180 304T159 243T143 199L147 195Q164 230 185 270T231 351T279 425T326 479T367 500Q381 500 400 492T437 471T469 446T483 428Q483 391 475 345T455 253T430 166T408 99T396 66L408 59Q417 68 433 89T467 134T494 176Q503 176 509 172T518
164Q512 143 498 116T466 62T430 18T396 0Q383 0 365 7T333 25T316 43Q321 55 333 91T360 178T387 283T403 387Q396 397 385 405T363 419T346 425Q340 425 322 404T279 348T230 274T181 196T143 130Q139 115 137 99T134 68Q134 55 135 42T141 14Q139 11 136 8T124
0Z" />
<glyph unicode="o" horiz-adv-x="459" d="M146 0Q133 0 117 7T83 26T53 51T32 79Q32 120 40 169T60 267T88 355T119 415Q130 426 151 440T199 468T254 491T308 500Q322 500 341 493T379 473T412 448T429 426Q429 393 421 347T401 252T373 161T340 93Q316 65 284
45T215 12T146 0ZM193 56Q201 56 213 58T237 65T258 73Q272 90 285 121T310 191T331 269T345 343T350 398Q341 409 326 419T294 436T262 443Q249 443 234 439T201 427Q181 399 165 355T137 261T118 169T111 100Q120 88 133 78T163 62T193 56Z" />
<glyph unicode="p" horiz-adv-x="512" d="M53 -200Q32 -200 14 -189T-5 -154Q-5 -144 6 -102T36 3T75 141Q84 172 94 214T114 300T130 375T136 417Q136 428 130 432T110 436H55Q55 444 57 453T61 467Q77 474 97 482T136 495T170 500Q193 500 205 488T218 454Q218
439 210 406T191 334T170 262T152 213L160 208Q180 251 206 301T261 397T315 471T362 500Q378 500 397 491T436 469T467 444T481 425Q482 390 475 346T456 258T432 177T410 115T397 87Q391 79 377 65T345 36T311 11T286 0Q254 0 209 10T120 34L85 -107Q81 -121
86 -127T105 -133H168Q168 -141 167 -149T163 -165Q148 -172 128 -180T87 -194T53 -200ZM313 65Q323 76 335 108T359 182T380 266T396 340T402 385Q397 394 386 403T363 418T345 424Q341 424 325 403T287 348T240 273T194 195T157 128T140 87Q187 73 234 69T313
65Z" />
<glyph unicode="q" horiz-adv-x="483" d="M296 -200Q274 -200 258 -188T241 -154Q241 -150 244 -133T254 -89L340 228Q348 255 355 275T366 301L361 304Q344 270 322 229T277 148T232 74T189 20T154 0Q138 0 118 9T78 31T45 56T30 75Q29 111 36 155T55 245T79
329T101 393T114 423Q120 430 133 442T161 468T191 491T213 500Q231 500 259 492T319 469T379 438L391 500Q399 500 410 499T433 494T451 483T458 462Q458 459 458 454T455 442Q448 411 437 366T413 267T387 158T363 51T343 -43T330 -112Q329 -123 335 -128T351
-133H412Q412 -140 411 -149T407 -165Q392 -172 372 -180T332 -194T296 -200ZM163 74Q167 74 181 92T216 140T260 206T305 278T344 345T369 394Q325 411 280 420T195 432Q183 419 171 388T148 315T128 233T114 159T108 114Q113 105 124 96T146 80T163 74Z" />
<glyph unicode="r" horiz-adv-x="409" d="M124 0Q116 0 103 5T77 17T54 33T42 46Q46 61 55 93T78 169T104 264Q113 296 119 329T130 386T135 417Q135 428 128 432T108 436H55Q55 444 57 452T61 467Q78 475 98 482T137 495T169 500Q193 500 205 488T218 454Q218
445 213 422T199 368T180 304T159 243T143 199L146 196Q163 230 183 271T227 353T273 427T318 480T358 500Q368 500 379 492T400 472T416 449T424 431Q420 396 409 366T383 313Q371 313 361 315T344 322Q344 331 344 350T342 391T337 425Q328 421 310 399T269 343T223
270T179 194T144 127Q140 113 137 98T134 66Q134 53 136 40T141 14Q139 11 136 8T124 0Z" />
<glyph unicode="s" horiz-adv-x="390" d="M126 0Q109 0 89 8T52 28T22 53T6 75Q12 101 23 126T46 170T64 196Q71 196 77 195T88 192T97 186Q94 169 90 144T80 92Q95 79 117 68T164 57Q181 57 198 61T226 71Q234 79 240 94T251 129T257 165T256 194Q254 200 236
208T191 226T139 248T95 270T73 292Q73 304 76 328T86 379T104 422Q112 430 129 443T172 469T228 491T292 500Q302 500 317 494T348 479T374 460T385 444Q385 436 377 413T359 365T338 327Q331 327 324 328T312 333T303 338Q303 351 303 368T302 403T301 433Q291
437 278 438T253 439Q228 439 207 435T178 426Q168 411 160 382T151 322Q161 313 186 303T241 281T296 256T331 227Q334 204 331 174T321 118T303 75Q290 60 269 47T223 23T173 6T126 0Z" />
<glyph unicode="t" horiz-adv-x="291" d="M115 0Q102 0 83 7T48 25T29 42Q42 87 55 135T81 229T104 318T122 394T134 450L56 461Q56 473 58 483T61 498L130 501Q141 502 146 506T154 524L179 663Q189 668 206 671T241 676L255 660L218 500H324L333 488Q328 476
318 464T296 445L207 448L116 66L126 59Q135 68 151 88T183 132T211 176Q220 176 226 172T235 164Q229 143 215 115T184 61T148 18T115 0Z" />
<glyph unicode="u" horiz-adv-x="544" d="M181 0Q167 0 146 8T103 29T68 54T51 72Q51 100 59 141T82 227T109 312T132 382T141 420Q141 429 135 432T116 436H61Q61 444 63 453T67 467Q86 476 106 483T145 495T176 500Q196 500 209 489T223 459Q223 451 214 423T192
355T166 270T144 183T135 109Q147 95 165 84T191 72Q197 72 214 95T257 155T308 235T358 318T397 387Q401 409 404 441T410 500Q433 500 450 496T476 482T486 454Q486 438 475 385T443 250T397 66L408 59Q418 69 433 89T464 134T489 176Q498 176 504 173T513 164Q507
142 494 115T463 61T429 17T396 0Q383 0 365 7T331 25T313 42L366 218Q375 247 383 269T396 301L391 304Q373 270 352 229T307 148T261 74T218 20T181 0Z" />
<glyph unicode="v" horiz-adv-x="464" d="M183 0Q173 0 157 6T122 24T87 48T62 74Q70 105 77 140T91 212T101 284T108 353T111 412Q111 428 105 432T85 436H31Q31 444 33 453T38 467Q55 475 75 482T114 495T146 500Q169 500 181 488T194 452Q194 419 189 371T175
270T159 172T146 100Q152 93 162 85T183 71T200 65Q212 74 230 95T270 147T313 212T351 280T378 342T389 389Q389 395 378 404T350 425T318 444T294 454Q294 459 295 466T299 477Q306 482 318 487T343 496T362 500Q371 500 387 491T422 469T452 444T464 425Q464
397 448 355T404 264T344 170T280 85T223 23T183 0Z" />
<glyph unicode="w" horiz-adv-x="745" d="M185 0Q175 0 158 6T123 24T89 48T64 74Q72 104 79 137T92 207T102 279T109 349T112 412Q112 428 106 432T86 436H31Q31 444 33 453T38 467Q55 475 75 482T114 495T146 500Q169 500 182 489T195 452Q195 420 190 372T176
271T160 174T148 102Q154 96 163 88T184 73T202 67Q211 72 228 93T267 145T311 212T353 285T383 354T395 408Q395 426 389 431T368 436H310Q310 444 312 453T316 467Q333 475 353 482T392 495T425 500Q448 500 462 489T476 452Q476 419 470 371T456 270T440 173T428
102Q434 96 443 88T463 73T481 67Q490 72 507 92T545 143T589 208T629 277T658 341T670 389Q670 395 659 404T631 424T599 443T574 454Q574 460 576 467T579 477Q586 482 598 487T623 496T642 500Q651 500 667 491T702 469T732 444T745 425Q745 397 728 355T684
265T625 170T561 85T504 23T464 0Q453 0 437 6T404 24T371 47T347 73Q351 88 361 118T381 187T397 262L393 263Q368 216 338 170T277 85T222 23T185 0Z" />
<glyph unicode="x" horiz-adv-x="498" d="M90 0Q81 0 66 9T34 32T6 58T-6 77Q-6 90 11 110T58 157T122 213T194 270L148 405Q145 415 140 422T126 432T98 436H48Q48 444 50 453T54 467Q71 475 90 482T129 495T161 500Q183 500 196 488T216 448L262 288Q293 312
323 336T373 379T393 403Q393 409 383 417T358 433T328 448T302 457Q302 463 303 469T306 479Q314 483 328 488T355 496T376 500Q384 500 399 491T431 468T459 443T471 424Q471 411 453 390T404 345T340 294T273 243L331 64L341 59Q351 67 367 88T401 133T428 176Q436
176 442 173T452 164Q446 143 433 115T403 61T367 17T334 0Q321 0 304 7T272 25T254 47L206 225Q173 199 141 172T87 123T65 94Q65 90 78 84T112 72T151 62Q154 57 156 51T159 40Q151 33 137 24T111 7T90 0Z" />
<glyph unicode="y" horiz-adv-x="466" d="M78 -200Q66 -192 54 -181T33 -158T25 -143Q25 -132 41 -114T84 -70T142 -18T204 39Q183 44 159 53T115 76T85 103Q90 128 95 160T104 228T110 297T115 361T117 412Q117 427 111 431T90 436H31Q31 441 32 447T34 458T38
467Q54 475 74 482T113 495T145 500Q171 500 183 488T195 448Q195 414 193 373T186 288T177 206T167 137Q173 130 187 122T217 107T241 101Q245 101 261 123T299 181T341 256T375 331T389 389Q389 395 378 405T350 425T318 444T295 454Q295 461 297 467T301 477Q308
482 320 487T345 496T363 500Q372 500 388 491T423 469T453 444T465 425Q465 399 454 363T421 287Q377 201 330 133T238 8T158 -97T102 -193L78 -200Z" />
<glyph unicode="z" horiz-adv-x="438" d="M30 0Q24 0 16 12T2 39T-5 63Q38 99 82 146T168 244T245 344T307 430L135 440L97 333Q94 331 86 330T68 328Q63 346 58 373T53 427Q56 435 70 447T101 471T134 491T154 500Q161 500 185 497T241 490T298 483T337 479Q341
479 348 484T363 495T373 500Q377 500 386 494T403 476T412 447L122 83L286 60Q291 64 302 78T327 110T354 145T374 176Q383 176 389 172T398 164Q394 148 381 121T350 67T313 20T277 0Q263 0 237 4T181 14T125 24T85 29Q71 19 53 10T30 0Z" />
<glyph unicode="{" horiz-adv-x="368" d="M119 -166Q107 -166 92 -155T64 -128T40 -98L139 242Q123 260 93 272T42 287Q40 295 39 308T41 344Q61 348 85 354T133 368T169 386L201 723Q218 740 237 757T275 785T306 797Q325 797 347 794T392 787T430 779Q432 775
433 767T432 750L279 733L223 384Q207 361 179 345T117 316V312Q129 307 144 297T173 272T189 238L117 -100L266 -117Q263 -130 258 -138T249 -149Q220 -154 183 -160T119 -166Z" />
<glyph unicode="|" horiz-adv-x="402" d="M79 -200L269 777Q280 785 301 792T346 800Q332 762 318 704T286 556L141 -190Q133 -193 117 -196T79 -200Z" />
<glyph unicode="}" horiz-adv-x="368" d="M88 -165Q70 -165 48 -162T3 -155T-36 -147Q-38 -142 -39 -134T-38 -117L115 -101L171 249Q187 272 215 288T277 316V320Q266 326 250 336T222 361T205 395L277 733L128 750Q131 764 136 771T145 781Q174 787 211 792T275
798Q288 798 302 787T331 761T354 731L255 391Q272 373 302 361T352 345Q354 337 356 324T353 289Q334 285 309 279T262 265T225 247L193 -91Q177 -107 157 -124T119 -153T88 -165Z" />
<glyph unicode="~" horiz-adv-x="561" d="M400 253Q388 253 361 259T299 276T228 297T161 319L73 267Q68 270 63 275T56 286Q73 305 97 324T145 358T182 372Q194 372 221 367T284 353T355 334T422 314L505 379Q514 375 519 370T526 360Q509 337 485 312T438 270T400 253Z" />
<glyph unicode="&#xa0;" horiz-adv-x="200" />
<glyph unicode="&#xa1;" horiz-adv-x="223" d="M-44 -267L95 269Q103 276 115 281T147 288Q139 228 129 160T106 20T81 -118T55 -242Q40 -252 13 -259T-44 -267ZM130 368Q123 368 114 376T96 397T84 423T80 446Q82 452 91 461T114 479T140 494T161 500Q169 500
178 492T197 472T211 447T215 427Q213 419 203 409T179 390T152 374T130 368Z" />
<glyph unicode="&#xa2;" horiz-adv-x="463" d="M192 0Q171 0 148 7T103 27T65 52T41 78Q39 86 38 94T36 112Q36 148 43 191T64 277T93 360T125 427Q139 437 162 450T214 474T275 494T339 502Q356 502 376 498T417 487T455 473T481 458Q473 425 461 389T436 332Q423
332 414 334T397 340L402 429Q393 432 374 436T336 442T306 445Q293 445 273 441T233 432T201 421Q184 397 169 361T141 282T123 200T116 127Q116 122 116 118T117 109Q125 99 138 90T168 73T201 62T230 58Q245 58 266 62T310 74T352 89T382 102Q385 100 388 94T392
78Q381 69 361 56T315 30T257 9T192 0ZM157 -121L306 591Q323 603 339 608T375 614Q363 579 352 538T335 467L214 -111Q205 -115 190 -118T157 -121Z" />
<glyph unicode="&#xa3;" horiz-adv-x="518" d="M37 0Q30 0 22 9T10 31T6 52L65 81Q77 95 93 124T124 187T151 251H54Q58 271 64 282T74 295Q93 295 114 295T155 296Q141 332 134 373T127 451Q127 464 128 475T130 497Q145 510 169 524T223 550T281 570T329 578Q357
578 387 569T442 548T475 527Q471 507 462 481T442 433T425 399Q410 399 400 402T387 409L388 500Q367 510 345 514T302 518Q283 518 264 515T230 509T210 502Q207 492 206 475T204 439Q204 406 209 367T224 299Q265 301 296 303T364 309L373 300Q369 282 363 270T351
251H216Q196 192 179 152T145 81L354 69L421 185Q435 185 446 182T462 173Q457 153 450 130T436 86T422 49Q410 40 390 29T350 9T321 0Q310 0 282 5T218 18T152 30T105 36Q97 31 83 23T56 7T37 0Z" />
<glyph unicode="&#xa4;" horiz-adv-x="590" d="M41 51Q31 60 22 71T5 97L108 172Q107 180 107 187T106 200Q106 233 112 270T131 343T158 404L84 487Q94 497 109 508T145 529Q156 513 172 489T210 436Q247 456 291 473T375 490Q382 490 397 484T433 469T470 447L563
529Q578 519 588 508T603 489Q586 477 573 467T543 445T501 414Q503 411 503 407T503 397Q503 366 495 324T474 241T448 174L524 95Q514 85 499 73T470 52L403 140Q372 119 331 100T249 80Q234 80 213 89T172 111T136 137L41 51ZM274 144Q283 144 299 148T334 159T366
171T386 180Q393 193 400 219T413 275T422 333T426 375Q426 382 426 383T425 387Q423 392 406 401T367 418T329 426Q323 426 308 423T276 416T243 406T219 398Q212 385 205 361T193 309T184 255T181 212Q181 203 181 201T182 193Q183 188 200 176T238 154T274 144Z"
/>
<glyph unicode="&#xa5;" horiz-adv-x="559" d="M268 0Q261 0 239 3T191 11T142 21T107 30Q109 38 113 44T120 53L158 57Q173 59 182 69T199 97T213 146L228 212H59Q64 233 69 243T79 255Q107 255 146 255T225 256L204 309H79Q83 332 89 342T98 354H188L132 496Q128
508 121 514T93 521H68Q67 524 65 529T63 540Q68 544 79 550T101 560T120 565H292Q294 561 296 553T298 537L257 528Q237 524 225 518T212 496Q212 492 217 479T231 441T254 378T285 288H291Q316 326 345 368T403 451T458 521T504 565H603Q605 561 607 553T610
536L574 526Q545 518 516 495T455 436T390 356Q421 357 450 358T496 361L503 353Q499 334 493 324T484 309H358L320 255Q353 256 380 257T429 259T464 262L471 254Q466 236 461 227T452 212H304L283 115Q279 94 271 80T257 61L345 52Q347 50 348 45T349 31Q339
23 324 16T294 5T268 0Z" />
<glyph unicode="&#xa6;" horiz-adv-x="402" d="M188 360L269 777Q280 785 301 792T346 800Q330 752 316 694T286 556L249 369Q233 364 218 362T188 360ZM79 -200L161 220Q176 224 191 226T222 229L141 -190Q133 -193 117 -196T79 -200Z" />
<glyph unicode="&#xa7;" horiz-adv-x="563" d="M169 -200Q150 -200 124 -194T71 -177T21 -155T-18 -129Q-9 -95 0 -64T19 -5T37 41Q44 42 56 42T78 41L72 -101Q89 -110 112 -118T161 -132T206 -138Q225 -138 250 -133T300 -120T340 -105Q350 -92 359 -69T377 -20T389
30T389 66Q384 69 360 79T300 102T225 131T151 162T91 190Q80 202 73 217T62 248T61 278Q71 303 85 326T113 369T134 397Q119 406 111 410T95 423Q96 446 101 475T116 534T137 592T161 638Q180 651 208 665T267 692T328 712T381 720Q409 720 442 712T506 690T556
660Q549 633 538 602T517 544T499 500Q486 500 476 503T461 510L466 636Q440 647 410 654T346 661Q333 661 313 659T273 652T234 641Q219 621 207 591T188 526T178 463Q185 459 210 449T271 427T343 400T414 374T466 351Q478 340 488 320T503 280T506 244Q490 213
469 184T429 134Q449 122 459 114T472 98Q472 45 456 -10T415 -107Q399 -120 372 -135T309 -166T237 -190T169 -200ZM385 157Q402 184 419 218T443 277L178 376Q173 366 164 348T145 306T129 258L385 157Z" />
<glyph unicode="&#xa8;" horiz-adv-x="383" d="M341 587Q334 587 324 598T307 624T299 648Q299 656 308 665T332 683T359 697T379 703Q387 703 396 692T411 665T417 640Q417 633 409 624T387 607T362 593T341 587ZM162 587Q155 587 145 598T127 624T120 648Q120
657 129 666T152 683T179 697T199 703Q208 703 217 692T232 665T238 640Q238 633 229 624T208 607T183 593T162 587Z" />
<glyph unicode="&#xa9;" horiz-adv-x="581" d="M318 226Q288 226 255 236T193 259T143 285T117 304Q108 314 100 335T86 385T81 442Q81 515 94 564T125 648Q148 663 187 681T274 712T369 726Q389 726 416 718T473 698T525 674T558 650Q564 644 568 627T574 587T578
541T579 501Q579 451 571 400T551 317Q538 306 514 291T457 261T390 236T318 226ZM337 333Q317 333 295 342T257 363T236 379Q233 384 230 397T225 428T222 463Q222 495 226 520T235 569Q244 576 263 585T306 602T355 610Q366 610 383 603T413 587T427 574Q427
568 423 553T415 525T406 507Q401 507 396 508T389 510L376 570Q334 570 309 566T276 559Q272 549 271 525T269 485Q269 455 273 432T279 405Q282 402 293 394T319 380T343 373Q352 373 367 375T397 381T415 387Q417 385 420 381T423 370Q407 357 386 345T337 333ZM331
270Q347 270 371 275T422 289T470 306T503 321Q514 345 519 388T525 477Q525 526 521 568T507 626Q504 631 487 639T444 658T389 674T334 681Q319 681 296 677T247 666T199 652T166 639Q158 623 150 595T136 536T131 479Q131 437 139 396T158 336Q172 322 203 307T270
281T331 270Z" />
<glyph unicode="&#xaa;" horiz-adv-x="496" d="M214 350Q200 350 180 357T141 376T109 397T94 414Q93 447 99 485T115 560T135 629T154 681T166 706Q171 711 183 722T212 745T242 766T265 775Q282 775 308 768T364 749T422 723L425 775Q461 775 479 765T497 733Q497
719 487 675T460 564T421 410L431 404Q440 413 453 429T481 465T505 500Q513 500 520 497T528 489Q524 471 512 448T484 402T452 365T420 350Q407 350 388 357T355 373T337 388L384 534Q390 552 395 565T404 588T411 606L406 608Q386 572 361 528T308 443T257 376T214
350ZM225 417Q230 417 248 438T290 492T339 562T384 631T413 682Q384 692 355 697T300 707T248 712Q238 702 228 675T207 614T190 546T178 486T173 449Q183 437 200 427T225 417Z" />
<glyph unicode="&#xab;" horiz-adv-x="546" d="M222 44Q195 71 166 103T111 166T69 221T53 257Q53 266 70 284T115 327T178 378T245 430T306 476Q311 474 316 467T324 447L117 235L120 287L244 72Q236 60 232 54T222 44ZM408 44Q381 71 352 103T297 166T255 221T239
257Q239 266 256 284T301 327T364 378T431 430T492 476Q497 474 502 467T510 447L303 235L306 287L430 72Q422 60 418 54T408 44Z" />
<glyph unicode="&#xac;" horiz-adv-x="605" d="M492 174L527 344H45Q49 366 55 378T66 393Q186 393 275 394T428 397T531 401T588 405L597 389Q583 323 569 269T547 188Q540 183 526 179T492 174Z" />
<glyph unicode="&#xad;" horiz-adv-x="336" d="M39 270Q39 287 45 301T55 321Q101 321 148 322T236 327T300 334L315 317Q315 304 311 291T300 270H39Z" />
<glyph unicode="&#xae;" horiz-adv-x="581" d="M318 226Q288 226 255 236T193 259T143 285T117 304Q108 314 100 335T86 385T81 442Q81 515 94 564T125 648Q148 663 187 681T274 712T369 726Q389 726 416 718T473 698T525 674T558 650Q564 644 568 627T574 587T578
541T579 501Q579 451 571 400T551 317Q538 306 514 291T457 261T390 236T318 226ZM331 270Q347 270 371 275T422 289T470 306T503 321Q514 345 519 388T525 477Q525 510 523 540T517 593T507 626Q504 631 487 639T444 658T389 674T334 681Q319 681 296 677T247
666T199 652T166 639Q158 623 150 595T136 536T131 479Q131 437 139 396T158 336Q172 322 203 307T270 281T331 270ZM295 341Q289 341 277 343T251 349T226 355T209 359Q209 361 210 365T213 374H228Q239 374 244 380T249 411V563Q249 575 251 581T254 589H218Q216
592 215 595T213 599Q216 603 227 608T242 613H368Q375 613 393 605T417 591Q420 587 423 573T427 545Q427 535 424 520T415 496Q408 489 394 482T367 471V468Q373 465 378 461T389 444L402 418Q414 395 425 383T455 371H466Q467 370 469 367T471 358Q463 350 450
346T425 341Q415 341 399 348T368 386L337 455Q334 462 330 464T320 467H294V396Q294 388 292 381T288 371L333 365Q334 363 334 360T335 354Q331 349 318 345T295 341ZM294 492Q315 492 335 493T374 499Q376 506 378 515T381 537Q381 551 379 563T369 584Q354
586 343 587T318 588Q304 588 299 583T294 565V492Z" />
<glyph unicode="&#xaf;" horiz-adv-x="298" d="M69 588Q69 609 72 622T80 640Q110 640 150 642T233 646T309 651T362 654L372 645Q372 628 368 612T361 588H69Z" />
<glyph unicode="&#xb0;" horiz-adv-x="299" d="M170 352Q133 352 104 374T74 440Q74 478 93 509T144 560T214 579Q249 579 278 557T308 490Q308 453 289 422T239 371T170 352ZM178 399Q216 399 235 423T255 494Q255 515 244 524T205 533Q167 533 148 508T128 436Q128
416 139 408T178 399Z" />
<glyph unicode="&#xb1;" horiz-adv-x="489" d="M178 57L260 477Q264 482 279 486T321 490L239 67Q234 64 218 61T178 57ZM50 252Q55 275 61 285T71 297Q126 297 191 298T321 303T442 309L450 301Q445 283 440 270T429 252H50ZM-9 -54Q-4 -31 2 -21T12 -9Q67 -9
132 -8T262 -3T383 3L391 -5Q386 -23 381 -36T370 -54H-9Z" />
<glyph unicode="&#xb2;" horiz-adv-x="375" d="M67 346Q59 348 51 358T41 380Q121 425 183 480T285 593T342 703Q322 711 299 714T245 718Q234 718 222 718T196 716L169 636Q163 630 142 630Q136 643 131 665T125 721Q148 736 180 746T247 763T311 769Q322 769
338 763T372 749T400 731T412 714Q412 697 396 662T349 584T271 495T162 413L314 400L357 463Q369 463 378 461T389 456Q386 444 383 431T377 404T367 375Q359 370 345 363T316 351T292 346Q245 353 205 360T115 378L67 346Z" />
<glyph unicode="&#xb3;" horiz-adv-x="347" d="M116 346Q107 346 91 351T62 365T43 379Q46 388 50 394T59 401Q78 398 96 397T129 395Q150 395 173 397T216 401T248 407Q252 410 258 422T271 449T282 478T287 499Q287 509 270 519T222 539T154 554Q155 561 158
570T168 585L268 584L234 575Q255 586 273 607T304 653T323 703Q300 711 276 714T227 718Q217 718 205 718T179 716L152 636Q149 634 141 632T124 630Q118 641 115 656T110 689T107 721Q130 736 163 746T231 763T295 769Q306 769 323 763T357 749T386 731T398 715Q397
701 388 681T363 641T331 603T296 573L295 570Q331 559 344 544T357 509Q357 497 349 478T330 438T307 401T287 379Q275 371 248 364T186 351T116 346Z" />
<glyph unicode="&#xb4;" horiz-adv-x="186" d="M90 565Q83 568 75 575T66 588Q102 635 135 671T192 727T224 748Q231 748 242 740T262 720T272 693L90 565Z" />
<glyph unicode="&#xb5;" horiz-adv-x="544" d="M82 -200Q50 -200 36 -179T22 -114Q23 -75 31 -18T55 114L93 64Q84 28 79 -4T73 -72Q73 -119 87 -139T146 -159Q148 -161 150 -165T153 -176Q136 -189 116 -194T82 -200ZM181 0Q167 0 146 8T103 29T68 54T51 72Q51
100 59 141T82 227T109 312T132 382T141 420Q141 429 135 432T116 436H61Q61 444 63 453T67 467Q86 476 106 483T145 495T176 500Q196 500 209 489T223 459Q223 451 214 423T192 355T166 270T144 183T135 109Q147 95 165 84T191 72Q197 72 214 95T257 155T308 235T358
318T397 387Q401 409 404 441T410 500Q433 500 450 496T476 482T486 454Q486 438 475 385T443 250T397 66L408 59Q418 69 433 89T464 134T489 176Q498 176 504 173T513 164Q507 142 494 115T463 61T429 17T396 0Q383 0 365 7T331 25T313 42L366 218Q375 247 383
269T396 301L391 304Q373 270 352 229T307 148T261 74T218 20T181 0Z" />
<glyph unicode="&#xb6;" horiz-adv-x="705" d="M156 -200Q138 -200 111 -192T69 -174Q71 -167 74 -161T81 -151Q127 -139 175 -115T257 -62L319 256Q286 255 259 255T212 254Q186 254 160 264T113 289T77 318T59 339Q55 347 53 361T50 395Q50 430 57 470T78 548T108
613Q122 624 148 639T209 669T280 694T350 704H700Q702 700 705 693T707 673L663 660Q634 652 621 635T599 574L452 -180Q442 -188 424 -193T386 -200L538 581Q546 620 555 636T569 656H459L318 -70Q306 -90 285 -113T238 -155T191 -187T156 -200Z" />
<glyph unicode="&#xb7;" horiz-adv-x="228" d="M105 212Q98 212 89 220T70 240T55 265T52 286Q54 294 64 304T88 323T115 338T137 344Q147 344 159 330T180 297T186 267Q185 259 169 246T135 222T105 212Z" />
<glyph unicode="&#xb8;" horiz-adv-x="171" d="M-29 -200Q-36 -200 -48 -196T-70 -187T-83 -176Q-81 -169 -80 -167T-75 -158Q-45 -158 -21 -157T26 -151Q33 -140 38 -127T45 -103Q37 -94 11 -84T-35 -68Q-36 -64 -39 -55T-40 -34Q-29 -19 -16 0T11 37H43L9 -37Q32
-41 54 -50T90 -70T105 -90Q105 -97 99 -112T85 -143T70 -166Q54 -176 34 -183T-3 -195T-29 -200Z" />
<glyph unicode="&#xb9;" horiz-adv-x="258" d="M188 346Q183 346 169 347T136 351T98 356T63 361T41 366Q43 374 46 378T51 384L87 386Q103 388 112 394T125 412T132 440L176 656Q179 673 183 686T190 702L189 704L103 696Q105 704 108 713T115 726Q142 733 166
739T213 753T256 769Q264 767 269 764T276 756Q265 739 259 723T246 673L196 425Q193 413 189 403T181 389L249 383Q251 381 251 376T251 367Q246 362 234 357T209 349T188 346Z" />
<glyph unicode="&#xba;" horiz-adv-x="443" d="M209 350Q198 350 182 356T149 371T118 393T96 420Q95 455 102 497T120 579T144 652T171 700Q181 709 201 722T248 747T301 767T354 775Q367 775 385 769T421 752T454 731T471 712Q471 685 465 647T448 567T423 490T395
434Q372 408 341 389T275 360T209 350ZM255 403Q262 403 272 404T293 409T312 415Q328 432 341 468T366 546T384 627T390 686Q382 695 368 703T338 716T307 721Q295 721 282 719T254 710Q236 684 222 646T197 568T182 493T176 440Q188 426 211 415T255 403Z" />
<glyph unicode="&#xbb;" horiz-adv-x="545" d="M58 44Q53 46 48 52T39 72L247 285L244 233L119 448Q128 460 132 466T141 476Q169 449 198 417T253 354T295 299T311 262Q311 254 294 236T248 193T186 141T119 89T58 44ZM244 44Q239 46 234 52T225 72L433 285L430
233L305 448Q314 460 318 466T327 476Q355 449 384 417T439 354T481 299T497 262Q497 254 480 236T434 193T372 141T305 89T244 44Z" />
<glyph unicode="&#xbc;" horiz-adv-x="828" d="M176 286Q171 286 157 287T124 291T86 296T51 301T29 306Q31 314 34 318T39 324L75 326Q91 328 100 334T113 352T120 380L164 596Q167 613 171 626T178 642L177 644L91 636Q93 644 96 653T103 666Q130 673 154 679T201
693T244 709Q252 707 257 704T264 696Q253 679 247 663T234 613L184 365Q181 353 177 343T169 329L237 323Q239 321 239 316T239 307Q234 302 222 297T197 289T176 286ZM250 -94Q234 -94 219 -89T193 -76L416 513Q440 577 456 623T482 702T498 753Q520 751 536
742T559 723L250 -94ZM629 -5Q627 -5 622 -2T614 3Q620 14 626 29T637 66L645 102H455Q446 115 443 125T437 150L689 406Q697 408 708 410T734 415T762 418L776 409Q772 396 768 380T759 343T748 292L719 148L783 151L788 142Q784 132 779 121T769 103H711L692
8Q682 4 663 0T629 -5ZM497 147H652L680 279Q683 294 689 315T700 347L695 349L497 147Z" />
<glyph unicode="&#xbd;" horiz-adv-x="839" d="M176 286Q171 286 157 287T124 291T86 296T51 301T29 306Q31 314 34 318T39 324L75 326Q91 328 100 334T113 352T120 380L164 596Q167 613 171 626T178 642L177 644L91 636Q93 644 96 653T103 666Q130 673 154 679T201
693T244 709Q252 707 257 704T264 696Q253 679 247 663T234 613L184 365Q181 353 177 343T169 329L237 323Q239 321 239 316T239 307Q234 302 222 297T197 289T176 286ZM250 -94Q234 -94 219 -89T193 -76L416 513Q440 577 456 623T482 702T498 753Q520 751 536
742T559 723L250 -94ZM463 -4Q455 -2 447 8T437 30Q517 75 579 130T681 243T738 353Q718 361 695 364T641 368Q630 368 618 368T592 366L565 286Q559 280 538 280Q532 293 527 315T521 371Q544 386 576 396T643 413T707 419Q718 419 734 413T768 399T796 381T808
364Q808 347 792 312T745 234T667 145T558 63L710 50L753 113Q765 113 774 111T785 106Q782 94 779 81T773 54T763 25Q755 20 741 13T712 1T688 -4Q641 3 601 10T511 28L463 -4Z" />
<glyph unicode="&#xbe;" horiz-adv-x="918" d="M104 286Q95 286 79 291T50 305T31 319Q34 328 38 334T47 341Q66 338 84 337T117 335Q138 335 161 337T204 341T236 347Q240 350 246 362T259 389T270 418T275 439Q275 449 258 459T210 479T142 494Q143 501 146
510T156 525L256 524L222 515Q243 526 261 547T292 593T311 643Q288 651 264 654T215 658Q205 658 193 658T167 656L140 576Q137 574 129 572T112 570Q106 581 103 596T98 629T95 661Q118 676 151 686T219 703T283 709Q294 709 311 703T345 689T374 671T386 655Q385
641 376 621T351 581T319 543T284 513L283 510Q319 499 332 484T345 449Q345 437 337 418T318 378T295 341T275 319Q263 311 236 304T174 291T104 286ZM339 -94Q323 -94 308 -89T282 -76L505 513Q529 577 545 623T571 702T587 753Q609 751 625 742T648 723L339
-94ZM719 -5Q717 -5 712 -2T704 3Q710 14 716 29T727 66L735 102H545Q536 115 533 125T527 150L779 406Q787 408 798 410T824 415T852 418L866 409Q862 396 858 380T849 343T838 292L809 148L873 151L878 142Q874 132 869 121T859 103H801L782 8Q772 4 753 0T719
-5ZM587 147H742L770 279Q773 294 779 315T790 347L785 349L587 147Z" />
<glyph unicode="&#xbf;" horiz-adv-x="502" d="M146 -277Q123 -277 93 -268T33 -243T-18 -211Q-18 -186 -13 -153T1 -84T20 -18T41 32Q54 50 79 67T133 99T183 125T212 141Q218 157 223 181T232 231T238 271Q246 275 256 280T280 289Q288 267 290 236T291 171T282
106Q266 93 241 79T189 51T142 28T109 12Q101 -15 91 -51T75 -123T68 -188Q79 -193 95 -197T128 -205T160 -208Q185 -208 215 -204T269 -189L311 -63Q318 -60 332 -57T359 -52Q360 -68 359 -98T355 -160T347 -218Q324 -231 289 -245T217 -268T146 -277ZM253 368Q246
368 237 376T220 398T207 424T204 446Q206 452 215 461T237 479T263 494T285 500Q292 500 302 492T321 472T335 447T339 427Q337 419 327 409T302 390T275 374T253 368Z" />
<glyph unicode="&#xc0;" horiz-adv-x="712" d="M136 0Q129 0 109 3T62 10T12 20T-30 30Q-28 37 -24 43T-15 53H-3Q8 53 20 59T48 82T81 129T122 206L336 656Q346 665 363 676T398 697T433 713T458 720Q469 720 486 712T521 691T549 667L577 80Q578 66 581 62T598
55L653 50Q655 48 656 42T656 30Q647 23 633 16T606 5T583 0Q576 0 559 2T522 9T480 17T442 25T417 32Q419 39 422 45T430 55H452Q469 55 480 57T497 70T501 108L494 287H222L152 134Q135 98 117 81T91 60L210 50Q212 48 213 43T213 30Q203 22 189 16T160 5T136
0ZM244 336Q301 336 347 337T430 340T492 345L481 628Q463 641 442 651T397 663L244 336ZM520 769L361 899Q367 913 380 926T406 949T427 958Q436 958 456 937T502 879T553 792Q549 788 540 781T520 769Z" />
<glyph unicode="&#xc1;" horiz-adv-x="712" d="M136 0Q129 0 109 3T62 10T12 20T-30 30Q-28 37 -24 43T-15 53H-3Q8 53 20 59T48 82T81 129T122 206L336 656Q346 665 363 676T398 697T433 713T458 720Q469 720 486 712T521 691T549 667L577 80Q578 66 581 62T598
55L653 50Q655 48 656 42T656 30Q647 23 633 16T606 5T583 0Q576 0 559 2T522 9T480 17T442 25T417 32Q419 39 422 45T430 55H452Q469 55 480 57T497 70T501 108L494 287H222L152 134Q135 98 117 81T91 60L210 50Q212 48 213 43T213 30Q203 22 189 16T160 5T136
0ZM244 336Q301 336 347 337T430 340T492 345L481 628Q463 641 442 651T397 663L244 336ZM417 769Q409 772 401 780T390 794Q428 842 462 879T521 937T555 958Q563 958 575 949T597 927T607 899L417 769Z" />
<glyph unicode="&#xc2;" horiz-adv-x="712" d="M136 0Q129 0 109 3T62 10T12 20T-30 30Q-28 37 -24 43T-15 53H-3Q8 53 20 59T48 82T81 129T122 206L336 656Q346 665 363 676T398 697T433 713T458 720Q469 720 486 712T521 691T549 667L577 80Q578 66 581 62T598
55L653 50Q655 48 656 42T656 30Q647 23 633 16T606 5T583 0Q576 0 559 2T522 9T480 17T442 25T417 32Q419 39 422 45T430 55H452Q469 55 480 57T497 70T501 108L494 287H222L152 134Q135 98 117 81T91 60L210 50Q212 48 213 43T213 30Q203 22 189 16T160 5T136
0ZM244 336Q301 336 347 337T430 340T492 345L481 628Q463 641 442 651T397 663L244 336ZM351 772Q342 777 335 782T326 794Q372 847 405 883T460 940T492 960Q502 960 516 940T550 883T594 794Q590 789 585 782T568 772L481 873L351 772Z" />
<glyph unicode="&#xc3;" horiz-adv-x="712" d="M136 0Q129 0 109 3T62 10T12 20T-30 30Q-28 37 -24 43T-15 53H-3Q8 53 20 59T48 82T81 129T122 206L336 656Q346 665 363 676T398 697T433 713T458 720Q469 720 486 712T521 691T549 667L577 80Q578 66 581 62T598
55L653 50Q655 48 656 42T656 30Q647 23 633 16T606 5T583 0Q576 0 559 2T522 9T480 17T442 25T417 32Q419 39 422 45T430 55H452Q469 55 480 57T497 70T501 108L494 287H222L152 134Q135 98 117 81T91 60L210 50Q212 48 213 43T213 30Q203 22 189 16T160 5T136
0ZM244 336Q301 336 347 337T430 340T492 345L481 628Q463 641 442 651T397 663L244 336ZM547 784Q536 784 508 794T446 818T385 845L308 788Q304 790 298 795T289 808Q305 828 324 848T360 882T389 896Q400 896 428 887T491 865T555 839L628 905Q636 902 641 897T648
887Q633 865 614 841T576 801T547 784Z" />
<glyph unicode="&#xc4;" horiz-adv-x="712" d="M136 0Q129 0 109 3T62 10T12 20T-30 30Q-28 37 -24 43T-15 53H-3Q8 53 20 59T48 82T81 129T122 206L336 656Q346 665 363 676T398 697T433 713T458 720Q469 720 486 712T521 691T549 667L577 80Q578 66 581 62T598
55L653 50Q655 48 656 42T656 30Q647 23 633 16T606 5T583 0Q576 0 559 2T522 9T480 17T442 25T417 32Q419 39 422 45T430 55H452Q469 55 480 57T497 70T501 108L494 287H222L152 134Q135 98 117 81T91 60L210 50Q212 48 213 43T213 30Q203 22 189 16T160 5T136
0ZM244 336Q301 336 347 337T430 340T492 345L481 628Q463 641 442 651T397 663L244 336ZM457 787Q449 787 439 799T420 826T411 852Q411 860 421 870T447 889T475 904T497 910Q506 910 515 898T532 870T539 843Q539 836 530 826T507 808T479 793T457 787ZM450
787Q442 787 432 799T413 826T405 852Q405 861 415 871T440 889T469 904T491 910Q499 910 509 898T525 870T532 843Q532 836 523 826T500 808T472 793T450 787Z" />
<glyph unicode="&#xc5;" horiz-adv-x="712" d="M136 0Q129 0 109 3T62 10T12 20T-30 30Q-28 37 -24 43T-15 53H-3Q8 53 20 59T48 82T81 129T122 206L336 656Q346 665 363 676T398 697T433 713T458 720Q469 720 486 712T521 691T549 667L577 80Q578 66 581 62T598
55L653 50Q655 48 656 42T656 30Q647 23 633 16T606 5T583 0Q576 0 559 2T522 9T480 17T442 25T417 32Q419 39 422 45T430 55H452Q469 55 480 57T497 70T501 108L494 287H222L152 134Q135 98 117 81T91 60L210 50Q212 48 213 43T213 30Q203 22 189 16T160 5T136
0ZM244 336Q301 336 347 337T430 340T492 345L481 628Q463 641 442 651T397 663L244 336ZM462 769Q422 769 397 791T371 851Q371 881 386 905T427 944T484 959Q525 959 550 936T576 875Q576 846 561 822T519 783T462 769ZM467 813Q493 813 510 829T527 871Q527
891 514 903T480 915Q454 915 437 898T420 856Q420 837 433 825T467 813Z" />
<glyph unicode="&#xc6;" horiz-adv-x="936" d="M145 0Q138 0 117 3T68 10T14 20T-29 31Q-27 39 -23 46T-14 56H-1Q10 56 22 63T50 87T84 135T127 216L329 634Q338 642 355 654T393 677T431 696T459 704H847Q870 697 892 683T927 654Q913 601 896 557T867 492Q852
492 839 495T822 501L825 641Q809 644 785 646T734 651T681 655T635 657Q598 657 580 654T557 637T552 597L558 378Q599 383 641 388T723 400T790 412L797 404Q793 388 787 371T774 343L562 321L567 150Q568 126 564 109T554 81T539 65H770L850 226Q866 226 877
221T893 212Q888 186 882 158T868 100T851 43Q841 35 825 26T791 9T762 0Q737 0 699 2T618 7T533 14T455 22T398 31Q400 41 404 46T412 56L435 57Q448 58 461 62T484 80T493 124L487 311L229 287L158 138Q141 103 124 85T97 63L221 53Q223 51 224 46T224 31Q214
23 199 16T170 5T145 0ZM253 340Q288 344 324 347T399 355T484 366L477 646Q463 646 437 641T387 626L253 340Z" />
<glyph unicode="&#xc7;" horiz-adv-x="623" d="M280 0Q256 0 225 9T164 34T111 66T77 100Q68 116 63 142T58 202Q58 237 64 282T81 375T106 470T135 554T167 615Q192 634 226 652T299 686T377 711T453 720Q489 720 527 711T599 688T652 657Q640 606 624 561T596
492Q579 492 566 495T549 501L553 622Q541 629 517 636T467 649T421 654Q398 654 367 648T306 633T252 612Q233 582 215 533T182 428T158 316T149 216Q149 193 151 174T158 140Q165 129 183 117T224 92T271 73T314 65Q337 65 361 67T407 74T441 82L517 231Q531
231 545 227T566 217Q560 195 552 166T535 111T521 65Q499 53 463 38T380 11T280 0ZM238 -200Q231 -200 219 -196T197 -187T184 -176Q186 -169 187 -167T192 -158Q222 -158 246 -157T293 -151Q300 -140 305 -127T312 -103Q304 -94 278 -84T232 -68Q231 -64 228
-55T227 -34Q238 -19 251 0T278 37H310L276 -37Q299 -41 321 -50T357 -70T372 -90Q372 -97 366 -112T352 -143T337 -166Q321 -176 301 -183T264 -195T238 -200Z" />
<glyph unicode="&#xc8;" horiz-adv-x="588" d="M399 0Q371 0 329 2T239 7T142 14T55 22T-8 31Q-6 39 -3 44T6 55L33 58Q52 61 64 68T84 94T99 151L182 577Q189 610 198 630T215 656H124Q122 658 119 662T116 675Q123 681 136 687T162 699T181 704H534Q557 696
578 683T610 655Q601 621 591 589T570 532T548 497Q538 492 526 496T510 504L515 642Q496 646 466 649T402 655T332 658Q308 658 294 648T271 621T258 580L221 389Q263 390 296 392T362 397T437 404L446 392Q441 373 436 360T425 338H211L170 129Q166 106 158 89T142
64H408L489 223Q502 223 513 219T525 209Q523 186 516 156T499 95T483 43Q474 35 458 25T425 8T399 0ZM455 769L296 899Q302 913 315 926T341 949T362 958Q371 958 391 937T437 879T488 792Q484 788 475 781T455 769Z" />
<glyph unicode="&#xc9;" horiz-adv-x="588" d="M399 0Q371 0 329 2T239 7T142 14T55 22T-8 31Q-6 39 -3 44T6 55L33 58Q52 61 64 68T84 94T99 151L182 577Q189 610 198 630T215 656H124Q122 658 119 662T116 675Q123 681 136 687T162 699T181 704H534Q557 696
578 683T610 655Q601 621 591 589T570 532T548 497Q538 492 526 496T510 504L515 642Q496 646 466 649T402 655T332 658Q308 658 294 648T271 621T258 580L221 389Q263 390 296 392T362 397T437 404L446 392Q441 373 436 360T425 338H211L170 129Q166 106 158 89T142
64H408L489 223Q502 223 513 219T525 209Q523 186 516 156T499 95T483 43Q474 35 458 25T425 8T399 0ZM352 769Q344 772 336 780T325 794Q363 842 397 879T456 937T490 958Q498 958 510 949T532 927T542 899L352 769Z" />
<glyph unicode="&#xca;" horiz-adv-x="588" d="M399 0Q371 0 329 2T239 7T142 14T55 22T-8 31Q-6 39 -3 44T6 55L33 58Q52 61 64 68T84 94T99 151L182 577Q189 610 198 630T215 656H124Q122 658 119 662T116 675Q123 681 136 687T162 699T181 704H534Q557 696
578 683T610 655Q601 621 591 589T570 532T548 497Q538 492 526 496T510 504L515 642Q496 646 466 649T402 655T332 658Q308 658 294 648T271 621T258 580L221 389Q263 390 296 392T362 397T437 404L446 392Q441 373 436 360T425 338H211L170 129Q166 106 158 89T142
64H408L489 223Q502 223 513 219T525 209Q523 186 516 156T499 95T483 43Q474 35 458 25T425 8T399 0ZM287 772Q278 777 271 782T262 794Q308 847 341 883T396 940T428 960Q438 960 452 940T486 883T530 794Q526 789 521 782T504 772L417 873L287 772Z" />
<glyph unicode="&#xcb;" horiz-adv-x="588" d="M399 0Q371 0 329 2T239 7T142 14T55 22T-8 31Q-6 39 -3 44T6 55L33 58Q52 61 64 68T84 94T99 151L182 577Q189 610 198 630T215 656H124Q122 658 119 662T116 675Q123 681 136 687T162 699T181 704H534Q557 696
578 683T610 655Q601 621 591 589T570 532T548 497Q538 492 526 496T510 504L515 642Q496 646 466 649T402 655T332 658Q308 658 294 648T271 621T258 580L221 389Q263 390 296 392T362 397T437 404L446 392Q441 373 436 360T425 338H211L170 129Q166 106 158 89T142
64H408L489 223Q502 223 513 219T525 209Q523 186 516 156T499 95T483 43Q474 35 458 25T425 8T399 0ZM393 787Q385 787 375 799T356 826T347 852Q347 860 357 870T383 889T411 904T433 910Q442 910 451 898T468 870T475 843Q475 836 466 826T443 808T415 793T393
787ZM386 787Q378 787 368 799T349 826T341 852Q341 861 351 871T376 889T405 904T427 910Q435 910 445 898T461 870T468 843Q468 836 459 826T436 808T408 793T386 787Z" />
<glyph unicode="&#xcc;" horiz-adv-x="319" d="M159 0Q152 0 136 2T98 8T55 16T17 24T-8 31Q-6 39 -2 45T6 54L34 58Q54 62 65 69T84 95T99 152L183 579Q192 621 201 637T214 656H124Q121 659 119 663T116 674Q123 680 136 687T162 699T180 704H357Q361 700 365
692T369 673L322 660Q290 652 278 633T258 574L171 128Q166 104 158 87T142 63L236 53Q238 50 240 44T242 31Q226 19 202 10T159 0ZM324 769L165 899Q171 913 184 926T210 949T231 958Q240 958 260 937T306 879T357 792Q353 788 344 781T324 769Z" />
<glyph unicode="&#xcd;" horiz-adv-x="319" d="M159 0Q152 0 136 2T98 8T55 16T17 24T-8 31Q-6 39 -2 45T6 54L34 58Q54 62 65 69T84 95T99 152L183 579Q192 621 201 637T214 656H124Q121 659 119 663T116 674Q123 680 136 687T162 699T180 704H357Q361 700 365
692T369 673L322 660Q290 652 278 633T258 574L171 128Q166 104 158 87T142 63L236 53Q238 50 240 44T242 31Q226 19 202 10T159 0ZM221 769Q213 772 205 780T194 794Q232 842 266 879T325 937T359 958Q367 958 379 949T401 927T411 899L221 769Z" />
<glyph unicode="&#xce;" horiz-adv-x="319" d="M159 0Q152 0 136 2T98 8T55 16T17 24T-8 31Q-6 39 -2 45T6 54L34 58Q54 62 65 69T84 95T99 152L183 579Q192 621 201 637T214 656H124Q121 659 119 663T116 674Q123 680 136 687T162 699T180 704H357Q361 700 365
692T369 673L322 660Q290 652 278 633T258 574L171 128Q166 104 158 87T142 63L236 53Q238 50 240 44T242 31Q226 19 202 10T159 0ZM156 772Q147 777 140 782T131 794Q177 847 210 883T265 940T297 960Q307 960 321 940T355 883T399 794Q395 789 390 782T373 772L286
873L156 772Z" />
<glyph unicode="&#xcf;" horiz-adv-x="319" d="M159 0Q152 0 136 2T98 8T55 16T17 24T-8 31Q-6 39 -2 45T6 54L34 58Q54 62 65 69T84 95T99 152L183 579Q192 621 201 637T214 656H124Q121 659 119 663T116 674Q123 680 136 687T162 699T180 704H357Q361 700 365
692T369 673L322 660Q290 652 278 633T258 574L171 128Q166 104 158 87T142 63L236 53Q238 50 240 44T242 31Q226 19 202 10T159 0ZM262 787Q254 787 244 799T225 826T216 852Q216 860 226 870T252 889T280 904T302 910Q311 910 320 898T337 870T344 843Q344 836
335 826T312 808T284 793T262 787ZM255 787Q247 787 237 799T218 826T210 852Q210 861 220 871T245 889T274 904T296 910Q304 910 314 898T330 870T337 843Q337 836 328 826T305 808T277 793T255 787Z" />
<glyph unicode="&#xd0;" horiz-adv-x="687" d="M52 333Q56 352 60 361T69 374L139 375L206 379Q271 380 323 383T418 391L425 384Q419 365 414 353T403 333H197H130H52ZM374 0Q348 0 309 2T224 7T135 14T53 22T-9 31Q-6 39 -3 45T5 55L33 59Q54 62 66 71T85 99T99
152L179 576Q186 614 197 632T215 655H123Q120 659 119 663T117 674Q123 680 136 687T163 699T182 704H531Q548 700 565 692T600 674T631 652T655 628Q664 607 668 580T672 522Q672 473 662 411T634 287T594 173T546 91Q529 76 508 62T463 36T416 14T374 0ZM149
65H426Q450 79 473 116T515 204T549 313T572 424T580 519Q580 559 572 589T545 637Q527 642 494 646T420 653T337 657Q311 657 297 646T275 617T264 578L177 130Q172 105 164 89T149 65Z" />
<glyph unicode="&#xd1;" horiz-adv-x="724" d="M158 0Q149 0 127 3T78 12T28 22T-9 31Q-7 38 -3 45T5 55L33 59Q50 62 62 69T83 96T100 157L181 577Q188 611 198 630T214 655H123Q122 658 120 663T117 675Q124 681 137 688T163 699T182 704H291L537 121Q539 144
541 166T548 212T557 264L619 574Q626 606 635 626T651 652H557Q556 654 554 659T551 671Q558 677 571 685T598 698T616 704H778Q781 700 785 692T788 672L741 658Q722 653 710 645T691 618T677 566L599 174Q588 119 585 82T581 25Q571 17 558 12T532 4T509 0L289
519Q273 556 268 579T262 616H254Q252 611 250 605T245 587T237 555L153 129Q148 105 140 89T126 66L240 53Q243 50 245 44T246 31Q227 17 200 9T158 0ZM552 784Q541 784 513 794T451 818T390 845L313 788Q309 790 303 795T294 808Q310 828 329 848T365 882T394
896Q405 896 433 887T496 865T560 839L633 905Q641 902 646 897T653 887Q638 865 619 841T581 801T552 784Z" />
<glyph unicode="&#xd2;" horiz-adv-x="668" d="M272 0Q248 0 218 9T159 34T108 66T75 98Q65 116 61 141T56 197Q56 233 63 279T81 374T107 470T137 555T168 617Q190 633 221 650T289 684T368 710T451 720Q474 720 503 712T561 689T613 657T647 622Q653 607 655
586T658 544Q658 507 651 459T632 360T605 259T574 170T540 106Q513 83 471 59T378 17T272 0ZM305 63Q334 63 365 72T423 92T462 112Q479 137 495 175T525 261T549 357T565 452T571 534Q571 548 571 560T568 584Q564 592 548 604T508 628T460 648T413 656Q387 656
356 649T296 632T246 612Q227 580 209 529T175 419T151 302T142 199Q142 180 143 166T148 139Q155 128 173 115T214 90T262 71T305 63ZM501 769L342 899Q348 913 361 926T387 949T408 958Q417 958 437 937T483 879T534 792Q530 788 521 781T501 769Z" />
<glyph unicode="&#xd3;" horiz-adv-x="668" d="M272 0Q248 0 218 9T159 34T108 66T75 98Q65 116 61 141T56 197Q56 233 63 279T81 374T107 470T137 555T168 617Q190 633 221 650T289 684T368 710T451 720Q474 720 503 712T561 689T613 657T647 622Q653 607 655
586T658 544Q658 507 651 459T632 360T605 259T574 170T540 106Q513 83 471 59T378 17T272 0ZM305 63Q334 63 365 72T423 92T462 112Q479 137 495 175T525 261T549 357T565 452T571 534Q571 548 571 560T568 584Q564 592 548 604T508 628T460 648T413 656Q387 656
356 649T296 632T246 612Q227 580 209 529T175 419T151 302T142 199Q142 180 143 166T148 139Q155 128 173 115T214 90T262 71T305 63ZM398 769Q390 772 382 780T371 794Q409 842 443 879T502 937T536 958Q544 958 556 949T578 927T588 899L398 769Z" />
<glyph unicode="&#xd4;" horiz-adv-x="668" d="M272 0Q248 0 218 9T159 34T108 66T75 98Q65 116 61 141T56 197Q56 233 63 279T81 374T107 470T137 555T168 617Q190 633 221 650T289 684T368 710T451 720Q474 720 503 712T561 689T613 657T647 622Q653 607 655
586T658 544Q658 507 651 459T632 360T605 259T574 170T540 106Q513 83 471 59T378 17T272 0ZM305 63Q334 63 365 72T423 92T462 112Q479 137 495 175T525 261T549 357T565 452T571 534Q571 548 571 560T568 584Q564 592 548 604T508 628T460 648T413 656Q387 656
356 649T296 632T246 612Q227 580 209 529T175 419T151 302T142 199Q142 180 143 166T148 139Q155 128 173 115T214 90T262 71T305 63ZM333 772Q324 777 317 782T308 794Q354 847 387 883T442 940T474 960Q484 960 498 940T532 883T576 794Q572 789 567 782T550
772L463 873L333 772Z" />
<glyph unicode="&#xd5;" horiz-adv-x="668" d="M272 0Q248 0 218 9T159 34T108 66T75 98Q65 116 61 141T56 197Q56 233 63 279T81 374T107 470T137 555T168 617Q190 633 221 650T289 684T368 710T451 720Q474 720 503 712T561 689T613 657T647 622Q653 607 655
586T658 544Q658 507 651 459T632 360T605 259T574 170T540 106Q513 83 471 59T378 17T272 0ZM305 63Q334 63 365 72T423 92T462 112Q479 137 495 175T525 261T549 357T565 452T571 534Q571 548 571 560T568 584Q564 592 548 604T508 628T460 648T413 656Q387 656
356 649T296 632T246 612Q227 580 209 529T175 419T151 302T142 199Q142 180 143 166T148 139Q155 128 173 115T214 90T262 71T305 63ZM529 784Q518 784 490 794T428 818T367 845L290 788Q286 790 280 795T271 808Q287 828 306 848T342 882T371 896Q382 896 410
887T473 865T537 839L610 905Q618 902 623 897T630 887Q615 865 596 841T558 801T529 784Z" />
<glyph unicode="&#xd6;" horiz-adv-x="668" d="M272 0Q248 0 218 9T159 34T108 66T75 98Q65 116 61 141T56 197Q56 233 63 279T81 374T107 470T137 555T168 617Q190 633 221 650T289 684T368 710T451 720Q474 720 503 712T561 689T613 657T647 622Q653 607 655
586T658 544Q658 507 651 459T632 360T605 259T574 170T540 106Q513 83 471 59T378 17T272 0ZM305 63Q334 63 365 72T423 92T462 112Q479 137 495 175T525 261T549 357T565 452T571 534Q571 548 571 560T568 584Q564 592 548 604T508 628T460 648T413 656Q387 656
356 649T296 632T246 612Q227 580 209 529T175 419T151 302T142 199Q142 180 143 166T148 139Q155 128 173 115T214 90T262 71T305 63ZM439 787Q431 787 421 799T402 826T393 852Q393 860 403 870T429 889T457 904T479 910Q488 910 497 898T514 870T521 843Q521
836 512 826T489 808T461 793T439 787ZM432 787Q424 787 414 799T395 826T387 852Q387 861 397 871T422 889T451 904T473 910Q481 910 491 898T507 870T514 843Q514 836 505 826T482 808T454 793T432 787Z" />
<glyph unicode="&#xd7;" horiz-adv-x="488" d="M75 113Q63 120 57 128T49 146L218 294L110 439Q121 451 135 461T162 478L262 332Q296 362 326 389T380 438T419 476Q433 467 443 455T456 431L288 295L387 147Q381 139 372 130T350 113L245 257L75 113Z" />
<glyph unicode="&#xd8;" horiz-adv-x="668" d="M133 -92Q117 -92 106 -87T90 -76L403 513Q433 566 464 623T522 730T566 812Q588 809 600 801T615 785L133 -92ZM272 0Q248 0 218 9T159 34T108 66T75 98Q65 116 61 141T56 197Q56 233 63 279T81 374T107 470T137
555T168 617Q190 633 221 650T289 684T368 710T451 720Q474 720 503 712T561 689T613 657T647 622Q653 607 655 586T658 544Q658 507 651 459T632 360T605 259T574 170T540 106Q513 83 471 59T378 17T272 0ZM305 63Q334 63 365 72T423 92T462 112Q479 137 495 175T525
261T549 357T565 452T571 534Q571 548 571 560T568 584Q564 592 548 604T508 628T460 648T413 656Q387 656 356 649T296 632T246 612Q227 580 209 529T175 419T151 302T142 199Q142 180 143 166T148 139Q155 128 173 115T214 90T262 71T305 63Z" />
<glyph unicode="&#xd9;" horiz-adv-x="687" d="M320 0Q290 0 258 8T195 28T141 55T102 83T87 107L177 577Q185 611 194 631T211 656H119Q118 658 115 662T112 674Q118 680 131 687T157 699T176 704H353Q356 701 360 693T364 673L318 660Q288 652 275 635T253 574L167
128Q173 119 193 107T240 84T292 66T335 58Q360 58 392 70T453 100T493 128L581 577Q589 613 598 632T614 656H524Q522 658 520 662T517 674Q524 681 537 687T563 699T580 704H739Q741 700 745 693T749 673L702 659Q682 654 670 645T651 617T637 566L549 108Q537
94 511 76T450 40T382 12T320 0ZM516 769L357 899Q363 913 376 926T402 949T423 958Q432 958 452 937T498 879T549 792Q545 788 536 781T516 769Z" />
<glyph unicode="&#xda;" horiz-adv-x="687" d="M320 0Q290 0 258 8T195 28T141 55T102 83T87 107L177 577Q185 611 194 631T211 656H119Q118 658 115 662T112 674Q118 680 131 687T157 699T176 704H353Q356 701 360 693T364 673L318 660Q288 652 275 635T253 574L167
128Q173 119 193 107T240 84T292 66T335 58Q360 58 392 70T453 100T493 128L581 577Q589 613 598 632T614 656H524Q522 658 520 662T517 674Q524 681 537 687T563 699T580 704H739Q741 700 745 693T749 673L702 659Q682 654 670 645T651 617T637 566L549 108Q537
94 511 76T450 40T382 12T320 0ZM413 769Q405 772 397 780T386 794Q424 842 458 879T517 937T551 958Q559 958 571 949T593 927T603 899L413 769Z" />
<glyph unicode="&#xdb;" horiz-adv-x="687" d="M320 0Q290 0 258 8T195 28T141 55T102 83T87 107L177 577Q185 611 194 631T211 656H119Q118 658 115 662T112 674Q118 680 131 687T157 699T176 704H353Q356 701 360 693T364 673L318 660Q288 652 275 635T253 574L167
128Q173 119 193 107T240 84T292 66T335 58Q360 58 392 70T453 100T493 128L581 577Q589 613 598 632T614 656H524Q522 658 520 662T517 674Q524 681 537 687T563 699T580 704H739Q741 700 745 693T749 673L702 659Q682 654 670 645T651 617T637 566L549 108Q537
94 511 76T450 40T382 12T320 0ZM347 772Q338 777 331 782T322 794Q368 847 401 883T456 940T488 960Q498 960 512 940T546 883T590 794Q586 789 581 782T564 772L477 873L347 772Z" />
<glyph unicode="&#xdc;" horiz-adv-x="687" d="M320 0Q290 0 258 8T195 28T141 55T102 83T87 107L177 577Q185 611 194 631T211 656H119Q118 658 115 662T112 674Q118 680 131 687T157 699T176 704H353Q356 701 360 693T364 673L318 660Q288 652 275 635T253 574L167
128Q173 119 193 107T240 84T292 66T335 58Q360 58 392 70T453 100T493 128L581 577Q589 613 598 632T614 656H524Q522 658 520 662T517 674Q524 681 537 687T563 699T580 704H739Q741 700 745 693T749 673L702 659Q682 654 670 645T651 617T637 566L549 108Q537
94 511 76T450 40T382 12T320 0ZM453 787Q445 787 435 799T416 826T407 852Q407 860 417 870T443 889T471 904T493 910Q502 910 511 898T528 870T535 843Q535 836 526 826T503 808T475 793T453 787ZM446 787Q438 787 428 799T409 826T401 852Q401 861 411 871T436
889T465 904T487 910Q495 910 505 898T521 870T528 843Q528 836 519 826T496 808T468 793T446 787Z" />
<glyph unicode="&#xdd;" horiz-adv-x="639" d="M326 0Q319 0 302 2T263 8T220 16T180 24T154 31Q156 39 159 45T166 55L197 59Q213 62 224 68T245 93T262 153L294 307L175 625Q169 640 161 647T130 655H96Q94 657 91 662T89 674Q95 680 108 687T135 699T155 704H352Q355
699 359 692T362 672L308 660Q287 656 273 648T259 622Q259 618 260 610T265 594L346 360H349Q383 424 417 481T482 584T539 662T583 704H706Q710 700 714 693T717 673L670 659Q651 654 632 641T588 603T534 538T464 437T372 291L339 128Q334 104 325 87T311 64L405
53Q407 51 409 46T411 31Q394 19 369 10T326 0ZM380 769Q372 772 364 780T353 794Q391 842 425 879T484 937T518 958Q526 958 538 949T560 927T570 899L380 769Z" />
<glyph unicode="&#xde;" horiz-adv-x="570" d="M157 0Q151 0 135 2T98 8T56 16T18 23T-9 30Q-7 38 -3 44T5 54L32 58Q51 61 63 69T83 96T98 149L183 579Q190 615 199 633T213 656H123Q121 660 119 664T117 675Q124 681 137 688T163 699T181 704H362Q364 700 367
693T369 673L325 660Q308 655 295 647T274 623T258 574L251 538H458Q478 532 498 521T535 497T563 469Q566 460 567 450T568 431Q568 400 559 365T535 299T501 251Q482 235 449 215T378 191H184L170 125Q166 102 158 86T142 62L238 52Q240 50 241 43T241 30Q226
20 202 10T157 0ZM193 240Q258 240 318 243T421 253Q438 271 452 299T474 360T482 421Q482 437 479 451T470 474Q450 480 421 484T361 490T308 492Q279 492 264 484T241 458T227 415L193 240Z" />
<glyph unicode="&#xdf;" horiz-adv-x="585" d="M-81 -200Q-88 -200 -98 -197T-121 -189T-142 -179T-157 -168Q-156 -159 -155 -155T-150 -148Q-115 -143 -77 -134T-8 -109Q-2 -98 5 -76T20 -25T37 37T53 102T67 164Q84 239 100 306T133 450L50 461Q50 471 52 480T56
493L133 501Q144 503 149 507T156 524L166 713Q178 727 198 740T241 764T286 783T327 795T355 800Q385 800 417 792T478 773T523 751T541 734Q537 694 533 654T522 580T510 520T499 479Q447 466 417 460T376 446Q367 430 359 394T350 320Q360 311 384 301T438 280T492
255T527 226Q530 205 527 177T517 122T500 80Q487 64 467 50T421 24T371 7T324 0Q306 0 287 8T251 28T221 53T206 75Q212 101 223 125T246 169T264 196Q270 196 275 195T286 191T295 185Q293 175 290 157T283 121T278 91Q292 78 314 67T360 56Q379 56 396 60T424
71Q433 79 439 95T450 131T455 168T454 195Q452 201 434 209T390 228T339 249T295 272T274 294Q274 306 276 334T285 391T305 437Q317 452 345 471T415 512T503 556L465 506Q466 546 466 584T465 654T460 706T449 730Q441 734 420 734T372 734T318 729T270 723T240
717L216 500L81 -87Q75 -98 56 -117T11 -155T-40 -187T-81 -200Z" />
<glyph unicode="&#xe0;" horiz-adv-x="514" d="M151 0Q136 0 116 9T77 31T45 56T30 75Q30 112 37 157T56 247T80 330T101 394T114 423Q120 430 133 442T162 468T192 491T214 500Q232 500 259 492T319 469T381 437L387 500Q423 500 440 489T457 454Q457 438 446
385T414 251T368 66L379 59Q389 69 403 89T433 132T460 176Q469 176 475 172T484 164Q478 143 465 115T434 61T399 18T366 0Q354 0 336 7T302 25T284 42L337 218Q343 238 349 255T359 284T367 301L361 304Q344 270 323 229T277 148T231 74T188 20T151 0ZM163 71Q167
71 182 89T217 137T261 204T307 276T346 344T372 394Q329 410 283 419T195 432Q184 419 172 387T149 314T128 230T114 156T108 110Q117 96 136 84T163 71ZM384 565L235 693Q241 706 253 718T278 739T298 748Q306 748 324 728T367 672T416 586Q411 581 403 575T384
565Z" />
<glyph unicode="&#xe1;" horiz-adv-x="514" d="M151 0Q136 0 116 9T77 31T45 56T30 75Q30 112 37 157T56 247T80 330T101 394T114 423Q120 430 133 442T162 468T192 491T214 500Q232 500 259 492T319 469T381 437L387 500Q423 500 440 489T457 454Q457 438 446
385T414 251T368 66L379 59Q389 69 403 89T433 132T460 176Q469 176 475 172T484 164Q478 143 465 115T434 61T399 18T366 0Q354 0 336 7T302 25T284 42L337 218Q343 238 349 255T359 284T367 301L361 304Q344 270 323 229T277 148T231 74T188 20T151 0ZM163 71Q167
71 182 89T217 137T261 204T307 276T346 344T372 394Q329 410 283 419T195 432Q184 419 172 387T149 314T128 230T114 156T108 110Q117 96 136 84T163 71ZM286 565Q279 568 271 575T262 588Q298 635 331 671T388 727T420 748Q427 748 438 740T458 720T468 693L286
565Z" />
<glyph unicode="&#xe2;" horiz-adv-x="514" d="M151 0Q136 0 116 9T77 31T45 56T30 75Q30 112 37 157T56 247T80 330T101 394T114 423Q120 430 133 442T162 468T192 491T214 500Q232 500 259 492T319 469T381 437L387 500Q423 500 440 489T457 454Q457 438 446
385T414 251T368 66L379 59Q389 69 403 89T433 132T460 176Q469 176 475 172T484 164Q478 143 465 115T434 61T399 18T366 0Q354 0 336 7T302 25T284 42L337 218Q343 238 349 255T359 284T367 301L361 304Q344 270 323 229T277 148T231 74T188 20T151 0ZM163 71Q167
71 182 89T217 137T261 204T307 276T346 344T372 394Q329 410 283 419T195 432Q184 419 172 387T149 314T128 230T114 156T108 110Q117 96 136 84T163 71ZM225 569Q217 574 211 579T202 590Q247 644 278 680T330 734T360 752Q369 752 382 734T414 679T455 590Q451
586 446 580T431 569L349 670L225 569Z" />
<glyph unicode="&#xe3;" horiz-adv-x="514" d="M151 0Q136 0 116 9T77 31T45 56T30 75Q30 112 37 157T56 247T80 330T101 394T114 423Q120 430 133 442T162 468T192 491T214 500Q232 500 259 492T319 469T381 437L387 500Q423 500 440 489T457 454Q457 438 446
385T414 251T368 66L379 59Q389 69 403 89T433 132T460 176Q469 176 475 172T484 164Q478 143 465 115T434 61T399 18T366 0Q354 0 336 7T302 25T284 42L337 218Q343 238 349 255T359 284T367 301L361 304Q344 270 323 229T277 148T231 74T188 20T151 0ZM163 71Q167
71 182 89T217 137T261 204T307 276T346 344T372 394Q329 410 283 419T195 432Q184 419 172 387T149 314T128 230T114 156T108 110Q117 96 136 84T163 71ZM414 580Q403 580 375 590T313 614T252 641L175 584Q171 586 165 591T156 604Q172 624 191 644T227 678T256
692Q267 692 295 683T358 661T422 635L495 701Q503 698 508 693T515 683Q500 661 481 637T443 597T414 580Z" />
<glyph unicode="&#xe4;" horiz-adv-x="514" d="M151 0Q136 0 116 9T77 31T45 56T30 75Q30 112 37 157T56 247T80 330T101 394T114 423Q120 430 133 442T162 468T192 491T214 500Q232 500 259 492T319 469T381 437L387 500Q423 500 440 489T457 454Q457 438 446
385T414 251T368 66L379 59Q389 69 403 89T433 132T460 176Q469 176 475 172T484 164Q478 143 465 115T434 61T399 18T366 0Q354 0 336 7T302 25T284 42L337 218Q343 238 349 255T359 284T367 301L361 304Q344 270 323 229T277 148T231 74T188 20T151 0ZM163 71Q167
71 182 89T217 137T261 204T307 276T346 344T372 394Q329 410 283 419T195 432Q184 419 172 387T149 314T128 230T114 156T108 110Q117 96 136 84T163 71ZM318 587Q311 587 301 598T283 624T276 648Q276 657 286 666T309 683T336 697T356 703Q364 703 373 692T388
665T395 640Q395 633 386 624T364 607T339 593T318 587ZM325 587Q318 587 308 598T290 624T283 648Q283 656 292 665T315 683T342 697T362 703Q371 703 379 692T394 665T401 640Q401 633 392 624T371 607T346 593T325 587Z" />
<glyph unicode="&#xe5;" horiz-adv-x="514" d="M151 0Q136 0 116 9T77 31T45 56T30 75Q30 112 37 157T56 247T80 330T101 394T114 423Q120 430 133 442T162 468T192 491T214 500Q232 500 259 492T319 469T381 437L387 500Q423 500 440 489T457 454Q457 438 446
385T414 251T368 66L379 59Q389 69 403 89T433 132T460 176Q469 176 475 172T484 164Q478 143 465 115T434 61T399 18T366 0Q354 0 336 7T302 25T284 42L337 218Q343 238 349 255T359 284T367 301L361 304Q344 270 323 229T277 148T231 74T188 20T151 0ZM163 71Q167
71 182 89T217 137T261 204T307 276T346 344T372 394Q329 410 283 419T195 432Q184 419 172 387T149 314T128 230T114 156T108 110Q117 96 136 84T163 71ZM329 565Q289 565 264 587T238 647Q238 677 253 701T294 740T351 755Q392 755 417 732T443 671Q443 642 428
618T386 579T329 565ZM334 609Q360 609 377 625T394 667Q394 687 381 699T347 711Q321 711 304 694T287 652Q287 633 300 621T334 609Z" />
<glyph unicode="&#xe6;" horiz-adv-x="674" d="M148 0Q133 0 114 9T76 31T45 56T30 75Q29 111 36 155T55 245T79 329T101 393T114 423Q120 430 133 442T161 468T191 491T213 500Q231 500 259 492T319 469T381 437L386 500Q426 500 442 488T455 444Q481 465 518
482T592 500Q606 500 626 489T661 464T678 441Q675 420 667 397T650 353T631 319Q612 300 577 279T498 238T411 202Q406 173 404 150T399 101Q405 91 418 81T449 63T483 56Q492 56 507 71T539 107T569 148T592 177Q601 177 606 173T614 163Q600 130 577 92T520
27T438 0Q427 0 412 7T379 26T348 53T325 84Q325 103 330 140T346 220T367 301L361 304Q343 270 321 229T276 148T229 74T185 20T148 0ZM162 71Q166 71 181 89T217 137T262 204T308 276T348 344T374 394Q330 410 283 419T195 432Q183 419 171 387T148 313T127 230T113
156T107 110Q116 97 135 84T162 71ZM418 252Q452 264 484 277T545 306T593 334Q596 343 597 355T598 378Q598 395 596 410T591 436Q570 438 544 435T493 426T452 409Q443 380 434 339T418 252Z" />
<glyph unicode="&#xe7;" horiz-adv-x="377" d="M149 0Q135 0 118 7T84 26T53 51T31 79Q31 121 39 170T61 266T89 351T119 409Q130 419 150 434T195 465T249 490T306 500Q321 500 340 490T373 465T388 442Q384 410 371 378T347 326Q335 326 326 328T310 335Q310
346 310 365T309 404T305 433Q294 438 284 439T266 441Q250 441 232 436T197 423Q177 395 161 351T134 259T116 169T109 100Q118 89 133 79T164 63T192 56Q204 56 220 69T252 101T284 140T310 174Q318 174 324 170T332 161Q321 127 298 90T239 26T149 0ZM104 -200Q97
-200 85 -196T63 -187T50 -176Q52 -169 53 -167T58 -158Q88 -158 112 -157T159 -151Q166 -140 171 -127T178 -103Q170 -94 144 -84T98 -68Q97 -64 94 -55T93 -34Q104 -19 117 0T144 37H176L142 -37Q165 -41 187 -50T223 -70T238 -90Q238 -97 232 -112T218 -143T203
-166Q187 -176 167 -183T130 -195T104 -200Z" />
<glyph unicode="&#xe8;" horiz-adv-x="391" d="M145 0Q135 0 120 7T87 26T56 53T32 84Q32 129 41 177T63 270T91 350T117 402Q126 412 146 428T192 461T249 489T309 500Q324 500 344 489T379 464T395 441Q392 420 385 397T367 353T348 319Q330 301 294 280T212
238T120 201Q114 170 111 145T106 101Q112 90 126 80T158 63T188 56Q197 56 207 63T232 86T264 124T306 177Q314 176 319 173T327 164Q317 139 302 111T264 57T212 16T145 0ZM131 252Q164 264 198 278T261 307T310 337Q312 347 313 358T314 378Q315 394 315 409T311
436Q301 438 291 439T272 440Q251 440 233 436T200 424Q179 394 162 348T131 252ZM333 565L184 693Q190 706 202 718T227 739T247 748Q255 748 273 728T316 672T365 586Q360 581 352 575T333 565Z" />
<glyph unicode="&#xe9;" horiz-adv-x="391" d="M145 0Q135 0 120 7T87 26T56 53T32 84Q32 129 41 177T63 270T91 350T117 402Q126 412 146 428T192 461T249 489T309 500Q324 500 344 489T379 464T395 441Q392 420 385 397T367 353T348 319Q330 301 294 280T212
238T120 201Q114 170 111 145T106 101Q112 90 126 80T158 63T188 56Q197 56 207 63T232 86T264 124T306 177Q314 176 319 173T327 164Q317 139 302 111T264 57T212 16T145 0ZM131 252Q164 264 198 278T261 307T310 337Q312 347 313 358T314 378Q315 394 315 409T311
436Q301 438 291 439T272 440Q251 440 233 436T200 424Q179 394 162 348T131 252ZM235 565Q228 568 220 575T211 588Q247 635 280 671T337 727T369 748Q376 748 387 740T407 720T417 693L235 565Z" />
<glyph unicode="&#xea;" horiz-adv-x="391" d="M145 0Q135 0 120 7T87 26T56 53T32 84Q32 129 41 177T63 270T91 350T117 402Q126 412 146 428T192 461T249 489T309 500Q324 500 344 489T379 464T395 441Q392 420 385 397T367 353T348 319Q330 301 294 280T212
238T120 201Q114 170 111 145T106 101Q112 90 126 80T158 63T188 56Q197 56 207 63T232 86T264 124T306 177Q314 176 319 173T327 164Q317 139 302 111T264 57T212 16T145 0ZM131 252Q164 264 198 278T261 307T310 337Q312 347 313 358T314 378Q315 394 315 409T311
436Q301 438 291 439T272 440Q251 440 233 436T200 424Q179 394 162 348T131 252ZM174 569Q166 574 160 579T151 590Q196 644 227 680T279 734T309 752Q318 752 331 734T363 679T404 590Q400 586 395 580T380 569L298 670L174 569Z" />
<glyph unicode="&#xeb;" horiz-adv-x="391" d="M145 0Q135 0 120 7T87 26T56 53T32 84Q32 129 41 177T63 270T91 350T117 402Q126 412 146 428T192 461T249 489T309 500Q324 500 344 489T379 464T395 441Q392 420 385 397T367 353T348 319Q330 301 294 280T212
238T120 201Q114 170 111 145T106 101Q112 90 126 80T158 63T188 56Q197 56 207 63T232 86T264 124T306 177Q314 176 319 173T327 164Q317 139 302 111T264 57T212 16T145 0ZM131 252Q164 264 198 278T261 307T310 337Q312 347 313 358T314 378Q315 394 315 409T311
436Q301 438 291 439T272 440Q251 440 233 436T200 424Q179 394 162 348T131 252ZM267 587Q260 587 250 598T232 624T225 648Q225 657 235 666T258 683T285 697T305 703Q313 703 322 692T337 665T344 640Q344 633 335 624T313 607T288 593T267 587ZM274 587Q267
587 257 598T239 624T232 648Q232 656 241 665T264 683T291 697T311 703Q320 703 328 692T343 665T350 640Q350 633 341 624T320 607T295 593T274 587Z" />
<glyph unicode="&#xec;" horiz-adv-x="284" d="M130 0Q117 0 99 7T65 25T47 42Q51 54 59 83T77 151T98 231T117 311T131 378T137 417Q137 428 130 432T111 436H57Q57 445 59 454T64 467Q80 474 100 482T139 495T172 500Q195 500 207 488T220 454Q220 445 216 423T204
366T184 287T160 187T131 66L141 59Q151 69 166 89T197 134T223 176Q232 176 238 172T247 164Q241 143 228 115T198 61T163 17T130 0ZM243 565L94 693Q100 706 112 718T137 739T157 748Q165 748 183 728T226 672T275 586Q270 581 262 575T243 565Z" />
<glyph unicode="&#xed;" horiz-adv-x="284" d="M130 0Q117 0 99 7T65 25T47 42Q51 54 59 83T77 151T98 231T117 311T131 378T137 417Q137 428 130 432T111 436H57Q57 445 59 454T64 467Q80 474 100 482T139 495T172 500Q195 500 207 488T220 454Q220 445 216 423T204
366T184 287T160 187T131 66L141 59Q151 69 166 89T197 134T223 176Q232 176 238 172T247 164Q241 143 228 115T198 61T163 17T130 0ZM145 565Q138 568 130 575T121 588Q157 635 190 671T247 727T279 748Q286 748 297 740T317 720T327 693L145 565Z" />
<glyph unicode="&#xee;" horiz-adv-x="284" d="M130 0Q117 0 99 7T65 25T47 42Q51 54 59 83T77 151T98 231T117 311T131 378T137 417Q137 428 130 432T111 436H57Q57 445 59 454T64 467Q80 474 100 482T139 495T172 500Q195 500 207 488T220 454Q220 445 216 423T204
366T184 287T160 187T131 66L141 59Q151 69 166 89T197 134T223 176Q232 176 238 172T247 164Q241 143 228 115T198 61T163 17T130 0ZM340 569Q332 574 326 579T317 590Q362 644 393 680T445 734T475 752Q484 752 497 734T529 679T570 590Q566 586 561 580T546
569L464 670L340 569Z" />
<glyph unicode="&#xef;" horiz-adv-x="284" d="M130 0Q117 0 99 7T65 25T47 42Q51 54 59 83T77 151T98 231T117 311T131 378T137 417Q137 428 130 432T111 436H57Q57 445 59 454T64 467Q80 474 100 482T139 495T172 500Q195 500 207 488T220 454Q220 445 216 423T204
366T184 287T160 187T131 66L141 59Q151 69 166 89T197 134T223 176Q232 176 238 172T247 164Q241 143 228 115T198 61T163 17T130 0ZM433 587Q426 587 416 598T398 624T391 648Q391 657 401 666T424 683T451 697T471 703Q479 703 488 692T503 665T510 640Q510
633 501 624T479 607T454 593T433 587ZM440 587Q433 587 423 598T405 624T398 648Q398 656 407 665T430 683T457 697T477 703Q486 703 494 692T509 665T516 640Q516 633 507 624T486 607T461 593T440 587Z" />
<glyph unicode="&#xf0;" horiz-adv-x="458" d="M146 0Q133 0 117 7T83 26T53 51T32 79Q32 120 40 170T61 268T89 356T119 415Q130 426 152 440T201 468T256 491T308 500Q320 500 335 493T367 473T395 448L361 434Q368 488 364 532T341 614T283 682T178 743Q182
755 189 766T204 780Q281 747 331 707T406 611T431 474Q431 419 423 362T402 253T372 160T340 93Q316 65 284 45T215 12T146 0ZM193 56Q201 56 213 58T238 65T260 73Q273 90 286 121T312 192T333 271T347 345T352 400Q344 412 330 421T300 437T274 443Q253 443
235 438T200 424Q180 396 164 353T136 261T118 170T111 100Q120 88 133 78T162 62T193 56ZM185 521Q175 525 169 534T160 552L324 693Q347 713 371 732T413 765T436 787Q451 780 462 768T477 748L185 521Z" />
<glyph unicode="&#xf1;" horiz-adv-x="548" d="M124 0Q116 0 103 5T77 17T54 33T42 46Q46 61 55 93T78 169T104 264Q113 296 119 329T130 386T135 417Q135 428 128 432T108 436H55Q55 444 57 452T61 467Q78 475 98 482T137 495T169 500Q193 500 205 488T218 454Q218
445 213 422T199 368T180 304T159 243T143 199L147 195Q164 230 185 270T231 351T279 425T326 479T367 500Q381 500 400 492T437 471T469 446T483 428Q483 391 475 345T455 253T430 166T408 99T396 66L408 59Q417 68 433 89T467 134T494 176Q503 176 509 172T518
164Q512 143 498 116T466 62T430 18T396 0Q383 0 365 7T333 25T316 43Q321 55 333 91T360 178T387 283T403 387Q396 397 385 405T363 419T346 425Q340 425 322 404T279 348T230 274T181 196T143 130Q139 115 137 99T134 68Q134 55 135 42T141 14Q139 11 136 8T124
0ZM426 580Q415 580 387 590T325 614T264 641L187 584Q183 586 177 591T168 604Q184 624 203 644T239 678T268 692Q279 692 307 683T370 661T434 635L507 701Q515 698 520 693T527 683Q512 661 493 637T455 597T426 580Z" />
<glyph unicode="&#xf2;" horiz-adv-x="459" d="M146 0Q133 0 117 7T83 26T53 51T32 79Q32 120 40 169T60 267T88 355T119 415Q130 426 151 440T199 468T254 491T308 500Q322 500 341 493T379 473T412 448T429 426Q429 393 421 347T401 252T373 161T340 93Q316
65 284 45T215 12T146 0ZM193 56Q201 56 213 58T237 65T258 73Q272 90 285 121T310 191T331 269T345 343T350 398Q341 409 326 419T294 436T262 443Q249 443 234 439T201 427Q181 399 165 355T137 261T118 169T111 100Q120 88 133 78T163 62T193 56ZM351 565L202
693Q208 706 220 718T245 739T265 748Q273 748 291 728T334 672T383 586Q378 581 370 575T351 565Z" />
<glyph unicode="&#xf3;" horiz-adv-x="459" d="M146 0Q133 0 117 7T83 26T53 51T32 79Q32 120 40 169T60 267T88 355T119 415Q130 426 151 440T199 468T254 491T308 500Q322 500 341 493T379 473T412 448T429 426Q429 393 421 347T401 252T373 161T340 93Q316
65 284 45T215 12T146 0ZM193 56Q201 56 213 58T237 65T258 73Q272 90 285 121T310 191T331 269T345 343T350 398Q341 409 326 419T294 436T262 443Q249 443 234 439T201 427Q181 399 165 355T137 261T118 169T111 100Q120 88 133 78T163 62T193 56ZM253 565Q246
568 238 575T229 588Q265 635 298 671T355 727T387 748Q394 748 405 740T425 720T435 693L253 565Z" />
<glyph unicode="&#xf4;" horiz-adv-x="459" d="M146 0Q133 0 117 7T83 26T53 51T32 79Q32 120 40 169T60 267T88 355T119 415Q130 426 151 440T199 468T254 491T308 500Q322 500 341 493T379 473T412 448T429 426Q429 393 421 347T401 252T373 161T340 93Q316
65 284 45T215 12T146 0ZM193 56Q201 56 213 58T237 65T258 73Q272 90 285 121T310 191T331 269T345 343T350 398Q341 409 326 419T294 436T262 443Q249 443 234 439T201 427Q181 399 165 355T137 261T118 169T111 100Q120 88 133 78T163 62T193 56ZM192 569Q184
574 178 579T169 590Q214 644 245 680T297 734T327 752Q336 752 349 734T381 679T422 590Q418 586 413 580T398 569L316 670L192 569Z" />
<glyph unicode="&#xf5;" horiz-adv-x="459" d="M146 0Q133 0 117 7T83 26T53 51T32 79Q32 120 40 169T60 267T88 355T119 415Q130 426 151 440T199 468T254 491T308 500Q322 500 341 493T379 473T412 448T429 426Q429 393 421 347T401 252T373 161T340 93Q316
65 284 45T215 12T146 0ZM193 56Q201 56 213 58T237 65T258 73Q272 90 285 121T310 191T331 269T345 343T350 398Q341 409 326 419T294 436T262 443Q249 443 234 439T201 427Q181 399 165 355T137 261T118 169T111 100Q120 88 133 78T163 62T193 56ZM382 580Q371
580 343 590T281 614T220 641L143 584Q139 586 133 591T124 604Q140 624 159 644T195 678T224 692Q235 692 263 683T326 661T390 635L463 701Q471 698 476 693T483 683Q468 661 449 637T411 597T382 580Z" />
<glyph unicode="&#xf6;" horiz-adv-x="459" d="M146 0Q133 0 117 7T83 26T53 51T32 79Q32 120 40 169T60 267T88 355T119 415Q130 426 151 440T199 468T254 491T308 500Q322 500 341 493T379 473T412 448T429 426Q429 393 421 347T401 252T373 161T340 93Q316
65 284 45T215 12T146 0ZM193 56Q201 56 213 58T237 65T258 73Q272 90 285 121T310 191T331 269T345 343T350 398Q341 409 326 419T294 436T262 443Q249 443 234 439T201 427Q181 399 165 355T137 261T118 169T111 100Q120 88 133 78T163 62T193 56ZM286 587Q279
587 269 598T251 624T244 648Q244 657 254 666T277 683T304 697T324 703Q332 703 341 692T356 665T363 640Q363 633 354 624T332 607T307 593T286 587ZM293 587Q286 587 276 598T258 624T251 648Q251 656 260 665T283 683T310 697T330 703Q339 703 347 692T362
665T369 640Q369 633 360 624T339 607T314 593T293 587Z" />
<glyph unicode="&#xf7;" horiz-adv-x="489" d="M195 62Q189 62 180 73T164 100T158 126Q158 135 168 145T192 164T219 179T240 185Q249 185 258 173T273 145T280 118Q280 111 270 101T245 82T217 68T195 62ZM262 369Q255 369 245 381T227 408T220 434Q220 442
230 452T254 471T282 486T301 492Q310 492 319 480T334 453T341 426Q341 418 332 409T310 390T283 375T262 369ZM50 252Q55 275 61 285T71 297Q126 297 191 298T321 303T442 309L450 301Q445 283 440 270T429 252H50Z" />
<glyph unicode="&#xf8;" horiz-adv-x="459" d="M125 -92Q113 -92 104 -87T88 -76L118 7Q101 13 84 25T54 51T32 79Q32 120 40 169T60 267T88 355T119 415Q133 429 160 446T222 479T288 499Q291 499 293 499T298 500Q309 529 319 556T337 606Q356 604 366 596T377
579L344 491Q362 483 380 472T412 448T429 426Q429 393 421 347T401 252T373 161T340 93Q318 67 288 47T225 15T160 1L125 -92ZM142 72L277 441Q273 442 269 442T262 443Q249 443 234 439T201 427Q181 399 165 355T137 261T118 169T111 100Q117 92 125 85T142 72ZM181
57Q184 56 187 56T193 56Q201 56 213 58T237 65T258 73Q272 90 285 121T310 191T331 269T345 343T350 398Q345 405 337 411T319 424L181 57Z" />
<glyph unicode="&#xf9;" horiz-adv-x="544" d="M181 0Q167 0 146 8T103 29T68 54T51 72Q51 100 59 141T82 227T109 312T132 382T141 420Q141 429 135 432T116 436H61Q61 444 63 453T67 467Q86 476 106 483T145 495T176 500Q196 500 209 489T223 459Q223 451 214
423T192 355T166 270T144 183T135 109Q147 95 165 84T191 72Q197 72 214 95T257 155T308 235T358 318T397 387Q401 409 404 441T410 500Q433 500 450 496T476 482T486 454Q486 438 475 385T443 250T397 66L408 59Q418 69 433 89T464 134T489 176Q498 176 504 173T513
164Q507 142 494 115T463 61T429 17T396 0Q383 0 365 7T331 25T313 42L366 218Q375 247 383 269T396 301L391 304Q373 270 352 229T307 148T261 74T218 20T181 0ZM390 565L241 693Q247 706 259 718T284 739T304 748Q312 748 330 728T373 672T422 586Q417 581 409
575T390 565Z" />
<glyph unicode="&#xfa;" horiz-adv-x="544" d="M181 0Q167 0 146 8T103 29T68 54T51 72Q51 100 59 141T82 227T109 312T132 382T141 420Q141 429 135 432T116 436H61Q61 444 63 453T67 467Q86 476 106 483T145 495T176 500Q196 500 209 489T223 459Q223 451 214
423T192 355T166 270T144 183T135 109Q147 95 165 84T191 72Q197 72 214 95T257 155T308 235T358 318T397 387Q401 409 404 441T410 500Q433 500 450 496T476 482T486 454Q486 438 475 385T443 250T397 66L408 59Q418 69 433 89T464 134T489 176Q498 176 504 173T513
164Q507 142 494 115T463 61T429 17T396 0Q383 0 365 7T331 25T313 42L366 218Q375 247 383 269T396 301L391 304Q373 270 352 229T307 148T261 74T218 20T181 0ZM292 565Q285 568 277 575T268 588Q304 635 337 671T394 727T426 748Q433 748 444 740T464 720T474
693L292 565Z" />
<glyph unicode="&#xfb;" horiz-adv-x="544" d="M181 0Q167 0 146 8T103 29T68 54T51 72Q51 100 59 141T82 227T109 312T132 382T141 420Q141 429 135 432T116 436H61Q61 444 63 453T67 467Q86 476 106 483T145 495T176 500Q196 500 209 489T223 459Q223 451 214
423T192 355T166 270T144 183T135 109Q147 95 165 84T191 72Q197 72 214 95T257 155T308 235T358 318T397 387Q401 409 404 441T410 500Q433 500 450 496T476 482T486 454Q486 438 475 385T443 250T397 66L408 59Q418 69 433 89T464 134T489 176Q498 176 504 173T513
164Q507 142 494 115T463 61T429 17T396 0Q383 0 365 7T331 25T313 42L366 218Q375 247 383 269T396 301L391 304Q373 270 352 229T307 148T261 74T218 20T181 0ZM231 569Q223 574 217 579T208 590Q253 644 284 680T336 734T366 752Q375 752 388 734T420 679T461
590Q457 586 452 580T437 569L355 670L231 569Z" />
<glyph unicode="&#xfc;" horiz-adv-x="544" d="M181 0Q167 0 146 8T103 29T68 54T51 72Q51 100 59 141T82 227T109 312T132 382T141 420Q141 429 135 432T116 436H61Q61 444 63 453T67 467Q86 476 106 483T145 495T176 500Q196 500 209 489T223 459Q223 451 214
423T192 355T166 270T144 183T135 109Q147 95 165 84T191 72Q197 72 214 95T257 155T308 235T358 318T397 387Q401 409 404 441T410 500Q433 500 450 496T476 482T486 454Q486 438 475 385T443 250T397 66L408 59Q418 69 433 89T464 134T489 176Q498 176 504 173T513
164Q507 142 494 115T463 61T429 17T396 0Q383 0 365 7T331 25T313 42L366 218Q375 247 383 269T396 301L391 304Q373 270 352 229T307 148T261 74T218 20T181 0ZM325 587Q318 587 308 598T290 624T283 648Q283 657 293 666T316 683T343 697T363 703Q371 703 380
692T395 665T402 640Q402 633 393 624T371 607T346 593T325 587ZM332 587Q325 587 315 598T297 624T290 648Q290 656 299 665T322 683T349 697T369 703Q378 703 386 692T401 665T408 640Q408 633 399 624T378 607T353 593T332 587Z" />
<glyph unicode="&#xfd;" horiz-adv-x="466" d="M78 -200Q66 -192 54 -181T33 -158T25 -143Q25 -132 41 -114T84 -70T142 -18T204 39Q183 44 159 53T115 76T85 103Q90 128 95 160T104 228T110 297T115 361T117 412Q117 427 111 431T90 436H31Q31 441 32 447T34
458T38 467Q54 475 74 482T113 495T145 500Q171 500 183 488T195 448Q195 414 193 373T186 288T177 206T167 137Q173 130 187 122T217 107T241 101Q245 101 261 123T299 181T341 256T375 331T389 389Q389 395 378 405T350 425T318 444T295 454Q295 461 297 467T301
477Q308 482 320 487T345 496T363 500Q372 500 388 491T423 469T453 444T465 425Q465 399 454 363T421 287Q377 201 330 133T238 8T158 -97T102 -193L78 -200ZM248 565Q241 568 233 575T224 588Q260 635 293 671T350 727T382 748Q389 748 400 740T420 720T430 693L248
565Z" />
<glyph unicode="&#xfe;" horiz-adv-x="494" d="M34 -200Q13 -200 -5 -189T-24 -154Q-24 -144 -13 -102T17 3T57 141Q63 163 74 210T100 318T128 443T154 566T173 665T181 719Q181 730 175 733T159 736H98Q98 745 100 754T105 767Q121 774 140 782T179 795T214
800Q237 800 253 788T270 754Q270 752 267 732T258 689Q251 658 241 614T217 518T191 417T166 323T146 250T134 213L142 208Q162 251 189 301T244 397T300 471T348 500Q363 500 382 491T419 469T449 444T463 425Q464 390 456 346T437 258T413 177T391 115T378 87Q372
79 358 65T326 36T293 11T268 0Q235 0 190 10T101 34L66 -107Q63 -121 68 -127T87 -133H150Q150 -141 149 -149T145 -165Q130 -172 110 -180T69 -194T34 -200ZM294 65Q305 76 317 108T341 182T362 266T377 340T383 385Q379 394 368 403T345 418T327 424Q323 424
307 403T267 348T219 273T172 195T134 128T117 87Q165 73 213 69T294 65Z" />
<glyph unicode="&#xff;" horiz-adv-x="466" d="M78 -200Q66 -192 54 -181T33 -158T25 -143Q25 -132 41 -114T84 -70T142 -18T204 39Q183 44 159 53T115 76T85 103Q90 128 95 160T104 228T110 297T115 361T117 412Q117 427 111 431T90 436H31Q31 441 32 447T34
458T38 467Q54 475 74 482T113 495T145 500Q171 500 183 488T195 448Q195 414 193 373T186 288T177 206T167 137Q173 130 187 122T217 107T241 101Q245 101 261 123T299 181T341 256T375 331T389 389Q389 395 378 405T350 425T318 444T295 454Q295 461 297 467T301
477Q308 482 320 487T345 496T363 500Q372 500 388 491T423 469T453 444T465 425Q465 399 454 363T421 287Q377 201 330 133T238 8T158 -97T102 -193L78 -200ZM280 587Q273 587 263 598T245 624T238 648Q238 657 248 666T271 683T298 697T318 703Q326 703 335 692T350
665T357 640Q357 633 348 624T326 607T301 593T280 587ZM287 587Q280 587 270 598T252 624T245 648Q245 656 254 665T277 683T304 697T324 703Q333 703 341 692T356 665T363 640Q363 633 354 624T333 607T308 593T287 587Z" />
<glyph unicode="&#x2013;" horiz-adv-x="532" d="M38 258Q38 279 42 290T50 305Q92 305 145 305T253 308T358 311T445 314T499 317L508 308Q508 292 505 279T498 258H38Z" />
<glyph unicode="&#x2014;" horiz-adv-x="857" d="M38 258Q38 279 42 290T50 306Q144 306 243 307T437 309T612 312T747 315T823 319L833 308Q833 292 830 279T822 258H38Z" />
<glyph unicode="&#x2018;" horiz-adv-x="184" d="M127 516Q119 516 110 527T93 554T86 582Q86 592 96 611T121 652T154 695T187 728T210 741Q221 741 229 736T241 724T246 711Q233 704 217 691T187 663T165 636Q176 632 185 620T201 595T207 572Q207 563 198 553T174
535T147 522T127 516Z" />
<glyph unicode="&#x2019;" horiz-adv-x="176" d="M113 518Q103 518 95 523T83 535T78 548Q90 555 106 568T137 597T159 624Q148 629 138 640T123 665T117 687Q117 696 126 706T149 724T176 737T196 743Q204 743 214 732T230 705T237 678Q237 667 227 648T202 607T169
565T137 531T113 518Z" />
<glyph unicode="&#x201a;" horiz-adv-x="196" d="M3 -122Q-6 -122 -16 -117T-34 -105T-41 -92Q-28 -86 -11 -69T24 -32T49 4Q38 8 28 20T11 45T4 68Q4 76 12 85T32 103T56 117T75 123Q84 123 95 112T114 85T123 58Q123 48 114 27T89 -20T58 -69T27 -107T3 -122Z" />
<glyph unicode="&#x201c;" horiz-adv-x="339" d="M127 516Q119 516 110 527T93 554T86 582Q86 592 96 611T121 652T154 695T187 728T210 741Q221 741 229 736T241 724T246 711Q233 704 217 691T187 663T165 636Q176 632 185 620T201 595T207 572Q207 563 198 553T174
535T147 522T127 516ZM282 516Q274 516 265 527T248 554T241 582Q241 592 251 611T276 652T309 695T342 728T365 741Q376 741 384 736T396 724T401 711Q388 704 372 691T342 663T320 636Q331 632 340 620T356 595T362 572Q362 563 353 553T329 535T302 522T282
516Z" />
<glyph unicode="&#x201d;" horiz-adv-x="331" d="M113 518Q103 518 95 523T83 535T78 548Q90 555 106 568T137 597T159 624Q148 629 138 640T123 665T117 687Q117 696 126 706T149 724T176 737T196 743Q204 743 214 732T230 705T237 678Q237 667 227 648T202 607T169
565T137 531T113 518ZM268 518Q258 518 250 523T238 535T233 548Q245 555 261 568T292 597T314 624Q303 629 293 640T278 665T272 687Q272 696 281 706T304 724T331 737T351 743Q359 743 369 732T385 705T392 678Q392 667 382 648T357 607T324 565T292 531T268
518Z" />
<glyph unicode="&#x201e;" horiz-adv-x="350" d="M3 -122Q-6 -122 -16 -117T-34 -105T-41 -92Q-28 -86 -11 -69T24 -32T49 4Q38 8 28 20T11 45T4 68Q4 76 12 85T32 103T56 117T75 123Q84 123 95 112T114 85T123 58Q123 48 114 27T89 -20T58 -69T27 -107T3 -122ZM157
-122Q148 -122 138 -117T120 -105T113 -92Q126 -86 143 -69T178 -32T203 4Q192 8 182 20T165 45T158 68Q158 76 166 85T186 103T210 117T229 123Q238 123 249 112T268 85T277 58Q277 48 268 27T243 -20T212 -69T181 -107T157 -122Z" />
<glyph unicode="&#x2022;" horiz-adv-x="382" d="M174 158Q161 158 146 170T115 202T91 241T81 275Q81 290 97 307T139 341T188 369T224 380Q236 380 251 367T279 335T301 296T310 261Q310 246 294 228T255 194T209 168T174 158Z" />
<glyph unicode="&#x2039;" horiz-adv-x="360" d="M222 44Q195 71 166 103T111 166T69 221T53 257Q53 266 70 284T115 327T178 378T245 430T306 476Q311 474 316 467T324 447L117 235L120 287L244 72Q236 60 232 54T222 44Z" />
<glyph unicode="&#x203a;" horiz-adv-x="359" d="M58 44Q53 46 48 52T39 72L247 285L244 233L119 448Q128 460 132 466T141 476Q169 449 198 417T253 354T295 299T311 262Q311 254 294 236T248 193T186 141T119 89T58 44Z" />
</font>
</defs>
</svg>
