<?xml version="1.0" standalone="no"?>
<!DOCTYPE svg PUBLIC "-//W3C//DTD SVG 1.1//EN" "http://www.w3.org/Graphics/SVG/1.1/DTD/svg11.dtd">
<svg xmlns="http://www.w3.org/2000/svg">
<defs >
<font id="Texturina" horiz-adv-x="537" ><font-face
    font-family="Texturina Medium 12pt Medium"
    units-per-em="1000"
    panose-1="0 0 0 0 0 0 0 0 0 0"
    ascent="1260"
    descent="-300"
    alphabetic="0" />
<glyph unicode=" " horiz-adv-x="200" />
<glyph unicode="!" horiz-adv-x="228" d="M72 211Q80 274 90 343T113 482T137 618T163 742Q183 755 215 763T280 771L136 232Q129 225 114 219T72 211ZM64 0Q56 0 46 9T25 31T9 58T5 81Q7 90 18 101T44 122T75 139T99 146Q107 146 117 137T136 113T150 85T153
60Q152 53 142 43T117 23T88 7T64 0Z" />
<glyph unicode="&quot;" horiz-adv-x="322" d="M130 435Q116 435 106 437T92 441L123 694Q131 698 146 701T169 705Q179 705 188 695T204 672T211 652Q211 643 203 617T182 556T156 489T130 435ZM287 435Q273 435 263 437T249 441L280 694Q288 698 303 701T326
705Q336 705 345 695T361 672T368 652Q368 643 360 617T339 556T313 489T287 435Z" />
<glyph unicode="#" horiz-adv-x="627" d="M130 -14Q107 -14 90 -9T67 0L125 155H15Q15 179 18 191T26 206H144L212 384H73Q72 411 76 422T84 435H230Q241 463 251 492T272 549T288 594Q309 594 325 585T350 566L299 435L451 438Q462 468 476 506T505 589Q530 589
546 581T569 564L521 440Q570 442 597 444T632 447Q632 427 630 411T621 384H500L435 211Q503 213 529 214T565 218Q565 196 562 179T553 155H414L350 -14Q328 -14 312 -9T287 0L345 155H194L130 -14ZM213 206L365 209L432 384H281L213 206Z" />
<glyph unicode="$" horiz-adv-x="545" d="M188 -10Q166 -8 133 0T69 19T25 44Q31 68 39 93T56 142T73 181Q81 183 95 186T122 189L121 83Q135 77 158 69T201 58L242 254Q206 267 171 280T112 307T87 334Q89 360 95 391T113 452T141 503Q156 515 183 527T243 549T306
567L324 657Q335 665 356 672T403 680Q401 672 397 662T387 631T371 573Q396 571 424 563T476 544T514 522Q510 503 501 478T481 429T464 392Q448 392 436 395T419 403L415 493Q402 497 386 501T356 506L316 318Q354 305 390 292T451 265T477 238Q475 212 468 179T450
113T425 57Q412 47 385 33T324 8T251 -8L232 -105Q224 -108 207 -111T167 -115L188 -10ZM263 56Q284 58 306 62T342 71Q362 97 370 137T378 208Q375 210 361 216T329 228T301 236L263 56ZM294 508Q277 507 259 505T223 499Q211 483 202 460T188 411T183 366Q188
361 210 353T258 336L294 508Z" />
<glyph unicode="%" horiz-adv-x="968" d="M209 285Q171 285 142 297T96 324T76 343Q74 351 73 360T72 378Q72 406 77 444T92 523T112 596T133 647Q146 657 176 671T245 696T319 708Q340 708 367 700T418 679T447 658Q449 654 449 646T450 630Q450 602 444 564T428
486T407 409T385 349Q373 338 346 323T283 296T209 285ZM239 337Q245 337 259 340T289 348T311 357Q320 378 329 411T346 481T358 552T363 611Q363 617 363 620T362 625Q355 635 339 641T307 651T282 655Q276 655 261 653T231 648T208 641Q199 627 190 594T174
521T162 444T157 388Q157 382 157 380T158 375Q165 365 180 356T211 342T239 337ZM371 -96Q351 -96 334 -90T307 -76L529 513Q554 579 570 626T597 705T611 755Q637 752 655 742T680 723L371 -96ZM699 -5Q661 -5 632 7T586 34T566 53Q564 61 563 70T562 88Q562
116 567 154T582 233T602 306T623 357Q636 367 666 381T735 406T809 418Q830 418 857 410T908 389T937 368Q939 364 939 356T940 340Q940 312 934 274T918 196T897 119T875 59Q863 48 836 33T773 6T699 -5ZM729 47Q735 47 749 50T779 58T801 67Q810 88 819 121T836
191T848 262T853 321Q853 327 853 330T852 335Q845 345 829 351T797 361T772 365Q766 365 751 363T721 358T698 351Q689 337 680 304T664 231T652 154T647 98Q647 92 647 90T648 85Q655 75 670 66T701 52T729 47Z" />
<glyph unicode="&amp;" horiz-adv-x="755" d="M241 0Q210 0 179 16T120 59T70 114T36 171T23 216Q23 233 40 254T85 299T143 343T198 379T236 402Q214 455 199 512T179 627Q190 638 217 653T279 684T351 710T420 720Q447 720 481 711T546 688T596 658Q585 608
572 562T548 489Q538 489 528 490T509 494T496 499L492 624Q458 638 431 644T369 648T279 636Q277 590 291 536T333 425T396 314T472 213Q479 248 481 284T485 352T485 399L495 414H520Q564 414 615 417T706 426L714 417Q707 391 702 377T690 352H569Q564 323 557
288T541 219T520 160Q559 117 595 91T666 65Q675 65 685 65T705 65Q708 63 709 56T708 39Q704 36 685 27T640 9T588 0Q563 0 527 25T449 95Q407 67 364 46T287 12T241 0ZM270 74Q279 74 301 83T352 107T407 140Q366 184 326 241T256 359Q229 336 206 316T165 279T137
252T127 236Q127 228 135 209T159 167T192 123T231 88T270 74Z" />
<glyph unicode="&apos;" horiz-adv-x="165" d="M130 435Q116 435 106 437T92 441L123 694Q131 698 146 701T169 705Q179 705 188 695T204 672T211 652Q211 643 203 617T182 556T156 489T130 435Z" />
<glyph unicode="(" horiz-adv-x="308" d="M162 -200Q107 -128 76 -37T45 175Q45 255 63 338T118 502T206 659T324 800Q338 800 349 789T365 765Q312 708 269 638T196 491T149 331T132 168Q132 63 150 -21T204 -171Q195 -181 183 -189T162 -200Z" />
<glyph unicode=")" horiz-adv-x="307" d="M3 -200Q-10 -200 -22 -189T-38 -165Q15 -108 58 -38T131 109T178 269T195 432Q195 537 177 621T123 771Q132 782 144 790T165 800Q221 728 251 637T282 425Q282 345 264 262T209 98T121 -59T3 -200Z" />
<glyph unicode="*" horiz-adv-x="502" d="M195 303Q182 305 169 312T147 329T138 345Q138 351 151 370T191 417T257 477V480L75 497Q77 514 83 531T99 561T119 574Q131 574 152 570T202 556T263 528L264 531L261 705Q272 711 285 713T312 716Q329 716 336 712T343
687Q343 673 340 655T333 618T323 580T313 547H315L490 641Q500 632 505 616T511 588Q511 584 511 578T508 570Q503 565 480 554T421 530T337 510V508L454 391Q447 379 434 368T408 349T388 341Q378 341 365 357T340 395T319 438T307 467L303 466L195 303Z" />
<glyph unicode="+" horiz-adv-x="489" d="M175 57L257 477Q261 482 278 486T326 490L243 67Q238 64 220 61T175 57ZM48 249Q53 275 59 286T70 300Q127 300 194 301T328 306T446 312L455 303Q449 281 443 268T433 249H48Z" />
<glyph unicode="," horiz-adv-x="201" d="M-2 -130Q-12 -130 -23 -124T-43 -110T-50 -96Q-37 -89 -17 -71T22 -32T52 5Q40 11 29 24T9 53T1 77Q1 86 10 97T33 117T60 133T82 140Q91 140 103 127T124 95T134 64Q134 53 123 30T95 -20T60 -73T25 -114T-2 -130Z" />
<glyph unicode="-" horiz-adv-x="336" d="M39 270Q39 287 45 303T56 325Q101 325 147 326T233 331T299 340L316 320Q316 306 311 292T300 270H39Z" />
<glyph unicode="." horiz-adv-x="224" d="M62 0Q54 0 44 9T23 31T7 58T3 81Q5 90 16 101T42 122T73 139T97 146Q105 146 115 137T134 113T148 85T151 60Q150 53 140 43T115 23T86 7T62 0Z" />
<glyph unicode="/" horiz-adv-x="385" d="M48 -91Q26 -91 9 -86T-16 -76L259 513Q288 575 308 620T342 698T363 750Q390 747 407 739T430 723L48 -91Z" />
<glyph unicode="0" horiz-adv-x="561" d="M216 0Q186 0 161 11T117 40T86 72T69 96Q65 107 63 120T61 152Q61 191 69 237T90 328T117 410T144 469Q158 480 183 496T239 528T306 554T376 565Q395 565 416 557T456 535T491 507T514 481Q516 471 517 461T518 440Q518
402 510 355T490 260T462 171T433 102Q414 84 381 60T305 18T216 0ZM276 75Q298 75 318 84T355 107Q366 127 376 157T395 222T410 293T420 360T424 412Q424 420 424 425T423 432Q411 456 380 472T304 489Q282 489 261 483T220 466Q208 450 196 413T174 330T157
241T150 170Q150 163 151 156T154 144Q170 115 201 95T276 75Z" />
<glyph unicode="1" horiz-adv-x="387" d="M200 0Q194 0 177 2T136 7T88 15T45 24T16 32Q18 39 21 45T31 56L68 60Q97 64 111 79T135 143L188 388Q193 413 200 433T211 461L210 464L77 451Q79 465 85 477T95 494Q147 508 198 526T293 565Q301 564 308 560T320 551Q313
531 299 490T274 403L213 118Q209 98 202 83T190 61L288 55Q292 53 295 47T299 33Q290 25 270 18T230 5T200 0Z" />
<glyph unicode="2" horiz-adv-x="546" d="M42 0Q35 0 26 10T9 36T2 62Q27 75 71 107T165 182T262 275T343 374T386 466Q374 474 353 480T300 491T221 495L168 394Q164 391 155 388T134 385Q129 395 124 411T115 446T111 484Q141 510 182 528T266 555T344 565Q360
565 382 555T427 530T465 499T480 472Q480 437 457 396T396 311T315 227T233 155T165 104L382 84L447 168Q462 168 471 164T484 155Q479 129 468 98T448 49Q435 39 413 28T367 8T329 0Q319 0 290 6T225 21T157 35T108 42Q100 37 87 27T61 8T42 0Z" />
<glyph unicode="3" horiz-adv-x="471" d="M69 -105Q55 -105 32 -96T-11 -73T-39 -50Q-33 -38 -26 -31T-15 -21Q11 -25 38 -27T92 -30Q127 -30 162 -26T226 -13Q234 -5 244 11T265 47T281 88T288 122Q288 154 265 174T209 206T141 226Q143 231 145 239T151 256T163
272Q169 272 177 272T196 275T214 280Q252 296 283 327T336 396T364 466Q352 474 324 480T258 491T179 495L126 395Q123 392 115 389T93 386Q86 403 78 430T70 484Q100 510 141 528T225 555T303 565Q317 565 342 557T393 536T438 507T457 477Q457 454 439 421T392
352T329 290T266 250L265 246Q299 236 326 222T369 188T386 140Q386 119 374 91T343 34T306 -17T274 -49Q253 -63 218 -76T144 -97T69 -105Z" />
<glyph unicode="4" horiz-adv-x="536" d="M242 -105Q238 -105 232 -102T222 -94Q232 -77 242 -50T259 9L271 64H32Q22 73 11 92T-1 133L363 546Q374 549 389 553T419 560T449 565L468 551Q463 535 457 513T443 460T425 383L369 130L466 135L473 119Q469 106 460
90T443 65H356L324 -86Q315 -90 302 -94T273 -102T242 -105ZM83 128H282L335 373Q341 402 350 425T367 461L363 462L83 128Z" />
<glyph unicode="5" horiz-adv-x="445" d="M55 -105Q41 -105 18 -96T-25 -73T-52 -50Q-46 -38 -40 -31T-29 -21Q-3 -25 25 -27T77 -30Q110 -30 143 -26T205 -13Q214 -4 226 14T251 56T271 105T280 151Q280 166 267 179T232 204T187 226T145 245Q123 256 100 266T60
286T42 300Q52 342 69 384T107 464T150 532Q171 537 208 540T288 548T372 557T441 569L460 560Q456 543 447 525T427 492T407 467Q376 472 340 474T267 478T198 479Q186 461 174 434T151 379T134 328L186 312Q281 283 327 254T374 177Q374 145 361 112T329 47T288
-9T251 -50Q233 -62 201 -74T130 -96T55 -105Z" />
<glyph unicode="6" horiz-adv-x="510" d="M200 0Q171 0 145 11T98 40T64 72T47 95Q44 105 43 119T41 151Q41 194 51 246T79 353T123 459T178 550T243 615Q261 628 290 640T352 661T415 670Q430 670 453 661T496 638T523 615Q518 604 512 596T500 586Q478 590 452
592T396 595Q381 595 361 593T322 587T289 578Q282 572 260 544T212 469T162 355Q181 365 210 376T271 397T326 406Q349 406 372 396T415 370T448 342T465 321Q466 317 466 310T467 291Q467 264 461 228T443 158T417 104Q398 84 364 60T287 18T200 0ZM254 71Q270
71 293 78T336 98Q344 109 351 126T365 166T375 211T379 255Q379 261 379 267T376 283Q366 297 347 308T306 325T268 331Q255 331 233 327T188 319T153 310Q146 290 140 264T130 211T126 163Q126 155 127 149T129 140Q149 107 186 89T254 71Z" />
<glyph unicode="7" horiz-adv-x="507" d="M128 -105Q112 -101 96 -92T67 -72T51 -51Q56 -29 77 8T130 91T200 187T276 284T348 372T404 441T435 479H196L151 395Q147 391 138 389T117 386Q112 401 107 419T99 454T95 484Q105 496 123 512T163 544T199 565Q204
565 227 564T282 560T348 555T409 550T447 548Q451 548 467 552T500 561T521 565Q528 558 534 545T541 516L417 357Q381 310 347 265T282 177T228 97T188 24T165 -41Q163 -50 162 -59T161 -77Q155 -85 146 -93T128 -105Z" />
<glyph unicode="8" horiz-adv-x="519" d="M193 0Q165 0 138 10T88 37T50 68T30 94Q30 133 39 180T68 255Q78 270 101 287T151 318T198 342Q173 353 151 365T119 387Q118 394 118 401T117 416Q117 443 122 475T137 539T160 591Q189 611 225 629T302 658T380 670Q401
670 427 661T476 638T506 614Q508 609 508 601T509 586Q509 563 504 535T492 481T476 442Q457 417 427 398T364 361Q393 351 423 336T462 309Q464 299 465 289T466 270Q466 236 459 203T443 142T423 99Q392 71 352 49T271 13T193 0ZM234 68Q252 68 272 72T311 83T340
97Q350 106 358 129T371 181T377 235Q377 240 377 247T375 263Q361 271 328 289T254 320Q236 313 207 297T151 257Q141 242 134 221T122 176T117 132Q127 115 149 100T195 77T234 68ZM308 379Q322 384 344 394T385 423Q399 446 410 484T422 570Q415 580 398 587T360
598T317 602Q305 602 291 601T263 597T238 590Q228 574 221 550T210 501T206 452Q206 440 207 431T210 417Q226 410 253 399T308 379Z" />
<glyph unicode="9" horiz-adv-x="512" d="M131 -105Q116 -105 93 -96T50 -73T22 -50Q27 -39 33 -31T46 -21Q72 -25 98 -27T149 -30Q165 -30 185 -28T224 -21T256 -13Q268 -5 289 25T332 104T371 212Q353 203 322 191T258 169T201 159Q178 159 155 169T111 195T78
224T62 244Q61 252 60 260T59 279Q59 312 66 347T85 412T110 461Q130 482 164 506T240 547T327 565Q356 565 382 556T428 532T461 504T479 482Q483 471 485 457T487 420Q487 380 478 327T451 217T412 108T363 16T307 -44Q291 -56 259 -70T193 -95T131 -105ZM259
234Q273 234 297 239T345 251T379 262Q385 277 389 295T396 332T400 368T402 401Q402 410 402 417T399 429Q379 460 342 477T273 494Q258 494 234 487T190 467Q179 449 169 423T154 369T148 312Q148 305 148 298T150 282Q161 268 181 257T223 240T259 234Z" />
<glyph unicode=":" horiz-adv-x="224" d="M62 0Q54 0 44 9T23 31T7 58T3 81Q5 90 16 101T42 122T73 139T97 146Q105 146 115 137T134 113T148 85T151 60Q150 53 140 43T115 23T86 7T62 0ZM133 366Q125 366 115 375T94 397T78 424T74 447Q76 456 87 467T113 488T144
505T168 512Q176 512 186 503T205 479T219 451T222 426Q221 419 211 409T186 389T157 373T133 366Z" />
<glyph unicode=";" horiz-adv-x="220" d="M-2 -130Q-12 -130 -23 -124T-43 -110T-50 -96Q-37 -89 -17 -71T22 -32T52 5Q40 11 29 24T9 53T1 77Q1 86 10 97T33 117T60 133T82 140Q91 140 103 127T124 95T134 64Q134 53 123 30T95 -20T60 -73T25 -114T-2 -130ZM129
366Q121 366 111 375T90 397T74 424T70 447Q72 456 83 467T109 488T140 505T164 512Q172 512 182 503T201 479T215 451T218 426Q217 419 207 409T182 389T153 373T129 366Z" />
<glyph unicode="&lt;" horiz-adv-x="380" d="M278 48Q238 78 194 113T112 181T51 240T27 276Q27 282 43 295T89 328T162 375T259 435T378 507Q386 503 393 494T402 471L134 270L133 263L317 81Q307 66 297 58T278 48Z" />
<glyph unicode="=" horiz-adv-x="491" d="M63 329Q68 355 74 366T85 380Q142 380 209 381T343 386T461 392L470 383Q464 361 458 348T448 329H63ZM291 425Q296 451 302 462T313 476Q370 476 437 477T571 482T689 488L698 479Q692 457 686 444T676 425H291Z" />
<glyph unicode="&gt;" horiz-adv-x="380" d="M13 48Q6 52 -2 61T-11 84L257 285L258 292L74 474Q85 489 95 497T113 507Q154 477 197 442T279 374T340 315T364 279Q364 273 348 260T302 227T229 180T132 120T13 48Z" />
<glyph unicode="?" horiz-adv-x="507" d="M215 215Q207 238 205 268T205 332T214 396Q231 411 256 425T308 453T357 476T389 491Q398 522 407 557T423 625T429 684Q418 689 404 692T375 698T343 700Q320 700 294 697T243 684L198 561Q188 557 173 554T140 549Q139
566 139 596T143 659T151 719Q176 733 210 747T284 771T361 781Q384 781 415 771T478 744T530 709Q530 683 525 650T510 583T491 518T469 469Q456 451 430 434T376 401T324 374T294 357Q288 342 283 319T273 272T266 233Q259 230 246 224T215 215ZM213 0Q205 0
195 9T174 31T158 58T154 81Q156 90 167 101T193 122T224 139T248 146Q256 146 266 137T285 113T299 85T302 60Q301 53 291 43T266 23T237 7T213 0Z" />
<glyph unicode="@" horiz-adv-x="948" d="M381 -200Q332 -200 283 -183T191 -142T119 -94T78 -57Q68 -43 61 -20T51 32T48 90Q48 140 56 198T81 315T118 426T164 516Q195 542 238 568T332 619T435 663T536 693T627 704Q665 704 710 691T797 657T869 614T907 573Q916
553 921 526T926 466Q926 417 914 361T880 247T830 141T770 56Q759 47 735 34T684 10T634 0Q614 0 597 8T569 29T552 53Q535 41 512 29T463 9T413 0Q391 0 368 9T326 31T293 57T275 78Q271 86 269 102T266 137Q266 158 270 193T283 269T303 350T327 420Q342 429
368 442T425 469T487 491T546 500Q560 500 583 494T632 479T681 460T718 443L721 425Q711 414 702 401T686 366T673 310L630 72Q641 68 655 65T688 61Q718 84 746 126T797 223T833 336T846 446Q846 473 842 496T832 534Q821 546 796 563T736 595T664 621T592 632Q562
632 516 621T418 591T316 547T228 494Q207 455 189 407T156 306T134 201T126 103Q126 66 131 38T145 -8Q158 -24 186 -45T253 -87T331 -120T409 -134Q429 -134 455 -131T507 -124T549 -117Q552 -119 555 -126T557 -143Q532 -160 498 -173T433 -193T381 -200ZM439
76Q452 76 473 80T516 92T550 104L603 392Q589 399 569 406T529 418T499 423Q490 423 474 421T440 416T411 409Q403 391 394 358T377 284T363 207T357 145Q357 136 357 130T358 120Q364 110 379 100T411 83T439 76Z" />
<glyph unicode="A" horiz-adv-x="710" d="M158 0Q151 0 127 3T72 12T12 23T-33 34Q-31 42 -27 49T-18 59H-9Q0 59 12 64T42 87T81 141T132 240L322 646Q332 655 351 667T393 692T435 712T465 720Q478 720 495 711T530 688T559 661L577 87Q578 73 581 68T598 62L656
57Q659 53 660 48T659 34Q649 26 635 18T607 5T581 0Q574 0 556 3T515 11T468 21T426 31T399 39Q401 47 405 53T414 64H443Q456 64 467 66T485 80T491 118L487 287H225L159 143Q140 101 121 86T94 68L232 56Q235 53 236 47T235 33Q227 25 213 18T185 5T158 0ZM250
343Q303 343 349 344T431 348T486 353L480 618Q461 632 440 642T395 654L250 343Z" />
<glyph unicode="B" horiz-adv-x="639" d="M365 0Q336 0 297 2T214 7T128 15T49 25T-11 34Q-9 42 -5 49T4 61L34 65Q57 69 69 78T89 109T104 166L183 568Q191 608 201 627T218 650H120Q117 654 115 659T113 671Q120 678 133 685T161 698T181 704H503Q526 698 548
685T589 655T621 618Q621 604 621 590T617 550Q614 528 609 503T594 455T574 414T548 386Q534 380 509 374T455 363L453 359Q498 352 532 339T580 314Q582 309 583 298T585 274Q585 242 579 210T561 148T534 88Q525 78 506 64T462 36T412 12T365 0ZM163 72H413Q429
84 442 107T464 157T476 210Q479 233 479 247T480 280Q471 289 451 301T397 323T316 333H232L194 141Q189 116 180 98T163 72ZM243 388Q295 389 334 391T405 398T469 405Q486 425 497 454T515 516T522 574Q522 593 519 607T507 629Q483 640 444 645T370 650Q335
650 311 628T279 569L243 388Z" />
<glyph unicode="C" horiz-adv-x="628" d="M282 0Q256 0 225 9T163 34T110 67T75 102Q66 116 61 141T56 202Q56 236 62 280T79 373T103 467T132 550T163 610Q189 630 223 649T298 685T379 710T458 720Q496 720 534 711T604 687T656 656Q643 600 626 553T597 483Q576
483 561 486T541 493L543 616Q533 622 511 628T464 640T424 645Q401 645 373 641T316 628T265 611Q246 579 228 531T195 426T172 316T163 217Q163 197 165 178T171 143Q177 134 193 122T231 99T275 81T316 73Q339 73 362 74T403 79T433 84L514 242Q531 242 547
236T571 225Q566 205 558 176T542 117T527 68Q505 55 469 39T386 12T282 0Z" />
<glyph unicode="D" horiz-adv-x="700" d="M378 0Q350 0 309 2T222 8T131 16T49 25T-11 34Q-9 42 -5 49T4 61L34 65Q56 68 69 78T90 109T104 166L179 568Q187 608 199 627T218 650H120Q117 654 115 659T113 671Q120 678 134 685T161 698T181 704H541Q559 699 578
690T615 670T649 646T672 621Q680 602 683 576T687 523Q687 475 677 414T651 291T612 178T566 97Q549 82 526 67T476 39T424 15T378 0ZM165 72H434Q458 85 479 123T519 213T552 323T573 433T581 522Q581 560 574 586T551 630Q534 634 503 638T433 646T354 650Q326
650 311 638T289 608T278 569L195 141Q190 115 181 98T165 72Z" />
<glyph unicode="E" horiz-adv-x="604" d="M407 0Q376 0 332 2T239 7T141 15T53 25T-10 34Q-8 42 -4 49T5 59L35 63Q59 66 71 76T91 106T105 164L184 570Q192 607 202 627T219 652H121Q119 654 116 659T113 671Q120 678 134 685T161 698T180 704H540Q563 696 587
681T624 649Q614 613 604 580T582 523T559 491Q549 484 535 489T516 498L518 635Q501 639 474 643T413 650T344 653Q319 653 304 641T282 611T270 571L234 389Q275 389 311 392T380 399T443 406L453 393Q448 371 442 356T431 334H223L185 139Q180 113 171 96T154
70H414L498 234Q514 234 527 229T540 217Q538 191 530 158T512 95T495 46Q485 38 468 27T435 8T407 0Z" />
<glyph unicode="F" horiz-adv-x="577" d="M182 0Q175 0 156 2T112 9T62 17T17 26T-11 34Q-9 42 -5 49T4 61L34 65Q57 69 69 79T89 110T104 167L183 568Q191 609 201 627T218 650H120Q117 654 115 659T113 671Q120 678 133 685T161 698T181 704H551Q577 696 600
681T635 648Q628 619 618 585T596 523T572 488Q559 479 544 485T523 494L526 634Q504 639 456 644T355 650Q330 650 315 640T292 611T279 569L244 389Q287 389 326 392T400 399T466 407L476 392Q469 367 464 353T454 332H232L194 138Q189 113 180 95T164 70L265
59Q267 56 270 50T272 34Q255 21 228 11T182 0Z" />
<glyph unicode="G" horiz-adv-x="675" d="M282 0Q253 0 221 10T159 36T108 69T77 99Q67 114 62 138T56 196Q56 232 62 278T79 374T104 470T133 553T162 610Q187 629 222 648T296 684T376 710T454 720Q495 720 533 711T604 687T655 656Q646 620 636 584T615 521T592
488Q579 480 563 485T542 493L543 617Q532 623 510 629T465 641T426 646Q404 646 375 641T316 628T264 610Q245 577 227 528T194 422T172 311T163 212Q163 191 165 174T171 145Q179 134 196 122T234 99T277 81T315 74Q344 74 370 77T420 84T463 94L483 190Q490
222 498 249T513 290H349Q354 311 359 328T371 352Q383 352 413 353T481 357T554 362T612 368L624 354Q618 335 608 301T586 223T565 133L552 66Q530 54 487 39T390 12T282 0Z" />
<glyph unicode="H" horiz-adv-x="728" d="M174 0Q167 0 149 2T107 9T59 17T17 26T-10 34Q-8 42 -4 49T5 59L35 63Q59 67 71 77T91 108T105 165L184 570Q192 607 202 627T219 652H121Q119 655 117 659T113 671Q120 678 134 685T161 698T180 704H374Q378 701 382
692T386 670L338 657Q314 651 301 641T282 613T270 571L235 394Q268 394 311 394T399 396T482 398T545 401L577 570Q585 608 595 628T612 652H514Q512 655 509 660T507 671Q514 678 527 685T554 698T574 704H768Q770 701 775 694T779 670L731 657Q708 651 695 641T675
615T663 571L579 136Q574 111 564 93T548 68L647 57Q649 55 652 49T655 34Q639 21 613 11T568 0Q561 0 543 2T500 9T453 17T411 26T384 34Q385 42 390 48T399 59L429 63Q451 66 463 74T483 103T499 165L531 334H223L185 136Q180 111 171 93T154 68L254 57Q256 53
259 47T261 34Q246 21 220 11T174 0Z" />
<glyph unicode="I" horiz-adv-x="336" d="M174 0Q167 0 149 2T107 9T59 17T17 26T-10 34Q-8 42 -4 49T5 59L35 63Q60 67 72 76T91 107T105 164L185 573Q195 620 205 635T218 652H121Q119 655 117 659T113 671Q120 678 134 685T161 698T180 704H375Q379 700 383
691T387 670L337 657Q303 649 291 630T270 571L185 136Q180 111 171 93T154 68L254 57Q257 53 259 46T261 34Q245 21 219 11T174 0Z" />
<glyph unicode="J" horiz-adv-x="341" d="M-26 -200Q-40 -200 -59 -196T-95 -183T-123 -167Q-121 -158 -117 -152T-110 -142Q-55 -125 -10 -102T67 -57L189 568Q197 610 208 628T223 650H126Q123 653 121 659T118 671Q126 679 140 686T167 699T186 704H381Q383
700 388 691T391 668L343 655Q310 647 297 628T275 569L160 -19Q146 -48 121 -79T67 -138T13 -183T-26 -200Z" />
<glyph unicode="K" horiz-adv-x="662" d="M183 0Q176 0 157 2T113 9T63 17T17 26T-11 34Q-9 42 -5 49T4 61L34 65Q57 69 69 79T89 110T104 167L183 568Q191 608 201 627T218 650H120Q117 654 115 659T113 671Q120 678 133 685T161 698T181 704H385Q389 701 393
692T397 668L348 655Q317 647 303 630T280 569L245 392Q267 392 292 392T335 393T354 394Q368 415 386 447T427 517T475 591T526 658T577 704H737Q739 700 744 693T747 668L696 654Q661 644 628 619T563 558T505 485T457 415T423 359L509 152Q523 119 536 100T565
74T604 66H620Q621 65 624 58T627 39Q604 22 581 11T529 0Q504 0 485 14T449 55T417 120L355 283Q344 313 330 323T282 333H234L195 138Q190 113 181 96T164 70L264 59Q266 57 269 51T272 34Q256 21 230 11T183 0Z" />
<glyph unicode="L" horiz-adv-x="545" d="M386 0Q355 0 313 2T225 7T134 15T51 25T-11 34Q-9 42 -5 49T4 61L34 65Q57 68 69 78T89 109T104 166L183 568Q191 610 202 628T218 650H120Q117 654 115 659T113 671Q120 678 133 685T161 698T181 704H385Q388 700 392
691T397 668L348 655Q331 651 319 645T297 622T280 569L195 141Q189 113 181 96T165 72H387L474 241Q486 241 500 237T524 224Q520 194 511 158T493 91T477 41Q466 33 449 24T414 7T386 0Z" />
<glyph unicode="M" horiz-adv-x="966" d="M181 0Q172 0 147 3T91 12T33 24T-5 34Q-3 42 1 49T10 61L39 65Q57 68 69 75T91 103T112 169L212 564Q223 605 232 625T248 650H151Q149 652 147 658T144 671Q152 679 166 686T193 699T212 704H370L468 214Q481 235 506
276T563 371T631 484T698 600T756 704H985Q987 700 992 692T995 668L947 655Q927 650 914 642T893 618T880 569L818 145Q813 112 804 94T787 69L888 59Q890 56 892 49T895 34Q878 21 852 11T806 0Q797 0 777 2T732 9T682 17T636 26T608 34Q610 42 615 50T624 61L657
65Q677 68 690 73T711 98T727 165L779 523Q785 564 793 592T806 631L794 634L482 113Q472 104 450 95T401 85L313 526Q309 549 307 568T304 601Q304 612 305 618T306 627H297Q293 618 287 599T274 556L174 142Q164 99 154 87T142 73L266 59Q268 55 270 49T273 34Q254
19 226 10T181 0Z" />
<glyph unicode="N" horiz-adv-x="742" d="M176 0Q167 0 143 3T88 12T30 24T-11 34Q-9 42 -5 49T4 61L34 65Q54 68 66 77T88 109T105 173L182 570Q189 606 199 626T217 650H120Q119 654 116 659T114 672Q121 679 135 686T162 699T181 704H304L547 122Q549 150 552
178T560 235T570 291L625 565Q632 597 642 619T659 646H558Q556 649 554 655T551 667Q558 674 572 682T601 697T620 704H797Q800 700 804 690T808 668L759 654Q739 649 727 641T706 614T691 559L618 194Q605 130 601 89T597 29Q586 20 570 14T538 4T509 0L299 502Q284
538 278 565T271 606H261Q260 603 258 595T252 575T245 544L165 139Q159 113 151 96T136 73L260 59Q263 55 265 48T267 34Q248 19 220 10T176 0Z" />
<glyph unicode="O" horiz-adv-x="679" d="M274 0Q248 0 218 9T158 33T107 66T73 100Q63 116 59 140T54 195Q54 231 61 277T80 373T106 470T136 554T166 612Q188 629 219 647T287 682T368 709T457 720Q481 720 511 712T570 689T622 658T658 623Q665 608 668 587T671
541Q671 504 664 456T645 357T617 257T585 170T554 111Q527 88 483 62T386 18T274 0ZM308 70Q339 70 370 78T427 98T464 117Q481 142 496 179T525 261T549 353T565 444T571 525Q571 539 570 553T567 579Q565 586 550 597T512 621T464 641T417 649Q389 649 360 643T304
629T256 611Q237 577 218 526T185 415T161 300T152 198Q152 181 153 168T157 143Q164 132 181 120T221 96T267 77T308 70Z" />
<glyph unicode="P" horiz-adv-x="592" d="M182 0Q175 0 156 2T112 9T62 17T17 26T-11 34Q-9 45 -3 52T4 61L34 65Q56 68 68 76T88 106T104 167L184 568Q192 611 203 629T218 650H120Q117 654 115 659T113 671Q120 678 133 685T161 698T181 704H499Q522 697 544
685T585 656T616 621Q618 615 619 608T620 594Q620 566 613 531T593 460T566 397T536 357Q519 345 494 332T438 308T373 293H225L195 138Q189 108 179 92T163 70L268 59Q270 56 271 50T270 34Q254 21 228 11T182 0ZM236 357Q280 357 318 358T387 361T444 364Q464
385 480 423T507 502T518 575Q518 591 515 606T504 630Q488 637 464 641T414 647T362 650Q329 650 308 629T279 569L236 357Z" />
<glyph unicode="Q" horiz-adv-x="679" d="M410 -200Q395 -200 369 -191T312 -167T252 -134T199 -97T167 -62Q171 -47 184 -26T223 18L276 15L249 -32Q265 -47 292 -63T352 -94T419 -118T484 -128H531Q535 -130 537 -138T540 -158Q528 -169 504 -179T454 -194T410
-200ZM274 0Q248 0 218 9T158 33T107 66T73 100Q63 116 59 140T54 195Q54 231 61 277T80 373T106 470T136 554T166 612Q188 629 219 647T287 682T368 709T457 720Q481 720 511 712T570 689T622 658T658 623Q665 608 668 587T671 541Q671 504 664 456T645 357T617
257T585 170T554 111Q527 88 483 62T386 18T274 0ZM308 70Q339 70 370 78T427 98T464 117Q481 142 496 179T525 261T549 353T565 444T571 525Q571 539 570 553T567 579Q565 586 550 597T512 621T464 641T417 649Q389 649 360 643T304 629T256 611Q237 577 218 526T185
415T161 300T152 198Q152 181 153 168T157 143Q164 132 181 120T221 96T267 77T308 70Z" />
<glyph unicode="R" horiz-adv-x="632" d="M171 0Q165 0 147 2T106 9T59 17T16 26T-11 34Q-9 45 -3 52T4 61L34 65Q56 68 68 76T88 105T104 166L185 568Q193 604 202 625T218 650H120Q117 654 115 659T113 671Q120 678 133 685T161 698T181 704H503Q526 697 547
685T585 656T615 621Q617 617 618 610T619 592Q619 565 613 534T596 472T571 417T542 381Q529 373 507 364T459 347T409 334V329Q420 319 426 308T442 269L488 145Q501 108 517 86T571 64H589Q594 59 596 51T599 36Q578 19 552 10T506 0Q467 0 442 28T396 120L344
274Q338 293 330 305T299 318H222L183 138Q178 114 170 96T153 70L255 59Q257 57 259 51T262 34Q245 21 217 11T171 0ZM233 381Q292 381 354 385T457 394Q476 414 490 444T512 509T520 574Q520 592 517 606T506 630Q491 637 467 641T414 647T359 650Q336 650 318
640T287 612T270 569L233 381Z" />
<glyph unicode="S" horiz-adv-x="607" d="M239 0Q217 0 187 7T126 25T70 49T31 76Q37 102 47 137T70 205T92 257Q107 257 121 253T144 244L143 110Q158 102 181 95T228 83T270 78Q290 78 314 83T362 95T400 110Q410 123 418 145T431 192T440 240T443 278Q433 283
407 291T344 310T270 334T198 361T141 389T113 417Q112 442 116 472T128 532T147 589T170 631Q190 646 219 661T280 690T344 712T400 720Q435 720 472 711T543 688T595 658Q591 641 584 617T567 568T549 520T534 486Q516 486 503 490T481 497L485 622Q460 633 427
640T361 648Q351 648 334 646T299 639T265 626Q253 606 242 577T225 517T217 459Q231 451 267 439T349 414T439 384T514 352T550 319Q549 283 542 243T523 164T493 94Q479 82 451 67T387 36T313 10T239 0Z" />
<glyph unicode="T" horiz-adv-x="609" d="M311 0Q304 0 286 2T245 9T197 17T155 26T128 34Q131 45 136 51T143 61L175 65Q190 67 202 71T224 96T244 166L329 596Q333 613 338 626T352 650H190L136 484Q130 481 115 478T79 474Q77 500 77 546T83 648Q102 663 132
680T189 704H597Q624 697 648 680T682 648Q666 587 649 542T620 474Q600 474 586 477T566 484L575 643Q561 645 544 647T509 650T474 651Q442 651 431 636T413 590L324 138Q319 110 310 94T293 70L398 59Q400 55 401 49T401 34Q383 21 357 11T311 0Z" />
<glyph unicode="U" horiz-adv-x="698" d="M329 0Q296 0 262 8T197 29T142 58T103 87T89 111L177 570Q185 605 195 626T213 652H115Q113 654 110 659T107 671Q114 678 127 685T154 698T174 704H368Q372 700 376 691T380 670L332 657Q301 649 287 633T264 571L178
134Q183 125 202 113T249 90T301 72T344 64Q368 64 400 77T460 107T500 136L586 570Q594 608 604 628T621 652H524Q522 654 519 659T516 671Q523 678 537 685T564 698T583 704H755Q758 700 762 691T766 670L716 656Q694 650 682 640T662 612T648 561L562 115Q553
102 527 83T465 44T393 13T329 0Z" />
<glyph unicode="V" horiz-adv-x="743" d="M344 0Q334 0 319 5T286 18T253 37T230 58L186 612Q185 625 179 634T154 644H103Q101 646 98 651T95 664Q101 670 115 678T143 692T163 698L388 704Q391 700 394 690T398 668L340 656Q328 653 312 648T286 626T277 576L309
101Q319 92 334 85T365 74T389 70L584 528Q611 591 634 618T666 650H538Q536 652 533 658T530 671Q539 679 554 686T583 699T602 704H811Q814 700 818 690T821 668L790 660Q769 654 751 646T712 616T669 553T613 438L450 65Q436 51 418 37T381 13T344 0Z" />
<glyph unicode="W" horiz-adv-x="1112" d="M345 0Q334 0 319 6T286 21T256 42T235 65L188 619Q187 632 181 641T155 650H106Q103 652 100 658T97 671Q103 678 117 685T145 698T165 704H388Q391 699 395 691T398 668L346 656Q331 652 316 646T291 624T283 576L315
99Q325 94 339 87T369 76T395 71L582 479L575 616Q573 637 564 643T538 650H489Q487 652 484 658T481 671Q488 678 502 685T530 698T550 704H777Q780 700 783 690T787 668L724 655Q709 652 694 645T670 623T661 576L682 100Q689 96 703 90T734 78T762 72L951 528Q971
574 988 600T1017 637T1033 650H873Q871 654 869 659T866 671Q875 680 890 687T919 699T938 704H1179Q1182 700 1186 691T1190 668L1158 659Q1137 653 1118 645T1079 616T1035 554T981 438L827 66Q810 50 790 36T752 13T721 0Q710 0 693 6T657 22T625 43T604 65Q603
73 601 88T598 125T595 169T592 218T591 266Q591 292 592 313T594 350H588Q584 340 577 323T559 282T536 232T510 177T484 120T459 66Q441 51 421 37T382 13T345 0Z" />
<glyph unicode="X" horiz-adv-x="721" d="M581 0Q574 0 556 2T516 9T472 17T431 26T404 34Q406 42 410 48T419 61H443Q455 61 462 65T470 80Q470 88 467 95T460 109L201 619Q194 633 187 641T157 650H116Q114 652 111 658T108 671Q114 678 129 685T158 698T179
704H407Q409 702 413 692T416 668L357 659Q338 656 322 647T304 622Q303 615 305 605T313 584L530 155Q541 134 552 113T579 78T621 62L660 59Q664 55 667 48T669 34Q660 26 643 18T609 5T581 0ZM174 0Q162 0 135 3T75 12T12 23T-34 34Q-32 43 -28 52T-19 61Q7
63 34 79T89 119T139 171L330 389L365 327L178 112Q165 98 153 88T132 70L259 58Q261 54 264 47T267 33Q255 23 237 16T202 4T174 0ZM411 361L376 420Q398 444 429 483T496 566T565 647T626 704H766Q770 697 773 688T775 669L724 655Q676 642 633 607T551 527T478
438T411 361Z" />
<glyph unicode="Y" horiz-adv-x="647" d="M341 0Q334 0 316 2T272 9T222 17T177 26T149 34Q151 42 154 48T162 61L194 65Q215 68 227 75T247 104T264 167L293 306L172 619Q167 633 159 641T128 650H88Q86 652 83 657T80 671Q86 678 100 685T129 698T151 704H370Q375
697 378 689T380 668L321 656Q299 652 285 643T270 613Q270 609 271 601T276 584L354 365H357Q390 428 423 484T486 585T541 661T585 704H722Q726 699 730 691T733 669L681 654Q662 648 642 634T597 594T542 528T473 430T386 294L354 138Q349 112 340 95T324 70L423
59Q424 58 427 51T430 34Q414 21 388 11T341 0Z" />
<glyph unicode="Z" horiz-adv-x="613" d="M40 0Q32 0 22 12T3 41T-5 73Q40 109 97 165T218 290T345 429Q390 480 436 534T519 631L238 643L180 494Q173 490 158 487T124 483Q121 511 121 545T122 609T128 658Q139 669 155 679T188 698T220 710T240 715Q247 715
276 713T344 709T422 703T489 698T522 696Q530 697 543 699T571 706T596 715Q610 707 625 686T640 636L166 102L434 79L516 241Q534 241 546 236T565 224Q560 200 553 167T536 102T519 47Q502 34 483 24T447 7T418 0Q407 0 375 4T302 13T219 24T148 34T109 38Q84
20 65 10T40 0Z" />
<glyph unicode="[" horiz-adv-x="363" d="M117 -170Q105 -170 90 -158T60 -127T35 -92L193 722Q210 739 231 757T273 787T305 800Q324 800 349 796T397 788T432 779Q434 776 435 766T434 746L283 726Q249 587 220 454T165 187T116 -94L265 -114Q265 -128 261 -138T254
-152Q237 -156 212 -160T161 -167T117 -170Z" />
<glyph unicode="\" horiz-adv-x="455" d="M297 -91L123 723Q131 730 148 738T193 750Q198 719 209 658T237 513L361 -76Q352 -80 335 -85T297 -91Z" />
<glyph unicode="]" horiz-adv-x="362" d="M83 -170Q65 -170 40 -166T-9 -157T-44 -149Q-45 -146 -46 -136T-46 -116L105 -96Q140 44 169 176T223 444T272 724L123 744Q123 758 127 768T134 782Q152 786 177 790T227 797T271 800Q283 800 298 788T328 757T353 722L195
-92Q178 -109 157 -127T115 -157T83 -170Z" />
<glyph unicode="^" horiz-adv-x="577" d="M72 379Q61 382 53 391T42 411Q80 449 123 490T209 569T288 639T350 688T382 707Q390 707 407 689T447 640T497 570T549 490T598 411Q593 403 582 393T558 379L362 597H355L72 379Z" />
<glyph unicode="_" horiz-adv-x="591" d="M-12 -63Q-12 -43 -8 -29T1 -11Q114 -11 211 -9T378 -4T482 3L493 -5Q493 -27 488 -41T480 -63H-12Z" />
<glyph unicode="`" horiz-adv-x="213" d="M243 565L87 696Q94 710 108 724T136 748T157 758Q166 758 185 737T230 678T279 589Q274 584 264 576T243 565Z" />
<glyph unicode="a" horiz-adv-x="526" d="M152 0Q137 0 117 9T76 31T42 56T26 75Q26 112 33 156T52 244T76 325T97 386T110 415Q115 422 129 435T161 464T195 489T220 500Q239 500 265 492T323 469T384 439L388 500Q429 500 448 488T467 449Q467 435 456 385T426
256T380 73L391 66Q402 77 416 96T446 136T472 176Q481 176 488 172T498 163Q493 142 480 115T449 61T414 17T379 0Q364 0 344 8T307 28T288 46L343 225Q349 244 354 259T363 284T371 301L366 304Q349 270 328 229T282 148T235 74T190 20T152 0ZM172 81Q176 81
190 98T225 145T268 208T312 278T351 343T377 391Q328 407 282 414T199 423Q188 411 177 381T155 311T136 231T122 161T117 119Q127 105 145 93T172 81Z" />
<glyph unicode="b" horiz-adv-x="513" d="M289 0Q267 0 236 5T172 17T109 34T60 52T38 68Q42 82 52 119T76 202T101 291Q114 340 126 394T149 501T168 599T182 674T187 715Q187 725 181 728T163 731H91Q91 742 94 750T99 764Q114 771 136 779T182 794T222 800Q251
800 268 785T286 747Q286 743 283 729T273 686L221 447Q211 402 198 358T172 276T149 213L156 208Q177 252 204 302T259 397T315 471T364 500Q379 500 399 491T438 469T472 444T487 425Q487 388 480 344T461 256T437 175T416 115T403 87Q397 79 382 65T349 36T315
11T289 0ZM312 73Q322 84 333 114T356 184T375 262T388 332T393 375Q389 384 378 393T355 407T338 413Q334 413 318 393T280 341T234 270T189 196T153 133T136 93Q184 79 230 76T312 73Z" />
<glyph unicode="c" horiz-adv-x="375" d="M153 0Q141 0 124 7T88 26T53 53T28 84Q28 128 36 175T58 267T85 345T112 396Q122 407 142 424T190 458T248 488T313 500Q329 500 348 489T382 464T398 441Q394 407 380 374T353 320Q338 320 326 323T309 331Q309 340
309 359T307 399T303 428Q293 431 283 432T265 433Q250 433 234 430T203 419Q181 386 166 342T140 251T124 167T116 107Q123 97 138 87T171 70T202 63Q212 63 227 77T257 110T287 149T310 177Q319 177 326 173T335 163Q325 130 303 92T244 27T153 0Z" />
<glyph unicode="d" horiz-adv-x="523" d="M150 0Q135 0 115 9T75 31T42 56T26 75Q25 110 32 153T51 241T75 323T97 386T110 415Q115 422 129 435T160 464T193 489T218 500Q237 500 264 491T322 469T382 439Q384 450 390 478T404 544T419 617T431 679T436 711Q436
721 430 726T412 731H338Q338 739 341 749T346 764Q360 771 383 779T430 794T469 800Q498 800 515 785T533 747Q533 744 530 728T520 686L378 73L389 66Q398 75 413 93T446 135T475 177Q484 177 491 173T501 163Q495 142 481 115T449 61T412 17T376 0Q366 0 351
5T322 18T297 33T285 46L345 233Q353 256 359 276T370 301L365 304Q348 270 326 229T281 148T234 74T189 20T150 0ZM172 85Q176 85 190 102T225 147T267 210T312 279T351 343T376 391Q326 407 280 414T198 423Q187 411 176 382T154 313T135 236T122 167T117 124Q122
115 133 106T155 91T172 85Z" />
<glyph unicode="e" horiz-adv-x="393" d="M153 0Q143 0 126 7T89 26T54 53T28 84Q28 129 36 176T58 267T86 343T111 394Q121 405 141 422T188 458T248 488T314 500Q330 500 350 489T385 464T401 441Q398 419 391 397T373 355T354 321Q336 303 299 280T217 235T126
197Q120 164 118 143T114 108Q121 97 136 87T170 71T200 64Q209 64 218 70T240 89T269 124T310 177Q319 177 326 173T335 163Q326 138 311 110T274 56T221 16T153 0ZM137 255Q172 268 204 281T264 309T310 337Q312 350 312 362T313 385Q313 398 312 409T308 430Q299
432 290 433T271 434Q255 434 238 431T204 420Q181 386 165 342T137 255Z" />
<glyph unicode="f" horiz-adv-x="280" d="M-86 -200Q-93 -200 -104 -197T-129 -189T-152 -179T-168 -168Q-168 -160 -166 -153T-161 -144Q-124 -139 -84 -129T-14 -102Q-8 -91 -1 -70T14 -21T31 38T48 102T63 165Q80 242 96 306T128 444L49 456Q49 469 51 479T55
493L128 501Q139 503 144 507T151 524L141 718Q157 735 184 750T243 776T300 793T339 800Q355 800 371 785T399 753T412 726Q408 689 392 660T360 610Q345 610 335 613T321 621Q321 629 320 649T317 690T312 719Q306 721 298 721T281 722Q265 722 252 719T224 711L221
500H338L347 487Q340 474 328 460T307 440L209 443L86 -87Q80 -99 60 -118T13 -155T-41 -187T-86 -200Z" />
<glyph unicode="g" horiz-adv-x="495" d="M170 -200Q160 -200 138 -198T88 -191T34 -180T-10 -167Q-39 -145 -52 -122T-67 -85Q-65 -78 -48 -68T-3 -45T54 -18T114 10Q95 19 76 31T43 56T27 75Q27 112 34 156T53 244T76 325T97 385T110 413Q116 421 130 435T161
464T194 489T219 500Q238 500 265 492T322 470T382 440L392 500Q401 500 414 499T441 495T462 483T471 459Q471 458 471 455T470 448L382 76Q372 36 356 -4T317 -79T270 -141T220 -184T170 -200ZM212 -139Q232 -114 253 -68T293 45L347 233Q354 256 360 275T371
301L366 304Q346 265 318 214T261 116T204 36Q191 21 168 3T118 -33T69 -66T34 -91Q48 -101 80 -112T148 -130T212 -139ZM172 81Q176 81 190 98T225 145T268 208T312 278T351 343T377 391Q327 407 281 414T199 423Q188 411 177 381T155 311T136 231T122 161T117
119Q126 106 145 94T172 81Z" />
<glyph unicode="h" horiz-adv-x="547" d="M121 0Q111 0 97 5T69 17T44 33T32 46Q35 57 42 82T60 141T80 214T100 288Q113 338 125 392T148 499T167 597T181 673T186 714Q186 724 180 727T163 731H91Q91 740 94 750T99 764Q114 771 136 779T182 794T221 800Q249
800 267 786T286 747Q286 743 283 729T273 686L221 449Q208 390 193 342T165 260T144 211L151 207Q168 241 188 281T232 359T278 430T322 481T361 500Q376 500 396 491T435 469T467 444T483 425Q483 388 475 344T455 254T429 170T407 105T396 73L407 66Q419 77
435 96T467 137T493 176Q503 176 510 172T519 163Q514 142 500 115T468 61T431 17T396 0Q381 0 362 8T328 27T310 47Q314 58 326 93T353 177T379 278T394 374Q389 384 377 392T354 407T337 413Q332 413 315 393T275 340T228 269T181 194T144 130Q139 111 136 95T133
62Q133 50 135 38T141 15Q138 11 134 7T121 0Z" />
<glyph unicode="i" horiz-adv-x="293" d="M142 0Q126 0 106 8T69 28T50 46Q53 53 60 79T76 142T96 220T116 300T130 368T136 411Q136 423 129 427T107 431H51Q51 441 54 450T59 464Q74 471 95 479T138 494T172 500Q200 500 215 487T230 449Q230 441 227 425T217
381T200 313T176 212T143 73L153 66Q163 76 178 95T209 137T235 176Q244 176 251 172T261 163Q255 142 242 115T212 61T176 17T142 0ZM186 600Q177 600 166 613T146 644T137 673Q137 682 148 693T175 714T206 730T230 737Q240 737 250 724T268 693T276 663Q276
654 266 643T240 622T210 606T186 600Z" />
<glyph unicode="j" horiz-adv-x="285" d="M-55 -200Q-61 -200 -73 -196T-97 -184T-121 -170T-137 -158Q-137 -150 -135 -143T-130 -134Q-106 -131 -79 -127T-27 -117T17 -102Q22 -95 29 -74T46 -20T65 49T85 127T105 205Q112 234 119 267T133 332T144 384T148
411Q148 423 140 427T118 431H60Q60 441 63 450T68 464Q84 472 105 480T147 494T181 500Q209 500 224 487T239 449Q239 447 238 438T233 415T226 384L117 -87Q113 -97 93 -116T46 -154T-9 -186T-55 -200ZM188 600Q179 600 168 613T148 644T139 673Q139 682 150
693T177 714T208 730T232 737Q242 737 252 724T270 693T278 663Q278 654 268 643T242 622T212 606T188 600Z" />
<glyph unicode="k" horiz-adv-x="545" d="M121 0Q111 0 97 5T69 17T44 33T32 46Q35 57 42 82T60 141T80 214T100 288Q113 338 125 392T148 499T167 597T181 673T186 714Q186 724 180 727T163 731H91Q91 740 94 750T99 764Q114 771 136 779T182 794T221 800Q250
800 268 786T286 747Q286 744 285 737T280 717T273 686L221 449Q209 392 194 342T165 258T144 211L151 207Q168 241 188 281T232 359T278 430T322 481T361 500Q376 500 396 491T435 469T467 444T483 425Q483 395 466 363T414 296T324 221Q336 214 344 202T359 173L405
70L412 66Q422 76 438 95T471 137T498 176Q506 176 514 172T524 163Q518 142 504 115T471 61T432 17T394 0Q372 0 349 16T315 61L257 214Q280 233 302 254T345 298T378 339T394 374Q389 384 377 392T354 407T337 413Q332 413 315 393T275 340T228 269T181 194T144
130Q140 114 137 98T133 62Q133 50 135 38T141 15Q140 12 135 8T121 0Z" />
<glyph unicode="l" horiz-adv-x="270" d="M125 0Q109 0 88 8T49 28T27 46Q30 56 37 81T54 142T74 216T94 291Q107 340 119 394T142 500T161 597T175 673T180 714Q180 724 174 727T156 731H91Q91 739 93 749T98 764Q113 771 134 779T177 794T215 800Q244 800 261
785T279 747Q279 745 275 726T266 686L126 73L136 66Q148 77 164 96T196 138T222 176Q230 176 238 172T248 163Q242 142 229 115T197 61T160 17T125 0Z" />
<glyph unicode="m" horiz-adv-x="842" d="M135 0Q125 0 111 5T82 17T57 33T44 46Q49 62 58 95T81 173T107 270Q115 300 121 330T132 383T136 411Q136 423 128 427T106 431H51Q51 439 53 448T58 464Q73 471 94 479T137 494T172 500Q200 500 215 487T230 449Q230
440 224 415T208 358T187 292T166 234T151 199L155 195Q172 229 193 269T239 350T287 425T334 479T375 500Q390 500 409 491T448 469T481 444T496 425Q496 392 487 350T463 266T437 195L441 192Q457 227 478 268T522 350T569 425T615 479T656 500Q671 500 690 491T729
469T762 444T777 425Q777 388 769 343T749 253T724 169T702 104T690 73L702 66Q712 76 728 95T761 137T788 176Q798 176 805 172T814 163Q808 142 795 115T763 61T725 17T690 0Q674 0 655 8T620 28T602 47Q607 60 619 95T646 179T672 279T686 374Q681 384 670 392T648
407T631 413Q626 413 612 395T578 348T536 284T493 215T456 152T431 106Q430 99 429 89T427 68Q427 53 429 40T435 15Q434 12 429 8T416 0Q406 0 392 5T363 17T339 33T327 46Q330 58 337 81T354 138T377 220Q388 260 395 299T405 374Q400 384 389 392T367 407T350
413Q345 413 328 393T288 340T240 269T193 194T155 130Q151 117 149 102T146 69Q146 57 148 43T154 15Q153 12 148 8T135 0Z" />
<glyph unicode="n" horiz-adv-x="561" d="M135 0Q125 0 111 5T82 17T57 33T44 46Q49 62 58 95T81 173T107 270Q115 300 121 330T132 383T136 411Q136 423 128 427T106 431H51Q51 439 53 448T58 464Q73 471 94 479T137 494T172 500Q200 500 215 487T230 449Q230
440 224 415T208 358T187 292T166 234T151 199L155 195Q172 229 193 269T239 350T287 425T334 479T375 500Q390 500 409 491T448 469T481 444T496 425Q496 388 488 343T468 253T443 169T421 104T409 73L421 66Q431 76 447 95T480 137T507 176Q517 176 524 172T533
163Q527 142 514 115T482 61T444 17T409 0Q393 0 374 8T339 28T321 47Q326 60 338 95T365 179T391 279T405 374Q400 384 389 392T367 407T350 413Q345 413 328 393T288 340T240 269T193 194T155 130Q151 116 149 101T146 71Q146 57 148 44T154 15Q153 12 148 8T135
0Z" />
<glyph unicode="o" horiz-adv-x="462" d="M149 0Q137 0 121 7T86 26T53 53T29 84Q29 128 37 177T59 272T86 355T113 408Q123 419 145 434T195 465T255 490T316 500Q330 500 349 492T387 472T420 447T437 425Q437 395 429 350T409 257T381 167T352 102Q326 69 292
47T221 12T149 0ZM205 63Q213 63 221 64T239 69T258 76Q270 90 282 120T306 189T327 268T341 341T346 393Q335 405 322 414T293 430T259 436Q246 436 234 433T208 425Q186 391 170 346T143 253T125 167T118 107Q126 96 139 86T169 70T205 63Z" />
<glyph unicode="p" horiz-adv-x="528" d="M66 -200Q41 -200 20 -187T-1 -147Q-1 -137 11 -91T43 22T83 163Q91 191 100 230T118 309T132 376T138 411Q138 423 131 427T109 431H51Q51 440 53 449T58 464Q73 471 94 479T137 494T172 500Q200 500 214 487T229 449Q229
434 221 402T202 331T180 261T163 213L171 208Q191 252 217 302T271 397T325 471T373 500Q389 500 410 491T451 469T486 444T501 425Q502 390 495 347T476 259T452 178T430 116T417 87Q411 79 396 65T363 36T329 11T303 0Q272 0 223 9T130 32L99 -99Q95 -115 101
-121T121 -128H190Q190 -136 188 -145T184 -161Q172 -168 150 -177T105 -193T66 -200ZM326 73Q336 84 347 114T370 184T389 262T403 332T408 375Q403 384 392 393T370 407T353 413Q349 413 334 393T296 341T251 270T207 196T172 133T156 93Q203 79 247 76T326 73Z"
/>
<glyph unicode="q" horiz-adv-x="492" d="M304 -200Q276 -200 259 -186T241 -147Q241 -143 244 -128T255 -86L343 225Q351 251 358 272T370 301L365 304Q348 270 327 229T282 148T237 74T193 20T156 0Q140 0 119 9T77 31T42 56T26 75Q25 110 32 153T51 241T75
323T97 386T110 415Q115 422 129 435T160 464T193 489T218 500Q237 500 264 492T321 470T380 440L391 500Q400 500 413 499T440 495T461 483T470 459Q470 455 470 454T468 448Q457 400 445 351T421 252T398 155T377 62T357 -24T341 -102Q338 -117 345 -122T363
-128H428Q428 -137 427 -146T423 -161Q411 -168 389 -177T344 -193T304 -200ZM172 85Q176 85 190 102T223 147T265 210T309 279T346 343T371 391Q320 408 276 415T198 423Q187 411 176 382T154 313T135 236T122 167T117 124Q122 115 133 106T155 91T172 85Z" />
<glyph unicode="r" horiz-adv-x="425" d="M135 0Q125 0 111 5T82 17T57 33T44 46Q49 62 58 95T81 173T107 270Q115 300 121 330T132 383T136 411Q136 423 128 427T106 431H51Q51 439 53 448T58 464Q73 471 94 479T137 494T172 500Q200 500 215 487T230 449Q230
440 224 415T208 358T187 292T166 234T151 199L154 196Q171 230 191 271T235 352T282 426T327 480T367 500Q379 500 391 491T414 470T432 445T440 426Q436 392 422 361T392 306Q377 306 365 309T348 317Q348 327 348 345T346 383T341 413Q334 412 317 392T279 338T234
267T191 192T156 127Q152 113 150 98T147 68Q147 53 149 40T154 15Q153 12 148 8T135 0Z" />
<glyph unicode="s" horiz-adv-x="397" d="M129 0Q112 0 92 8T53 28T21 53T5 75Q11 100 22 125T44 170T62 197Q70 197 78 196T93 192T104 186Q101 170 97 149T88 98Q102 85 123 74T172 63Q183 63 198 65T224 73Q232 80 238 94T248 127T254 162T253 190Q251 196
233 204T189 223T138 245T93 267T71 289Q71 302 74 326T84 377T102 419Q110 427 128 440T172 467T230 490T296 500Q306 500 322 494T354 479T382 460T393 444Q393 436 386 412T368 364T348 326Q339 326 330 327T314 332T304 337Q304 350 303 366T302 399T300 428Q290
432 278 433T257 434Q235 434 214 430T185 422Q175 407 168 380T159 323Q169 314 195 304T251 281T307 255T339 226Q342 203 339 173T329 117T312 75Q299 60 277 46T229 22T177 6T129 0Z" />
<glyph unicode="t" horiz-adv-x="305" d="M129 0Q114 0 92 8T53 28T33 46Q47 96 60 144T86 238T108 322T125 392T137 444L59 456Q59 469 61 481T65 498L134 501Q145 502 150 506T157 524L182 666Q193 671 214 674T255 679L269 663L231 500H338L348 487Q342 474
331 461T308 440L219 443L130 73L140 66Q150 76 166 95T199 137T226 176Q236 176 243 172T252 163Q246 142 233 115T201 61T164 17T129 0Z" />
<glyph unicode="u" horiz-adv-x="555" d="M185 0Q170 0 148 9T105 31T69 56T52 75Q52 104 60 145T82 230T109 313T131 380T140 415Q140 425 133 428T113 431H55Q55 441 58 450T62 464Q77 471 98 479T141 494T176 500Q199 500 215 488T231 455Q231 446 223 420T201
355T176 275T155 192T146 119Q156 106 174 94T201 81Q206 81 223 104T265 165T316 246T364 328T400 392Q404 415 406 445T410 500Q439 500 458 495T486 478T496 449Q496 435 485 385T455 256T409 73L420 66Q431 77 446 97T477 139T501 176Q510 176 517 172T527
163Q522 142 509 115T478 61T443 17T408 0Q393 0 373 8T336 28T317 46L372 225Q380 251 388 272T400 301L395 304Q378 270 357 229T313 148T267 74T223 20T185 0Z" />
<glyph unicode="v" horiz-adv-x="473" d="M188 0Q177 0 160 7T123 25T86 50T60 76Q68 108 75 142T89 212T99 281T105 347T108 406Q108 423 101 427T79 431H23Q23 439 25 448T31 464Q46 471 67 479T110 494T144 500Q172 500 187 487T202 447Q202 415 196 368T182
271T166 178T154 108Q161 100 171 92T191 79T207 74Q216 79 233 98T271 146T313 208T351 275T380 337T391 384Q391 390 380 399T351 419T318 438T293 449Q293 454 295 462T299 474Q307 479 321 485T350 495T372 500Q381 500 397 491T432 469T462 444T475 425Q475
397 458 355T414 264T353 170T288 85T229 23T188 0Z" />
<glyph unicode="w" horiz-adv-x="758" d="M190 0Q180 0 162 7T125 25T89 50T63 76Q71 106 77 138T90 205T100 274T107 342T110 406Q110 423 104 427T81 431H23Q23 439 25 448T31 464Q46 471 67 479T110 494T144 500Q171 500 187 487T203 447Q203 416 197 370T183
273T167 180T157 111Q163 104 172 96T191 83T210 77Q215 77 230 95T267 143T311 209T354 282T386 351T398 403Q398 420 392 425T368 431H306Q306 439 308 448T313 464Q328 471 349 479T392 494T427 500Q454 500 471 487T488 447Q488 416 482 370T468 273T452 180T442
111Q448 104 456 96T475 83T493 77Q498 77 513 94T549 139T592 202T633 270T664 335T676 384Q676 390 665 399T636 419T603 438T578 449Q578 457 580 464T584 474Q592 479 606 485T635 495T657 500Q666 500 682 491T717 469T747 444T760 425Q760 397 743 355T699
265T638 170T573 85T515 23T473 0Q462 0 445 7T410 25T377 49T352 74Q356 90 365 120T385 187T402 262L398 263Q373 216 343 170T283 85T229 23T190 0Z" />
<glyph unicode="x" horiz-adv-x="496" d="M93 0Q84 0 68 9T34 33T4 60T-9 80Q-9 93 8 113T53 160T116 214T186 271L145 399Q141 410 137 417T123 427T96 431H40Q40 439 42 449T47 464Q62 471 83 479T125 494T160 500Q184 500 198 488T220 446L263 293Q292 316
320 338T368 376T387 396Q387 402 376 410T350 427T319 442T296 450Q296 456 297 463T301 474Q309 479 323 485T352 495T374 500Q383 500 399 490T434 466T464 439T476 420Q476 406 457 386T406 341T341 292T276 242L330 70L339 66Q349 74 366 94T400 137T427 176Q436
176 443 172T453 163Q448 142 435 115T403 61T365 17T330 0Q314 0 295 8T260 28T242 52L198 218Q169 195 139 171T90 127T70 100Q70 97 83 91T117 79T155 68Q158 64 160 57T164 45Q155 36 141 26T114 8T93 0Z" />
<glyph unicode="y" horiz-adv-x="475" d="M81 -200Q69 -192 57 -180T36 -156T28 -140Q28 -128 44 -110T88 -67T147 -17T209 38Q185 43 160 52T115 75T86 103Q91 126 96 159T104 228T110 298T114 361T116 405Q116 422 109 426T86 431H23Q23 437 24 443T28 455T31
464Q46 471 67 479T110 494T144 500Q174 500 188 486T203 442Q203 409 201 370T196 291T188 212T179 143Q185 136 198 129T227 116T251 111Q255 111 270 133T305 189T344 261T376 332T389 384Q389 390 378 400T350 420T319 439T295 449Q295 457 297 464T302 474Q310
480 324 486T353 496T374 500Q383 500 399 491T434 469T464 444T477 425Q477 400 465 362T431 283Q387 200 340 132T249 7T169 -98T112 -192L81 -200Z" />
<glyph unicode="z" horiz-adv-x="442" d="M31 0Q24 0 15 12T-1 39T-8 63Q35 99 79 145T164 241T240 338T300 423L140 433L101 332Q97 330 87 328T65 326Q60 343 55 371T50 427Q53 435 67 447T99 471T132 491T153 500Q160 500 184 497T240 490T298 483T336 480Q341
480 349 485T366 495T377 500Q381 500 391 494T410 476T420 447L135 90L292 67Q297 70 308 84T333 116T359 150T378 176Q387 176 394 172T404 163Q401 150 389 124T358 69T320 20T282 0Q269 0 243 4T185 14T128 24T89 28Q74 18 55 9T31 0Z" />
<glyph unicode="{" horiz-adv-x="368" d="M124 -170Q112 -170 96 -158T64 -127T36 -92L137 236Q121 256 91 269T40 285Q37 293 36 308T39 346Q58 350 83 356T131 370T168 389L197 722Q215 739 237 757T280 787T313 800Q332 800 354 797T398 790T438 782Q441 778
442 768T441 746L287 726L232 388Q215 362 187 344T127 315V311Q138 306 154 295T182 267T196 230L127 -94L274 -114Q270 -130 265 -139T256 -152Q226 -158 188 -164T124 -170Z" />
<glyph unicode="|" horiz-adv-x="402" d="M74 -200L264 777Q276 785 300 792T351 800Q336 757 322 699T291 556L146 -190Q137 -193 118 -196T74 -200Z" />
<glyph unicode="}" horiz-adv-x="367" d="M80 -168Q62 -168 40 -165T-4 -158T-45 -150Q-48 -146 -49 -135T-48 -114L106 -94L161 244Q178 270 206 288T266 317V321Q255 326 239 337T211 365T197 402L266 726L119 746Q123 763 128 771T137 784Q167 790 205 796T269
802Q282 802 298 790T330 759T357 724L256 396Q273 376 303 363T353 347Q356 339 357 324T354 286Q336 283 311 277T262 262T225 243L196 -90Q178 -107 156 -125T113 -155T80 -168Z" />
<glyph unicode="~" horiz-adv-x="561" d="M400 249Q388 249 361 255T299 272T228 293T161 315L73 264Q68 267 62 272T54 286Q72 306 96 326T145 361T184 376Q196 376 223 371T285 357T356 338T424 318L505 382Q516 378 522 372T530 360Q513 336 489 310T440 267T400 249Z" />
<glyph unicode="&#xa0;" horiz-adv-x="200" />
<glyph unicode="&#xa1;" horiz-adv-x="228" d="M-52 -271L92 268Q100 275 115 281T156 289Q148 226 138 157T115 18T91 -118T65 -242Q46 -255 14 -263T-52 -271ZM129 354Q121 354 111 363T92 387T78 415T75 440Q77 447 87 457T111 477T140 493T164 500Q172 500
182 491T203 469T219 442T223 419Q221 410 210 399T184 378T153 361T129 354Z" />
<glyph unicode="&#xa2;" horiz-adv-x="455" d="M186 0Q168 0 145 7T100 27T60 54T33 84Q32 88 31 91T30 101Q30 139 38 183T60 272T91 357T127 426Q139 437 161 449T212 473T276 492T346 500Q361 500 381 496T421 485T457 471T481 456Q473 422 460 385T434 327Q418
327 408 329T389 335L391 424Q385 426 369 429T335 434T309 436Q297 436 281 435T247 430T217 422Q199 397 182 361T152 282T132 199T124 124Q124 120 124 118T124 112Q132 103 144 95T171 80T201 69T231 65Q245 65 266 69T309 81T351 95T380 108Q383 106 387 100T392
82Q384 74 366 61T321 33T260 10T186 0ZM154 -124L304 588Q322 600 340 605T379 611Q368 575 357 534T340 464L218 -114Q209 -118 191 -121T154 -124Z" />
<glyph unicode="&#xa3;" horiz-adv-x="517" d="M42 0Q35 0 27 10T13 35T9 59L69 89Q80 102 95 129T126 188T151 249H54Q59 272 65 284T75 299Q95 299 115 299T156 300Q141 339 133 382T125 458Q125 470 126 479T129 497Q144 510 169 524T225 550T285 570T336 578Q364
578 395 569T450 548T483 527Q479 506 470 480T450 431T433 397Q414 397 403 400T386 408L382 496Q363 504 343 507T303 510Q285 510 268 508T239 503T221 498Q219 491 218 479T216 453Q216 420 222 378T239 303Q274 305 304 307T371 314L381 305Q377 285 370 270T358
249H230Q211 194 195 156T163 88L355 78L422 193Q439 193 452 189T471 180Q466 158 459 134T443 88T428 49Q416 39 395 28T353 8T322 0Q311 0 284 5T222 18T158 30T111 36Q103 31 89 23T61 7T42 0Z" />
<glyph unicode="&#xa4;" horiz-adv-x="590" d="M39 46Q29 56 19 67T0 95L104 171Q103 178 103 185T102 199Q102 231 108 268T126 342T153 405L80 488Q89 497 106 510T144 533Q156 516 172 491T210 438Q246 457 291 473T375 490Q382 490 397 485T433 470T470 449L564
533Q581 521 592 510T608 490Q589 477 573 465T541 441T505 414Q506 411 506 407T507 395Q507 364 499 322T478 239T452 174L528 94Q517 83 502 70T470 47L403 137Q372 117 331 99T249 80Q234 80 213 88T172 109T136 134L39 46ZM275 151Q284 151 299 155T331 164T361
174T380 183Q387 196 394 220T407 272T416 326T420 367Q420 374 420 375T418 380Q417 385 401 394T364 411T328 419Q322 419 309 417T279 410T248 402T225 394Q218 381 211 359T199 310T191 260T188 219Q188 211 188 208T189 200Q190 194 205 183T241 161T275 151Z"
/>
<glyph unicode="&#xa5;" horiz-adv-x="546" d="M269 0Q261 0 237 3T182 12T126 24T88 34Q90 42 94 49T103 59L146 64Q161 66 170 77T187 108T202 161L213 204H51Q56 227 61 239T71 253Q99 253 137 253T213 254L195 302H70Q75 328 81 339T91 353H177L123 493Q119
504 114 510T89 517H61Q59 520 57 526T54 538Q60 543 71 549T94 560T112 565H304Q306 561 308 552T310 532L262 522Q242 518 229 511T216 485Q216 481 218 473T228 447T247 391T278 292H285Q303 319 329 359T384 440T441 516T490 565H599Q602 561 604 552T606 533L565
521Q535 513 504 487T444 427T387 356Q414 357 443 358T488 360L496 351Q492 331 487 320T476 302H351L317 253Q349 254 374 255T420 257T457 259L466 250Q460 228 455 219T446 204H302L284 122Q280 101 272 88T257 68L349 58Q351 56 352 50T353 35Q345 26 329
18T296 5T269 0Z" />
<glyph unicode="&#xa6;" horiz-adv-x="402" d="M183 360L264 777Q276 785 300 792T351 800Q336 755 322 697T291 556L255 370Q236 365 219 363T183 360ZM74 -200L155 219Q174 224 191 226T227 229L146 -190Q137 -193 118 -196T74 -200Z" />
<glyph unicode="&#xa7;" horiz-adv-x="563" d="M169 -200Q150 -200 123 -194T68 -177T16 -153T-22 -127Q-15 -99 -5 -67T16 -4T35 45Q42 46 57 46T83 46L80 -96Q96 -104 118 -112T165 -125T208 -131Q226 -131 250 -127T297 -115T334 -102Q343 -91 352 -70T369
-24T380 23T380 58Q373 62 349 71T290 94T218 123T147 152T90 178Q78 190 70 207T58 243T56 277Q67 303 81 326T108 367T129 395Q113 405 104 410T90 423Q90 445 95 473T110 532T131 588T155 632Q173 646 202 661T263 690T327 712T381 720Q410 720 444 711T510
689T561 659Q555 634 544 602T522 540T502 493Q487 493 476 496T457 503L461 629Q436 640 407 646T345 653Q332 653 314 651T276 646T240 637Q226 618 215 590T198 530T189 470Q196 466 220 457T279 436T349 411T416 386T467 365Q480 352 490 328T505 280T509 240Q493
209 472 181T435 136Q455 125 465 116T479 100Q478 48 463 -6T422 -104Q407 -117 379 -133T314 -164T239 -190T169 -200ZM382 162Q399 191 414 223T436 278L181 372Q175 360 167 342T150 303T136 258L382 162Z" />
<glyph unicode="&#xa8;" horiz-adv-x="402" d="M352 578Q344 578 333 590T313 618T305 646Q305 655 315 665T341 685T371 701T393 707Q403 707 412 694T429 665T436 637Q436 629 427 619T403 600T375 584T352 578ZM166 578Q158 578 147 590T127 619T119 646Q119
655 130 665T156 685T186 701T208 707Q217 707 227 694T244 665T251 637Q251 629 241 619T217 600T189 584T166 578Z" />
<glyph unicode="&#xa9;" horiz-adv-x="580" d="M316 225Q286 225 253 235T190 258T140 284T114 303Q106 312 98 333T84 383T78 442Q78 515 91 564T122 648Q145 663 184 681T271 712T367 726Q387 726 415 718T472 698T524 674T556 651Q562 644 566 627T573 586T577
541T578 501Q578 449 569 399T549 316Q536 304 511 289T454 259T387 235T316 225ZM335 333Q315 333 293 342T255 363T234 379Q231 384 228 397T222 427T219 463Q219 495 223 519T233 569Q242 576 261 585T304 602T353 610Q364 610 381 602T413 584T427 571Q427
564 423 550T414 523T405 506Q399 506 394 507T385 510L370 567Q330 567 308 563T279 556Q275 547 273 523T271 485Q271 457 275 434T282 408Q285 405 295 397T319 383T341 376Q350 376 365 378T395 384T413 389Q415 387 418 382T422 370Q406 357 385 345T335 333ZM329
272Q344 272 367 277T416 290T462 306T495 321Q506 345 511 388T517 477Q517 521 513 562T499 620Q496 625 479 634T437 652T385 668T332 675Q317 675 295 671T248 662T202 650T170 639Q162 623 154 595T140 536T135 479Q135 437 143 398T162 338Q176 324 206 309T270
283T329 272Z" />
<glyph unicode="&#xaa;" horiz-adv-x="505" d="M217 350Q203 350 182 357T141 376T106 397T90 414Q89 444 95 480T111 554T131 624T150 678T162 702Q167 708 181 720T212 744T244 766T269 775Q287 775 313 768T368 749T424 724L426 775Q467 775 486 765T506 731Q506
716 497 674T470 565T431 412L441 406Q450 415 463 431T491 466T515 500Q524 500 531 496T540 489Q536 471 524 448T496 402T463 365T431 350Q415 350 395 357T359 374T340 389L388 531Q394 548 398 561T407 585T415 606L410 608Q391 572 366 528T313 443T260 376T217
350ZM232 423Q237 423 254 443T295 496T343 563T387 630T416 679Q383 689 354 694T299 703T252 707Q242 697 232 671T213 612T196 546T185 488T181 452Q191 441 208 432T232 423Z" />
<glyph unicode="&#xab;" horiz-adv-x="550" d="M226 39Q198 67 167 100T110 164T68 220T51 257Q51 265 68 283T113 325T176 377T245 431T311 480Q316 478 322 470T332 446L124 225L129 295L251 72Q242 58 236 50T226 39ZM410 39Q382 67 351 100T294 164T252 220T235
257Q235 265 252 283T297 325T360 377T429 431T495 480Q500 478 506 470T516 446L308 225L313 295L435 72Q426 58 420 50T410 39Z" />
<glyph unicode="&#xac;" horiz-adv-x="605" d="M487 173L520 338H44Q48 362 55 377T66 393Q182 393 271 394T426 398T531 402T588 407L598 389Q583 319 570 267T548 188Q539 183 523 178T487 173Z" />
<glyph unicode="&#xad;" horiz-adv-x="336" d="M39 270Q39 287 45 303T56 325Q101 325 147 326T233 331T299 340L316 320Q316 306 311 292T300 270H39Z" />
<glyph unicode="&#xae;" horiz-adv-x="580" d="M316 225Q286 225 253 235T190 258T140 284T114 303Q106 312 98 333T84 383T78 442Q78 515 91 564T122 648Q145 663 184 681T271 712T367 726Q387 726 415 718T472 698T524 674T556 651Q562 644 566 627T573 586T577
541T578 501Q578 449 569 399T549 316Q536 304 511 289T454 259T387 235T316 225ZM329 272Q344 272 367 277T416 290T462 306T495 321Q506 345 511 388T517 477Q517 507 515 535T509 587T499 620Q496 625 479 634T437 652T385 668T332 675Q317 675 295 671T248
662T202 650T170 639Q162 623 154 595T140 536T135 479Q135 437 143 398T162 338Q176 324 206 309T270 283T329 272ZM295 341Q289 341 276 343T248 349T221 356T204 361Q204 363 205 367T208 376H223Q235 376 239 383T244 413V561Q244 575 246 580T249 587H210Q207
591 206 594T205 598Q208 602 218 607T233 613H364Q373 612 392 603T417 587Q420 583 423 570T426 545Q426 535 423 520T414 496Q407 489 393 482T366 471V468Q372 465 377 460T389 443L402 417Q413 395 424 384T453 373H465Q467 371 468 367T470 358Q462 350 448
346T423 341Q411 341 394 348T363 386L333 454Q330 461 326 463T316 466H292V398Q292 388 290 382T286 373L333 367Q334 364 334 360T335 354Q331 349 318 345T295 341ZM292 493Q312 493 332 494T369 500Q371 507 373 516T376 537Q376 551 374 562T363 583Q349
585 338 586T316 587Q302 587 297 582T292 562V493Z" />
<glyph unicode="&#xaf;" horiz-adv-x="298" d="M68 580Q68 605 71 620T79 640Q109 640 149 642T232 646T308 651T361 654L371 645Q371 626 367 607T360 580H68Z" />
<glyph unicode="&#xb0;" horiz-adv-x="299" d="M170 352Q133 352 104 374T74 440Q74 478 93 509T144 560T214 579Q249 579 278 557T308 490Q308 453 289 422T239 371T170 352ZM179 403Q214 403 232 425T250 492Q250 512 240 520T204 528Q169 528 151 505T132 438Q132
419 143 411T179 403Z" />
<glyph unicode="&#xb1;" horiz-adv-x="489" d="M175 57L257 477Q261 482 278 486T326 490L243 67Q238 64 220 61T175 57ZM48 249Q53 275 59 286T70 300Q127 300 194 301T328 306T446 312L455 303Q449 281 443 268T433 249H48ZM-12 -57Q-7 -31 -1 -20T10 -6Q67
-6 134 -5T268 0T386 6L395 -3Q389 -25 383 -38T373 -57H-12Z" />
<glyph unicode="&#xb2;" horiz-adv-x="374" d="M64 345Q53 348 45 358T34 382Q111 424 172 478T274 589T330 696Q311 704 289 707T238 711Q228 711 218 711T196 710L168 629Q160 623 134 623Q127 638 123 662T117 719Q142 735 175 745T245 762T311 768Q321 768
338 762T372 748T401 730T413 713Q413 696 398 663T351 587T272 501T159 417L310 404L352 466Q366 466 376 464T390 458Q387 445 384 433T378 408T367 374Q359 369 345 362T316 350T291 345Q245 352 202 359T109 377L64 345Z" />
<glyph unicode="&#xb3;" horiz-adv-x="345" d="M112 345Q103 345 87 350T58 364T39 378Q43 389 47 396T56 404Q73 401 90 400T123 399Q143 399 166 400T209 404T242 410Q245 412 251 422T263 446T274 472T278 492Q278 500 260 509T213 528T146 542Q148 549 152
560T162 577H269L240 570Q256 581 271 602T299 648T317 696Q294 705 270 708T223 711Q215 711 205 711T183 710L154 629Q151 627 141 625T120 623Q114 635 111 650T106 683T103 719Q127 735 161 745T230 762T296 768Q307 768 324 762T360 748T390 730T403 714Q403
698 393 677T368 635T334 596T299 565L298 563Q333 553 345 538T358 501Q358 489 351 471T332 434T310 399T290 378Q278 370 250 362T186 350T112 345Z" />
<glyph unicode="&#xb4;" horiz-adv-x="194" d="M94 565Q86 568 77 576T66 591Q102 640 135 677T194 736T228 758Q236 758 248 749T270 725T281 696L94 565Z" />
<glyph unicode="&#xb5;" horiz-adv-x="555" d="M95 -200Q57 -200 41 -177T25 -105Q25 -66 34 -10T56 119L102 64Q95 39 90 11T85 -57Q85 -109 100 -131T160 -154Q162 -156 164 -162T166 -176Q149 -189 129 -194T95 -200ZM185 0Q170 0 148 9T105 31T69 56T52 75Q52
104 60 145T82 230T109 313T131 380T140 415Q140 425 133 428T113 431H55Q55 441 58 450T62 464Q77 471 98 479T141 494T176 500Q199 500 215 488T231 455Q231 446 223 420T201 355T176 275T155 192T146 119Q156 106 174 94T201 81Q206 81 223 104T265 165T316
246T364 328T400 392Q404 415 406 445T410 500Q439 500 458 495T486 478T496 449Q496 435 485 385T455 256T409 73L420 66Q431 77 446 97T477 139T501 176Q510 176 517 172T527 163Q522 142 509 115T478 61T443 17T408 0Q393 0 373 8T336 28T317 46L372 225Q380
251 388 272T400 301L395 304Q378 270 357 229T313 148T267 74T223 20T185 0Z" />
<glyph unicode="&#xb6;" horiz-adv-x="705" d="M150 -200Q130 -200 100 -191T56 -168Q58 -160 62 -153T68 -144Q114 -130 164 -109T248 -59L309 249Q281 248 256 248T212 247Q185 247 159 257T111 282T75 311T56 332Q52 340 50 353T47 388Q47 423 55 464T76 546T106
613Q120 624 147 639T209 669T281 694T351 704H718Q720 699 723 691T725 669L678 656Q647 647 633 631T610 570L464 -180Q454 -189 433 -194T387 -200L538 572Q547 617 557 633T571 651H459L319 -70Q303 -95 280 -118T231 -160T184 -189T150 -200Z" />
<glyph unicode="&#xb7;" horiz-adv-x="226" d="M102 201Q94 201 84 210T63 232T47 259T43 282Q45 291 56 302T82 323T113 340T137 347Q148 347 162 331T185 295T191 261Q189 252 172 238T135 212T102 201Z" />
<glyph unicode="&#xb8;" horiz-adv-x="174" d="M-28 -200Q-35 -200 -47 -196T-70 -187T-83 -176Q-80 -167 -80 -166T-75 -156Q-46 -156 -23 -155T23 -149Q29 -138 33 -126T40 -103Q31 -95 6 -85T-38 -70Q-39 -65 -42 -56T-43 -35Q-33 -21 -18 1T9 37H46L13 -37Q36
-41 57 -50T93 -70T108 -90Q108 -97 102 -112T88 -143T73 -166Q57 -176 37 -183T-1 -195T-28 -200Z" />
<glyph unicode="&#xb9;" horiz-adv-x="257" d="M193 345Q189 345 174 346T138 350T96 355T58 361T34 366Q36 374 39 379T44 386L79 388Q97 390 106 397T119 417T126 446L168 651Q171 668 176 682T182 697L181 699L98 691Q100 701 104 711T111 725Q138 731 165
738T216 753T258 768Q267 766 272 762T281 752Q270 735 265 721T251 671L202 430Q200 420 196 409T186 392L255 385Q256 383 257 377T257 366Q252 361 240 356T214 348T193 345Z" />
<glyph unicode="&#xba;" horiz-adv-x="447" d="M212 350Q202 350 186 355T151 371T118 394T93 421Q92 457 99 499T117 581T142 651T166 697Q176 707 197 720T245 745T303 766T360 775Q373 775 391 768T429 751T462 730T479 711Q479 685 473 647T455 567T431 491T405
437Q381 409 349 390T281 360T212 350ZM264 407Q270 407 277 408T294 411T313 418Q327 433 340 468T364 546T381 626T388 684Q378 693 365 700T336 712T306 717Q293 717 282 715T259 708Q240 679 226 641T203 564T188 493T182 443Q193 430 216 419T264 407Z" />
<glyph unicode="&#xbb;" horiz-adv-x="550" d="M59 39Q54 41 48 49T38 73L246 294L241 224L119 447Q128 461 134 469T144 480Q173 452 203 419T260 355T302 299T319 262Q319 254 302 236T257 194T194 142T125 89T59 39ZM243 39Q238 41 232 49T222 73L430 294L425
224L303 447Q312 461 318 469T328 480Q357 452 387 419T444 355T486 299T503 262Q503 254 486 236T441 194T378 142T309 89T243 39Z" />
<glyph unicode="&#xbc;" horiz-adv-x="824" d="M181 285Q177 285 162 286T126 290T84 295T46 301T22 306Q24 314 27 319T32 326L67 328Q85 330 94 337T107 357T114 386L156 591Q159 608 164 622T170 637L169 639L86 631Q88 641 92 651T99 665Q126 671 153 678T204
693T246 708Q255 706 260 702T269 692Q258 675 253 661T239 611L190 370Q188 360 184 349T174 332L243 325Q244 323 245 317T245 306Q240 301 228 296T202 288T181 285ZM251 -96Q231 -96 214 -90T187 -76L409 513Q434 579 450 626T477 705T491 755Q517 752 535
742T560 723L251 -96ZM619 -6Q617 -6 612 -3T604 2Q610 13 616 29T627 66L634 99H449Q439 114 435 126T430 151L680 406Q689 408 703 411T733 416T763 419L778 409Q774 394 770 380T762 345T749 287L721 150L784 153L789 144Q785 134 780 120T769 100H712L694 7Q684
3 661 -1T619 -6ZM498 149H642L668 268Q672 285 677 305T688 335L683 337L498 149Z" />
<glyph unicode="&#xbd;" horiz-adv-x="835" d="M181 285Q177 285 162 286T126 290T84 295T46 301T22 306Q24 314 27 319T32 326L67 328Q85 330 94 337T107 357T114 386L156 591Q159 608 164 622T170 637L169 639L86 631Q88 641 92 651T99 665Q126 671 153 678T204
693T246 708Q255 706 260 702T269 692Q258 675 253 661T239 611L190 370Q188 360 184 349T174 332L243 325Q244 323 245 317T245 306Q240 301 228 296T202 288T181 285ZM251 -96Q231 -96 214 -90T187 -76L409 513Q434 579 450 626T477 705T491 755Q517 752 535
742T560 723L251 -96ZM457 -5Q446 -2 438 8T427 32Q504 74 565 128T667 239T723 346Q704 354 682 357T631 361Q621 361 611 361T589 360L561 279Q553 273 527 273Q520 288 516 312T510 369Q535 385 568 395T638 412T704 418Q714 418 731 412T765 398T794 380T806
363Q806 346 791 313T744 237T665 151T552 67L703 54L745 116Q759 116 769 114T783 108Q780 95 777 83T771 58T760 24Q752 19 738 12T709 0T684 -5Q638 2 595 9T502 27L457 -5Z" />
<glyph unicode="&#xbe;" horiz-adv-x="912" d="M100 285Q91 285 75 290T46 304T27 318Q31 329 35 336T44 344Q61 341 78 340T111 339Q131 339 154 340T197 344T230 350Q233 352 239 362T251 386T262 412T266 432Q266 440 248 449T201 468T134 482Q136 489 140
500T150 517H257L228 510Q244 521 259 542T287 588T305 636Q282 645 258 648T211 651Q203 651 193 651T171 650L142 569Q139 567 129 565T108 563Q102 575 99 590T94 623T91 659Q115 675 149 685T218 702T284 708Q295 708 312 702T348 688T378 670T391 654Q391
638 381 617T356 575T322 536T287 505L286 503Q321 493 333 478T346 441Q346 429 339 411T320 374T298 339T278 318Q266 310 238 302T174 290T100 285ZM339 -96Q319 -96 302 -90T275 -76L497 513Q522 579 538 626T565 705T579 755Q605 752 623 742T648 723L339
-96ZM707 -6Q705 -6 700 -3T692 2Q698 13 704 29T715 66L722 99H537Q527 114 523 126T518 151L768 406Q777 408 791 411T821 416T851 419L866 409Q862 394 858 380T850 345T837 287L809 150L872 153L877 144Q873 134 868 120T857 100H800L782 7Q772 3 749 -1T707
-6ZM586 149H730L756 268Q760 285 765 305T776 335L771 337L586 149Z" />
<glyph unicode="&#xbf;" horiz-adv-x="507" d="M146 -281Q123 -281 92 -271T29 -243T-23 -209Q-23 -183 -18 -150T-3 -83T16 -18T38 31Q51 49 77 66T131 99T183 126T213 143Q219 158 224 181T234 228T241 267Q249 270 262 276T292 285Q300 263 302 232T303 168T293
104Q276 89 251 75T199 47T151 24T118 9Q109 -22 100 -57T85 -125T78 -184Q89 -189 103 -192T132 -198T164 -200Q187 -200 213 -197T264 -184L309 -61Q319 -57 334 -54T367 -49Q369 -65 368 -95T365 -159T356 -219Q332 -233 297 -247T223 -271T146 -281ZM259 354Q251
354 241 363T222 387T208 415T205 440Q207 447 217 457T241 477T270 493T294 500Q302 500 312 491T333 469T349 442T353 419Q351 410 340 399T314 378T283 361T259 354Z" />
<glyph unicode="&#xc0;" horiz-adv-x="710" d="M158 0Q151 0 127 3T72 12T12 23T-33 34Q-31 42 -27 49T-18 59H-9Q0 59 12 64T42 87T81 141T132 240L322 646Q332 655 351 667T393 692T435 712T465 720Q478 720 495 711T530 688T559 661L577 87Q578 73 581 68T598
62L656 57Q659 53 660 48T659 34Q649 26 635 18T607 5T581 0Q574 0 556 3T515 11T468 21T426 31T399 39Q401 47 405 53T414 64H443Q456 64 467 66T485 80T491 118L487 287H225L159 143Q140 101 121 86T94 68L232 56Q235 53 236 47T235 33Q227 25 213 18T185 5T158
0ZM250 343Q303 343 349 344T431 348T486 353L480 618Q461 632 440 642T395 654L250 343ZM521 769L357 902Q364 917 378 932T407 956T428 966Q437 966 457 945T505 885T558 794Q554 790 543 781T521 769Z" />
<glyph unicode="&#xc1;" horiz-adv-x="710" d="M158 0Q151 0 127 3T72 12T12 23T-33 34Q-31 42 -27 49T-18 59H-9Q0 59 12 64T42 87T81 141T132 240L322 646Q332 655 351 667T393 692T435 712T465 720Q478 720 495 711T530 688T559 661L577 87Q578 73 581 68T598
62L656 57Q659 53 660 48T659 34Q649 26 635 18T607 5T581 0Q574 0 556 3T515 11T468 21T426 31T399 39Q401 47 405 53T414 64H443Q456 64 467 66T485 80T491 118L487 287H225L159 143Q140 101 121 86T94 68L232 56Q235 53 236 47T235 33Q227 25 213 18T185 5T158
0ZM250 343Q303 343 349 344T431 348T486 353L480 618Q461 632 440 642T395 654L250 343ZM418 769Q408 772 399 780T388 796Q425 846 459 884T520 944T556 966Q564 966 577 956T600 932T612 902L418 769Z" />
<glyph unicode="&#xc2;" horiz-adv-x="710" d="M158 0Q151 0 127 3T72 12T12 23T-33 34Q-31 42 -27 49T-18 59H-9Q0 59 12 64T42 87T81 141T132 240L322 646Q332 655 351 667T393 692T435 712T465 720Q478 720 495 711T530 688T559 661L577 87Q578 73 581 68T598
62L656 57Q659 53 660 48T659 34Q649 26 635 18T607 5T581 0Q574 0 556 3T515 11T468 21T426 31T399 39Q401 47 405 53T414 64H443Q456 64 467 66T485 80T491 118L487 287H225L159 143Q140 101 121 86T94 68L232 56Q235 53 236 47T235 33Q227 25 213 18T185 5T158
0ZM250 343Q303 343 349 344T431 348T486 353L480 618Q461 632 440 642T395 654L250 343ZM351 769Q341 774 333 780T323 794Q367 844 401 882T459 943T495 966Q507 966 522 944T558 883T601 794Q596 787 590 780T572 769L483 871L351 769Z" />
<glyph unicode="&#xc3;" horiz-adv-x="710" d="M158 0Q151 0 127 3T72 12T12 23T-33 34Q-31 42 -27 49T-18 59H-9Q0 59 12 64T42 87T81 141T132 240L322 646Q332 655 351 667T393 692T435 712T465 720Q478 720 495 711T530 688T559 661L577 87Q578 73 581 68T598
62L656 57Q659 53 660 48T659 34Q649 26 635 18T607 5T581 0Q574 0 556 3T515 11T468 21T426 31T399 39Q401 47 405 53T414 64H443Q456 64 467 66T485 80T491 118L487 287H225L159 143Q140 101 121 86T94 68L232 56Q235 53 236 47T235 33Q227 25 213 18T185 5T158
0ZM250 343Q303 343 349 344T431 348T486 353L480 618Q461 632 440 642T395 654L250 343ZM554 782Q542 782 512 792T446 817T380 845L305 787Q301 789 294 793T283 808Q298 830 317 851T355 888T386 903Q399 903 429 894T496 871T563 845L636 912Q644 909 650 903T659
892Q644 868 624 843T586 800T554 782Z" />
<glyph unicode="&#xc4;" horiz-adv-x="710" d="M158 0Q151 0 127 3T72 12T12 23T-33 34Q-31 42 -27 49T-18 59H-9Q0 59 12 64T42 87T81 141T132 240L322 646Q332 655 351 667T393 692T435 712T465 720Q478 720 495 711T530 688T559 661L577 87Q578 73 581 68T598
62L656 57Q659 53 660 48T659 34Q649 26 635 18T607 5T581 0Q574 0 556 3T515 11T468 21T426 31T399 39Q401 47 405 53T414 64H443Q456 64 467 66T485 80T491 118L487 287H225L159 143Q140 101 121 86T94 68L232 56Q235 53 236 47T235 33Q227 25 213 18T185 5T158
0ZM250 343Q303 343 349 344T431 348T486 353L480 618Q461 632 440 642T395 654L250 343ZM553 780Q544 780 533 793T512 823T503 851Q503 860 514 871T542 891T573 907T596 914Q606 914 616 901T634 870T642 841Q642 833 632 823T607 803T577 787T553 780ZM356
780Q347 780 336 793T315 823T306 851Q306 860 317 871T345 891T376 907T400 914Q409 914 419 901T437 870T445 841Q445 833 435 823T410 803T380 787T356 780Z" />
<glyph unicode="&#xc5;" horiz-adv-x="710" d="M158 0Q151 0 127 3T72 12T12 23T-33 34Q-31 42 -27 49T-18 59H-9Q0 59 12 64T42 87T81 141T132 240L322 646Q332 655 351 667T393 692T435 712T465 720Q478 720 495 711T530 688T559 661L577 87Q578 73 581 68T598
62L656 57Q659 53 660 48T659 34Q649 26 635 18T607 5T581 0Q574 0 556 3T515 11T468 21T426 31T399 39Q401 47 405 53T414 64H443Q456 64 467 66T485 80T491 118L487 287H225L159 143Q140 101 121 86T94 68L232 56Q235 53 236 47T235 33Q227 25 213 18T185 5T158
0ZM250 343Q303 343 349 344T431 348T486 353L480 618Q461 632 440 642T395 654L250 343ZM463 768Q423 768 398 791T372 851Q372 881 387 905T429 944T486 959Q527 959 552 936T578 875Q578 845 563 821T521 783T463 768ZM469 817Q494 817 509 832T524 870Q524
889 513 899T481 910Q456 910 441 895T425 856Q425 838 437 828T469 817Z" />
<glyph unicode="&#xc6;" horiz-adv-x="932" d="M158 0Q151 0 127 3T72 12T13 23T-33 34Q-31 42 -27 50T-18 61H-5Q5 61 17 67T46 92T84 146T134 239L326 633Q335 642 352 654T390 677T428 696T456 704H837Q863 696 888 680T925 648Q909 591 892 548T863 483Q846
483 831 486T809 494L811 633Q798 636 777 639T730 644T680 649T631 651Q597 651 581 647T560 631T556 590L561 382Q604 387 647 393T728 405T787 417L796 407Q791 388 784 369T770 339L565 317L570 152Q571 127 567 111T555 86T541 72H757L841 239Q860 239 874
233T892 222Q886 190 878 157T862 95T847 46Q837 38 819 27T783 8T754 0Q728 0 689 2T605 8T517 16T439 25T384 34Q386 45 391 51T399 61L426 64Q439 66 453 70T478 89T487 136L482 307L232 284L164 143Q147 108 129 90T100 69L237 58Q239 55 240 50T240 33Q231
25 216 17T185 5T158 0ZM257 343Q287 346 323 349T399 358T479 368L473 640Q460 640 436 636T390 624L257 343Z" />
<glyph unicode="&#xc7;" horiz-adv-x="628" d="M282 0Q256 0 225 9T163 34T110 67T75 102Q66 116 61 141T56 202Q56 236 62 280T79 373T103 467T132 550T163 610Q189 630 223 649T298 685T379 710T458 720Q496 720 534 711T604 687T656 656Q643 600 626 553T597
483Q576 483 561 486T541 493L543 616Q533 622 511 628T464 640T424 645Q401 645 373 641T316 628T265 611Q246 579 228 531T195 426T172 316T163 217Q163 197 165 178T171 143Q177 134 193 122T231 99T275 81T316 73Q339 73 362 74T403 79T433 84L514 242Q531
242 547 236T571 225Q566 205 558 176T542 117T527 68Q505 55 469 39T386 12T282 0ZM242 -200Q235 -200 223 -196T200 -187T187 -176Q190 -167 190 -166T195 -156Q224 -156 247 -155T293 -149Q299 -138 303 -126T310 -103Q301 -95 276 -85T232 -70Q231 -65 228
-56T227 -35Q237 -21 252 1T279 37H316L283 -37Q306 -41 327 -50T363 -70T378 -90Q378 -97 372 -112T358 -143T343 -166Q327 -176 307 -183T269 -195T242 -200Z" />
<glyph unicode="&#xc8;" horiz-adv-x="604" d="M407 0Q376 0 332 2T239 7T141 15T53 25T-10 34Q-8 42 -4 49T5 59L35 63Q59 66 71 76T91 106T105 164L184 570Q192 607 202 627T219 652H121Q119 654 116 659T113 671Q120 678 134 685T161 698T180 704H540Q563 696
587 681T624 649Q614 613 604 580T582 523T559 491Q549 484 535 489T516 498L518 635Q501 639 474 643T413 650T344 653Q319 653 304 641T282 611T270 571L234 389Q275 389 311 392T380 399T443 406L453 393Q448 371 442 356T431 334H223L185 139Q180 113 171 96T154
70H414L498 234Q514 234 527 229T540 217Q538 191 530 158T512 95T495 46Q485 38 468 27T435 8T407 0ZM462 769L298 902Q305 917 319 932T348 956T369 966Q378 966 398 945T446 885T499 794Q495 790 484 781T462 769Z" />
<glyph unicode="&#xc9;" horiz-adv-x="604" d="M407 0Q376 0 332 2T239 7T141 15T53 25T-10 34Q-8 42 -4 49T5 59L35 63Q59 66 71 76T91 106T105 164L184 570Q192 607 202 627T219 652H121Q119 654 116 659T113 671Q120 678 134 685T161 698T180 704H540Q563 696
587 681T624 649Q614 613 604 580T582 523T559 491Q549 484 535 489T516 498L518 635Q501 639 474 643T413 650T344 653Q319 653 304 641T282 611T270 571L234 389Q275 389 311 392T380 399T443 406L453 393Q448 371 442 356T431 334H223L185 139Q180 113 171 96T154
70H414L498 234Q514 234 527 229T540 217Q538 191 530 158T512 95T495 46Q485 38 468 27T435 8T407 0ZM359 769Q349 772 340 780T329 796Q366 846 400 884T461 944T497 966Q505 966 518 956T541 932T553 902L359 769Z" />
<glyph unicode="&#xca;" horiz-adv-x="604" d="M407 0Q376 0 332 2T239 7T141 15T53 25T-10 34Q-8 42 -4 49T5 59L35 63Q59 66 71 76T91 106T105 164L184 570Q192 607 202 627T219 652H121Q119 654 116 659T113 671Q120 678 134 685T161 698T180 704H540Q563 696
587 681T624 649Q614 613 604 580T582 523T559 491Q549 484 535 489T516 498L518 635Q501 639 474 643T413 650T344 653Q319 653 304 641T282 611T270 571L234 389Q275 389 311 392T380 399T443 406L453 393Q448 371 442 356T431 334H223L185 139Q180 113 171 96T154
70H414L498 234Q514 234 527 229T540 217Q538 191 530 158T512 95T495 46Q485 38 468 27T435 8T407 0ZM292 769Q282 774 274 780T264 794Q308 844 342 882T400 943T436 966Q448 966 463 944T499 883T542 794Q537 787 531 780T513 769L424 871L292 769Z" />
<glyph unicode="&#xcb;" horiz-adv-x="604" d="M407 0Q376 0 332 2T239 7T141 15T53 25T-10 34Q-8 42 -4 49T5 59L35 63Q59 66 71 76T91 106T105 164L184 570Q192 607 202 627T219 652H121Q119 654 116 659T113 671Q120 678 134 685T161 698T180 704H540Q563 696
587 681T624 649Q614 613 604 580T582 523T559 491Q549 484 535 489T516 498L518 635Q501 639 474 643T413 650T344 653Q319 653 304 641T282 611T270 571L234 389Q275 389 311 392T380 399T443 406L453 393Q448 371 442 356T431 334H223L185 139Q180 113 171 96T154
70H414L498 234Q514 234 527 229T540 217Q538 191 530 158T512 95T495 46Q485 38 468 27T435 8T407 0ZM494 780Q485 780 474 793T453 823T444 851Q444 860 455 871T483 891T514 907T537 914Q547 914 557 901T575 870T583 841Q583 833 573 823T548 803T518 787T494
780ZM297 780Q288 780 277 793T256 823T247 851Q247 860 258 871T286 891T317 907T341 914Q350 914 360 901T378 870T386 841Q386 833 376 823T351 803T321 787T297 780Z" />
<glyph unicode="&#xcc;" horiz-adv-x="336" d="M174 0Q167 0 149 2T107 9T59 17T17 26T-10 34Q-8 42 -4 49T5 59L35 63Q60 67 72 76T91 107T105 164L185 573Q195 620 205 635T218 652H121Q119 655 117 659T113 671Q120 678 134 685T161 698T180 704H375Q379 700
383 691T387 670L337 657Q303 649 291 630T270 571L185 136Q180 111 171 93T154 68L254 57Q257 53 259 46T261 34Q245 21 219 11T174 0ZM331 769L167 902Q174 917 188 932T217 956T238 966Q247 966 267 945T315 885T368 794Q364 790 353 781T331 769Z" />
<glyph unicode="&#xcd;" horiz-adv-x="336" d="M174 0Q167 0 149 2T107 9T59 17T17 26T-10 34Q-8 42 -4 49T5 59L35 63Q60 67 72 76T91 107T105 164L185 573Q195 620 205 635T218 652H121Q119 655 117 659T113 671Q120 678 134 685T161 698T180 704H375Q379 700
383 691T387 670L337 657Q303 649 291 630T270 571L185 136Q180 111 171 93T154 68L254 57Q257 53 259 46T261 34Q245 21 219 11T174 0ZM228 769Q218 772 209 780T198 796Q235 846 269 884T330 944T366 966Q374 966 387 956T410 932T422 902L228 769Z" />
<glyph unicode="&#xce;" horiz-adv-x="336" d="M174 0Q167 0 149 2T107 9T59 17T17 26T-10 34Q-8 42 -4 49T5 59L35 63Q60 67 72 76T91 107T105 164L185 573Q195 620 205 635T218 652H121Q119 655 117 659T113 671Q120 678 134 685T161 698T180 704H375Q379 700
383 691T387 670L337 657Q303 649 291 630T270 571L185 136Q180 111 171 93T154 68L254 57Q257 53 259 46T261 34Q245 21 219 11T174 0ZM161 769Q151 774 143 780T133 794Q177 844 211 882T269 943T305 966Q317 966 332 944T368 883T411 794Q406 787 400 780T382
769L293 871L161 769Z" />
<glyph unicode="&#xcf;" horiz-adv-x="336" d="M174 0Q167 0 149 2T107 9T59 17T17 26T-10 34Q-8 42 -4 49T5 59L35 63Q60 67 72 76T91 107T105 164L185 573Q195 620 205 635T218 652H121Q119 655 117 659T113 671Q120 678 134 685T161 698T180 704H375Q379 700
383 691T387 670L337 657Q303 649 291 630T270 571L185 136Q180 111 171 93T154 68L254 57Q257 53 259 46T261 34Q245 21 219 11T174 0ZM363 780Q354 780 343 793T322 823T313 851Q313 860 324 871T352 891T383 907T406 914Q416 914 426 901T444 870T452 841Q452
833 442 823T417 803T387 787T363 780ZM166 780Q157 780 146 793T125 823T116 851Q116 860 127 871T155 891T186 907T210 914Q219 914 229 901T247 870T255 841Q255 833 245 823T220 803T190 787T166 780Z" />
<glyph unicode="&#xd0;" horiz-adv-x="700" d="M46 325Q51 348 56 359T66 373L144 375L227 382Q281 382 331 386T426 395L434 387Q428 363 422 348T411 325H216H134H46ZM378 0Q350 0 309 2T222 8T131 16T49 25T-11 34Q-9 42 -5 49T4 61L34 65Q56 68 69 78T90 109T104
166L179 568Q187 608 199 627T218 650H120Q117 654 115 659T113 671Q120 678 134 685T161 698T181 704H541Q559 699 578 690T615 670T649 646T672 621Q680 602 683 576T687 523Q687 475 677 414T651 291T612 178T566 97Q549 82 526 67T476 39T424 15T378 0ZM165
72H434Q458 85 479 123T519 213T552 323T573 433T581 522Q581 560 574 586T551 630Q534 634 503 638T433 646T354 650Q326 650 311 638T289 608T278 569L195 141Q190 115 181 98T165 72Z" />
<glyph unicode="&#xd1;" horiz-adv-x="742" d="M176 0Q167 0 143 3T88 12T30 24T-11 34Q-9 42 -5 49T4 61L34 65Q54 68 66 77T88 109T105 173L182 570Q189 606 199 626T217 650H120Q119 654 116 659T114 672Q121 679 135 686T162 699T181 704H304L547 122Q549
150 552 178T560 235T570 291L625 565Q632 597 642 619T659 646H558Q556 649 554 655T551 667Q558 674 572 682T601 697T620 704H797Q800 700 804 690T808 668L759 654Q739 649 727 641T706 614T691 559L618 194Q605 130 601 89T597 29Q586 20 570 14T538 4T509
0L299 502Q284 538 278 565T271 606H261Q260 603 258 595T252 575T245 544L165 139Q159 113 151 96T136 73L260 59Q263 55 265 48T267 34Q248 19 220 10T176 0ZM566 782Q554 782 524 792T458 817T392 845L317 787Q313 789 306 793T295 808Q310 830 329 851T367
888T398 903Q411 903 441 894T508 871T575 845L648 912Q656 909 662 903T671 892Q656 868 636 843T598 800T566 782Z" />
<glyph unicode="&#xd2;" horiz-adv-x="679" d="M274 0Q248 0 218 9T158 33T107 66T73 100Q63 116 59 140T54 195Q54 231 61 277T80 373T106 470T136 554T166 612Q188 629 219 647T287 682T368 709T457 720Q481 720 511 712T570 689T622 658T658 623Q665 608 668
587T671 541Q671 504 664 456T645 357T617 257T585 170T554 111Q527 88 483 62T386 18T274 0ZM308 70Q339 70 370 78T427 98T464 117Q481 142 496 179T525 261T549 353T565 444T571 525Q571 539 570 553T567 579Q565 586 550 597T512 621T464 641T417 649Q389 649
360 643T304 629T256 611Q237 577 218 526T185 415T161 300T152 198Q152 181 153 168T157 143Q164 132 181 120T221 96T267 77T308 70ZM504 769L340 902Q347 917 361 932T390 956T411 966Q420 966 440 945T488 885T541 794Q537 790 526 781T504 769Z" />
<glyph unicode="&#xd3;" horiz-adv-x="679" d="M274 0Q248 0 218 9T158 33T107 66T73 100Q63 116 59 140T54 195Q54 231 61 277T80 373T106 470T136 554T166 612Q188 629 219 647T287 682T368 709T457 720Q481 720 511 712T570 689T622 658T658 623Q665 608 668
587T671 541Q671 504 664 456T645 357T617 257T585 170T554 111Q527 88 483 62T386 18T274 0ZM308 70Q339 70 370 78T427 98T464 117Q481 142 496 179T525 261T549 353T565 444T571 525Q571 539 570 553T567 579Q565 586 550 597T512 621T464 641T417 649Q389 649
360 643T304 629T256 611Q237 577 218 526T185 415T161 300T152 198Q152 181 153 168T157 143Q164 132 181 120T221 96T267 77T308 70ZM401 769Q391 772 382 780T371 796Q408 846 442 884T503 944T539 966Q547 966 560 956T583 932T595 902L401 769Z" />
<glyph unicode="&#xd4;" horiz-adv-x="679" d="M274 0Q248 0 218 9T158 33T107 66T73 100Q63 116 59 140T54 195Q54 231 61 277T80 373T106 470T136 554T166 612Q188 629 219 647T287 682T368 709T457 720Q481 720 511 712T570 689T622 658T658 623Q665 608 668
587T671 541Q671 504 664 456T645 357T617 257T585 170T554 111Q527 88 483 62T386 18T274 0ZM308 70Q339 70 370 78T427 98T464 117Q481 142 496 179T525 261T549 353T565 444T571 525Q571 539 570 553T567 579Q565 586 550 597T512 621T464 641T417 649Q389 649
360 643T304 629T256 611Q237 577 218 526T185 415T161 300T152 198Q152 181 153 168T157 143Q164 132 181 120T221 96T267 77T308 70ZM334 769Q324 774 316 780T306 794Q350 844 384 882T442 943T478 966Q490 966 505 944T541 883T584 794Q579 787 573 780T555
769L466 871L334 769Z" />
<glyph unicode="&#xd5;" horiz-adv-x="679" d="M274 0Q248 0 218 9T158 33T107 66T73 100Q63 116 59 140T54 195Q54 231 61 277T80 373T106 470T136 554T166 612Q188 629 219 647T287 682T368 709T457 720Q481 720 511 712T570 689T622 658T658 623Q665 608 668
587T671 541Q671 504 664 456T645 357T617 257T585 170T554 111Q527 88 483 62T386 18T274 0ZM308 70Q339 70 370 78T427 98T464 117Q481 142 496 179T525 261T549 353T565 444T571 525Q571 539 570 553T567 579Q565 586 550 597T512 621T464 641T417 649Q389 649
360 643T304 629T256 611Q237 577 218 526T185 415T161 300T152 198Q152 181 153 168T157 143Q164 132 181 120T221 96T267 77T308 70ZM537 782Q525 782 495 792T429 817T363 845L288 787Q284 789 277 793T266 808Q281 830 300 851T338 888T369 903Q382 903 412
894T479 871T546 845L619 912Q627 909 633 903T642 892Q627 868 607 843T569 800T537 782Z" />
<glyph unicode="&#xd6;" horiz-adv-x="679" d="M274 0Q248 0 218 9T158 33T107 66T73 100Q63 116 59 140T54 195Q54 231 61 277T80 373T106 470T136 554T166 612Q188 629 219 647T287 682T368 709T457 720Q481 720 511 712T570 689T622 658T658 623Q665 608 668
587T671 541Q671 504 664 456T645 357T617 257T585 170T554 111Q527 88 483 62T386 18T274 0ZM308 70Q339 70 370 78T427 98T464 117Q481 142 496 179T525 261T549 353T565 444T571 525Q571 539 570 553T567 579Q565 586 550 597T512 621T464 641T417 649Q389 649
360 643T304 629T256 611Q237 577 218 526T185 415T161 300T152 198Q152 181 153 168T157 143Q164 132 181 120T221 96T267 77T308 70ZM536 780Q527 780 516 793T495 823T486 851Q486 860 497 871T525 891T556 907T579 914Q589 914 599 901T617 870T625 841Q625
833 615 823T590 803T560 787T536 780ZM339 780Q330 780 319 793T298 823T289 851Q289 860 300 871T328 891T359 907T383 914Q392 914 402 901T420 870T428 841Q428 833 418 823T393 803T363 787T339 780Z" />
<glyph unicode="&#xd7;" horiz-adv-x="488" d="M76 110Q63 118 56 128T47 148L214 294L106 437Q117 450 134 462T164 480L263 337Q298 368 327 394T380 442T417 479Q432 470 443 456T457 428L292 294L389 148Q383 139 372 128T347 110L244 253L76 110Z" />
<glyph unicode="&#xd8;" horiz-adv-x="679" d="M144 -95Q125 -95 112 -89T93 -76L406 513Q436 566 467 623T525 730T569 812Q594 809 608 799T624 781L144 -95ZM274 0Q248 0 218 9T158 33T107 66T73 100Q63 116 59 140T54 195Q54 231 61 277T80 373T106 470T136
554T166 612Q188 629 219 647T287 682T368 709T457 720Q481 720 511 712T570 689T622 658T658 623Q665 608 668 587T671 541Q671 504 664 456T645 357T617 257T585 170T554 111Q527 88 483 62T386 18T274 0ZM308 70Q339 70 370 78T427 98T464 117Q481 142 496 179T525
261T549 353T565 444T571 525Q571 539 570 553T567 579Q565 586 550 597T512 621T464 641T417 649Q389 649 360 643T304 629T256 611Q237 577 218 526T185 415T161 300T152 198Q152 181 153 168T157 143Q164 132 181 120T221 96T267 77T308 70Z" />
<glyph unicode="&#xd9;" horiz-adv-x="698" d="M329 0Q296 0 262 8T197 29T142 58T103 87T89 111L177 570Q185 605 195 626T213 652H115Q113 654 110 659T107 671Q114 678 127 685T154 698T174 704H368Q372 700 376 691T380 670L332 657Q301 649 287 633T264 571L178
134Q183 125 202 113T249 90T301 72T344 64Q368 64 400 77T460 107T500 136L586 570Q594 608 604 628T621 652H524Q522 654 519 659T516 671Q523 678 537 685T564 698T583 704H755Q758 700 762 691T766 670L716 656Q694 650 682 640T662 612T648 561L562 115Q553
102 527 83T465 44T393 13T329 0ZM523 769L359 902Q366 917 380 932T409 956T430 966Q439 966 459 945T507 885T560 794Q556 790 545 781T523 769Z" />
<glyph unicode="&#xda;" horiz-adv-x="698" d="M329 0Q296 0 262 8T197 29T142 58T103 87T89 111L177 570Q185 605 195 626T213 652H115Q113 654 110 659T107 671Q114 678 127 685T154 698T174 704H368Q372 700 376 691T380 670L332 657Q301 649 287 633T264 571L178
134Q183 125 202 113T249 90T301 72T344 64Q368 64 400 77T460 107T500 136L586 570Q594 608 604 628T621 652H524Q522 654 519 659T516 671Q523 678 537 685T564 698T583 704H755Q758 700 762 691T766 670L716 656Q694 650 682 640T662 612T648 561L562 115Q553
102 527 83T465 44T393 13T329 0ZM420 769Q410 772 401 780T390 796Q427 846 461 884T522 944T558 966Q566 966 579 956T602 932T614 902L420 769Z" />
<glyph unicode="&#xdb;" horiz-adv-x="698" d="M329 0Q296 0 262 8T197 29T142 58T103 87T89 111L177 570Q185 605 195 626T213 652H115Q113 654 110 659T107 671Q114 678 127 685T154 698T174 704H368Q372 700 376 691T380 670L332 657Q301 649 287 633T264 571L178
134Q183 125 202 113T249 90T301 72T344 64Q368 64 400 77T460 107T500 136L586 570Q594 608 604 628T621 652H524Q522 654 519 659T516 671Q523 678 537 685T564 698T583 704H755Q758 700 762 691T766 670L716 656Q694 650 682 640T662 612T648 561L562 115Q553
102 527 83T465 44T393 13T329 0ZM353 769Q343 774 335 780T325 794Q369 844 403 882T461 943T497 966Q509 966 524 944T560 883T603 794Q598 787 592 780T574 769L485 871L353 769Z" />
<glyph unicode="&#xdc;" horiz-adv-x="698" d="M329 0Q296 0 262 8T197 29T142 58T103 87T89 111L177 570Q185 605 195 626T213 652H115Q113 654 110 659T107 671Q114 678 127 685T154 698T174 704H368Q372 700 376 691T380 670L332 657Q301 649 287 633T264 571L178
134Q183 125 202 113T249 90T301 72T344 64Q368 64 400 77T460 107T500 136L586 570Q594 608 604 628T621 652H524Q522 654 519 659T516 671Q523 678 537 685T564 698T583 704H755Q758 700 762 691T766 670L716 656Q694 650 682 640T662 612T648 561L562 115Q553
102 527 83T465 44T393 13T329 0ZM555 780Q546 780 535 793T514 823T505 851Q505 860 516 871T544 891T575 907T598 914Q608 914 618 901T636 870T644 841Q644 833 634 823T609 803T579 787T555 780ZM358 780Q349 780 338 793T317 823T308 851Q308 860 319 871T347
891T378 907T402 914Q411 914 421 901T439 870T447 841Q447 833 437 823T412 803T382 787T358 780Z" />
<glyph unicode="&#xdd;" horiz-adv-x="647" d="M341 0Q334 0 316 2T272 9T222 17T177 26T149 34Q151 42 154 48T162 61L194 65Q215 68 227 75T247 104T264 167L293 306L172 619Q167 633 159 641T128 650H88Q86 652 83 657T80 671Q86 678 100 685T129 698T151 704H370Q375
697 378 689T380 668L321 656Q299 652 285 643T270 613Q270 609 271 601T276 584L354 365H357Q390 428 423 484T486 585T541 661T585 704H722Q726 699 730 691T733 669L681 654Q662 648 642 634T597 594T542 528T473 430T386 294L354 138Q349 112 340 95T324 70L423
59Q424 58 427 51T430 34Q414 21 388 11T341 0ZM384 769Q374 772 365 780T354 796Q391 846 425 884T486 944T522 966Q530 966 543 956T566 932T578 902L384 769Z" />
<glyph unicode="&#xde;" horiz-adv-x="584" d="M171 0Q165 0 147 2T106 9T59 17T16 26T-11 33Q-9 42 -5 48T4 59L33 63Q55 66 68 75T89 106T104 162L183 571Q191 612 201 630T215 652H120Q117 656 115 660T114 672Q121 679 134 686T161 699T180 704H380Q382 699
385 691T386 669L340 656Q325 652 312 645T288 622T271 570L265 541H469Q490 534 511 522T551 496T582 463Q584 455 585 447T586 430Q586 400 577 365T552 299T519 253Q499 237 463 216T383 187H195L184 134Q179 109 171 93T154 68L255 57Q257 55 258 47T258 33Q242
21 217 11T171 0ZM206 244Q276 244 334 248T427 257Q443 275 456 303T476 362T484 419Q484 436 481 449T473 469Q456 476 427 480T369 487T321 489Q290 489 274 479T251 452T239 410L206 244Z" />
<glyph unicode="&#xdf;" horiz-adv-x="591" d="M-92 -200Q-99 -200 -109 -197T-132 -189T-153 -179T-168 -168Q-168 -160 -166 -155T-161 -147Q-126 -142 -85 -132T-13 -105Q-7 -93 0 -73T15 -25T31 34T47 97T62 161Q80 240 96 305T129 447L50 459Q50 469 52 479T56
493L130 501Q141 503 145 507T153 524L163 713Q176 727 195 740T237 764T282 783T322 795T350 800Q385 800 420 791T486 769T534 744T552 725Q548 690 543 652T530 579T517 516T505 473Q462 460 429 456T385 445Q375 430 367 393T358 320Q368 311 393 301T449 279T503
254T534 225Q537 204 534 176T524 121T507 80Q494 64 473 50T427 24T376 7T328 0Q310 0 291 8T253 28T222 53T206 75Q212 100 223 125T246 169T264 196Q271 196 278 195T291 191T302 185Q300 176 297 161T291 130T285 97Q298 84 318 72T367 60Q381 60 396 63T423
72Q431 80 437 95T448 130T453 166T452 193Q450 199 432 207T389 225T339 247T295 269T274 291Q274 304 277 332T286 389T305 433Q317 448 346 467T416 510T507 559L465 503Q466 539 466 577T466 647T461 701T450 726Q442 729 420 729T371 729T316 725T269 720T243
715L219 500L84 -87Q78 -99 57 -118T8 -156T-47 -187T-92 -200Z" />
<glyph unicode="&#xe0;" horiz-adv-x="526" d="M152 0Q137 0 117 9T76 31T42 56T26 75Q26 112 33 156T52 244T76 325T97 386T110 415Q115 422 129 435T161 464T195 489T220 500Q239 500 265 492T323 469T384 439L388 500Q429 500 448 488T467 449Q467 435 456
385T426 256T380 73L391 66Q402 77 416 96T446 136T472 176Q481 176 488 172T498 163Q493 142 480 115T449 61T414 17T379 0Q364 0 344 8T307 28T288 46L343 225Q349 244 354 259T363 284T371 301L366 304Q349 270 328 229T282 148T235 74T190 20T152 0ZM172 81Q176
81 190 98T225 145T268 208T312 278T351 343T377 391Q328 407 282 414T199 423Q188 411 177 381T155 311T136 231T122 161T117 119Q127 105 145 93T172 81ZM391 565L235 696Q242 710 256 724T284 748T305 758Q314 758 333 737T378 678T427 589Q422 584 412 576T391
565Z" />
<glyph unicode="&#xe1;" horiz-adv-x="526" d="M152 0Q137 0 117 9T76 31T42 56T26 75Q26 112 33 156T52 244T76 325T97 386T110 415Q115 422 129 435T161 464T195 489T220 500Q239 500 265 492T323 469T384 439L388 500Q429 500 448 488T467 449Q467 435 456
385T426 256T380 73L391 66Q402 77 416 96T446 136T472 176Q481 176 488 172T498 163Q493 142 480 115T449 61T414 17T379 0Q364 0 344 8T307 28T288 46L343 225Q349 244 354 259T363 284T371 301L366 304Q349 270 328 229T282 148T235 74T190 20T152 0ZM172 81Q176
81 190 98T225 145T268 208T312 278T351 343T377 391Q328 407 282 414T199 423Q188 411 177 381T155 311T136 231T122 161T117 119Q127 105 145 93T172 81ZM293 565Q285 568 276 576T265 591Q301 640 334 677T393 736T427 758Q435 758 447 749T469 725T480 696L293
565Z" />
<glyph unicode="&#xe2;" horiz-adv-x="526" d="M152 0Q137 0 117 9T76 31T42 56T26 75Q26 112 33 156T52 244T76 325T97 386T110 415Q115 422 129 435T161 464T195 489T220 500Q239 500 265 492T323 469T384 439L388 500Q429 500 448 488T467 449Q467 435 456
385T426 256T380 73L391 66Q402 77 416 96T446 136T472 176Q481 176 488 172T498 163Q493 142 480 115T449 61T414 17T379 0Q364 0 344 8T307 28T288 46L343 225Q349 244 354 259T363 284T371 301L366 304Q349 270 328 229T282 148T235 74T190 20T152 0ZM172 81Q176
81 190 98T225 145T268 208T312 278T351 343T377 391Q328 407 282 414T199 423Q188 411 177 381T155 311T136 231T122 161T117 119Q127 105 145 93T172 81ZM232 565Q222 570 215 576T205 589Q247 639 280 677T335 736T370 758Q382 758 396 737T429 677T468 589Q464
584 458 576T440 565L358 666L232 565Z" />
<glyph unicode="&#xe3;" horiz-adv-x="526" d="M152 0Q137 0 117 9T76 31T42 56T26 75Q26 112 33 156T52 244T76 325T97 386T110 415Q115 422 129 435T161 464T195 489T220 500Q239 500 265 492T323 469T384 439L388 500Q429 500 448 488T467 449Q467 435 456
385T426 256T380 73L391 66Q402 77 416 96T446 136T472 176Q481 176 488 172T498 163Q493 142 480 115T449 61T414 17T379 0Q364 0 344 8T307 28T288 46L343 225Q349 244 354 259T363 284T371 301L366 304Q349 270 328 229T282 148T235 74T190 20T152 0ZM172 81Q176
81 190 98T225 145T268 208T312 278T351 343T377 391Q328 407 282 414T199 423Q188 411 177 381T155 311T136 231T122 161T117 119Q127 105 145 93T172 81ZM427 578Q415 578 385 588T319 613T253 641L178 583Q174 585 167 589T156 604Q171 626 190 647T228 684T259
699Q272 699 302 690T369 667T436 641L509 708Q517 705 523 699T532 688Q517 664 497 639T459 596T427 578Z" />
<glyph unicode="&#xe4;" horiz-adv-x="526" d="M152 0Q137 0 117 9T76 31T42 56T26 75Q26 112 33 156T52 244T76 325T97 386T110 415Q115 422 129 435T161 464T195 489T220 500Q239 500 265 492T323 469T384 439L388 500Q429 500 448 488T467 449Q467 435 456
385T426 256T380 73L391 66Q402 77 416 96T446 136T472 176Q481 176 488 172T498 163Q493 142 480 115T449 61T414 17T379 0Q364 0 344 8T307 28T288 46L343 225Q349 244 354 259T363 284T371 301L366 304Q349 270 328 229T282 148T235 74T190 20T152 0ZM172 81Q176
81 190 98T225 145T268 208T312 278T351 343T377 391Q328 407 282 414T199 423Q188 411 177 381T155 311T136 231T122 161T117 119Q127 105 145 93T172 81ZM235 578Q227 578 216 590T196 619T188 646Q188 655 199 665T225 685T255 701T277 707Q286 707 296 694T313
665T320 637Q320 629 310 619T286 600T258 584T235 578ZM421 578Q413 578 402 590T382 618T374 646Q374 655 384 665T410 685T440 701T462 707Q472 707 481 694T498 665T505 637Q505 629 496 619T472 600T444 584T421 578Z" />
<glyph unicode="&#xe5;" horiz-adv-x="526" d="M152 0Q137 0 117 9T76 31T42 56T26 75Q26 112 33 156T52 244T76 325T97 386T110 415Q115 422 129 435T161 464T195 489T220 500Q239 500 265 492T323 469T384 439L388 500Q429 500 448 488T467 449Q467 435 456
385T426 256T380 73L391 66Q402 77 416 96T446 136T472 176Q481 176 488 172T498 163Q493 142 480 115T449 61T414 17T379 0Q364 0 344 8T307 28T288 46L343 225Q349 244 354 259T363 284T371 301L366 304Q349 270 328 229T282 148T235 74T190 20T152 0ZM172 81Q176
81 190 98T225 145T268 208T312 278T351 343T377 391Q328 407 282 414T199 423Q188 411 177 381T155 311T136 231T122 161T117 119Q127 105 145 93T172 81ZM336 564Q296 564 271 587T245 647Q245 677 260 701T302 740T359 755Q400 755 425 732T451 671Q451 641
436 617T394 579T336 564ZM342 613Q367 613 382 628T397 666Q397 685 386 695T354 706Q329 706 314 691T298 652Q298 634 310 624T342 613Z" />
<glyph unicode="&#xe6;" horiz-adv-x="683" d="M150 0Q135 0 115 9T75 31T42 56T26 75Q25 110 32 153T51 241T75 323T97 386T110 415Q115 422 129 435T160 464T193 489T218 500Q237 500 264 491T322 469T382 439L387 500Q427 500 447 488T465 447Q491 467 528
483T603 500Q619 500 639 489T674 464T691 441Q688 419 680 397T663 354T644 321Q626 302 590 279T511 235T424 197Q420 171 418 153T414 108Q421 98 434 88T464 71T499 64Q508 64 522 77T551 111T579 149T600 177Q610 177 617 173T626 163Q614 130 592 92T535
27T452 0Q441 0 424 7T388 26T353 53T328 84Q328 99 334 136T349 218T370 301L365 304Q348 270 326 229T281 148T234 74T189 20T150 0ZM170 81Q174 81 188 98T223 145T267 208T311 278T350 343T376 391Q326 407 280 414T198 423Q187 411 176 380T154 310T134 231T121
161T116 119Q125 106 143 94T170 81ZM433 255Q467 267 498 279T555 305T601 332Q602 338 602 346T603 362Q603 379 601 398T594 430Q577 433 553 431T504 424T462 408Q454 377 447 337T433 255Z" />
<glyph unicode="&#xe7;" horiz-adv-x="375" d="M153 0Q141 0 124 7T88 26T53 53T28 84Q28 128 36 175T58 267T85 345T112 396Q122 407 142 424T190 458T248 488T313 500Q329 500 348 489T382 464T398 441Q394 407 380 374T353 320Q338 320 326 323T309 331Q309
340 309 359T307 399T303 428Q293 431 283 432T265 433Q250 433 234 430T203 419Q181 386 166 342T140 251T124 167T116 107Q123 97 138 87T171 70T202 63Q212 63 227 77T257 110T287 149T310 177Q319 177 326 173T335 163Q325 130 303 92T244 27T153 0ZM106 -200Q99
-200 87 -196T64 -187T51 -176Q54 -167 54 -166T59 -156Q88 -156 111 -155T157 -149Q163 -138 167 -126T174 -103Q165 -95 140 -85T96 -70Q95 -65 92 -56T91 -35Q101 -21 116 1T143 37H180L147 -37Q170 -41 191 -50T227 -70T242 -90Q242 -97 236 -112T222 -143T207
-166Q191 -176 171 -183T133 -195T106 -200Z" />
<glyph unicode="&#xe8;" horiz-adv-x="393" d="M153 0Q143 0 126 7T89 26T54 53T28 84Q28 129 36 176T58 267T86 343T111 394Q121 405 141 422T188 458T248 488T314 500Q330 500 350 489T385 464T401 441Q398 419 391 397T373 355T354 321Q336 303 299 280T217
235T126 197Q120 164 118 143T114 108Q121 97 136 87T170 71T200 64Q209 64 218 70T240 89T269 124T310 177Q319 177 326 173T335 163Q326 138 311 110T274 56T221 16T153 0ZM137 255Q172 268 204 281T264 309T310 337Q312 350 312 362T313 385Q313 398 312 409T308
430Q299 432 290 433T271 434Q255 434 238 431T204 420Q181 386 165 342T137 255ZM334 565L178 696Q185 710 199 724T227 748T248 758Q257 758 276 737T321 678T370 589Q365 584 355 576T334 565Z" />
<glyph unicode="&#xe9;" horiz-adv-x="393" d="M153 0Q143 0 126 7T89 26T54 53T28 84Q28 129 36 176T58 267T86 343T111 394Q121 405 141 422T188 458T248 488T314 500Q330 500 350 489T385 464T401 441Q398 419 391 397T373 355T354 321Q336 303 299 280T217
235T126 197Q120 164 118 143T114 108Q121 97 136 87T170 71T200 64Q209 64 218 70T240 89T269 124T310 177Q319 177 326 173T335 163Q326 138 311 110T274 56T221 16T153 0ZM137 255Q172 268 204 281T264 309T310 337Q312 350 312 362T313 385Q313 398 312 409T308
430Q299 432 290 433T271 434Q255 434 238 431T204 420Q181 386 165 342T137 255ZM236 565Q228 568 219 576T208 591Q244 640 277 677T336 736T370 758Q378 758 390 749T412 725T423 696L236 565Z" />
<glyph unicode="&#xea;" horiz-adv-x="393" d="M153 0Q143 0 126 7T89 26T54 53T28 84Q28 129 36 176T58 267T86 343T111 394Q121 405 141 422T188 458T248 488T314 500Q330 500 350 489T385 464T401 441Q398 419 391 397T373 355T354 321Q336 303 299 280T217
235T126 197Q120 164 118 143T114 108Q121 97 136 87T170 71T200 64Q209 64 218 70T240 89T269 124T310 177Q319 177 326 173T335 163Q326 138 311 110T274 56T221 16T153 0ZM137 255Q172 268 204 281T264 309T310 337Q312 350 312 362T313 385Q313 398 312 409T308
430Q299 432 290 433T271 434Q255 434 238 431T204 420Q181 386 165 342T137 255ZM175 565Q165 570 158 576T148 589Q190 639 223 677T278 736T313 758Q325 758 339 737T372 677T411 589Q407 584 401 576T383 565L301 666L175 565Z" />
<glyph unicode="&#xeb;" horiz-adv-x="393" d="M153 0Q143 0 126 7T89 26T54 53T28 84Q28 129 36 176T58 267T86 343T111 394Q121 405 141 422T188 458T248 488T314 500Q330 500 350 489T385 464T401 441Q398 419 391 397T373 355T354 321Q336 303 299 280T217
235T126 197Q120 164 118 143T114 108Q121 97 136 87T170 71T200 64Q209 64 218 70T240 89T269 124T310 177Q319 177 326 173T335 163Q326 138 311 110T274 56T221 16T153 0ZM137 255Q172 268 204 281T264 309T310 337Q312 350 312 362T313 385Q313 398 312 409T308
430Q299 432 290 433T271 434Q255 434 238 431T204 420Q181 386 165 342T137 255ZM178 578Q170 578 159 590T139 619T131 646Q131 655 142 665T168 685T198 701T220 707Q229 707 239 694T256 665T263 637Q263 629 253 619T229 600T201 584T178 578ZM364 578Q356
578 345 590T325 618T317 646Q317 655 327 665T353 685T383 701T405 707Q415 707 424 694T441 665T448 637Q448 629 439 619T415 600T387 584T364 578Z" />
<glyph unicode="&#xec;" horiz-adv-x="293" d="M142 0Q126 0 106 8T69 28T50 46Q53 53 60 79T76 142T96 220T116 300T130 368T136 411Q136 423 129 427T107 431H51Q51 441 54 450T59 464Q74 471 95 479T138 494T172 500Q200 500 215 487T230 449Q230 441 227 425T217
381T200 313T176 212T143 73L153 66Q163 76 178 95T209 137T235 176Q244 176 251 172T261 163Q255 142 242 115T212 61T176 17T142 0ZM246 565L90 696Q97 710 111 724T139 748T160 758Q169 758 188 737T233 678T282 589Q277 584 267 576T246 565Z" />
<glyph unicode="&#xed;" horiz-adv-x="293" d="M142 0Q126 0 106 8T69 28T50 46Q53 53 60 79T76 142T96 220T116 300T130 368T136 411Q136 423 129 427T107 431H51Q51 441 54 450T59 464Q74 471 95 479T138 494T172 500Q200 500 215 487T230 449Q230 441 227 425T217
381T200 313T176 212T143 73L153 66Q163 76 178 95T209 137T235 176Q244 176 251 172T261 163Q255 142 242 115T212 61T176 17T142 0ZM148 565Q140 568 131 576T120 591Q156 640 189 677T248 736T282 758Q290 758 302 749T324 725T335 696L148 565Z" />
<glyph unicode="&#xee;" horiz-adv-x="293" d="M142 0Q126 0 106 8T69 28T50 46Q53 53 60 79T76 142T96 220T116 300T130 368T136 411Q136 423 129 427T107 431H51Q51 441 54 450T59 464Q74 471 95 479T138 494T172 500Q200 500 215 487T230 449Q230 441 227 425T217
381T200 313T176 212T143 73L153 66Q163 76 178 95T209 137T235 176Q244 176 251 172T261 163Q255 142 242 115T212 61T176 17T142 0ZM343 565Q333 570 326 576T316 589Q358 639 391 677T446 736T481 758Q493 758 507 737T540 677T579 589Q575 584 569 576T551
565L469 666L343 565Z" />
<glyph unicode="&#xef;" horiz-adv-x="293" d="M142 0Q126 0 106 8T69 28T50 46Q53 53 60 79T76 142T96 220T116 300T130 368T136 411Q136 423 129 427T107 431H51Q51 441 54 450T59 464Q74 471 95 479T138 494T172 500Q200 500 215 487T230 449Q230 441 227 425T217
381T200 313T176 212T143 73L153 66Q163 76 178 95T209 137T235 176Q244 176 251 172T261 163Q255 142 242 115T212 61T176 17T142 0ZM346 578Q338 578 327 590T307 619T299 646Q299 655 310 665T336 685T366 701T388 707Q397 707 407 694T424 665T431 637Q431
629 421 619T397 600T369 584T346 578ZM532 578Q524 578 513 590T493 618T485 646Q485 655 495 665T521 685T551 701T573 707Q583 707 592 694T609 665T616 637Q616 629 607 619T583 600T555 584T532 578Z" />
<glyph unicode="&#xf0;" horiz-adv-x="461" d="M149 0Q137 0 121 7T86 26T53 53T29 84Q29 128 37 177T59 272T86 355T113 408Q123 419 146 434T198 465T258 490T316 500Q328 500 344 492T375 471T399 446L358 433Q366 484 365 527T346 608T290 677T187 737Q192
751 201 763T217 779Q293 748 342 709T415 613T439 474Q439 421 431 365T409 258T381 166T352 102Q326 69 292 47T221 12T149 0ZM205 63Q213 63 221 64T239 69T258 76Q270 90 282 121T307 191T328 271T342 345T348 398Q337 410 324 418T299 431T278 436Q250 436
236 433T208 425Q186 391 170 346T143 253T125 167T118 107Q126 96 139 86T169 70T205 63ZM194 516Q181 522 174 532T165 551L329 691Q352 711 376 730T420 763T444 785Q461 778 474 764T491 741L194 516Z" />
<glyph unicode="&#xf1;" horiz-adv-x="561" d="M135 0Q125 0 111 5T82 17T57 33T44 46Q49 62 58 95T81 173T107 270Q115 300 121 330T132 383T136 411Q136 423 128 427T106 431H51Q51 439 53 448T58 464Q73 471 94 479T137 494T172 500Q200 500 215 487T230 449Q230
440 224 415T208 358T187 292T166 234T151 199L155 195Q172 229 193 269T239 350T287 425T334 479T375 500Q390 500 409 491T448 469T481 444T496 425Q496 388 488 343T468 253T443 169T421 104T409 73L421 66Q431 76 447 95T480 137T507 176Q517 176 524 172T533
163Q527 142 514 115T482 61T444 17T409 0Q393 0 374 8T339 28T321 47Q326 60 338 95T365 179T391 279T405 374Q400 384 389 392T367 407T350 413Q345 413 328 393T288 340T240 269T193 194T155 130Q151 116 149 101T146 71Q146 57 148 44T154 15Q153 12 148 8T135
0ZM437 578Q425 578 395 588T329 613T263 641L188 583Q184 585 177 589T166 604Q181 626 200 647T238 684T269 699Q282 699 312 690T379 667T446 641L519 708Q527 705 533 699T542 688Q527 664 507 639T469 596T437 578Z" />
<glyph unicode="&#xf2;" horiz-adv-x="462" d="M149 0Q137 0 121 7T86 26T53 53T29 84Q29 128 37 177T59 272T86 355T113 408Q123 419 145 434T195 465T255 490T316 500Q330 500 349 492T387 472T420 447T437 425Q437 395 429 350T409 257T381 167T352 102Q326
69 292 47T221 12T149 0ZM205 63Q213 63 221 64T239 69T258 76Q270 90 282 120T306 189T327 268T341 341T346 393Q335 405 322 414T293 430T259 436Q246 436 234 433T208 425Q186 391 170 346T143 253T125 167T118 107Q126 96 139 86T169 70T205 63ZM352 565L196
696Q203 710 217 724T245 748T266 758Q275 758 294 737T339 678T388 589Q383 584 373 576T352 565Z" />
<glyph unicode="&#xf3;" horiz-adv-x="462" d="M149 0Q137 0 121 7T86 26T53 53T29 84Q29 128 37 177T59 272T86 355T113 408Q123 419 145 434T195 465T255 490T316 500Q330 500 349 492T387 472T420 447T437 425Q437 395 429 350T409 257T381 167T352 102Q326
69 292 47T221 12T149 0ZM205 63Q213 63 221 64T239 69T258 76Q270 90 282 120T306 189T327 268T341 341T346 393Q335 405 322 414T293 430T259 436Q246 436 234 433T208 425Q186 391 170 346T143 253T125 167T118 107Q126 96 139 86T169 70T205 63ZM254 565Q246
568 237 576T226 591Q262 640 295 677T354 736T388 758Q396 758 408 749T430 725T441 696L254 565Z" />
<glyph unicode="&#xf4;" horiz-adv-x="462" d="M149 0Q137 0 121 7T86 26T53 53T29 84Q29 128 37 177T59 272T86 355T113 408Q123 419 145 434T195 465T255 490T316 500Q330 500 349 492T387 472T420 447T437 425Q437 395 429 350T409 257T381 167T352 102Q326
69 292 47T221 12T149 0ZM205 63Q213 63 221 64T239 69T258 76Q270 90 282 120T306 189T327 268T341 341T346 393Q335 405 322 414T293 430T259 436Q246 436 234 433T208 425Q186 391 170 346T143 253T125 167T118 107Q126 96 139 86T169 70T205 63ZM193 565Q183
570 176 576T166 589Q208 639 241 677T296 736T331 758Q343 758 357 737T390 677T429 589Q425 584 419 576T401 565L319 666L193 565Z" />
<glyph unicode="&#xf5;" horiz-adv-x="462" d="M149 0Q137 0 121 7T86 26T53 53T29 84Q29 128 37 177T59 272T86 355T113 408Q123 419 145 434T195 465T255 490T316 500Q330 500 349 492T387 472T420 447T437 425Q437 395 429 350T409 257T381 167T352 102Q326
69 292 47T221 12T149 0ZM205 63Q213 63 221 64T239 69T258 76Q270 90 282 120T306 189T327 268T341 341T346 393Q335 405 322 414T293 430T259 436Q246 436 234 433T208 425Q186 391 170 346T143 253T125 167T118 107Q126 96 139 86T169 70T205 63ZM388 578Q376
578 346 588T280 613T214 641L139 583Q135 585 128 589T117 604Q132 626 151 647T189 684T220 699Q233 699 263 690T330 667T397 641L470 708Q478 705 484 699T493 688Q478 664 458 639T420 596T388 578Z" />
<glyph unicode="&#xf6;" horiz-adv-x="462" d="M149 0Q137 0 121 7T86 26T53 53T29 84Q29 128 37 177T59 272T86 355T113 408Q123 419 145 434T195 465T255 490T316 500Q330 500 349 492T387 472T420 447T437 425Q437 395 429 350T409 257T381 167T352 102Q326
69 292 47T221 12T149 0ZM205 63Q213 63 221 64T239 69T258 76Q270 90 282 120T306 189T327 268T341 341T346 393Q335 405 322 414T293 430T259 436Q246 436 234 433T208 425Q186 391 170 346T143 253T125 167T118 107Q126 96 139 86T169 70T205 63ZM196 578Q188
578 177 590T157 619T149 646Q149 655 160 665T186 685T216 701T238 707Q247 707 257 694T274 665T281 637Q281 629 271 619T247 600T219 584T196 578ZM382 578Q374 578 363 590T343 618T335 646Q335 655 345 665T371 685T401 701T423 707Q433 707 442 694T459
665T466 637Q466 629 457 619T433 600T405 584T382 578Z" />
<glyph unicode="&#xf7;" horiz-adv-x="488" d="M192 47Q184 47 174 60T157 90T150 119Q150 129 161 141T189 163T220 180T243 187Q253 187 263 173T280 141T288 111Q288 102 277 91T249 70T217 54T192 47ZM263 365Q254 365 243 378T223 409T215 439Q215 448 226
459T253 481T285 498T307 505Q316 505 326 492T344 461T351 430Q351 421 341 410T316 389T287 372T263 365ZM48 249Q53 275 59 286T70 300Q127 300 194 301T328 306T446 312L455 303Q449 281 443 268T433 249H48Z" />
<glyph unicode="&#xf8;" horiz-adv-x="462" d="M131 -95Q115 -95 103 -89T85 -76L116 9Q100 16 83 27T52 54T29 84Q29 128 37 177T59 272T86 355T113 408Q125 421 152 439T213 474T284 497Q287 498 289 498T295 499Q305 526 315 553T335 608Q361 605 371 595T383
577L351 491Q370 483 388 471T420 447T437 425Q437 395 429 350T409 257T381 167T352 102Q328 72 297 51T233 17T167 1L131 -95ZM143 83L272 435Q269 436 266 436T259 436Q246 436 234 433T208 425Q186 391 170 346T143 253T125 167T118 107Q123 101 129 95T143
83ZM191 64Q194 63 197 63T205 63Q213 63 221 64T239 69T258 76Q270 90 282 120T306 189T327 268T341 341T346 393Q341 399 335 404T322 414L191 64Z" />
<glyph unicode="&#xf9;" horiz-adv-x="555" d="M185 0Q170 0 148 9T105 31T69 56T52 75Q52 104 60 145T82 230T109 313T131 380T140 415Q140 425 133 428T113 431H55Q55 441 58 450T62 464Q77 471 98 479T141 494T176 500Q199 500 215 488T231 455Q231 446 223
420T201 355T176 275T155 192T146 119Q156 106 174 94T201 81Q206 81 223 104T265 165T316 246T364 328T400 392Q404 415 406 445T410 500Q439 500 458 495T486 478T496 449Q496 435 485 385T455 256T409 73L420 66Q431 77 446 97T477 139T501 176Q510 176 517
172T527 163Q522 142 509 115T478 61T443 17T408 0Q393 0 373 8T336 28T317 46L372 225Q380 251 388 272T400 301L395 304Q378 270 357 229T313 148T267 74T223 20T185 0ZM395 565L239 696Q246 710 260 724T288 748T309 758Q318 758 337 737T382 678T431 589Q426
584 416 576T395 565Z" />
<glyph unicode="&#xfa;" horiz-adv-x="555" d="M185 0Q170 0 148 9T105 31T69 56T52 75Q52 104 60 145T82 230T109 313T131 380T140 415Q140 425 133 428T113 431H55Q55 441 58 450T62 464Q77 471 98 479T141 494T176 500Q199 500 215 488T231 455Q231 446 223
420T201 355T176 275T155 192T146 119Q156 106 174 94T201 81Q206 81 223 104T265 165T316 246T364 328T400 392Q404 415 406 445T410 500Q439 500 458 495T486 478T496 449Q496 435 485 385T455 256T409 73L420 66Q431 77 446 97T477 139T501 176Q510 176 517
172T527 163Q522 142 509 115T478 61T443 17T408 0Q393 0 373 8T336 28T317 46L372 225Q380 251 388 272T400 301L395 304Q378 270 357 229T313 148T267 74T223 20T185 0ZM297 565Q289 568 280 576T269 591Q305 640 338 677T397 736T431 758Q439 758 451 749T473
725T484 696L297 565Z" />
<glyph unicode="&#xfb;" horiz-adv-x="555" d="M185 0Q170 0 148 9T105 31T69 56T52 75Q52 104 60 145T82 230T109 313T131 380T140 415Q140 425 133 428T113 431H55Q55 441 58 450T62 464Q77 471 98 479T141 494T176 500Q199 500 215 488T231 455Q231 446 223
420T201 355T176 275T155 192T146 119Q156 106 174 94T201 81Q206 81 223 104T265 165T316 246T364 328T400 392Q404 415 406 445T410 500Q439 500 458 495T486 478T496 449Q496 435 485 385T455 256T409 73L420 66Q431 77 446 97T477 139T501 176Q510 176 517
172T527 163Q522 142 509 115T478 61T443 17T408 0Q393 0 373 8T336 28T317 46L372 225Q380 251 388 272T400 301L395 304Q378 270 357 229T313 148T267 74T223 20T185 0ZM236 565Q226 570 219 576T209 589Q251 639 284 677T339 736T374 758Q386 758 400 737T433
677T472 589Q468 584 462 576T444 565L362 666L236 565Z" />
<glyph unicode="&#xfc;" horiz-adv-x="555" d="M185 0Q170 0 148 9T105 31T69 56T52 75Q52 104 60 145T82 230T109 313T131 380T140 415Q140 425 133 428T113 431H55Q55 441 58 450T62 464Q77 471 98 479T141 494T176 500Q199 500 215 488T231 455Q231 446 223
420T201 355T176 275T155 192T146 119Q156 106 174 94T201 81Q206 81 223 104T265 165T316 246T364 328T400 392Q404 415 406 445T410 500Q439 500 458 495T486 478T496 449Q496 435 485 385T455 256T409 73L420 66Q431 77 446 97T477 139T501 176Q510 176 517
172T527 163Q522 142 509 115T478 61T443 17T408 0Q393 0 373 8T336 28T317 46L372 225Q380 251 388 272T400 301L395 304Q378 270 357 229T313 148T267 74T223 20T185 0ZM239 578Q231 578 220 590T200 619T192 646Q192 655 203 665T229 685T259 701T281 707Q290
707 300 694T317 665T324 637Q324 629 314 619T290 600T262 584T239 578ZM425 578Q417 578 406 590T386 618T378 646Q378 655 388 665T414 685T444 701T466 707Q476 707 485 694T502 665T509 637Q509 629 500 619T476 600T448 584T425 578Z" />
<glyph unicode="&#xfd;" horiz-adv-x="475" d="M81 -200Q69 -192 57 -180T36 -156T28 -140Q28 -128 44 -110T88 -67T147 -17T209 38Q185 43 160 52T115 75T86 103Q91 126 96 159T104 228T110 298T114 361T116 405Q116 422 109 426T86 431H23Q23 437 24 443T28
455T31 464Q46 471 67 479T110 494T144 500Q174 500 188 486T203 442Q203 409 201 370T196 291T188 212T179 143Q185 136 198 129T227 116T251 111Q255 111 270 133T305 189T344 261T376 332T389 384Q389 390 378 400T350 420T319 439T295 449Q295 457 297 464T302
474Q310 480 324 486T353 496T374 500Q383 500 399 491T434 469T464 444T477 425Q477 400 465 362T431 283Q387 200 340 132T249 7T169 -98T112 -192L81 -200ZM250 565Q242 568 233 576T222 591Q258 640 291 677T350 736T384 758Q392 758 404 749T426 725T437 696L250
565Z" />
<glyph unicode="&#xfe;" horiz-adv-x="509" d="M47 -200Q22 -200 1 -187T-20 -147Q-20 -137 -8 -91T24 22T64 163Q70 183 80 227T104 330T130 451T155 568T173 663T180 714Q180 725 174 728T157 731H91Q91 741 94 750T99 764Q114 771 135 779T177 794T215 800Q244
800 261 785T279 747Q279 745 275 726T266 685Q259 652 248 607T225 511T199 411T175 319T155 249T144 213L152 208Q173 252 199 302T254 397T310 471T359 500Q374 500 394 491T434 469T467 444T482 425Q483 390 476 347T457 259T433 178T411 116T398 87Q392 79
377 65T344 36T310 11T284 0Q250 0 201 9T111 32L80 -99Q76 -115 82 -121T102 -128H171Q171 -136 169 -145T165 -161Q153 -168 131 -177T86 -193T47 -200ZM307 73Q317 84 328 114T351 184T370 262T384 332T389 375Q384 384 373 393T351 407T334 413Q330 413 314
393T276 341T230 270T185 196T149 133T132 93Q180 79 226 76T307 73Z" />
<glyph unicode="&#xff;" horiz-adv-x="475" d="M81 -200Q69 -192 57 -180T36 -156T28 -140Q28 -128 44 -110T88 -67T147 -17T209 38Q185 43 160 52T115 75T86 103Q91 126 96 159T104 228T110 298T114 361T116 405Q116 422 109 426T86 431H23Q23 437 24 443T28
455T31 464Q46 471 67 479T110 494T144 500Q174 500 188 486T203 442Q203 409 201 370T196 291T188 212T179 143Q185 136 198 129T227 116T251 111Q255 111 270 133T305 189T344 261T376 332T389 384Q389 390 378 400T350 420T319 439T295 449Q295 457 297 464T302
474Q310 480 324 486T353 496T374 500Q383 500 399 491T434 469T464 444T477 425Q477 400 465 362T431 283Q387 200 340 132T249 7T169 -98T112 -192L81 -200ZM192 578Q184 578 173 590T153 619T145 646Q145 655 156 665T182 685T212 701T234 707Q243 707 253 694T270
665T277 637Q277 629 267 619T243 600T215 584T192 578ZM378 578Q370 578 359 590T339 618T331 646Q331 655 341 665T367 685T397 701T419 707Q429 707 438 694T455 665T462 637Q462 629 453 619T429 600T401 584T378 578Z" />
<glyph unicode="&#x2013;" horiz-adv-x="532" d="M38 253Q38 276 42 289T50 304Q93 304 146 305T255 308T360 312T446 316T498 319L508 310Q508 291 505 276T497 253H38Z" />
<glyph unicode="&#x2014;" horiz-adv-x="858" d="M37 253Q38 278 42 290T50 306Q154 306 256 307T452 309T622 313T751 317T823 321L835 310Q835 290 831 275T823 253H37Z" />
<glyph unicode="&#x2018;" horiz-adv-x="193" d="M126 500Q117 500 107 513T88 545T80 576Q80 587 91 607T121 652T159 699T196 735T222 749Q233 749 242 743T256 729T260 715Q246 708 228 694T194 663T169 635Q182 629 192 616T209 588T215 563Q215 553 205 542T179
522T149 506T126 500Z" />
<glyph unicode="&#x2019;" horiz-adv-x="193" d="M114 488Q103 488 94 494T81 508T76 522Q90 529 108 543T142 574T167 602Q154 609 144 622T127 649T121 674Q121 684 131 695T157 715T187 731T210 737Q219 737 230 724T248 693T256 661Q256 650 245 630T215 585T177
538T140 502T114 488Z" />
<glyph unicode="&#x201a;" horiz-adv-x="201" d="M-2 -130Q-12 -130 -23 -124T-43 -110T-50 -96Q-37 -89 -17 -71T22 -32T52 5Q40 11 29 24T9 53T1 77Q1 86 10 97T33 117T60 133T82 140Q91 140 103 127T124 95T134 64Q134 53 123 30T95 -20T60 -73T25 -114T-2 -130Z" />
<glyph unicode="&#x201c;" horiz-adv-x="354" d="M126 500Q117 500 107 513T88 545T80 576Q80 587 91 607T121 652T159 699T196 735T222 749Q233 749 242 743T256 729T260 715Q246 708 228 694T194 663T169 635Q182 629 192 616T209 588T215 563Q215 553 205 542T179
522T149 506T126 500ZM287 500Q278 500 268 513T249 545T241 576Q241 587 252 607T282 652T320 699T357 735T383 749Q394 749 403 743T417 729T421 715Q407 708 389 694T355 663T330 635Q343 629 353 616T370 588T376 563Q376 553 366 542T340 522T310 506T287
500Z" />
<glyph unicode="&#x201d;" horiz-adv-x="354" d="M114 488Q103 488 94 494T81 508T76 522Q90 529 108 543T142 574T167 602Q154 609 144 622T127 649T121 674Q121 684 131 695T157 715T187 731T210 737Q219 737 230 724T248 693T256 661Q256 650 245 630T215 585T177
538T140 502T114 488ZM275 488Q264 488 255 494T242 508T237 522Q251 529 269 543T303 574T328 602Q315 609 305 622T288 649T282 674Q282 684 292 695T318 715T348 731T371 737Q380 737 391 724T409 693T417 661Q417 650 406 630T376 585T338 538T301 502T275
488Z" />
<glyph unicode="&#x201e;" horiz-adv-x="359" d="M-2 -130Q-12 -130 -23 -124T-43 -110T-50 -96Q-37 -89 -17 -71T22 -32T52 5Q40 11 29 24T9 53T1 77Q1 86 10 97T33 117T60 133T82 140Q91 140 103 127T124 95T134 64Q134 53 123 30T95 -20T60 -73T25 -114T-2
-130ZM156 -130Q146 -130 135 -124T115 -110T108 -96Q121 -89 141 -71T180 -32T210 5Q198 11 187 24T167 53T159 77Q159 86 168 97T191 117T218 133T240 140Q249 140 261 127T282 95T292 64Q292 53 281 30T253 -20T218 -73T183 -114T156 -130Z" />
<glyph unicode="&#x2022;" horiz-adv-x="382" d="M172 150Q159 150 143 163T110 197T84 239T73 275Q73 291 91 310T135 346T187 375T226 387Q239 387 254 374T284 339T308 297T317 261Q317 244 300 225T258 189T210 161T172 150Z" />
<glyph unicode="&#x2039;" horiz-adv-x="366" d="M226 39Q198 67 167 100T110 164T68 220T51 257Q51 265 68 283T113 325T176 377T245 431T311 480Q316 478 322 470T332 446L124 225L129 295L251 72Q242 58 236 50T226 39Z" />
<glyph unicode="&#x203a;" horiz-adv-x="366" d="M59 39Q54 41 48 49T38 73L246 294L241 224L119 447Q128 461 134 469T144 480Q173 452 203 419T260 355T302 299T319 262Q319 254 302 236T257 194T194 142T125 89T59 39Z" />
</font>
</defs>
</svg>
